<svg xmlns="http://www.w3.org/2000/svg" xmlns:xlink="http://www.w3.org/1999/xlink" width="0" height="0" style="position:absolute">

<symbol id="icon-switch" viewBox="0 0 20 11">
        <title>Fill 1910 + Fill 1912</title><g fill="#CCC" fill-rule="evenodd"><path d="M18.674 7.783H3.056l.266-.267c.305-.306.294-.787-.023-1.077-.318-.298-.822-.283-1.126.015L.66 7.975c-.17.137-.282.342-.282.57 0 .23.112.43.28.574l1.516 1.51c.157.16.366.238.575.238.197 0 .395-.07.55-.215.316-.29.327-.77.022-1.075l-.265-.268h15.617c.44 0 .795-.343.795-.764 0-.42-.357-.763-.796-.763M1.174 3.202h15.618l-.266.268c-.304.305-.293.786.024 1.077.153.144.352.213.55.213.21 0 .418-.077.574-.237l1.516-1.52c.168-.136.28-.334.28-.564 0-.23-.11-.43-.278-.565L17.674.347C17.37.05 16.866.035 16.55.332c-.317.29-.328.77-.024 1.076l.267.267H1.173c-.438 0-.795.344-.795.764 0 .42.357.762.796.762"/></g>
</symbol>
</svg>