<svg xmlns="http://www.w3.org/2000/svg" xmlns:xlink="http://www.w3.org/1999/xlink" width="0" height="0" style="position:absolute">

<symbol id="icon-camera" viewBox="0 0 29 24">
        <defs><style>.cls-1 { fill: #aaa; fill-rule: evenodd; }</style></defs><path d="M27 24H2c-1.105 0-2-.896-2-2V6c0-1.105.895-2 2-2h6.062S8 3.88 8 2.5 9.12 0 10.5 0h8C19.88 0 21 1.12 21 2.5s.062 1.5.062 1.5H27c1.104 0 2 .895 2 2v16c0 1.104-.896 2-2 2zm-12.455-4.027c3.313 0 6-2.686 6-6s-2.687-6-6-6c-3.314 0-6 2.686-6 6s2.686 6 6 6z" class="cls-1"/>
</symbol>

<symbol id="icon-check" viewBox="0 0 29 19.75">
        <defs><style>.cls-2 { stroke: #f13c34; stroke-linecap: round; stroke-width: 3px; fill: none; fill-rule: evenodd; }</style></defs><path d="M4.03 9.938l9 8.742 17-16.742" class="cls-2"/>
</symbol>
</svg>
