<svg xmlns="http://www.w3.org/2000/svg" xmlns:xlink="http://www.w3.org/1999/xlink" width="0" height="0" style="position:absolute">

<symbol id="icon-arrow" viewBox="0 0 18 20">
        <title>Shape</title><path d="M8.81.002c.295.02.584.142.81.368l7.914 7.914c.293.293.293.767 0 1.06-.293.293-.768.293-1.06 0L9.5 2.37v10.786c0 .415-.336.75-.75.75S8 13.57 8 13.156V2.34L1.28 9.06c-.293.292-.767.292-1.06 0-.293-.293-.293-.768 0-1.06L7.85.367c.25-.25.57-.37.893-.368h.007c.02 0 .04 0 .06.002zM8.75 16.5c.414 0 .75-.336.75-.75S9.164 15 8.75 15s-.75.336-.75.75.336.75.75.75zm0 2.594c.414 0 .75-.336.75-.75 0-.415-.336-.75-.75-.75s-.75.335-.75.75c0 .414.336.75.75.75z" fill="#FF5B54" fill-rule="evenodd"/>
</symbol>
</svg>