<svg xmlns="http://www.w3.org/2000/svg" xmlns:xlink="http://www.w3.org/1999/xlink" width="0" height="0" style="position:absolute">

<symbol id="app-anywhere-bg" viewBox="0 0 1036.803 178.491">
        <path fill="#E8F2D4" d="M493.242 63.51c-1.84 0-3.333-1.492-3.333-3.333s1.49-3.333 3.332-3.333h32.863c1.84 0 3.333 1.492 3.333 3.333v2.667"/><path fill="#E0685D" d="M200.482 28.72h57.75v18.083h-57.75zM200.482 74.303h57.75v18.083h-57.75z"/><path fill="none" stroke="#3E3A39" stroke-width="1.5" stroke-miterlimit="10" d="M200.482 28.72h50v64.333h-50z"/><path fill="none" stroke="#3E3A39" stroke-width="1.5" stroke-miterlimit="10" d="M200.482 28.72h53.833v64.333h-53.833z"/><path fill="none" stroke="#3E3A39" stroke-width="1.5" stroke-miterlimit="10" d="M200.482 28.72h57.75v64.333h-57.75z"/><path fill="none" stroke="#3E3A39" stroke-width="1.5" stroke-miterlimit="10" d="M211.732 32.886V24.47c0-7.088 6.1-12.833 13.625-12.833s13.625 5.746 13.625 12.833v8.417"/><path fill="none" stroke="#3E3A39" stroke-width="1.5" stroke-miterlimit="10" d="M219.227 28.72v-4.25c0-7.088 6.1-12.833 13.625-12.833s13.625 5.746 13.625 12.833v4.25"/><g fill="none" stroke="#3E3A39" stroke-width="1.5" stroke-miterlimit="10"><path d="M204.066 46.803h.75"/><path stroke-dasharray="1.5153,2.0203" d="M206.836 46.803h37.88"/><path d="M245.727 46.803h.75"/></g><g fill="none" stroke="#3E3A39" stroke-width="1.5" stroke-miterlimit="10"><path d="M204.066 74.303h.75"/><path stroke-dasharray="1.5153,2.0203" d="M206.836 74.303h37.88"/><path d="M245.727 74.303h.75"/></g><path fill="none" stroke="#3E3A39" stroke-width="1.5" stroke-miterlimit="10" d="M217.566 43.053h14.25M217.566 78.553h14.25"/><path fill="#FAEBE8" d="M292.5 154.637c0 3.13-2.537 5.67-5.668 5.67H202.17c-3.13 0-5.67-2.54-5.67-5.67v-47.16c0-3.132 2.54-5.67 5.67-5.67h84.66c3.132 0 5.67 2.538 5.67 5.67v47.16z"/><path fill="none" stroke="#323333" stroke-width="1.5" stroke-miterlimit="10" d="M292.5 154.637c0 3.13-2.537 5.67-5.668 5.67H202.17c-3.13 0-5.67-2.54-5.67-5.67v-47.16c0-3.132 2.54-5.67 5.67-5.67h84.66c3.132 0 5.67 2.538 5.67 5.67v47.16zM202.173 137.82h19.554M202.173 152.176h29.95M223.343 137.82h19.553M234.724 152.176h14.89M244.512 137.82h19.554M265.682 137.82h19.553"/><circle fill="none" stroke="#323333" stroke-width="1.5" stroke-miterlimit="10" cx="210.094" cy="120.659" r="7.673"/><path fill="none" stroke="#323333" stroke-width="1.5" stroke-miterlimit="10" d="M206.3 114.554v13.41M210.028 128.332v-14.85M213.758 127.402v-12.848M202.916 120.66h14.832"/><path fill="#E8F2D4" d="M267.543 81.25V32.9h31.707v48.35l-16.41 13.625"/><path fill="none" stroke="#323333" stroke-width="1.5" stroke-miterlimit="10" d="M267.543 81.25V32.9h31.707v48.35l-16.41 13.625z"/><path fill="#E8F2D4" d="M87.618 108.95l-12.203 5.467v45.626h32.314v-45.626l-12.204-5.467"/><path fill="none" stroke="#323333" stroke-width="1.5" stroke-miterlimit="10" d="M87.618 108.95l-12.203 5.467v45.626h32.314v-45.626l-12.204-5.467z"/><path fill="#E8F2D4" d="M9.975 35.757L1.03 44.703v48.35h31.706v-48.35l-8.946-8.946"/><path fill="none" stroke="#323333" stroke-width="1.5" stroke-miterlimit="10" d="M9.975 35.757L1.03 44.703v48.35h31.706v-48.35l-8.946-8.946z"/><path fill="#FFF" stroke="#3E3A39" stroke-width="1.5" stroke-miterlimit="10" stroke-dasharray="1.5,2" d="M4.384 50.295h24.93v32.562H4.385z"/><text transform="translate(9.28 72.096)" font-family="'Gotham-Bold'" font-size="17.013">%</text><circle fill="none" stroke="#323333" stroke-width="1.5" stroke-miterlimit="10" cx="16.85" cy="41.835" r="1.75"/><path fill="#E8F2D4" d="M182.615 57.678v32.664c0 1.566-1.27 2.835-2.835 2.835h-61.33c-1.567 0-2.836-1.27-2.836-2.835V57.678h67zM111.28 49.177h75.334v8.5H111.28z"/><path fill="none" stroke="#323333" stroke-width="1.5" stroke-miterlimit="10" d="M182.615 57.678v32.664c0 1.566-1.27 2.835-2.835 2.835h-61.33c-1.567 0-2.836-1.27-2.836-2.835V57.678h67zM111.28 49.177h75.334v8.5H111.28z"/><path fill="#E8F2D4" d="M168.463 29.572l-22.415 22.415c-1.302 1.302-1.302 3.412 0 4.714s3.412 1.303 4.714 0l22.415-22.414c1.302-1.302 1.302-3.412 0-4.714s-3.413-1.302-4.714 0z"/><path fill="none" stroke="#323333" stroke-width="1.5" stroke-miterlimit="10" d="M168.463 29.572l-22.415 22.415c-1.302 1.302-1.302 3.412 0 4.714s3.412 1.303 4.714 0l22.415-22.414c1.302-1.302 1.302-3.412 0-4.714s-3.413-1.302-4.714 0z"/><circle fill="#323333" cx="148.948" cy="53.927" r="1.636"/><path fill="none" stroke="#323333" stroke-width="1.5" stroke-miterlimit="10" d="M127.53 60.302v30.25M148.594 60.302v30.25M138.062 60.302v30.25M159.125 59.677v30.25M169.656 59.677v30.25"/><path fill="#E0685D" d="M348.306 87.61c0 2.8-2.27 5.072-5.072 5.072h-23.637c-2.8 0-5.072-2.27-5.072-5.072V63.973c0-2.8 2.27-5.072 5.072-5.072h23.637c2.8 0 5.072 2.272 5.072 5.073V87.61z"/><path fill="none" stroke="#323333" stroke-width="1.5" stroke-miterlimit="10" d="M348.306 87.61c0 2.8-2.27 5.072-5.072 5.072h-23.637c-2.8 0-5.072-2.27-5.072-5.072V63.973c0-2.8 2.27-5.072 5.072-5.072h23.637c2.8 0 5.072 2.272 5.072 5.073V87.61zM314.525 77.458h33.78M347.77 70.748h-32.71M331.416 58V38.092"/><circle fill="#E0685D" cx="345.826" cy="46.369" r="6.71"/><circle fill="none" stroke="#323333" stroke-width="1.5" stroke-miterlimit="10" cx="345.826" cy="46.369" r="6.71"/><path fill="none" stroke="#323333" stroke-width="1.5" stroke-miterlimit="10" d="M340.026 46.37h-17.22M318.568 43.238l-5.592-3.58M317.226 46.37h-6.71M319.36 48.84l-4.697 5.03"/><path fill="#FAEBE8" d="M359.274 77.79h20.8v15.534h-20.8z"/><path fill="none" stroke="#323333" stroke-width="1.5" stroke-miterlimit="10" d="M359.274 77.79h20.8v15.534h-20.8z"/><path fill="none" stroke="#323333" stroke-width="1.5" stroke-miterlimit="10" d="M361.734 64h16.327v13.792h-16.326zM359.274 85.558h20.8"/><path fill="#E0685D" d="M362.852 48.37l12.973-8.277V64h-12.973"/><path fill="none" stroke="#323333" stroke-width="1.5" stroke-miterlimit="10" d="M362.852 48.37l12.973-8.277V64h-12.973z"/><path fill="#E8F2D4" d="M342.25 157.466v-52.063c0-1.83-.52-2.487-2.352-2.487h-31.503c-1.83 0-4.145.656-4.145 2.487v52.063l7.047-5.43 6.287 5.43 6.32-5.43 6.547 5.43 5.348-5.43 6.452 5.43z"/><path fill="none" stroke="#323333" stroke-width="2" stroke-miterlimit="10" d="M342.25 157.466v-52.063c0-1.83-.52-2.487-2.352-2.487h-31.503c-1.83 0-4.145.656-4.145 2.487v52.063l7.047-5.43 6.287 5.43 6.32-5.43 6.547 5.43 5.348-5.43 6.452 5.43zM311.25 109.916h24M311.25 118.916h20"/><text transform="translate(306.6 142.71)" fill="#3E3A39" font-family="'MicrosoftYaHei'" font-size="21.868">￥</text><path fill="#E0685D" d="M42.25 25.916h56v67h-56z"/><path fill="none" stroke="#323333" stroke-width="2" stroke-miterlimit="10" d="M42.25 25.916h56v67h-56zM60.25 25.916v64"/><path fill="none" stroke="#323333" stroke-width="1.5" stroke-miterlimit="10" d="M43.597 91.568l9.433-10.33 8.533 10.33"/><path fill="none" stroke="#323333" stroke-width="2" stroke-miterlimit="10" d="M51.25 80.916v-33"/><circle fill="#FFF" stroke="#3E3A39" stroke-width="1.5" stroke-miterlimit="10" stroke-dasharray="1.5,2" cx="81.101" cy="54.514" r="9.657"/><path fill="none" stroke="#323333" stroke-width="2" stroke-miterlimit="10" d="M64.25 23.916v-6.12c0-5.953 4.547-10.723 10.5-10.723s10.5 4.882 10.5 10.836v6.007"/><path fill="none" stroke="#323333" stroke-width="2" stroke-miterlimit="10" d="M52.25 23.916v-6.12c0-5.953 5.44-10.723 11.394-10.723 2.14 0 3.83.716 5.506 1.802M73.25 70.916h18"/><path fill="#FAEBE8" d="M154.633 108.164h27.374v52.01h-27.374z"/><path fill="none" stroke="#323333" stroke-width="1.5" stroke-miterlimit="10" d="M154.633 108.164h27.374v52.01h-27.374zM505.11 108.742h27.375v52.01H505.11z"/><path fill="#E8F2D4" d="M505.11 116.612h27.375v44.14H505.11z"/><path fill="none" stroke="#323333" stroke-width="1.5" stroke-miterlimit="10" d="M505.11 116.612h27.375v44.14H505.11zM46.866 108.164H66.94v52.01H46.866z"/><path fill="#E8F2D4" d="M46.866 108.164H66.94v33.305H46.866z"/><path fill="none" stroke="#323333" stroke-width="1.5" stroke-miterlimit="10" d="M46.866 108.164H66.94v33.305H46.866zM155.43 121.394h25.78"/><circle fill="#E0685D" cx="168.32" cy="141.469" r="6.615"/><circle fill="none" stroke="#323333" stroke-width="1.5" stroke-miterlimit="10" cx="168.32" cy="141.469" r="6.615"/><path fill="none" stroke="#323333" stroke-width="1.5" stroke-miterlimit="10" d="M115.195 108.164h33.76v52.01h-33.76z"/><path fill="none" stroke="#323333" stroke-width="1.5" stroke-miterlimit="10" d="M115.195 108.164h33.76v52.01h-33.76zM1.257 108.164h39.236v52.01H1.257z"/><path fill="#FAEBE8" d="M1.257 113.482h39.236v46.693H1.257z"/><path fill="none" stroke="#323333" stroke-width="1.5" stroke-miterlimit="10" d="M1.257 113.482h39.236v46.693H1.257zM354.734 108.286h39.236v52.01h-39.236z"/><path fill="#E0685D" d="M115.195 121.394h33.76v26.69h-33.76z"/><path fill="none" stroke="#323333" stroke-width="1.5" stroke-miterlimit="10" d="M115.195 121.394h33.76v26.69h-33.76zM52.57 148.084h8.667M17.68 125.272h6.388M371.16 114.88h6.386M371.16 147.172h6.386M16.883 150.365h7.984"/><path fill="#E0685D" d="M20.875 144.68l-10.616-6.967 10.615-6.966 10.616 6.966"/><path fill="none" stroke="#323333" stroke-width="1.5" stroke-miterlimit="10" d="M20.875 144.68l-10.616-6.967 10.615-6.966 10.616 6.966z"/><path fill="#E8F2D4" d="M550.967 35.757l-8.946 8.946v48.35h31.708v-48.35l-8.946-8.946"/><path fill="none" stroke="#323333" stroke-width="1.5" stroke-miterlimit="10" d="M550.967 35.757l-8.946 8.946v48.35h31.708v-48.35l-8.946-8.946z"/><path fill="#FFF" stroke="#3E3A39" stroke-width="1.5" stroke-miterlimit="10" stroke-dasharray="1.5,2" d="M545.376 50.295h24.93v32.562h-24.93z"/><text transform="translate(550.273 72.096)" font-family="'Gotham-Bold'" font-size="17.013">%</text><circle fill="none" stroke="#323333" stroke-width="1.5" stroke-miterlimit="10" cx="557.842" cy="41.835" r="1.75"/><path fill="none" stroke="#323333" stroke-width="1.5" stroke-miterlimit="10" d="M539.256 108.186h39.236v52.01h-39.236z"/><path fill="#FAEBE8" d="M539.256 113.504h39.236v46.693h-39.236z"/><path fill="none" stroke="#323333" stroke-width="1.5" stroke-miterlimit="10" d="M539.256 113.504h39.236v46.693h-39.236zM555.68 125.294h6.388M554.883 146.387h7.984"/><path fill="#E0685D" d="M558.875 144.7l-10.616-6.965 10.615-6.966 10.616 6.965"/><path fill="none" stroke="#323333" stroke-width="1.5" stroke-miterlimit="10" d="M558.875 144.7l-10.616-6.965 10.615-6.966 10.616 6.965z"/><circle fill="#E0685D" cx="374.352" cy="135.66" r="9.581"/><circle fill="none" stroke="#323333" stroke-width="1.5" stroke-miterlimit="10" cx="374.352" cy="135.66" r="9.581"/><path fill="none" stroke="#323333" stroke-width="1.5" stroke-miterlimit="10" d="M52.57 114.78h8.667v8.667H52.57z"/><path fill="#E8F2D4" d="M399.344 109.198h20.074v52.01h-20.074z"/><path fill="none" stroke="#323333" stroke-width="1.5" stroke-miterlimit="10" d="M399.344 109.198h20.074v52.01h-20.074z"/><path fill="#E0685D" d="M399.344 121.516h20.074v14.143h-20.074z"/><path fill="none" stroke="#323333" stroke-width="1.5" stroke-miterlimit="10" d="M399.344 121.516h20.074v14.143h-20.074zM426.262 108.286h25.32v52.923h-25.32z"/><path fill="#E0685D" d="M426.262 108.286h25.32v16.653h-25.32zM426.262 143.644h25.32v16.653h-25.32z"/><path fill="none" stroke="#323333" stroke-width="1.5" stroke-miterlimit="10" d="M426.262 108.286h25.32v16.653h-25.32zM426.262 143.644h25.32v16.653h-25.32z"/><circle fill="none" stroke="#323333" stroke-width="1.5" stroke-miterlimit="10" cx="438.922" cy="134.747" r="4.334"/><path fill="#E0685D" d="M87.618 100.18h7.908v8.77h-7.908z"/><path fill="none" stroke="#323333" stroke-width="1.5" stroke-miterlimit="10" d="M87.618 100.18h7.908v8.77h-7.908z"/><path fill="#FFF" d="M80.156 119.062l6.083-2.56v10.595h-6.084"/><path fill="none" stroke="#323333" stroke-width="1.5" stroke-miterlimit="10" d="M80.156 119.062l6.083-2.56v10.595h-6.084z"/><circle fill="#E0685D" cx="91.572" cy="142.854" r="10.552"/><circle fill="none" stroke="#323333" stroke-width="1.5" stroke-miterlimit="10" cx="91.572" cy="142.854" r="10.552"/><path fill="#E0685D" d="M458.402 108.286h38.6v52.923h-38.6z"/><path fill="none" stroke="#323333" stroke-width="1.5" stroke-miterlimit="10" d="M458.402 108.286h38.6v52.923h-38.6z"/><path fill="#FAEBE8" d="M497.003 134.747l-38.6-13.23v-13.23h38.6M458.402 134.747l38.6 13.23v13.232h-38.6"/><path fill="none" stroke="#323333" stroke-width="1.5" stroke-miterlimit="10" d="M497.003 134.747l-38.6-13.23v-13.23h38.6zM458.402 134.747l38.6 13.23v13.232h-38.6z"/><path fill="none" stroke="#3E3A39" stroke-width="1.5" stroke-miterlimit="10" stroke-dasharray="1.5,2" d="M467.513 118.88l20.38 7.2M467.133 144.404l21.14 6.768"/><path fill="#E0685D" d="M511.27 128.588h15.056v15.056H511.27z"/><path fill="none" stroke="#323333" stroke-width="1.5" stroke-miterlimit="10" d="M511.27 128.588h15.056v15.056H511.27z"/><path fill="#FAEBE8" d="M389.13 41.234h92.5v50.343h-92.5z"/><path fill="none" stroke="#323333" stroke-width="1.5" stroke-miterlimit="10" d="M389.13 41.234h92.5v50.343h-92.5zM402.955 47.995V86.63M408.486 79.254v-31.26M420.867 47.995V79.78M427.19 79.78V47.556M432.72 47.556V79.78M442.028 47.556V79.78M450.458 47.556v31.698M456.78 47.556v31.698M468.02 47.556V86.19"/><path fill="#E8F2D4" d="M492.743 63.51h37.164c1.566 0 2.835 1.27 2.835 2.835v23.58c0 1.567-1.27 2.836-2.835 2.836h-37.164c-1.566 0-2.835-1.268-2.835-2.834v-29.75"/><path fill="none" stroke="#323333" stroke-width="1.5" stroke-miterlimit="10" d="M493.242 63.51h36.665c1.566 0 2.835 1.27 2.835 2.835v23.58c0 1.567-1.27 2.836-2.835 2.836h-37.164c-1.566 0-2.835-1.268-2.835-2.834v-29.75"/><path fill="none" stroke="#323333" stroke-width="1.5" stroke-miterlimit="10" d="M529.438 62.843v-2.667c0-1.84-1.492-3.333-3.333-3.333h-32.863c-1.84 0-3.333 1.492-3.333 3.333s1.49 3.333 3.332 3.333M492.66 60.677h33.832"/><path fill="#FFF" stroke="#3E3A39" stroke-width="1.5" stroke-miterlimit="10" stroke-dasharray="1.5,2" d="M492.66 67.843h37.165"/><circle fill="#FFF" cx="525.159" cy="78.01" r="2.333"/><circle fill="none" stroke="#323333" stroke-width="1.5" stroke-miterlimit="10" cx="525.159" cy="78.01" r="2.333"/><circle fill="#FFF" cx="283.397" cy="83.542" r="3.333"/><circle fill="none" stroke="#323333" stroke-width="1.5" stroke-miterlimit="10" cx="283.397" cy="83.542" r="3.333"/><path fill="#E8F2D4" d="M989.95 65.177c-1.84 0-3.333-1.492-3.333-3.333 0-1.84 1.492-3.333 3.333-3.333h32.863c1.84 0 3.333 1.493 3.333 3.334v2.667M877.06 87.75c0 3.132-2.54 5.67-5.67 5.67h-84.66c-3.132 0-5.67-2.538-5.67-5.67V40.59c0-3.13 2.538-5.67 5.67-5.67h84.66c3.13 0 5.67 2.54 5.67 5.67v47.16z"/><path fill="none" stroke="#323333" stroke-width="1.5" stroke-miterlimit="10" d="M877.06 87.75c0 3.132-2.54 5.67-5.67 5.67h-84.66c-3.132 0-5.67-2.538-5.67-5.67V40.59c0-3.13 2.538-5.67 5.67-5.67h84.66c3.13 0 5.67 2.54 5.67 5.67v47.16zM786.73 70.935h19.555M786.73 81.29h29.95M807.9 70.935h19.554M819.282 81.29h14.89M829.07 70.935h19.554M852.24 70.935h19.553"/><circle fill="none" stroke="#323333" stroke-width="1.5" stroke-miterlimit="10" cx="794.652" cy="53.774" r="7.673"/><path fill="none" stroke="#323333" stroke-width="1.5" stroke-miterlimit="10" d="M789.895 47.458v12.816M794.385 61.588v-14.85M798.905 60.586V47.03M787.474 53.774h14.832"/><path fill="#E8F2D4" d="M591.597 147.553v-48.35h31.707v48.35l-16.41 13.625"/><path fill="none" stroke="#323333" stroke-width="1.5" stroke-miterlimit="10" d="M591.597 147.553v-48.35h31.707v48.35l-16.41 13.625z"/><path fill="#E8F2D4" d="M675.854 42.367l-12.203 5.467V93.46h32.315V47.834l-12.203-5.467"/><path fill="none" stroke="#323333" stroke-width="1.5" stroke-miterlimit="10" d="M675.854 42.367l-12.203 5.467V93.46h32.315V47.834l-12.203-5.467z"/><path fill="#FAEBE8" d="M788.99 125.38v32.664c0 1.566-1.27 2.835-2.835 2.835h-61.33c-1.567 0-2.836-1.27-2.836-2.836V125.38h67zM717.656 116.878h75.333v8.5h-75.334z"/><path fill="none" stroke="#323333" stroke-width="1.5" stroke-miterlimit="10" d="M788.99 125.38v32.664c0 1.566-1.27 2.835-2.835 2.835h-61.33c-1.567 0-2.836-1.27-2.836-2.836V125.38h67zM717.656 116.878h75.333v8.5h-75.334z"/><path fill="#FAEBE8" d="M774.838 97.274l-22.415 22.415c-1.302 1.3-1.302 3.41 0 4.713s3.412 1.302 4.714 0l22.415-22.415c1.302-1.302 1.302-3.412 0-4.714s-3.413-1.302-4.714 0z"/><path fill="none" stroke="#323333" stroke-width="1.5" stroke-miterlimit="10" d="M774.838 97.274l-22.415 22.415c-1.302 1.3-1.302 3.41 0 4.713s3.412 1.302 4.714 0l22.415-22.415c1.302-1.302 1.302-3.412 0-4.714s-3.413-1.302-4.714 0z"/><circle fill="#323333" cx="755.323" cy="121.629" r="1.636"/><path fill="none" stroke="#323333" stroke-width="1.5" stroke-miterlimit="10" d="M733.906 128.003v30.25M754.97 128.003v30.25M744.438 128.003v30.25M765.5 127.378v30.25M776.03 127.378v30.25"/><path fill="#FAEBE8" d="M672.36 153.913c0 2.8-2.27 5.072-5.072 5.072H643.65c-2.8 0-5.07-2.27-5.07-5.072v-23.637c0-2.8 2.27-5.072 5.07-5.072h23.638c2.8 0 5.072 2.27 5.072 5.072v23.637z"/><path fill="none" stroke="#323333" stroke-width="1.5" stroke-miterlimit="10" d="M672.36 153.913c0 2.8-2.27 5.072-5.072 5.072H643.65c-2.8 0-5.07-2.27-5.07-5.072v-23.637c0-2.8 2.27-5.072 5.07-5.072h23.638c2.8 0 5.072 2.27 5.072 5.072v23.637zM638.58 143.76h33.78M671.825 137.05h-32.71M655.47 124.303v-19.906"/><circle fill="#E0685D" cx="669.88" cy="112.672" r="6.71"/><circle fill="none" stroke="#323333" stroke-width="1.5" stroke-miterlimit="10" cx="669.88" cy="112.672" r="6.71"/><path fill="none" stroke="#323333" stroke-width="1.5" stroke-miterlimit="10" d="M664.08 112.672h-17.22M642.622 109.54l-5.59-3.578M641.28 112.672h-6.71M643.415 115.142l-4.697 5.033"/><path fill="#E0685D" d="M683.328 144.095h20.8v15.533h-20.8z"/><path fill="none" stroke="#323333" stroke-width="1.5" stroke-miterlimit="10" d="M683.328 144.095h20.8v15.533h-20.8zM685.79 130.304h16.326v13.79H685.79zM683.552 151.86h20.8"/><path fill="#FAEBE8" d="M686.907 114.672l12.972-8.275v23.907h-12.973"/><path fill="none" stroke="#323333" stroke-width="1.5" stroke-miterlimit="10" d="M686.907 114.672l12.972-8.275v23.907h-12.973z"/><path fill="#E0685D" d="M625.25 93.466V41.403c0-1.83-.52-2.487-2.352-2.487h-31.503c-1.83 0-4.145.656-4.145 2.487v52.063l7.047-5.43 6.287 5.43 6.32-5.43 6.547 5.43 5.348-5.43 6.452 5.43z"/><path fill="none" stroke="#323333" stroke-width="2" stroke-miterlimit="10" d="M625.25 93.466V41.403c0-1.83-.52-2.487-2.352-2.487h-31.503c-1.83 0-4.145.656-4.145 2.487v52.063l7.047-5.43 6.287 5.43 6.32-5.43 6.547 5.43 5.348-5.43 6.452 5.43zM594.25 44.916h24M594.25 54.916h20"/><text transform="translate(589.6 78.71)" fill="#3E3A39" font-family="'MicrosoftYaHei'" font-size="21.868">￥</text><path fill="#E0685D" d="M797.25 113.916h39v47h-39z"/><path fill="none" stroke="#323333" stroke-width="2" stroke-miterlimit="10" d="M797.25 113.916h39v47h-39zM810.25 113.916v46"/><path fill="none" stroke="#323333" stroke-width="1.5" stroke-miterlimit="10" d="M798.2 160.967l6.645-7.28 6.012 7.28"/><path fill="none" stroke="#323333" stroke-width="2" stroke-miterlimit="10" d="M804.25 153.916v-24"/><circle fill="#FFF" stroke="#3E3A39" stroke-width="1.5" stroke-miterlimit="10" stroke-dasharray="1.5,2" cx="824.623" cy="133.86" r="6.804"/><path fill="none" stroke="#323333" stroke-width="2" stroke-miterlimit="10" d="M812.25 111.916v-3.926c0-4.194 3.306-7.555 7.5-7.555s7.5 3.44 7.5 7.634v3.846"/><path fill="none" stroke="#323333" stroke-width="2" stroke-miterlimit="10" d="M804.25 111.916v-3.926c0-4.194 3.856-7.555 8.05-7.555 1.508 0 2.686.31 3.868 1.076M819.25 145.916h13"/><path fill="#FAEBE8" d="M746.258 40.57h27.374v52.01h-27.374z"/><path fill="none" stroke="#323333" stroke-width="1.5" stroke-miterlimit="10" d="M746.258 40.57h27.374v52.01h-27.374zM998.874 108.742h27.374v52.01h-27.374z"/><path fill="#E8F2D4" d="M998.874 116.612h27.374v44.14h-27.374z"/><path fill="none" stroke="#323333" stroke-width="1.5" stroke-miterlimit="10" d="M998.874 116.612h27.374v44.14h-27.374zM635.103 41.58h20.074v52.012h-20.074z"/><path fill="#E8F2D4" d="M635.103 41.58h20.074v33.306h-20.074z"/><path fill="none" stroke="#323333" stroke-width="1.5" stroke-miterlimit="10" d="M635.103 41.58h20.074v33.306h-20.074zM747.057 53.8h25.777"/><circle fill="#E0685D" cx="759.945" cy="73.875" r="6.615"/><circle fill="none" stroke="#323333" stroke-width="1.5" stroke-miterlimit="10" cx="759.945" cy="73.875" r="6.615"/><path fill="none" stroke="#323333" stroke-width="1.5" stroke-miterlimit="10" d="M703.432 41.58h33.76v52.012h-33.76z"/><path fill="none" stroke="#323333" stroke-width="1.5" stroke-miterlimit="10" d="M703.432 41.58h33.76v52.012h-33.76zM848.498 108.286h39.236v52.01h-39.236z"/><path fill="#E0685D" d="M703.432 54.812h33.76v26.69h-33.76z"/><path fill="none" stroke="#323333" stroke-width="1.5" stroke-miterlimit="10" d="M703.432 54.812h33.76v26.69h-33.76zM636.47 77.5h8.67M864.922 114.88h6.388M864.922 147.172h6.388"/><circle fill="#E0685D" cx="868.116" cy="135.66" r="9.581"/><circle fill="none" stroke="#323333" stroke-width="1.5" stroke-miterlimit="10" cx="868.116" cy="135.66" r="9.581"/><path fill="none" stroke="#323333" stroke-width="1.5" stroke-miterlimit="10" d="M640.805 48.196h8.668v8.668h-8.668z"/><path fill="#E8F2D4" d="M893.107 109.198h20.074v52.01h-20.073z"/><path fill="none" stroke="#323333" stroke-width="1.5" stroke-miterlimit="10" d="M893.107 109.198h20.074v52.01h-20.073z"/><path fill="#E0685D" d="M893.107 121.516h20.074v14.143h-20.073z"/><path fill="none" stroke="#323333" stroke-width="1.5" stroke-miterlimit="10" d="M893.107 121.516h20.074v14.143h-20.073zM920.025 108.286h25.32v52.923h-25.32z"/><path fill="#E0685D" d="M920.025 108.286h25.32v16.653h-25.32zM920.025 143.644h25.32v16.653h-25.32z"/><path fill="none" stroke="#323333" stroke-width="1.5" stroke-miterlimit="10" d="M920.025 108.286h25.32v16.653h-25.32zM920.025 143.644h25.32v16.653h-25.32z"/><circle fill="none" stroke="#323333" stroke-width="1.5" stroke-miterlimit="10" cx="932.686" cy="134.747" r="4.334"/><path fill="#E0685D" d="M675.854 33.218h7.908v8.77h-7.908z"/><path fill="none" stroke="#323333" stroke-width="1.5" stroke-miterlimit="10" d="M675.854 33.597h7.908v8.77h-7.908z"/><path fill="#FFF" d="M668.393 52.48l6.083-2.56v10.594h-6.083"/><path fill="none" stroke="#323333" stroke-width="1.5" stroke-miterlimit="10" d="M668.393 52.48l6.083-2.56v10.594h-6.083z"/><circle fill="#E0685D" cx="679.808" cy="76.272" r="10.552"/><circle fill="none" stroke="#323333" stroke-width="1.5" stroke-miterlimit="10" cx="679.808" cy="76.272" r="10.552"/><path fill="#E0685D" d="M952.166 108.286h38.6v52.923h-38.6z"/><path fill="none" stroke="#323333" stroke-width="1.5" stroke-miterlimit="10" d="M952.166 108.286h38.6v52.923h-38.6z"/><path fill="#FAEBE8" d="M990.766 134.747l-38.6-13.23v-13.23h38.6M952.166 134.747l38.6 13.23v13.232h-38.6"/><path fill="none" stroke="#323333" stroke-width="1.5" stroke-miterlimit="10" d="M990.766 134.747l-38.6-13.23v-13.23h38.6zM952.166 134.747l38.6 13.23v13.232h-38.6z"/><path fill="none" stroke="#3E3A39" stroke-width="1.5" stroke-miterlimit="10" stroke-dasharray="1.5,2" d="M961.277 118.88l20.378 7.2M960.897 144.404l21.14 6.768"/><path fill="#FAEBE8" d="M885.143 43.234h92.498v50.343h-92.497z"/><path fill="none" stroke="#323333" stroke-width="1.5" stroke-miterlimit="10" d="M885.143 43.234h92.498v50.343h-92.497zM898.967 49.995V88.63M904.5 81.254v-31.26M916.88 49.995V81.78M923.2 81.78V49.556M928.733 49.556V81.78M938.04 49.556V81.78M946.47 49.556v31.698M952.792 49.556v31.698M965.728 49.556V88.19"/><path fill="#E8F2D4" d="M989.45 65.177h37.165c1.566 0 2.835 1.27 2.835 2.835v23.58c0 1.567-1.27 2.836-2.835 2.836H989.45c-1.565 0-2.834-1.27-2.834-2.835v-29.75"/><path fill="none" stroke="#323333" stroke-width="1.5" stroke-miterlimit="10" d="M989.95 65.177h36.665c1.566 0 2.835 1.27 2.835 2.835v23.58c0 1.567-1.27 2.836-2.835 2.836H989.45c-1.565 0-2.834-1.27-2.834-2.835v-29.75"/><path fill="none" stroke="#323333" stroke-width="1.5" stroke-miterlimit="10" d="M1026.146 64.51v-2.667c0-1.84-1.492-3.333-3.333-3.333H989.95c-1.84 0-3.333 1.492-3.333 3.333 0 1.84 1.492 3.333 3.333 3.333M989.367 62.343h33.833"/><path fill="#FFF" stroke="#3E3A39" stroke-width="1.5" stroke-miterlimit="10" stroke-dasharray="1.5,2" d="M989.367 69.51h37.166"/><circle fill="#FFF" cx="607.451" cy="149.845" r="3.333"/><circle fill="none" stroke="#323333" stroke-width="1.5" stroke-miterlimit="10" cx="607.451" cy="149.845" r="3.333"/>
</symbol>

<symbol id="coffee-bean" viewBox="0 0 41 30">
        <title>coffee bean@0.5x</title><g fill="#A77E66" fill-rule="evenodd"><path d="M2.04 2.817c3.99.385 6.618 1.837 9.374 5.176 3.13 3.794 6.46 5.388 9.907 4.73.262-.05.515-.115.764-.186.993-4.44-3.475-9.98-7.818-11.705C10.38-.714 4.256-.128 1.273 2.786c.25-.005.505.005.766.03"/><path d="M20.172 15.05c-3.995-.388-6.622-1.843-9.378-5.18C8.642 7.26 5.178 4.32.89 5.14c-.254.05-.504.114-.748.182-1 4.438 3.473 9.988 7.817 11.714 3.886 1.545 10.02.96 12.998-1.96-.258.006-.52-.002-.786-.027M23.25 26.605c1.196-3.76 3.174-5.993 7.062-7.967 4.42-2.243 6.68-5.126 6.723-8.57.004-.26-.01-.52-.032-.774-4.223-1.855-10.655 1.323-13.254 5.15-2.328 3.423-2.984 9.435-.685 12.893.05-.243.107-.488.186-.732"/><path d="M39.24 12.004c-1.197 3.76-3.177 5.997-7.065 7.97-3.038 1.54-6.672 4.28-6.72 8.569-.003.253.01.505.03.753 4.222 1.863 10.66-1.316 13.262-5.145 2.33-3.426 2.985-9.44.68-12.9-.05.25-.108.5-.188.754"/></g>
</symbol>

<symbol id="icon-addtocart" viewBox="0 0 23 19">
        <title>Shape Copy 10</title><path d="M.966.71H3.31c.09 0 3.6 3.22 3.6 3.22.04.04.07.086.096.134H22.03c.715 0 1.124.552.912 1.226l-2.327 7.378c-.213.675-.97 1.226-1.685 1.226H9.41c-.713 0-1.472-.552-1.684-1.226L5.42 5.36 2.868 2.835h-1.9c-.312 0-.567-.25-.567-.56V1.27C.4.963.655.71.966.71zm18.267 17.58c-.832 0-1.506-.657-1.506-1.466 0-.81.674-1.465 1.506-1.465s1.507.655 1.507 1.464c0 .81-.675 1.465-1.507 1.465zm-9.04 0c-.832 0-1.506-.657-1.506-1.466 0-.81.674-1.465 1.506-1.465s1.507.655 1.507 1.464c0 .81-.675 1.465-1.507 1.465z" fill="#4A4A4A" fill-rule="evenodd"/>
</symbol>

<symbol id="icon-addtocart-disabled" viewBox="0 0 30 30">
        <title>Rectangle 15 + 查看物流 Copy 7 + cart</title><g fill="none" fill-rule="evenodd"><rect width="30" height="30" rx="33" fill="#F2F2F2"/><path d="M5.07 7.083h2.014c.077 0 3.092 2.845 3.092 2.845.034.036.06.076.083.12h12.909c.612 0 .964.486.782 1.082l-2 6.52c-.182.596-.833 1.083-1.447 1.083h-8.18c-.614 0-1.265-.487-1.447-1.083l-1.98-6.457L6.702 8.96H5.07c-.268 0-.487-.223-.487-.495v-.887c0-.272.22-.495.487-.495zm15.694 15.534c-.715 0-1.295-.58-1.295-1.295s.58-1.294 1.294-1.294c.715 0 1.294.58 1.294 1.294 0 .715-.58 1.295-1.294 1.295zm-7.767 0c-.715 0-1.294-.58-1.294-1.295s.58-1.294 1.294-1.294c.715 0 1.295.58 1.295 1.294 0 .715-.58 1.295-1.295 1.295z" fill="#B3B3B3"/></g>
</symbol>

<symbol id="icon-cart" viewBox="0 0 48 48">
        <title>Rectangle 15 + 查看物流 Copy 7 + cart</title><defs><filter x="-50%" y="-50%" width="200%" height="200%" filterUnits="objectBoundingBox" id="aga"><feOffset in="SourceAlpha" result="shadowOffsetOuter1"/><feGaussianBlur stdDeviation="2" in="shadowOffsetOuter1" result="shadowBlurOuter1"/><feColorMatrix values="0 0 0 0 0 0 0 0 0 0 0 0 0 0 0 0 0 0 0.208446558 0" in="shadowBlurOuter1" result="shadowMatrixOuter1"/><feMerge><feMergeNode in="shadowMatrixOuter1"/><feMergeNode in="SourceGraphic"/></feMerge></filter></defs><g transform="translate(4 4)" fill="none" fill-rule="evenodd"><rect width="40" height="40" rx="33" stroke="#FFF" filter="url(#aga)" fill="#FF5B54"/><path d="M8.337 10h2.518c.097 0 3.865 3.556 3.865 3.556.043.044.076.095.103.148H30.96c.768 0 1.208.61.98 1.354l-2.5 8.15c-.228.745-1.042 1.355-1.808 1.355H17.407c-.768 0-1.582-.61-1.81-1.355l-2.476-8.07-2.742-2.793h-2.04c-.335 0-.61-.278-.61-.618v-1.11c0-.34.275-.617.61-.617zm19.618 19.417c-.894 0-1.618-.725-1.618-1.618 0-.895.724-1.62 1.618-1.62.893 0 1.618.725 1.618 1.62 0 .892-.725 1.617-1.618 1.617zm-9.71 0c-.892 0-1.617-.725-1.617-1.618 0-.895.725-1.62 1.618-1.62.894 0 1.618.725 1.618 1.62 0 .892-.724 1.617-1.618 1.617z" fill="#FFF"/></g>
</symbol>

<symbol id="icon-cart-disable" viewBox="0 0 19 15">
        <title>Shape Copy 2</title><path d="M.666.267h1.93c.074 0 2.96 2.65 2.96 2.65.035.032.06.07.08.11h12.369c.587 0 .925.454.75 1.008l-1.915 6.073c-.176.555-.8 1.01-1.388 1.01H7.617c-.588 0-1.212-.456-1.386-1.01L4.332 4.094l-2.1-2.08H.665C.41 2.014.2 1.807.2 1.554V.726c0-.253.21-.46.466-.46zM15.7 14.733c-.685 0-1.24-.54-1.24-1.205 0-.666.555-1.206 1.24-1.206.685 0 1.24.54 1.24 1.206 0 .666-.555 1.205-1.24 1.205zm-7.44 0c-.685 0-1.24-.54-1.24-1.205 0-.666.555-1.206 1.24-1.206.685 0 1.24.54 1.24 1.206 0 .666-.555 1.205-1.24 1.205z" fill="#DCDCDC" fill-rule="evenodd"/>
</symbol>

<symbol id="icon-cart-normal" viewBox="0 0 19 15">
        <title>Shape Copy 2</title><path d="M.666.267h1.93c.074 0 2.96 2.65 2.96 2.65.035.032.06.07.08.11h12.369c.587 0 .925.454.75 1.008l-1.915 6.073c-.176.555-.8 1.01-1.388 1.01H7.617c-.588 0-1.212-.456-1.386-1.01L4.332 4.094l-2.1-2.08H.665C.41 2.014.2 1.807.2 1.554V.726c0-.253.21-.46.466-.46zM15.7 14.733c-.685 0-1.24-.54-1.24-1.205 0-.666.555-1.206 1.24-1.206.685 0 1.24.54 1.24 1.206 0 .666-.555 1.205-1.24 1.205zm-7.44 0c-.685 0-1.24-.54-1.24-1.205 0-.666.555-1.206 1.24-1.206.685 0 1.24.54 1.24 1.206 0 .666-.555 1.205-1.24 1.205z" fill="#4A4A4A" fill-rule="evenodd"/>
</symbol>

<symbol id="icon-cart2" viewBox="0 0 21 21">
        <title>Group Copy 7</title><g transform="translate(0 1)" stroke="#FFF" fill="none" fill-rule="evenodd"><path d="M.002.042c2.223.486 2.72 2.427 2.72 2.427l2.013 9.657s.305 1.73 1.59 1.73h11.537" stroke-linecap="round"/><path d="M2.635 2.8H20.26"/><path d="M4.652 11.506l12.68-1.616c.543-.07 1.08-.562 1.203-1.102l1.518-6.738" stroke-linecap="round"/><ellipse cx="6.563" cy="17.466" rx="1.313" ry="1.375"/><ellipse cx="16.188" cy="17.466" rx="1.313" ry="1.375"/></g>
</symbol>

<symbol id="icon-change" viewBox="0 0 17 9">
        <title>Fill 1910 + Fill 1912</title><g fill="#CCC" fill-rule="evenodd"><path d="M15.873 6.368H2.597l.227-.22c.26-.25.25-.642-.02-.88-.27-.243-.697-.23-.956.014L.56 6.524c-.143.113-.238.28-.238.468s.095.35.238.47l1.288 1.236c.133.13.31.194.488.194.17 0 .337-.057.468-.176.27-.237.28-.63.02-.88l-.226-.22h13.275c.373 0 .676-.28.676-.624 0-.343-.304-.624-.677-.624M.998 2.62h13.275l-.226.22c-.258.248-.25.642.02.88.13.118.3.175.468.175.177 0 .355-.063.488-.194L16.31 2.46c.144-.112.24-.275.24-.463 0-.187-.095-.35-.236-.46l-1.29-1.25c-.26-.245-.687-.257-.957-.014-.27.24-.278.632-.02.882l.227.22H.998c-.374 0-.676.28-.676.623 0 .344.302.625.676.625"/></g>
</symbol>

<symbol id="icon-close" viewBox="0 0 14 13">
        <title>Rectangle-27-+-Rectangle-27-Copy</title><g transform="translate(.625)" fill="#999" fill-rule="evenodd"><path d="M.052 12.075L12.012.095l.6.6L.653 12.678l-.6-.602z"/><path d="M12.012 12.677L.052.697l.6-.603 11.96 11.98-.6.603z"/></g>
</symbol>

<symbol id="icon-envelope" viewBox="0 0 16 12">
        <title>Rectangle 87</title><path d="M15.078 11.685c-.31.2-.678.315-1.072.315H1.994c-.395 0-.762-.116-1.072-.315L4.34 8.573l2.094-1.908L8 8.087v.025L9.58 6.676c.05.047.112.1.187.17l2.2 2.003 3.113 2.835zm.68-.734c.154-.284.242-.61.242-.96V2.01c0-.35-.088-.676-.243-.96L10.32 6c.035.03.074.067.118.107l2.2 2.003 3.12 2.84zm-15.515 0C.088 10.667 0 10.34 0 9.99V2.01c0-.35.088-.676.242-.96L5.69 5.99c-.734.67-.885.806-2.025 1.844L.243 10.95zM15.078.316C14.768.115 14.4 0 14.006 0H1.994C1.6 0 1.232.116.922.315l7.09 6.453L15.08.316z" fill="#FF5B54" fill-rule="evenodd"/>
</symbol>

<symbol id="icon-income" viewBox="0 0 15 20">
        <title>Group</title><g transform="translate(1 1)" stroke="#FFF" stroke-width="2" stroke-linecap="round" stroke-linejoin="round" fill="none" fill-rule="evenodd"><path d="M8.37 6.75H4.03C2.31 7.95 0 11.09 0 13.056c0 2.72 1.9 4.505 6.2 4.505 4.298 0 6.2-1.786 6.2-4.505 0-1.966-2.312-5.107-4.03-6.308zM4.03 5.4h4.34M9.61 1.042l-2.48.9-.93-1.8-.93 1.8-2.48-.9s1.55 1.802 1.55 3.304h3.72c0-1.502 1.55-3.304 1.55-3.304zM6.19 14.86v.6M6.19 9.452v.6"/><path d="M4.96 13.658c0 .663.555 1.2 1.24 1.2.684 0 1.24-.537 1.24-1.2 0-.664-.556-1.202-1.24-1.202-.685 0-1.24-.538-1.24-1.2 0-.665.555-1.203 1.24-1.203.684 0 1.24.538 1.24 1.202"/></g>
</symbol>

<symbol id="icon-integral-explain" viewBox="0 0 17 17">
        <title>Shape Copy</title><path d="M8.5 17C3.807 17 0 13.194 0 8.5 0 3.805 3.806 0 8.5 0 13.196 0 17 3.805 17 8.5c0 4.694-3.805 8.5-8.5 8.5zM6.08 7.17l-.03.562c.08-.03.204-.063.32-.097.113-.034.225-.05.334-.05.222 0 .556.037.635.112.078.074.2.207.2.398 0 .105-.013.12-.04.248-.024.127-.056.263-.094.406l-.585 1.368c-.19.395-.158.974-.158.99 0 .305.246.558.472.757.227.2.544.3.953.3.266 0 .5-.036.7-.106.2-.07.347-.03.684-.162l.112-.46c-.29.137-.27.087-.566.087-.218 0-.31-.117-.398-.19-.09-.07-.133-.205-.133-.402 0-.08.014-.397.04-.55.028-.153.06-.29.093-.41l.685-1.362c.04-.135.07-.285.084-.45.016-.162.023-.276.023-.34 0-.314-.273-.63-.493-.826-.22-.195-.634-.294-1.04-.294-.225 0-.463.04-.716.12-.25.08-.806.238-1.082.35zM9.46 4.465c-.182-.172-.403-.258-.66-.258-.26 0-.48.105-.666.278-.185.172-.277.398-.277.64 0 .243.092.468.277.64.185.17.407.293.665.293.257 0 .478-.123.66-.294.185-.17.277-.396.277-.64 0-.24-.092-.486-.276-.66z" fill="#FF5B54" fill-rule="evenodd"/>
</symbol>

<symbol id="icon-nav01" viewBox="0 0 33 33">
        <title>svg1</title><defs><path id="ana" d="M16.5 33C25.613 33 33 25.613 33 16.5S25.613 0 16.5 0 0 7.387 0 16.5 7.387 33 16.5 33z"/></defs><g fill="none" fill-rule="evenodd"><mask id="anb" fill="#fff"><use xlink:href="#ana"/></mask><use fill="#F2F2F2" xlink:href="#ana"/><path d="M18.37 4H22l-1.808 8H18.37V4zM22.854 6h2.777l-2.42 5.324-1.283-.482L22.854 6z" fill="#F8E81C" mask="url(#anb)"/><g transform="rotate(-25 36.31 23.755)" mask="url(#anb)"><rect fill="#4A4A4A" y="1" width="24" height="30" rx="1"/><rect fill="#9B9B9B" x="8" y="3" width="8" height="1" rx="1"/><path fill="#FF5B54" d="M2 5h20v25H2z"/></g><path d="M27.33 17.308c-2.88-1.91-6.5 6.01-2.93 14.768 3.567 8.757 8.104 1.473 8.99-2.88-6.204-3.138-3.182-9.98-6.06-11.888z" fill="#FFD19B" mask="url(#anb)"/></g>
</symbol>

<symbol id="icon-nav02" viewBox="0 0 33 33">
        <title>svg2</title><defs><path id="aoa" d="M16.5 33C25.613 33 33 25.613 33 16.5S25.613 0 16.5 0 0 7.387 0 16.5 7.387 33 16.5 33z"/><path id="aoc" d="M4.482 24.393S3.04 3.085 8.396 1.36C11.48.263 7.508 14.54 12.364 23.922"/></defs><g fill="none" fill-rule="evenodd"><mask id="aob" fill="#fff"><use xlink:href="#aoa"/></mask><use fill="#F2F2F2" xlink:href="#aoa"/><rect fill="#4A4A4A" mask="url(#aob)" x="5" y="9" width="24" height="30" rx="1"/><rect fill="#9B9B9B" mask="url(#aob)" x="13" y="11" width="8" height="1" rx="1"/><path fill="#B5D7FF" mask="url(#aob)" d="M7 13h20v25H7z"/><path d="M6.986 21.515l14.15-3.558 2.04 9.1-16.19 4.248v-9.79z" fill="#FFF" mask="url(#aob)"/><g transform="translate(15 15)" mask="url(#aob)"><mask id="aod" fill="#fff"><use xlink:href="#aoc"/></mask><use fill="#FFD19B" transform="rotate(-19 8.335 12.846)" xlink:href="#aoc"/><path d="M4.512 26.59S4.082 5.284 5.678 3.558c.92-1.095-.264 13.183 1.182 22.564" fill="#F6C48B" mask="url(#aod)"/></g></g>
</symbol>

<symbol id="icon-nav03" viewBox="0 0 33 33">
        <title>svg3</title><defs><circle id="apa" cx="16.5" cy="16.5" r="16.5"/></defs><g fill="none" fill-rule="evenodd"><mask id="apb" fill="#fff"><use xlink:href="#apa"/></mask><use fill="#F2F2F2" xlink:href="#apa"/><g transform="translate(5 10)" mask="url(#apb)"><path fill="#8BC34A" d="M0 0h24v30H0z"/><ellipse fill="#33691E" cx="16.8" cy="4.737" rx="1.6" ry="1.579"/><ellipse fill="#33691E" cx="7.2" cy="4.737" rx="1.6" ry="1.579"/><path d="M16.8 4.737v2.368c0 2.606-2.16 4.737-4.8 4.737-2.64 0-4.8-2.13-4.8-4.737V4.737" stroke="#FFF" stroke-width="1.6"/></g></g>
</symbol>

<symbol id="icon-nav04" viewBox="0 0 33 33">
        <title>svg4</title><defs><circle id="aqa" cx="16.5" cy="16.5" r="16.5"/></defs><g fill="none" fill-rule="evenodd"><mask id="aqb" fill="#fff"><use xlink:href="#aqa"/></mask><use fill="#F2F2F2" xlink:href="#aqa"/><g transform="translate(4 8)" mask="url(#aqb)"><path d="M22.222 24.87H2.778c-.764 0-1.39-.622-1.39-1.382V9.67h22.223V23.49c0 .76-.624 1.382-1.388 1.382z" fill="#D32F2F"/><path d="M25 9.67H0V5.528c0-.76.625-1.382 1.39-1.382h22.22c.765 0 1.39.622 1.39 1.382V9.67z" fill="#F44336"/><path fill="#FF8F00" d="M11.11 9.67h2.78v15.2h-2.78zM18.056 0h-2.778L11.11 4.145h2.78L18.055 0z"/><path d="M9.722 0H6.944l4.167 4.145V9.67h2.78V4.146L9.72 0z" fill="#FFC107"/></g></g>
</symbol>

<symbol id="icon-octopus-sorry" viewBox="0 0 49 58">
        <title>Imported Layers</title><g transform="translate(4 2)" fill="none" fill-rule="evenodd"><path d="M36.363 40.74l.073.058.072.06.068.064.064.067.062.07.06.072.053.075.05.078.048.08.043.084.04.084.035.087.03.09.028.092.02.093.018.095.013.097.007.097.002.1-.003.1-.008.096-.014.096-.017.096-.022.093-.027.09-.03.09-.035.088-.04.085-.042.083-.047.082-.05.078-.055.075-.058.073-.062.07-.064.067-.068.063-.072.06-.073.058-.077.054-.08.05-.08.046-.086.043-.087.037-.088.035-.09.03-.094.026-.094.02-.096.02-.098.01-.1.008-.1.003-.1-.004-.1-.007-.1-.013-.095-.018-.095-.022-.093-.026-.092-.03-.088-.035-.087-.038-.084-.044-.083-.046-.08-.05-.077-.054c-.025-.018-.225-.16-.343-.267-.118-.107-.234-.215-.347-.326-.113-.11-.223-.225-.33-.342-.108-.116-.213-.235-.315-.357-.102-.12-.2-.245-.297-.37-.096-.127-.188-.255-.278-.386-.09-.132-.177-.264-.26-.4-.084-.135-.164-.272-.24-.41-.078-.14-.152-.282-.22-.425-.07-.143-.138-.29-.202-.435-.063-.147-.123-.296-.178-.447-.057-.15-.11-.302-.158-.456-.048-.154-.093-.31-.134-.467-.04-.157-.206-.64-.496-.485-.29.155-.687.042-.65.22.036.176.078.35.123.525.045.174.095.346.15.516.052.17.11.338.172.504.062.167.128.332.198.494.07.162.144.323.222.482.077.158.158.314.244.468.085.154.174.306.267.455.092.148.187.296.287.44.1.144.202.287.308.426.106.14.216.276.328.41.113.135.23.266.347.395.12.13.24.255.366.378.125.123.253.243.384.36.13.117.246.27.267.294l.06.07.06.073.054.075.05.078.048.08.043.084.038.085.035.088.03.09.028.09.023.094.016.093.012.097.008.098.002.1-.002.098-.008.097-.013.097-.017.095-.022.093-.026.09-.03.09-.036.088-.04.086-.042.082-.047.08-.052.08-.054.075-.06.07-.06.07-.065.068-.07.064-.07.06-.074.057-.077.053-.08.05-.082.047-.085.042-.086.04-.09.033-.09.03-.093.027-.094.02-.097.018-.098.012-.1.007-.1.002-.1-.003-.1-.008-.098-.012-.097-.017-.094-.02-.093-.028-.092-.03-.087-.034-.087-.038-.084-.042-.082-.047-.08-.05-.077-.054c-.025-.02-.113-.11-.29-.27-.178-.158-.35-.32-.52-.487-.17-.167-.335-.337-.497-.512-.16-.173-.317-.35-.47-.534-.153-.182-.3-.367-.445-.556-.143-.19-.282-.382-.417-.578-.135-.196-.264-.395-.39-.598-.124-.202-.245-.408-.36-.617-.115-.21-.226-.42-.33-.635-.106-.214-.206-.432-.3-.653-.096-.22-.185-.444-.27-.67-.084-.225-.162-.454-.235-.684-.073-.23-.17-.702-.495-.62-.122.03-.257.028-.376.024-.2-.006-.352-.012-.31.145.065.252.137.5.215.746.078.248.162.492.252.732s.185.48.286.715c.1.235.208.467.32.696.112.23.23.456.353.68.123.22.252.44.385.657.134.216.273.43.416.638.144.21.293.416.446.617.153.202.835 1.263.848 1.292l.04.085.035.087.03.088.027.092.02.093.02.094.01.097.01.098.002.1-.003.098-.01.098-.01.096-.02.095-.02.092-.027.092-.03.09-.035.086-.04.085-.043.084-.047.08-.05.077-.055.076-.058.072-.062.07-.065.067-.068.064-.07.06-.075.058-.077.053-.08.05-.08.047-.085.042-.087.04-.09.034-.09.03-.093.025-.095.022-.096.017-.098.012-.1.008-.1.002-.1-.002-.1-.008-.098-.012-.096-.017-.095-.022-.094-.025-.09-.03-.088-.035-.087-.04-.084-.04-.08-.047-.08-.05-.077-.054-.075-.058-.07-.06-.068-.064-.065-.066c-.02-.024-.068-.088-.274-.334-.206-.246-.407-.497-.6-.754-.196-.255-.385-.516-.567-.78-.182-.266-.358-.536-.527-.81-.17-.274-.332-.552-.488-.835-.156-.283-.305-.57-.447-.86-.142-.29-.278-.584-.406-.883-.128-.298-.25-.6-.363-.905-.112-.305-.218-.614-.317-.927-.1-.31-.19-.627-.273-.945-.084-.32-.107-.405-.46-.405-.352 0-.673.303-.754.616-.082.313-.172.623-.27.93-.095.306-.2.61-.31.908-.113.3-.232.597-.358.89-.126.293-.26.58-.398.867-.14.284-.287.565-.44.843-.153.277-.313.55-.48.82-.165.27-.338.534-.517.794-.18.26-.364.516-.555.768-.19.25-.388.43-.592.672-.22.196-.168.158-.328.31l-.096.085-.067.064-.07.06-.076.058-.077.053-.08.05-.082.047-.083.042-.087.04-.09.034-.09.03-.092.025-.095.022-.097.017-.098.012-.1.008-.1.002-.1-.002-.1-.008-.098-.012-.096-.017-.095-.022-.094-.025-.09-.03-.09-.035-.087-.04-.085-.04-.082-.047-.08-.05-.076-.054-.074-.058-.07-.06-.07-.064-.064-.066-.062-.07-.06-.073-.053-.076-.05-.078-.048-.08-.043-.085-.04-.085-.035-.087-.03-.09-.028-.09-.02-.094-.02-.096-.01-.096-.01-.098v-.198l.01-.098.01-.097.02-.094.02-.093.027-.092.03-.09.035-.086.04-.085.042-.084.047-.08.05-.08.055-.074c.02-.026.08-.182.244-.376.163-.194.322-.392.475-.594.152-.202.3-.408.445-.617.144-.21.283-.422.416-.638.134-.216.263-.436.386-.66.123-.222.24-.447.353-.677.112-.23.218-.46.32-.697.1-.234.196-.472.286-.713.09-.24.174-.484.25-.73.08-.247.15-.496.217-.747.04-.158-.016-.153-.146-.148-.076.002-.178.005-.298-.025-.328-.083-.537-.076-.537-.076-.062.236-.13.47-.202.7-.072.23-.15.46-.235.685-.084.226-.173.45-.268.67-.094.22-.195.437-.3.652-.105.214-.215.426-.33.635-.116.208-.236.414-.36.617-.127.2-.257.4-.39.597-.136.196-.275.388-.42.577-.143.19-.29.375-.443.557-.153.183-.31.362-.472.536-.16.174-.326.345-.495.512-.17.166-.344.33-.52.487-.178.16-.238.167-.262.186l-.073.058-.077.054-.08.05-.082.047-.084.04-.088.04-.09.034-.09.03-.093.026-.095.022-.096.017-.1.01-.1.008-.1.003-.1-.002-.1-.007-.098-.01-.096-.018-.095-.022-.092-.026-.09-.03-.09-.035-.086-.04-.085-.04-.082-.048-.08-.05-.076-.054-.075-.057-.07-.06-.07-.063-.064-.067-.06-.07-.058-.072-.055-.076-.05-.078-.048-.08-.044-.083-.04-.085-.035-.087-.03-.09-.026-.09-.022-.095-.017-.094-.012-.098-.008-.097-.002-.1.002-.098.008-.098.012-.098.017-.094.022-.093.027-.092.03-.09.037-.087.04-.085.042-.082.046-.08.05-.08.056-.074.058-.073.06-.07.066-.066.068-.064.07-.06.075-.057.076-.054-.044.032c.13-.116.26-.236.384-.36.125-.122.247-.248.366-.377.12-.128.235-.26.347-.394.112-.133.22-.27.327-.41.106-.14.21-.28.308-.425.1-.145.196-.292.287-.44.093-.15.18-.302.267-.457.083-.153.165-.31.242-.468.078-.158.152-.32.222-.48.07-.164.136-.328.198-.495.062-.166.12-.335.174-.505.053-.17.103-.342.148-.516.046-.173.087-.348.123-.525.037-.178-.12-.07-.408-.225-.29-.154-.594-.145-.627.015-.033.16-.07.318-.112.475-.04.157-.085.313-.134.466-.048.156-.1.308-.156.458-.057.15-.116.3-.18.447-.063.146-.13.29-.2.435-.07.143-.143.284-.22.424-.077.14-.158.276-.24.41-.084.136-.17.27-.26.4s-.183.26-.28.385c-.095.125-.194.25-.296.37-.102.122-.207.24-.314.357-.107.116-.27.242-.27.242l-.065.066-.068.064-.07.06-.075.058-.077.053-.08.05-.08.048-.086.043-.088.04-.09.034-.09.03-.092.026-.095.02-.096.018-.1.013-.098.008-.102.002-.1-.002-.1-.007-.097-.012-.097-.017-.095-.02-.092-.026-.09-.03-.09-.035-.086-.04-.084-.042-.083-.047-.08-.05-.076-.052-.075-.057-.07-.06-.07-.064-.064-.067-.06-.07-.058-.073-.055-.075-.05-.078-.048-.08-.044-.084-.04-.085-.034-.088-.03-.09-.027-.09-.022-.094-.017-.095-.013-.096-.007-.098-.003-.1.003-.098.007-.098.013-.096.017-.095.022-.093.026-.09.032-.09.034-.088.04-.086.043-.083.047-.08.05-.078.055-.077.058-.073.06-.07.066-.066.07-.064.07-.06.073-.058c.025-.018.138-.123.2-.197.062-.074.123-.15.18-.227.06-.076.116-.155.17-.235.056-.08.11-.16.16-.244.05-.083.1-.167.147-.252.047-.085.09-.17.135-.258.042-.087.083-.176.122-.266.038-.09.075-.18.11-.272.033-.092.065-.185.095-.28.03-.093.055-.188.08-.284.026-.096.05-.192.07-.29.02-.097.037-.196.052-.295.016-.1.03-.2.04-.3.01-.1.017-.203.023-.305.005-.102.008-.206.008-.31 0-.103-.003-.206-.008-.308-.006-.102-.013-.204-.024-.304-.01-.1-.022-.2-.038-.3-.015-.1-.033-.2-.053-.296 0 0-.035-.055-.266-.283-.23-.227-.456-.46-.676-.696-.22-.237-.433-.48-.64-.728-.21-.248-.412-.5-.607-.76-.196-.256-.385-.52-.57-.786-.182-.267-.36-.54-.53-.815-.17-.275-.334-.555-.49-.84-.158-.284-.31-.573-.452-.865-.144-.293-.28-.59-.41-.89-.128-.3-.25-.604-.364-.91-.115-.31-.222-.62-.322-.935-.1-.314-.19-.63-.275-.952-.083-.32-.16-.645-.228-.972-.07-.327-.13-.656-.18-.988-.052-.333-.095-.668-.13-1.005-.035-.338-.06-.678-.08-1.02-.016-.342-.026-.687-.026-1.034s.01-.69.027-1.033c.02-.343.045-.683.08-1.02.035-.338.078-.673.13-1.005.05-.332.11-.662.18-.99.068-.326.144-.65.227-.97.084-.32.176-.64.275-.953.1-.315.207-.627.322-.934.114-.308.236-.612.365-.912.128-.3.264-.596.408-.89.143-.292.294-.58.45-.865.158-.285.322-.565.492-.842.17-.276.348-.548.53-.814.185-.268.374-.53.57-.788.196-.258.4-.51.607-.758.208-.248.42-.49.64-.73.22-.236.446-.47.677-.696.23-.227.468-.45.71-.665.24-.216.488-.426.74-.63.252-.206.51-.404.77-.597.263-.193.53-.38.802-.56.27-.18.548-.354.828-.522.28-.168.566-.33.855-.484.288-.154.582-.302.88-.443.297-.14.6-.274.904-.4.305-.128.614-.248.927-.36.314-.113.63-.218.95-.316.32-.098.642-.19.97-.27.324-.084.654-.158.986-.225.332-.068.667-.127 1.005-.178.34-.05.68-.093 1.023-.127.343-.035.69-.06 1.037-.078.348-.017.698-.026 1.05-.026.353 0 .703.01 1.05.027.35.018.695.043 1.038.078.343.034.684.077 1.022.127.338.05.673.11 1.005.177.333.066.662.14.988.223.326.082.65.173.97.27.318.1.635.204.947.316.313.112.622.232.928.36.305.126.606.26.904.4.298.142.59.29.88.444.29.155.574.316.855.484.28.168.557.342.828.522.272.18.54.367.8.56.263.193.52.39.772.596.252.205.5.415.74.63.243.217.48.44.71.666.23.227.457.46.676.697.22.237.434.48.642.728.208.248.41.5.606.758.197.258.387.52.57.788.184.266.36.538.53.814.17.277.335.557.493.84.157.285.307.574.45.867.144.293.28.59.41.89.13.3.25.603.365.91.115.308.222.62.32.934.1.313.192.63.276.952.084.32.16.644.228.97.068.328.128.658.18.99.05.332.095.667.13 1.005.034.337.06.677.078 1.02.018.342.027.686.027 1.032s-.01.69-.027 1.033c-.017.342-.044.682-.08 1.02-.033.337-.077.672-.13 1.005-.05.332-.11.66-.178.988-.068.327-.144.65-.228.972-.084.32-.176.638-.275.952-.1.315-.207.626-.322.934-.114.307-.236.61-.365.912-.13.3-.266.596-.41.89-.143.29-.293.58-.45.864-.158.285-.322.565-.492.84-.17.277-.346.55-.53.816-.183.267-.373.53-.57.787-.195.258-.397.51-.605.76-.208.247-.422.49-.642.728-.22.238-.445.47-.676.697-.23.228-.59.773-.6.874-.01.102-.018.204-.023.306-.005.102-.008.205-.008.308 0 .104.003.207.008.31.005.1.014.203.023.304.01.1.024.2.04.3.015.1.033.198.053.296.02.097.043.194.068.29.025.096.053.19.083.284.03.094.062.187.096.28.035.09.07.182.11.27.038.09.08.18.122.267.043.088.088.174.134.26.047.083.096.168.147.25.05.082.103.164.158.244.055.078.11.157.17.234l.18.227c.063.074.127.147.193.218.066.07.457.404.483.422" fill="#CD3D40"/><path d="M20.362 32.43c-1.606 0-2.91-1.28-2.91-2.86 0-1.58 1.304-2.862 2.91-2.862 1.607 0 2.91 1.28 2.91 2.86 0 1.58-1.303 2.863-2.91 2.863m.075-7.874h-.15c-2.78.04-5.022 2.27-5.022 5.013 0 2.768 2.282 5.013 5.097 5.013 2.808 0 5.086-2.234 5.098-4.993v-.042c-.012-2.734-2.25-4.952-5.023-4.992" fill="#EDBDAC"/><path d="M6.443 19.09l4.368 2.147.245-.48-4.368-2.147" fill="#010604"/><path d="M10.81 20.756l-4.367 2.146.244.48 4.368-2.145M33.407 18.56l-4.368 2.145.244.482 4.368-2.147" fill="#010604"/><path d="M29.04 21.187l4.367 2.146.245-.48-4.368-2.148" fill="#010604"/></g>
</symbol>

<symbol id="icon-paper" viewBox="0 0 38 54">
        <title>icon_paper</title><g fill="#9B9B9B" fill-rule="evenodd"><path d="M34.574 0H2.99C1.433 0 0 1.366 0 2.917v48.538c0 1.366.872 1.924 1.682 1.924.436 0 .997-.187 1.433-.56l1.93-1.613c.437-.373 1.185-.31 1.558.062l1.62 1.49c.56.495 1.246.743 1.993.743.748 0 1.495-.248 1.994-.744l1.62-1.49c.373-.31.996-.31 1.308.06l1.12 1.242c.5.56 1.247.93 2.057.93.685 0 1.37-.247 1.93-.743l1.558-1.43c.374-.37 1.06-.37 1.433 0l1.495 1.43c.562.557 1.31.806 2.12.806.684 0 1.37-.25 1.93-.683l1.994-1.676c.436-.373 1.246-.373 1.682 0l1.993 1.614c.435.373.934.56 1.37.56.498 0 .996-.25 1.246-.683.25-.31.373-.745.373-1.304V2.917C37.376 1.367 36.13 0 34.573 0zm.934 51.33l-1.87-1.55c-.56-.435-1.307-.683-2.054-.683-.748 0-1.495.248-2.056.682l-2.056 1.675c-.436.31-1.183.31-1.557-.062l-1.495-1.427c-.56-.497-1.246-.807-1.994-.807-.747 0-1.433.247-1.993.806l-1.558 1.427c-.373.31-.934.31-1.245-.062l-1.122-1.24c-.498-.56-1.308-.93-2.056-.93-.685 0-1.37.247-1.868.743l-1.62 1.49c-.374.373-1.06.373-1.495 0l-1.62-1.49c-.56-.496-1.31-.806-2.057-.806-.747 0-1.495.248-2.055.682l-1.87 1.55V2.918c0-.496.624-1.055 1.122-1.055h31.584c.498 0 .934.56.934 1.055V51.33z"/><path d="M29.528 14.276H8.036c-.498 0-.934.434-.934.93 0 .497.436.932.934.932h21.492c.498 0 .934-.435.934-.93 0-.498-.436-.932-.934-.932zM29.528 24.207H8.036c-.498 0-.934.434-.934.93 0 .497.436.932.934.932h21.492c.498 0 .934-.436.934-.932 0-.497-.436-.93-.934-.93zM29.528 33.517H8.036c-.498 0-.934.435-.934.93 0 .498.436.932.934.932h21.492c.498 0 .934-.435.934-.932 0-.496-.436-.93-.934-.93z"/></g>
</symbol>

<symbol id="icon-rmb" viewBox="0 0 16 16">
        <title>Oval 8 + ￥ 2</title><g fill="none" fill-rule="evenodd"><circle fill="#FF5B54" cx="8" cy="8" r="8"/><text font-family="Heiti SC" font-size="12" font-weight="260" fill="#FFF"><tspan x="2" y="13">￥</tspan></text></g>
</symbol>

<symbol id="icon-safeguard1" viewBox="0 0 16 18">
        <title>icon_green</title><g transform="translate(-1)" fill="none" fill-rule="evenodd"><path fill="#3BBD7F" d="M9 0l7.794 4.5v9L9 18l-7.794-4.5v-9"/><text font-family="Heiti SC" font-size="10.116" font-weight="260" fill="#FFF"><tspan x="4.215" y="12.5">正</tspan></text></g>
</symbol>

<symbol id="icon-safeguard2" viewBox="0 0 17 18">
        <title>icon_yellow</title><g transform="translate(-1)" fill="none" fill-rule="evenodd"><path fill="#FCC415" d="M9.558 0l7.794 4.5v9L9.558 18l-7.794-4.5v-9"/><text font-family="Heiti SC" font-size="10" font-weight="260" fill="#FFF"><tspan x="4.558" y="12.5">免</tspan></text></g>
</symbol>

<symbol id="icon-safeguard3" viewBox="0 0 16 18">
        <title>icon_black</title><g transform="translate(-1)" fill="none" fill-rule="evenodd"><path fill="#666" d="M9.116 0l7.795 4.5v9L9.117 18l-7.794-4.5v-9"/><text font-family="Heiti SC" font-size="10" font-weight="260" fill="#FFF"><tspan x="4.12" y="12.5">快</tspan></text></g>
</symbol>

<symbol id="icon-safeguard4" viewBox="0 0 16 18">
        <title>icon_blue</title><g transform="translate(-2)" fill="none" fill-rule="evenodd"><path fill="#6E8DCD" d="M9.988 0l7.795 4.5v9L9.988 18l-7.794-4.5v-9"/><text font-family="Heiti SC" font-size="10" font-weight="260" fill="#FFF"><tspan x="7.988" y="13.075">7</tspan></text></g>
</symbol>

<symbol id="icon-search" viewBox="0 0 15 15">
        <path fill="#999899" d="M14.687 13.173L10.753 9.24c.656-.95 1.043-2.1 1.043-3.34 0-3.254-2.645-5.9-5.898-5.9S0 2.646 0 5.898s2.646 5.898 5.898 5.898c1.24 0 2.39-.387 3.34-1.043l3.934 3.934c.21.208.484.313.758.313s.548-.104.757-.313c.417-.418.417-1.097 0-1.514zm-8.79-1.985c-2.916 0-5.29-2.373-5.29-5.29S2.982.608 5.898.608s5.29 2.373 5.29 5.29-2.372 5.29-5.29 5.29zm8.36 3.068c-.18.18-.473.18-.653 0l-3.878-3.88c.234-.2.453-.418.653-.652l3.877 3.88c.18.18.18.472 0 .652z"/>
</symbol>

<symbol id="icon-shaked-coupon" viewBox="0 0 292 131">
        <title>img_cupon@2x</title><defs><filter x="-50%" y="-50%" width="200%" height="200%" filterUnits="objectBoundingBox" id="aza"><feOffset dy="2" in="SourceAlpha" result="shadowOffsetOuter1"/><feGaussianBlur in="shadowOffsetOuter1" result="shadowBlurOuter1"/><feColorMatrix values="0 0 0 0 0 0 0 0 0 0 0 0 0 0 0 0 0 0 0.07 0" in="shadowBlurOuter1" result="shadowMatrixOuter1"/><feMerge><feMergeNode in="shadowMatrixOuter1"/><feMergeNode in="SourceGraphic"/></feMerge></filter></defs><g transform="translate(1 1)" fill="#FF5B54" fill-rule="evenodd"><path d="M0 103.126V92.874c1.725-.444 3-2.01 3-3.874 0-1.864-1.275-3.43-3-3.874v-6.252c1.725-.444 3-2.01 3-3.874 0-1.864-1.275-3.43-3-3.874v-6.252c1.725-.444 3-2.01 3-3.874 0-1.864-1.275-3.43-3-3.874v-6.252c1.725-.444 3-2.01 3-3.874 0-1.864-1.275-3.43-3-3.874v-6.252c1.725-.444 3-2.01 3-3.874 0-1.864-1.275-3.43-3-3.874v-6.252c1.725-.444 3-2.01 3-3.874 0-1.864-1.275-3.43-3-3.874V10c5.523 0 10-4.477 10-10h270c0 5.523 4.477 10 10 10v5.126c-1.725.444-3 2.01-3 3.874 0 1.864 1.275 3.43 3 3.874v6.252c-1.725.444-3 2.01-3 3.874 0 1.864 1.275 3.43 3 3.874v6.252c-1.725.444-3 2.01-3 3.874 0 1.864 1.275 3.43 3 3.874v6.252c-1.725.444-3 2.01-3 3.874 0 1.864 1.275 3.43 3 3.874v6.252c-1.725.444-3 2.01-3 3.874 0 1.864 1.275 3.43 3 3.874v6.252c-1.725.444-3 2.01-3 3.874 0 1.864 1.275 3.43 3 3.874v10.252c-1.725.444-3 2.01-3 3.874 0 1.864 1.275 3.43 3 3.874V117c-5.523 0-10 4.477-10 10H10c0-5.523-4.477-10-10-10v-6.126c1.725-.444 3-2.01 3-3.874 0-1.864-1.275-3.43-3-3.874z" stroke-opacity=".168" stroke="#D0011B" stroke-width=".5" filter="url(#aza)"/><path d="M9.205 109.84V17.16c5.172 0 9.365-3.876 9.365-8.66h252.86c0 4.784 4.193 8.66 9.365 8.66v92.68c-5.172 0-9.365 3.876-9.365 8.66H18.57c0-4.784-4.193-8.66-9.365-8.66z" stroke="#F63F37"/></g>
</symbol>

<symbol id="icon-shakelist" viewBox="0 0 100 100">
        <path fill="none" d="M36.382 34.73c-.93 2.094-2.986 3.456-5.268 3.52v35.727c0 1.224.993 2.216 2.217 2.216h26.822c1.224 0 2.216-.992 2.216-2.216v-53.86c0-1.224-.992-2.216-2.216-2.216h-26.82c-1.224 0-2.217.993-2.217 2.217v5.768l2.248.998c2.995 1.33 4.35 4.85 3.02 7.847zM27.743 28.04c-.337-.15-.693-.226-1.056-.226-1.032 0-1.968.607-2.387 1.55-.583 1.314.012 2.858 1.325 3.442l2.15.956v-5.708l-.032-.015z"/><path d="M51.02 22.37c0 .432-.35.78-.778.78h-7c-.43 0-.777-.348-.777-.78 0-.428.348-.774.778-.774h7c.427 0 .777.346.777.775z"/><path fill="none" d="M30.855 60.696c-1.163 0-2.22.686-2.69 1.75-.66 1.48.01 3.222 1.494 3.88l1.454.647v-6.25c-.086-.007-.17-.027-.26-.027zM35.226 46.7c1.032 0 1.967-.607 2.386-1.55.583-1.312-.01-2.857-1.325-3.44l-2.654-1.18v5.71l.536.237c.336.148.69.224 1.056.224z"/><path d="M31.114 46.945v.09c.17.037.34.084.508.136l-.508-.225z"/><path fill="none" d="M35.114 68.474c.877 0 1.693-.39 2.244-1.037h-3.725v-5.782l-1.585-.704c-.3-.132-.613-.197-.933-.226v6.25l2.808 1.25c.38.166.78.25 1.19.25zM29.967 49.587c-.85 0-1.64.37-2.19.98v3.92c.27.303.6.557.993.73l2.345 1.042v-6.433c-.368-.156-.753-.24-1.148-.24zM33.633 57.305v-6.363l-2.475-1.1c-.014-.006-.03-.008-.043-.014v6.432l1.92.852c.194.085.394.15.598.193zM27.274 51.335c-.482 1.09-.243 2.315.502 3.153v-3.92c-.202.225-.374.48-.502.767z"/><path d="M33.633 48.048c.064.026.13.035.195.057l-.195-.087v.03zM32.242 47.4c-.203-.09-.41-.164-.62-.23l1.87.832c.046.02.095.027.14.046v-.03l-1.39-.617z"/><path d="M83.125 76.3l-2.605-3.593c.164-2.21.748-9.98 1.283-15.23.593-5.8-1.018-8.873-1.204-9.204l-.025-.042c-.064-.11-6.635-11.115-9.44-17.99-1.493-3.665-3.606-4.982-5.427-5.35v-4.774c0-3.063-2.493-5.555-5.555-5.555h-26.82c-3.064 0-5.556 2.493-5.556 5.556v4.466c-.358-.067-.72-.106-1.09-.106-2.35 0-4.482 1.386-5.436 3.533-1.33 2.997.025 6.518 3.022 7.848l3.305 1.467c-.876.61-1.596 1.445-2.047 2.46-1.21 2.723-.195 5.873 2.248 7.425v.163c-1.286.547-2.354 1.556-2.942 2.88-1.256 2.828.024 6.15 2.85 7.405l.093.04v1.248c-.885.58-1.607 1.41-2.053 2.415-1.13 2.544-.204 5.485 2.052 6.964v5.653c0 3.064 2.49 5.554 5.554 5.554h7.395c2.152 3.385 4.51 5.95 7.042 7.623 1.675 1.106 3.07 1.58 3.965 1.778l1.92 3.602c.202.42 1.112 2.07 3.04 2.382.188.03.382.044.585.044 1.478 0 3.063-.83 3.353-.99l21.125-11.38c.827-.375 1.834-1.36 2.12-3.02.292-1.696-.647-3.112-.755-3.27zm-52.01-41.387V20.117c0-1.224.992-2.216 2.216-2.216h26.822c1.224 0 2.216.993 2.216 2.217l.07 4.994-.07.022v.504c-.75.318-1.676.846-2.52 1.723v-1.396H33.634v10.914l-.255-.113c-.72-.32-1.48-.487-2.263-.506v-1.347zM28.58 41.14c.418-.94 1.355-1.55 2.386-1.55.05 0 .098.014.148.017.312.018.618.08.908.21l1.61.714 2.654 1.18c1.314.583 1.908 2.128 1.325 3.44-.417.943-1.353 1.55-2.385 1.55-.364 0-.72-.075-1.057-.224l-.536-.238-2.52-1.12-1.208-.536c-1.313-.584-1.908-2.128-1.323-3.44zm-2.955-8.333c-1.313-.584-1.91-2.128-1.325-3.442.42-.942 1.355-1.55 2.387-1.55.363 0 .72.075 1.056.225l.034.015v5.708l-2.152-.956zm1.65 18.528c.126-.286.3-.542.5-.767.55-.61 1.34-.98 2.19-.98.397 0 .78.082 1.148.24.014.005.03.007.043.013l2.475 1.1 1.79.796c.718.318 1.27.897 1.552 1.632.282.732.262 1.532-.057 2.25-.472 1.062-1.528 1.75-2.69 1.75-.2 0-.4-.023-.594-.063-.203-.043-.403-.107-.598-.193l-1.92-.852-2.345-1.04c-.393-.176-.724-.43-.993-.73-.743-.84-.982-2.065-.5-3.155zm.89 11.11c.47-1.063 1.528-1.75 2.69-1.75.088 0 .173.02.26.028.32.028.634.094.933.227l1.585.704 2.678 1.19c1.484.657 2.155 2.4 1.496 3.882-.116.262-.268.5-.447.71-.552.647-1.368 1.037-2.245 1.037-.41 0-.812-.084-1.192-.25l-2.808-1.25-1.455-.647c-1.484-.658-2.154-2.4-1.495-3.88zm10.637 13.748h-5.47c-1.224 0-2.217-.992-2.217-2.216v-4.083l1.725.767c.722.324 1.488.486 2.275.486 2.217 0 4.232-1.31 5.132-3.336.055-.123.1-.25.144-.374h19.46V42.76c.703 2.034 1.427 3.913 1.935 5.232.227.587.458 1.188.585 1.542v24.443c0 1.224-.992 2.216-2.216 2.216H38.802zm41.788 2.81c-.062.366-.2.514-.254.558L59.04 91.033c-.436.238-1.296.588-1.76.588-.035 0-.054-.002-.054-.002-.236-.04-.473-.358-.555-.517l-2.385-4.472-.416-.908-1.012.024c-.273-.026-3.857-.51-8.083-6.214H60.15c3.063 0 5.556-2.49 5.556-5.554V49.982c.198-.56-.036-1.185-.81-3.19-1-2.6-2.864-7.436-3.633-11.097-.494-2.35-.31-4.193.548-5.473.413-.616.927-1.014 1.388-1.28.646-.337 1.623-.727 2.454-.548.93.46 1.73 1.493 2.39 3.106 2.84 6.968 9.13 17.542 9.644 18.405.11.224 1.26 2.683.796 7.235-.632 6.188-1.332 15.838-1.338 15.936l-.044.605 3.276 4.514c.095.16.262.535.214.808zM28.314 85.688c-.1 0-.198-.012-.298-.033-2.56-.565-4.375-1.756-5.397-3.54-1.53-2.676-.596-5.636-.555-5.763.236-.723 1.013-1.12 1.74-.886.722.236 1.118 1.01.887 1.733-.014.046-.588 1.974.334 3.56.622 1.07 1.828 1.812 3.584 2.2.744.16 1.214.897 1.05 1.644-.14.642-.712 1.084-1.346 1.084z"/><path d="M27.324 90.886c-.1 0-.198-.01-.298-.033-4.512-.995-7.693-3.06-9.455-6.138-2.64-4.615-1.02-9.74-.95-9.956.234-.727 1.014-1.123 1.738-.887.724.235 1.12 1.012.887 1.735-.028.09-1.294 4.237.733 7.756 1.362 2.363 3.934 3.977 7.642 4.793.744.165 1.214.9 1.05 1.645-.142.645-.712 1.084-1.346 1.084zM69.533 20.377c-.126 0-.253-.017-.38-.052-.73-.208-1.154-.968-.95-1.698.01-.036.518-1.99-.465-3.547-.66-1.047-1.894-1.74-3.664-2.065-.75-.136-1.246-.854-1.11-1.604.138-.748.84-1.253 1.606-1.11 2.578.47 4.437 1.595 5.523 3.34 1.627 2.617.802 5.61.766 5.736-.172.606-.726 1-1.327 1z"/><path d="M75.033 21.77c-.126 0-.253-.016-.38-.052-.73-.21-1.155-.97-.95-1.702.022-.08 1.14-4.28-1.017-7.726-1.447-2.31-4.076-3.83-7.812-4.51-.75-.137-1.247-.855-1.11-1.605.136-.75.845-1.254 1.604-1.11 4.546.83 7.8 2.776 9.674 5.788 2.808 4.516 1.38 9.697 1.316 9.917-.17.606-.724 1-1.325 1zM46.74 74.5c-1.47 0-2.666-1.196-2.666-2.666s1.196-2.667 2.667-2.667 2.668 1.196 2.668 2.667c0 1.47-1.197 2.666-2.667 2.666zm0-4.333c-.918 0-1.666.748-1.666 1.667s.748 1.666 1.667 1.666 1.668-.747 1.668-1.666-.748-1.667-1.667-1.667z"/>
</symbol>

<symbol id="icon-shaking" viewBox="0 0 106 139">
        <title>shake copy 4</title><g transform="translate(.5)" fill="none" fill-rule="evenodd"><path d="M31.417 45.603c-1.433 3.212-4.603 5.3-8.12 5.4v54.8c0 1.878 1.53 3.4 3.417 3.4h41.343c1.886 0 3.415-1.522 3.415-3.4V23.188c0-1.878-1.53-3.4-3.415-3.4h-41.34c-1.888 0-3.42 1.522-3.42 3.4v8.847l3.467 1.53c4.616 2.043 6.705 7.442 4.653 12.038zM18.1 35.34c-.52-.23-1.067-.346-1.627-.346-1.59 0-3.033.93-3.68 2.378-.898 2.015.02 4.384 2.043 5.28l3.316 1.466v-8.756l-.05-.023z"/><path d="M53.98 26.645c0 .66-.538 1.195-1.2 1.195H41.994c-.663 0-1.2-.534-1.2-1.195 0-.658.537-1.188 1.2-1.188H52.78c.66 0 1.2.53 1.2 1.188z" fill="#FFF"/><path d="M22.898 85.432c-1.793 0-3.422 1.052-4.148 2.683-1.016 2.27.018 4.943 2.304 5.953l2.243.992v-9.587c-.133-.01-.264-.04-.4-.04zM29.635 63.965c1.59 0 3.032-.933 3.678-2.378.9-2.014-.017-4.383-2.042-5.278l-4.09-1.81v8.756l.826.365c.52.228 1.067.345 1.63.345z"/><path fill="#FFF" d="M23.297 64.34v.14c.264.054.524.126.783.206l-.783-.347z"/><path d="M29.463 97.362c1.35 0 2.61-.598 3.46-1.59H27.18v-8.87l-2.443-1.08c-.46-.203-.945-.303-1.44-.347v9.587l4.33 1.915c.586.257 1.204.385 1.836.385zM21.53 68.392c-1.31 0-2.53.567-3.377 1.505v6.012c.415.463.925.852 1.53 1.12l3.615 1.596V68.76c-.567-.24-1.16-.368-1.77-.368z"/><path d="M27.18 80.23v-9.76l-3.815-1.687c-.022-.01-.045-.012-.067-.022v9.867l2.96 1.307c.3.13.607.23.922.296zM17.378 71.073c-.743 1.672-.375 3.55.774 4.836v-6.013c-.312.345-.577.737-.774 1.176z"/><path fill="#FFF" d="M27.18 66.085c.11.087.222.117.334.19l-.334-.29v.1z"/><path d="M25.036 65.04c-.313-.14-.634-.254-.956-.354l2.882 1.275c.07.033.147.042.218.07v-.045l-2.144-.946z" fill="#FFF"/><path d="M103.467 109.365l-4.015-5.51c.253-3.39 1.153-15.31 1.978-23.36.914-8.896-1.57-13.61-1.856-14.12l-.037-.063c-.1-.17-10.227-17.05-14.55-27.598-2.302-5.62-5.56-7.64-8.366-8.203v-7.324c0-4.698-3.842-8.52-8.562-8.52H26.716c-4.722 0-8.563 3.822-8.563 8.52v6.85c-.552-.102-1.11-.162-1.678-.162-3.623 0-6.91 2.126-8.38 5.42-2.053 4.598.036 10 4.656 12.04l5.095 2.25c-1.35.933-2.46 2.216-3.155 3.77-1.864 4.18-.3 9.01 3.465 11.392v.25c-1.982.84-3.63 2.386-4.535 4.417-1.936 4.338.037 9.434 4.395 11.36l.14.062v1.913c-1.36.89-2.474 2.16-3.162 3.704-1.743 3.9-.314 8.412 3.163 10.68v8.67c0 4.7 3.842 8.52 8.563 8.52h11.398c3.318 5.19 6.95 9.126 10.856 11.692 2.582 1.697 4.732 2.424 6.112 2.727l2.96 5.525c.31.643 1.713 3.174 4.685 3.654.29.045.59.066.903.066 2.278 0 4.72-1.273 5.168-1.518l32.563-17.458c1.275-.573 2.827-2.084 3.267-4.63.45-2.602-.996-4.774-1.163-5.015zm-80.17-63.482V23.188c0-1.878 1.53-3.4 3.417-3.4h41.343c1.886 0 3.415 1.522 3.415 3.4l.107 7.66-.108.032v.773c-1.157.488-2.583 1.298-3.883 2.643v-2.14H27.18V48.9l-.393-.174c-1.112-.49-2.283-.747-3.49-.776v-2.065zm-3.904 9.554c.642-1.445 2.087-2.378 3.676-2.378.076 0 .15.02.227.024.48.027.953.124 1.4.32l2.48 1.097 4.092 1.81c2.025.894 2.94 3.263 2.042 5.277-.645 1.445-2.088 2.378-3.678 2.378-.56 0-1.11-.117-1.63-.345l-.826-.365-3.883-1.717-1.863-.823c-2.024-.896-2.94-3.264-2.04-5.278zm-4.557-12.784c-2.024-.896-2.942-3.264-2.042-5.28.646-1.445 2.088-2.377 3.68-2.377.56 0 1.107.115 1.627.345l.053.024v8.755l-3.317-1.467zm2.542 28.42c.196-.44.462-.83.774-1.176.847-.938 2.065-1.505 3.375-1.505.61 0 1.203.127 1.768.368.022.01.045.012.067.02l3.815 1.69 2.757 1.218c1.107.488 1.956 1.376 2.393 2.503.434 1.124.403 2.35-.088 3.453-.73 1.63-2.357 2.682-4.15 2.682-.308 0-.613-.033-.913-.095-.315-.066-.623-.164-.924-.296l-2.96-1.307-3.614-1.596c-.607-.268-1.117-.657-1.53-1.12-1.147-1.286-1.515-3.165-.772-4.837zm1.373 17.042c.727-1.63 2.357-2.683 4.15-2.683.133 0 .264.03.398.04.494.044.978.145 1.44.35l2.442 1.08 4.128 1.823c2.286 1.01 3.32 3.683 2.304 5.956-.18.403-.413.767-.69 1.09-.848.993-2.106 1.59-3.458 1.59-.632 0-1.25-.128-1.837-.384l-4.33-1.916-2.24-.992c-2.29-1.01-3.32-3.682-2.306-5.953zm16.397 21.088h-8.43c-1.888 0-3.42-1.522-3.42-3.4V99.54l2.66 1.177c1.113.496 2.294.744 3.507.744 3.417 0 6.523-2.01 7.91-5.116.085-.19.153-.382.223-.574h29.996V57.92c1.082 3.12 2.198 6.002 2.98 8.025.35.9.707 1.822.902 2.365v37.493c0 1.878-1.53 3.4-3.415 3.4H35.147zm64.413 4.308c-.096.564-.308.79-.392.86L66.34 131.963c-.67.365-1.995.902-2.712.902-.052 0-.082-.003-.082-.003-.363-.06-.73-.55-.855-.793l-3.677-6.86-.64-1.394-1.56.037c-.42-.04-5.945-.784-12.46-9.532h23.702c4.72 0 8.563-3.817 8.563-8.518V68.998c.305-.86-.056-1.818-1.25-4.895-1.542-3.985-4.414-11.404-5.6-17.02-.76-3.606-.477-6.432.846-8.395.635-.945 1.427-1.555 2.138-1.962.995-.518 2.5-1.117 3.782-.842 1.434.707 2.668 2.29 3.684 4.764C84.596 51.336 94.29 67.556 95.084 68.88c.17.343 1.943 4.115 1.227 11.097-.974 9.492-2.053 24.294-2.062 24.444l-.068.93 5.05 6.922c.147.244.404.82.33 1.24zM18.98 123.767c-.152 0-.304-.018-.458-.05-3.946-.867-6.744-2.694-8.32-5.432-2.358-4.103-.917-8.644-.853-8.84.362-1.108 1.56-1.715 2.68-1.358 1.114.362 1.724 1.55 1.368 2.66-.022.07-.906 3.028.515 5.46.96 1.642 2.818 2.78 5.524 3.374 1.147.25 1.872 1.378 1.62 2.524-.22.985-1.1 1.663-2.076 1.663z" fill="#FFF"/><path d="M17.455 131.74c-.153 0-.305-.017-.46-.05-6.954-1.527-11.857-4.696-14.573-9.416-4.07-7.078-1.576-14.94-1.468-15.27.362-1.115 1.565-1.722 2.68-1.36 1.117.36 1.73 1.552 1.368 2.66-.043.138-1.995 6.5 1.13 11.898 2.1 3.625 6.064 6.1 11.78 7.352 1.146.253 1.87 1.382 1.618 2.523-.22.99-1.098 1.663-2.075 1.663zM82.517 23.587c-.195 0-.39-.026-.586-.08-1.123-.32-1.778-1.485-1.465-2.605.017-.055.8-3.052-.715-5.44-1.02-1.606-2.92-2.67-5.648-3.168-1.155-.208-1.92-1.31-1.71-2.46.212-1.15 1.294-1.924 2.474-1.704 3.974.722 6.84 2.446 8.514 5.124 2.508 4.013 1.236 8.602 1.18 8.797-.263.93-1.117 1.537-2.043 1.537z" fill="#FFF"/><path d="M90.994 25.725c-.194 0-.39-.026-.585-.08-1.128-.322-1.782-1.49-1.466-2.612.034-.124 1.76-6.565-1.567-11.85-2.23-3.546-6.283-5.874-12.042-6.92-1.154-.21-1.922-1.31-1.71-2.46.21-1.15 1.302-1.924 2.472-1.702C83.104 1.37 88.12 4.36 91.007 8.98c4.33 6.927 2.127 14.874 2.03 15.212-.262.93-1.116 1.535-2.043 1.535zM47.385 106.606c-2.266 0-4.11-1.835-4.11-4.09 0-2.256 1.842-4.09 4.11-4.09 2.267 0 4.11 1.834 4.11 4.09 0 2.255-1.845 4.09-4.11 4.09zm0-6.647c-1.417 0-2.57 1.147-2.57 2.556 0 1.41 1.153 2.556 2.57 2.556 1.416 0 2.57-1.146 2.57-2.556 0-1.41-1.154-2.557-2.57-2.557z" fill="#FFF"/></g>
</symbol>

<symbol id="icon-star" viewBox="0 0 13 13">
        <title>Star 2 Copy</title><path d="M7.78 7.78L6.5 13 5.22 7.78 0 6.5l5.22-1.28L6.5 0l1.28 5.22L13 6.5" fill="#FFEE0C" fill-rule="evenodd"/>
</symbol>

<symbol id="icon-switch" viewBox="0 0 20 11">
        <title>Fill 1910 + Fill 1912</title><g fill="#CCC" fill-rule="evenodd"><path d="M18.674 7.783H3.056l.266-.267c.305-.306.294-.787-.023-1.077-.318-.298-.822-.283-1.126.015L.66 7.975c-.17.137-.282.342-.282.57 0 .23.112.43.28.574l1.516 1.51c.157.16.366.238.575.238.197 0 .395-.07.55-.215.316-.29.327-.77.022-1.075l-.265-.268h15.617c.44 0 .795-.343.795-.764 0-.42-.357-.763-.796-.763M1.174 3.202h15.618l-.266.268c-.304.305-.293.786.024 1.077.153.144.352.213.55.213.21 0 .418-.077.574-.237l1.516-1.52c.168-.136.28-.334.28-.564 0-.23-.11-.43-.278-.565L17.674.347C17.37.05 16.866.035 16.55.332c-.317.29-.328.77-.024 1.076l.267.267H1.173c-.438 0-.795.344-.795.764 0 .42.357.762.796.762"/></g>
</symbol>

<symbol id="icon-tips" viewBox="0 0 16 15">
        <title>btn_info_gray</title><path d="M8 15.025C3.86 15.025.5 11.66.5 7.512.5 3.362 3.858 0 8 0c4.143 0 7.5 3.363 7.5 7.512 0 4.15-3.357 7.513-7.5 7.513zM5.864 6.337l-.027.497c.072-.027.18-.056.282-.086.1-.03.2-.045.296-.045.196 0 .49.033.56.1.07.065.176.183.176.35 0 .095-.01.108-.034.22-.022.113-.05.233-.084.36l-.516 1.21c-.168.35-.14.86-.14.873 0 .27.217.494.417.67.2.177.48.265.84.265.235 0 .44-.03.618-.092.18-.062.308-.025.605-.142l.1-.406c-.255.12-.24.076-.5.076-.192 0-.273-.104-.35-.167-.08-.064-.118-.183-.118-.357 0-.07.012-.35.036-.486.024-.135.05-.256.08-.36L8.71 7.61c.035-.12.06-.252.073-.397.013-.145.02-.245.02-.302 0-.276-.24-.555-.435-.728-.194-.173-.56-.26-.917-.26-.198 0-.408.035-.63.106-.224.07-.713.21-.957.31zm2.985-2.39c-.16-.153-.356-.23-.584-.23-.228 0-.424.093-.587.246-.163.152-.245.352-.245.566 0 .213.082.413.245.564.163.15.36.26.587.26.228 0 .423-.11.584-.26.162-.15.243-.35.243-.565 0-.215-.08-.432-.242-.584z" opacity=".5" fill="#966300" fill-rule="evenodd"/>
</symbol>

<symbol id="icon-upload" viewBox="0 0 16 12">
        <title>icon_upload</title><g fill="#000" fill-rule="evenodd"><path d="M11.967 2.88c-.526 0-1.11.14-1.664.36C9.443 1.41 7.863.386 5.866.386 2.87.385.32 2.935.32 5.93c0 2.802 1.886 4.937 4.603 5.242.306.028.583-.194.61-.5.028-.304-.194-.58-.5-.61-2.134-.22-3.604-1.94-3.604-4.13 0-2.358 2.08-4.438 4.436-4.438 1.72 0 3.023.943 3.633 2.69.055.166.166.277.332.333.166.055.333.027.47-.056.5-.304 1.14-.47 1.665-.47 1.387 0 2.774 1.054 2.774 3.05 0 1.692-1.358 3.05-3.05 3.05h-.665c-.306 0-.555.25-.555.555 0 .305.25.555.555.555h.665c2.302 0 4.16-1.858 4.16-4.16 0-2.024-1.36-4.16-3.883-4.16z"/><path d="M10.414 7.207l-1.94-1.942c-.112-.11-.278-.166-.445-.166h-.056c-.25 0-.47.165-.527.415L5.755 7.207c-.22.22-.22.554 0 .776.222.222.555.222.777 0l.887-.887v3.55c0 .304.25.554.554.554.305 0 .555-.25.555-.555v-3.77l1.108 1.108c.11.11.25.166.388.166.14 0 .277-.056.388-.167.222-.222.222-.555 0-.776z"/></g>
</symbol>

<symbol id="shaked2-coupon" viewBox="0 0 292 131">
        <title>img_cupon@2x</title><defs><filter x="-50%" y="-50%" width="200%" height="200%" filterUnits="objectBoundingBox" id="bga"><feOffset dy="2" in="SourceAlpha" result="shadowOffsetOuter1"/><feGaussianBlur in="shadowOffsetOuter1" result="shadowBlurOuter1"/><feColorMatrix values="0 0 0 0 0 0 0 0 0 0 0 0 0 0 0 0 0 0 0.07 0" in="shadowBlurOuter1" result="shadowMatrixOuter1"/><feMerge><feMergeNode in="shadowMatrixOuter1"/><feMergeNode in="SourceGraphic"/></feMerge></filter></defs><g transform="translate(1 1)" fill="none" fill-rule="evenodd"><path d="M0 103.126V92.874c1.725-.444 3-2.01 3-3.874 0-1.864-1.275-3.43-3-3.874v-6.252c1.725-.444 3-2.01 3-3.874 0-1.864-1.275-3.43-3-3.874v-6.252c1.725-.444 3-2.01 3-3.874 0-1.864-1.275-3.43-3-3.874v-6.252c1.725-.444 3-2.01 3-3.874 0-1.864-1.275-3.43-3-3.874v-6.252c1.725-.444 3-2.01 3-3.874 0-1.864-1.275-3.43-3-3.874v-6.252c1.725-.444 3-2.01 3-3.874 0-1.864-1.275-3.43-3-3.874V10c5.523 0 10-4.477 10-10h270c0 5.523 4.477 10 10 10v5.126c-1.725.444-3 2.01-3 3.874 0 1.864 1.275 3.43 3 3.874v6.252c-1.725.444-3 2.01-3 3.874 0 1.864 1.275 3.43 3 3.874v6.252c-1.725.444-3 2.01-3 3.874 0 1.864 1.275 3.43 3 3.874v6.252c-1.725.444-3 2.01-3 3.874 0 1.864 1.275 3.43 3 3.874v6.252c-1.725.444-3 2.01-3 3.874 0 1.864 1.275 3.43 3 3.874v6.252c-1.725.444-3 2.01-3 3.874 0 1.864 1.275 3.43 3 3.874v10.252c-1.725.444-3 2.01-3 3.874 0 1.864 1.275 3.43 3 3.874V117c-5.523 0-10 4.477-10 10H10c0-5.523-4.477-10-10-10v-6.126c1.725-.444 3-2.01 3-3.874 0-1.864-1.275-3.43-3-3.874z" stroke-opacity=".168" stroke="#D0011B" stroke-width=".5" fill="#FF5B54" filter="url(#bga)"/><path d="M9.205 109.84V17.16c5.172 0 9.365-3.876 9.365-8.66h252.86c0 4.784 4.193 8.66 9.365 8.66v92.68c-5.172 0-9.365 3.876-9.365 8.66H18.57c0-4.784-4.193-8.66-9.365-8.66z" stroke="#F63F37" fill="#FF5B54"/><path d="M10.136 74.562h270.23" stroke="#F53F37"/></g>
</symbol>
</svg>