<?xml version="1.0" encoding="UTF-8" standalone="no"?>
<svg width="24px" height="24px" viewBox="0 0 24 24" version="1.1" xmlns="http://www.w3.org/2000/svg" xmlns:xlink="http://www.w3.org/1999/xlink">
    <!-- Generator: Sketch 3.8.1 (29687) - http://www.bohemiancoding.com/sketch -->
    <title>Group 2</title>
    <desc>Created with Sketch.</desc>
    <defs></defs>
    <g id="视觉稿-v4" stroke="none" stroke-width="1" fill="none" fill-rule="evenodd">
        <g id="特权页" transform="translate(-32.000000, -755.000000)">
            <g id="Group-2" transform="translate(32.000000, 755.000000)">
                <circle id="Oval-44-Copy-3" fill="#F13C34" opacity="0.75" cx="12" cy="12" r="12"></circle>
                <path d="M15.8594106,6 L14.3840241,6 L7.4559453,18 L8.93092407,18 L15.8594106,6 Z M12.3578648,15.1462545 C12.3578648,16.7223374 13.6355274,18 15.2116103,18 C16.7876932,18 18.0653559,16.7223374 18.0653559,15.1462545 C18.0653559,13.5701716 16.7876932,12.2925089 15.2116103,12.2925089 C13.6355274,12.2925089 12.3578648,13.5701716 12.3578648,15.1462545 Z M13.9885765,15.1462545 C13.9885765,14.4707321 14.536088,13.9232207 15.2116103,13.9232207 C15.8871327,13.9232207 16.4346441,14.4707321 16.4346441,15.1462545 C16.4346441,15.8213691 15.8871327,16.3692883 15.2116103,16.3692883 C14.536088,16.3692883 13.9885765,15.8217768 13.9885765,15.1462545 Z M5.25,8.85374554 C5.25,10.4298284 6.52766265,11.7074911 8.10374554,11.7074911 C9.67982844,11.7074911 10.9574911,10.4298284 10.9574911,8.85374554 C10.9574911,7.27766265 9.67982844,6 8.10374554,6 C6.52766265,6 5.25,7.27766265 5.25,8.85374554 Z M6.88071174,8.85374554 C6.88071174,8.1782232 7.4282232,7.63071174 8.10374554,7.63071174 C8.7788602,7.63071174 9.32677934,8.1782232 9.32677934,8.85374554 C9.32677934,9.5288602 8.7788602,10.0767793 8.10374554,10.0767793 C7.42781553,10.0767793 6.88071174,9.5288602 6.88071174,8.85374554 Z" id="Combined-Shape-Copy-2" fill="#FFFFFF"></path>
            </g>
        </g>
    </g>
</svg>