<?xml version="1.0" encoding="UTF-8" standalone="no"?>
<svg width="24px" height="24px" viewBox="0 0 24 24" version="1.1" xmlns="http://www.w3.org/2000/svg" xmlns:xlink="http://www.w3.org/1999/xlink">
    <!-- Generator: Sketch 3.8.1 (29687) - http://www.bohemiancoding.com/sketch -->
    <title>Group 6</title>
    <desc>Created with Sketch.</desc>
    <defs></defs>
    <g id="视觉稿-v4" stroke="none" stroke-width="1" fill="none" fill-rule="evenodd">
        <g id="特权页" transform="translate(-32.000000, -1411.000000)">
            <g id="Group-6" transform="translate(32.000000, 1411.000000)">
                <circle id="Oval-44-Copy-5" fill="#F13C34" opacity="0.75" cx="12" cy="12" r="12"></circle>
                <path d="M6.28085371,5.79847762 C5.06647555,7.03512851 5,8.59798933 5,8.59798933 C5.30359454,10.1140774 6.99786451,12.8774388 9.05963464,14.9395515 C11.1212334,17.0016643 13.8837381,18.6959343 15.4010255,18.9978156 C15.4010255,18.9978156 16.9649143,18.9337386 18.1993379,17.7179898 L18.2000233,17.7193605 L18.9281704,16.9927552 C19.0239432,16.8954405 19.0239432,16.7369614 18.9281704,16.6411887 L15.8425397,13.5562433 C15.7455676,13.4606418 15.5877739,13.4606418 15.4921724,13.5562433 L14.7647106,14.2830198 L14.7669378,14.2859324 L14.0829935,15.1338383 C14.0829935,15.1338383 12.7862062,14.8540585 10.9658383,13.0328339 C9.14444237,11.2131513 8.86466253,9.91670669 8.86466253,9.91670669 L9.71273982,9.2319057 L9.7149671,9.23481828 L9.73895312,9.20946163 L9.73963844,9.20946163 L9.73963844,9.20946163 L10.4426003,8.50667111 C10.538887,8.40935639 10.538887,8.25224792 10.4426003,8.15664648 L7.35731222,5.07170108 C7.26102546,4.97609964 7.103917,4.97609964 7.00763025,5.07170108 L6.27965441,5.79847762 L6.28085371,5.79847762 L6.28085371,5.79847762 Z" id="Shape-Copy" fill="#FFFFFF"></path>
            </g>
        </g>
    </g>
</svg>