<?xml version="1.0" encoding="UTF-8" standalone="no"?>
<svg width="18px" height="18px" viewBox="0 0 18 18" version="1.1" xmlns="http://www.w3.org/2000/svg" xmlns:xlink="http://www.w3.org/1999/xlink" xmlns:sketch="http://www.bohemiancoding.com/sketch/ns">
    <!-- Generator: Sketch 3.4.4 (17249) - http://www.bohemiancoding.com/sketch -->
    <title>like grey</title>
    <desc>Created with Sketch.</desc>
    <defs></defs>
    <g id="海淘发现视觉" stroke="none" stroke-width="1" fill="none" fill-rule="evenodd" sketch:type="MSPage">
        <g id="Artboard-25" sketch:type="MSArtboardGroup" transform="translate(-171.000000, -30.000000)">
            <g id="like-grey" sketch:type="MSLayerGroup" transform="translate(169.000000, 28.000000)">
                <rect id="Rectangle-541" fill-opacity="0" fill="#FFFFFF" sketch:type="MSShapeGroup" x="0" y="0" width="22" height="22"></rect>
                <g id="noun_86134_cc-copy" transform="translate(1.500000, 2.500000)" stroke-width="0.2" stroke="#979DA9" fill="#979DA9" sketch:type="MSShapeGroup">
                    <g id="Group" transform="translate(0.500000, 0.000000)">
                        <g id="Shape">
                            <path d="M4.57532136,16.8301828 L0.529411765,16.8301828 L0.529411765,6.68191398 L4.57532136,6.68191398 L4.57532136,16.8301828 L4.57532136,16.8301828 Z M1.24272446,16.099 L3.86200867,16.099 L3.86200867,7.41309677 L1.24272446,7.41309677 L1.24272446,16.099 L1.24272446,16.099 Z"></path>
                            <path d="M14.1056693,16.9416882 L14.1056693,16.9416882 L14.0502093,16.9411398 L8.34138947,16.9411398 C6.74588731,16.9411398 5.67716656,16.4029892 5.63240619,16.3801398 L5.43517523,16.2790538 L5.43517523,7.30268817 L5.79183158,7.30268817 C6.18879009,7.30268817 6.56827245,6.98809677 6.9350935,6.68410753 C6.99911331,6.63091398 7.06241981,6.57863441 7.12483467,6.52836559 C7.58474303,6.05108602 8.26417337,5.06490323 8.59229721,4.58835484 C9.20449783,3.69996774 9.51496718,2.91339785 9.51496718,2.25058065 L9.51496718,0.719849462 C9.51496718,0.306 9.93546502,0.0279677419 10.5617536,0.0279677419 C11.1826923,0.0279677419 11.7954279,0.287172043 12.2004111,0.721677419 C12.6087827,1.15965591 12.8081536,1.76726882 12.7767678,2.47870968 C12.7346824,3.43235484 12.4313461,4.2967957 12.1877498,4.99160215 C12.0481189,5.38991398 11.9163344,5.76610753 11.9163344,5.95804301 C11.9163344,6.39949462 12.2779839,6.80146237 12.6752991,6.80146237 L16.3408347,6.80146237 C16.7791653,6.80146237 17.1923517,6.98188172 17.4746452,7.29629032 C17.7309028,7.58163441 17.8562675,7.94777419 17.8284483,8.32835484 C17.8179269,8.85425806 17.677761,9.25567742 17.6183777,9.41982796 C17.5887752,9.52694624 17.5561412,9.64119355 17.5213672,9.76037634 C17.5101325,9.85177419 17.5149474,9.96565591 17.6026848,10.1199355 C18.1125251,11.0149032 17.7851146,11.5137527 17.5461548,11.8780645 C17.3642601,12.1551828 17.2544099,12.3224409 17.3765647,12.697172 C17.6438786,13.5192043 17.0548607,14.0524194 16.6652136,14.4053978 C16.5425238,14.5163548 16.3590241,14.6825161 16.3304916,14.7596559 C16.4164458,15.3531935 16.2998192,15.8452796 15.9836433,16.2227527 C15.4402774,16.8716774 14.4892533,16.9416882 14.1056693,16.9416882 L14.1056693,16.9416882 Z M6.14848793,15.8110968 C6.50015108,15.9500215 7.297813,16.209957 8.34138947,16.209957 L14.1056693,16.2105054 C14.5639728,16.2105054 15.1560223,16.0885806 15.4425957,15.7465699 C15.6218155,15.5326989 15.6810204,15.241871 15.6237771,14.8578172 C15.5599356,14.4306237 15.8962625,14.126086 16.1930006,13.8573763 C16.5819344,13.5053118 16.8100161,13.267129 16.6999876,12.9285914 C16.4669127,12.2127634 16.7486712,11.7833763 16.9544619,11.4700645 C17.1654241,11.1487097 17.2711728,10.9874839 16.987096,10.4888172 C16.8282056,10.2100538 16.7738155,9.92726882 16.8201808,9.62455914 L16.8308805,9.57666667 C16.8688644,9.44651613 16.9043517,9.32221505 16.9362724,9.20668817 L16.9451889,9.17926882 C16.9899492,9.05533333 17.1088941,8.72630108 17.1158489,8.3044086 L17.1170972,8.28027957 C17.1317201,8.10132258 17.0723368,7.92766667 16.9498254,7.79130108 C16.802348,7.62696774 16.5805077,7.53264516 16.341013,7.53264516 L12.6754774,7.53264516 C11.8772805,7.53264516 11.2032,6.81151613 11.2032,5.95804301 C11.2032,5.63869892 11.3415827,5.24404301 11.5168793,4.74427957 C11.7440693,4.09590323 12.0270762,3.28904301 12.0643467,2.44580645 C12.0869944,1.93141935 11.9593115,1.52122581 11.6848644,1.22692473 C11.3631604,0.882172043 10.8938006,0.759150538 10.5617536,0.759150538 C10.4003666,0.759150538 10.2873065,0.786935484 10.2282799,0.811064516 L10.2282799,2.25058065 C10.2282799,3.06749462 9.8739418,3.99591398 9.17507368,5.01024731 C8.62564458,5.80778495 8.05642105,6.60824731 7.61398885,7.06121505 L7.58081981,7.09119355 C7.51590836,7.14292473 7.45028359,7.19739785 7.38358885,7.25260215 C7.0262192,7.54891398 6.63033065,7.87703226 6.14848793,7.99164516 L6.14848793,15.8110968 L6.14848793,15.8110968 Z"></path>
                        </g>
                    </g>
                </g>
            </g>
        </g>
    </g>
</svg>