<svg xmlns="http://www.w3.org/2000/svg" xmlns:xlink="http://www.w3.org/1999/xlink" width="0" height="0" style="position:absolute">

<symbol id="icon-location" viewBox="0 0 9 13">
        <title>icon_location</title><path d="M4.24 0C1.898 0 0 1.898 0 4.24c0 .05.002.1.004.153.016.445.1.873.242 1.273.905 2.973 3.994 6.852 3.994 6.852s3.09-3.878 3.993-6.85c.143-.402.227-.83.243-1.275.003-.052.004-.103.004-.153C8.48 1.898 6.582 0 4.24 0zm0 6.317c-1.147 0-2.077-.93-2.077-2.077 0-1.147.93-2.077 2.077-2.077 1.147 0 2.077.93 2.077 2.077 0 1.147-.93 2.077-2.077 2.077z" fill="#9B9B9B" fill-rule="evenodd"/>
</symbol>
</svg>