<?xml version="1.0" encoding="UTF-8" standalone="no"?>
<svg width="17px" height="14px" viewBox="0 0 17 14" version="1.1" xmlns="http://www.w3.org/2000/svg" xmlns:xlink="http://www.w3.org/1999/xlink" xmlns:sketch="http://www.bohemiancoding.com/sketch/ns">
    <!-- Generator: Sketch 3.5.2 (25235) - http://www.bohemiancoding.com/sketch -->
    <title>Page 1</title>
    <desc>Created with Sketch.</desc>
    <defs>
        <path id="path-1" d="M0,0.0608837209 L16.77016,0.0608837209 L16.77016,14 L0,14 L0,0.0608837209 Z"></path>
    </defs>
    <g id="Page-1" stroke="none" stroke-width="1" fill="none" fill-rule="evenodd" sketch:type="MSPage">
        <g id="商品列表-copy-4" sketch:type="MSArtboardGroup" transform="translate(-280.000000, -651.000000)">
            <g id="Group" sketch:type="MSLayerGroup" transform="translate(1.000000, 151.000000)">
                <g id="Page-1" transform="translate(279.000000, 500.000000)">
                    <g id="Group-3">
                        <mask id="mask-2" sketch:name="Clip 2" fill="white">
                            <use xlink:href="#path-1"></use>
                        </mask>
                        <g id="Clip-2"></g>
                        <path d="M14.462614,6.87250233 C14.434394,6.98710698 14.329334,7.0672 14.206934,7.0672 C14.194694,7.0672 14.182114,7.06785116 14.170214,7.06915349 L4.415954,8.08366512 L3.108994,2.60738605 L15.677434,2.60738605 L14.462614,6.87250233 Z M16.519614,0.887665116 C16.339074,0.840455814 16.151734,0.942688372 16.102094,1.11589767 L15.862734,1.95622326 L3.109674,1.95622326 L3.360254,0.916316279 C3.371474,0.870083721 3.371814,0.821897674 3.361614,0.775339535 C3.269814,0.361525581 2.881874,0.0606883721 2.439534,0.0606883721 L0.340034,0.0606883721 C0.152354,0.0606883721 3.40000001e-05,0.206223256 3.40000001e-05,0.386269767 C3.40000001e-05,0.566316279 0.152354,0.711851163 0.340034,0.711851163 L2.439534,0.711851163 C2.542214,0.711851163 2.634354,0.770130233 2.677194,0.85575814 L2.351134,2.20887442 C2.350454,2.21147907 2.351474,2.21375814 2.350794,2.21636279 C2.341614,2.2599907 2.340254,2.30524651 2.350794,2.35147907 C2.350794,2.35213023 2.350454,2.35310698 2.350794,2.35408372 C2.350794,2.35408372 2.350794,2.35408372 2.350794,2.3544093 L3.800214,8.42585116 L3.429954,9.56082791 C3.426554,9.57124651 3.423494,9.5819907 3.421114,9.59273488 C3.370794,9.83073488 3.433694,10.0749209 3.593834,10.2618047 C3.753634,10.4496651 3.990954,10.5574326 4.244254,10.5574326 L14.357214,10.5574326 C14.544894,10.5574326 14.697214,10.4118977 14.697214,10.2318512 C14.697214,10.0521302 14.544894,9.90626977 14.357214,9.90626977 L4.244254,9.90626977 C4.195974,9.90626977 4.151094,9.88608372 4.120494,9.84994419 C4.092614,9.81738605 4.080034,9.77603721 4.085474,9.73436279 L4.410174,8.73938605 L14.227334,7.71803721 C14.658794,7.70924651 15.025994,7.42501395 15.121874,7.03236279 L16.758294,1.28747907 C16.807594,1.11394419 16.700834,0.9352 16.519614,0.887665116 L16.519614,0.887665116 Z" id="Fill-1" fill="#F13C34" sketch:type="MSShapeGroup" mask="url(#mask-2)"></path>
                    </g>
                    <path d="M4.820452,13.3488372 C4.438972,13.3488372 4.128552,13.051907 4.128552,12.6866047 C4.128552,12.3213023 4.438972,12.0243721 4.820452,12.0243721 C5.201592,12.0243721 5.511332,12.3213023 5.511332,12.6866047 C5.511332,13.051907 5.201592,13.3488372 4.820452,13.3488372 M4.820452,11.3732093 C4.063952,11.3732093 3.448552,11.962186 3.448552,12.6866047 C3.448552,13.4106977 4.063952,14 4.820452,14 C5.576272,14 6.191332,13.4106977 6.191332,12.6866047 C6.191332,11.962186 5.576272,11.3732093 4.820452,11.3732093" id="Fill-4" fill="#F13C34" sketch:type="MSShapeGroup"></path>
                    <path d="M12.93496,13.3488372 C12.55348,13.3488372 12.2434,13.051907 12.2434,12.6866047 C12.2434,12.3213023 12.55348,12.0243721 12.93496,12.0243721 C13.31644,12.0243721 13.62652,12.3213023 13.62652,12.6866047 C13.62652,13.051907 13.31644,13.3488372 12.93496,13.3488372 M12.93496,11.3732093 C12.1788,11.3732093 11.5634,11.962186 11.5634,12.6866047 C11.5634,13.4106977 12.1788,14 12.93496,14 C13.69146,14 14.30652,13.4106977 14.30652,12.6866047 C14.30652,11.962186 13.69146,11.3732093 12.93496,11.3732093" id="Fill-6" fill="#F13C34" sketch:type="MSShapeGroup"></path>
                </g>
            </g>
        </g>
    </g>
</svg>