<?xml version="1.0" encoding="UTF-8" standalone="no"?>
<svg width="17px" height="16px" viewBox="0 0 17 16" version="1.1" xmlns="http://www.w3.org/2000/svg" xmlns:xlink="http://www.w3.org/1999/xlink" xmlns:sketch="http://www.bohemiancoding.com/sketch/ns">
    <!-- Generator: Sketch 3.5.2 (25235) - http://www.bohemiancoding.com/sketch -->
    <title>购物车- 可点</title>
    <desc>Created with Sketch.</desc>
    <defs></defs>
    <g id="Page-1" stroke="none" stroke-width="1" fill="none" fill-rule="evenodd" sketch:type="MSPage">
        <g id="购物车" sketch:type="MSArtboardGroup" transform="translate(-2.000000, -3.000000)" stroke-linecap="round">
            <g id="购物车--可点" sketch:type="MSLayerGroup" transform="translate(2.000000, 4.000000)">
                <path d="M2.31415917,2.10690174 L15.5713534,2.10690174 M0,0 L2.12174207,0 C2.22550986,0 2.31862599,0.0624810158 2.36157624,0.154631788 L2.03206196,1.60495928 C2.03171836,1.60775173 2.03274917,1.61019512 2.03206196,1.61298756 C2.02278471,1.65976106 2.0214103,1.70827984 2.03206196,1.75784579 C2.03206196,1.7585439 2.03171836,1.75959107 2.03206196,1.76063823 L2.03206196,1.76098729 L3.4968371,8.27018272 L3.12265457,9.48699178 C3.11921855,9.49816157 3.11612613,9.50968042 3.11372092,9.52119927 C3.06286783,9.77635917 3.12643419,10.0381511 3.28827071,10.2385093 C3.44976363,10.4399145 3.68959779,10.5554521 3.94558125,10.5554521 L13.8976683,10.5554521 M3.4968371,8.27018272 L13.6516493,7.09840189 C14.0876802,7.08897738 14.4591139,6.78425153 14.555666,6.36329005 L16.2094222,0.902309642" id="Stroke-1" sketch:type="MSShapeGroup"></path>
                <path d="M4.96746479,12.9993472 C4.96746479,13.5512047 4.52696709,13.9986944 3.9837324,13.9986944 C3.44049771,13.9986944 3,13.5512047 3,12.9993472 C3,12.4474897 3.44049771,12 3.9837324,12 C4.52696709,12 4.96746479,12.4474897 4.96746479,12.9993472 L4.96746479,12.9993472 Z" id="Stroke-3" sketch:type="MSShapeGroup"></path>
                <path d="M13.9674648,12.9993472 C13.9674648,13.5512047 13.5269671,13.9986944 12.9837324,13.9986944 C12.4404977,13.9986944 12,13.5512047 12,12.9993472 C12,12.4474897 12.4404977,12 12.9837324,12 C13.5269671,12 13.9674648,12.4474897 13.9674648,12.9993472 L13.9674648,12.9993472 Z" id="Stroke-5" sketch:type="MSShapeGroup"></path>
            </g>
        </g>
    </g>
</svg>