<?xml version="1.0" encoding="UTF-8" standalone="no"?>
<svg width="14px" height="14px" viewBox="0 0 14 14" version="1.1" xmlns="http://www.w3.org/2000/svg" xmlns:xlink="http://www.w3.org/1999/xlink" xmlns:sketch="http://www.bohemiancoding.com/sketch/ns">
    <!-- Generator: Sketch 3.5.2 (25235) - http://www.bohemiancoding.com/sketch -->
    <title>Fill 1 Copy 3</title>
    <desc>Created with Sketch.</desc>
    <defs></defs>
    <g id="Page-1" stroke="none" stroke-width="1" fill="none" fill-rule="evenodd" sketch:type="MSPage">
        <g id="商品列表-copy-4" sketch:type="MSArtboardGroup" transform="translate(-157.000000, -651.000000)" fill="#666666">
            <g id="Group" sketch:type="MSLayerGroup" transform="translate(1.000000, 151.000000)">
                <path d="M168.450565,507.06838 L163.170921,513.160391 C163.111756,513.228132 163.026296,513.26735 162.935905,513.26735 L162.935905,513.541605 L162.934261,513.26735 C162.843323,513.266802 162.757588,513.226486 162.698971,513.1571 L157.436584,506.926316 C157.015582,506.361078 156.793166,505.687784 156.793166,504.979385 C156.793166,503.180551 158.254757,501.717404 160.051343,501.717404 C161.117132,501.717404 162.137453,502.223404 162.780871,503.070575 C162.83264,503.13859 162.913444,503.178631 162.998904,503.178631 C163.084639,503.178631 163.165169,503.138864 163.216938,503.070575 C163.860904,502.223404 164.881772,501.717404 165.947835,501.717404 C167.744969,501.717404 169.206834,503.180551 169.206834,504.979385 C169.206834,505.743183 168.937032,506.486412 168.450565,507.06838 M166.054907,500.936166 C164.892214,500.936166 163.774371,501.436954 162.998865,502.291023 C162.223925,501.436954 161.10665,500.936166 159.944242,500.936166 C157.769303,500.936166 156,502.707683 156,504.88506 C156,505.742255 156.269384,506.55767 156.78232,507.246325 L162.254582,513.726729 C162.422628,513.92568 162.668167,514.040787 162.93017,514.042492 L162.933577,514.042492 C163.191606,514.042492 163.436577,513.930511 163.605758,513.735539 L169.080576,507.418559 C169.67356,506.709725 170,505.809898 170,504.88506 C170,502.707683 168.23013,500.936166 166.054907,500.936166" id="Fill-1-Copy-3" sketch:type="MSShapeGroup"></path>
            </g>
        </g>
    </g>
</svg>