<?xml version="1.0" encoding="UTF-8" standalone="no"?>
<svg width="12px" height="16px" viewBox="0 0 12 16" version="1.1" xmlns="http://www.w3.org/2000/svg" xmlns:xlink="http://www.w3.org/1999/xlink" xmlns:sketch="http://www.bohemiancoding.com/sketch/ns">
    <!-- Generator: Sketch 3.5.2 (25235) - http://www.bohemiancoding.com/sketch -->
    <title>分享 copy 5</title>
    <desc>Created with Sketch.</desc>
    <defs>
        <path id="path-1" d="M0,0.00030847872 L11.0598084,0.00030847872 L11.0598084,15.1154573 L0,15.1154573"></path>
        <path id="path-3" d="M0,0.000369101538 L13.2333027,0.000369101538 L13.2333027,18.0859754 L0,18.0859754"></path>
    </defs>
    <g id="Page-1" stroke="none" stroke-width="1" fill="none" fill-rule="evenodd" sketch:type="MSPage">
        <g id="商品列表-copy-4" sketch:type="MSArtboardGroup" transform="translate(-220.000000, -649.000000)">
            <g id="Group" sketch:type="MSLayerGroup" transform="translate(1.000000, 151.000000)">
                <g id="分享-copy-5" transform="translate(218.000000, 497.000000)">
                    <g id="Group-3" transform="translate(1.749982, 1.343305)">
                        <mask id="mask-2" sketch:name="Clip 2" fill="white">
                            <use xlink:href="#path-1"></use>
                        </mask>
                        <g id="Clip-2"></g>
                        <path d="M3.58876039,2.65371904 L5.21605154,1.05302296 L5.21605154,9.14657913 C5.21605154,9.31716787 5.35657321,9.45505785 5.52971598,9.45505785 C5.70317242,9.45505785 5.84338043,9.31716787 5.84338043,9.14657913 L5.84338043,1.05302296 L7.47098524,2.65371904 C7.53214981,2.71387239 7.6124479,2.7441033 7.692746,2.7441033 C7.7730441,2.7441033 7.8533422,2.71387239 7.91450676,2.65371904 C8.03714956,2.53310386 8.03714956,2.33814531 7.91450676,2.21753013 L5.75210407,0.0908778309 C5.72293328,0.06218931 5.68811653,0.0393618847 5.6495358,0.02362947 C5.57300168,-0.00752688077 5.48674395,-0.00752688077 5.41020983,0.02362947 C5.3716291,0.0393618847 5.33681235,0.06218931 5.30764155,0.0908778309 L3.14523886,2.21753013 C3.02259607,2.33814531 3.02259607,2.53310386 3.14523886,2.65371904 C3.26788166,2.77433422 3.46611759,2.77433422 3.58876039,2.65371904" id="Fill-1" fill="#666666" sketch:type="MSShapeGroup" mask="url(#mask-2)"></path>
                    </g>
                    <g id="Group-6" transform="translate(0.000000, 0.644494)">
                        <mask id="mask-4" sketch:name="Clip 5" fill="white">
                            <use xlink:href="#path-3"></use>
                        </mask>
                        <g id="Clip-5"></g>
                        <path d="M12.4960313,4.93767876 L9.12915716,4.93767876 C8.95570072,4.93767876 8.81549272,5.07556875 8.81549272,5.24615748 C8.81549272,5.41674621 8.95570072,5.5546362 9.12915716,5.5546362 L12.1823669,5.5546362 L12.1823669,15.1973725 L2.3772163,15.1973725 L2.3772163,5.5546362 L5.43073968,5.5546362 C5.60388245,5.5546362 5.74440413,5.41674621 5.74440413,5.24615748 C5.74440413,5.07556875 5.60388245,4.93767876 5.43073968,4.93767876 L2.06355185,4.93767876 C1.89040908,4.93767876 1.74988741,5.07556875 1.74988741,5.24615748 L1.74988741,15.5058512 C1.74988741,15.67644 1.89040908,15.81433 2.06355185,15.81433 L12.4960313,15.81433 C12.6694878,15.81433 12.8096958,15.67644 12.8096958,15.5058512 L12.8096958,5.24615748 C12.8096958,5.07556875 12.6694878,4.93767876 12.4960313,4.93767876" id="Fill-4" fill="#666666" sketch:type="MSShapeGroup" mask="url(#mask-4)"></path>
                    </g>
                </g>
            </g>
        </g>
    </g>
</svg>