<?xml version="1.0" encoding="UTF-8" standalone="no"?>
<svg width="16px" height="15px" viewBox="0 0 16 15" version="1.1" xmlns="http://www.w3.org/2000/svg" xmlns:xlink="http://www.w3.org/1999/xlink" xmlns:sketch="http://www.bohemiancoding.com/sketch/ns">
    <!-- Generator: Sketch 3.5.2 (25235) - http://www.bohemiancoding.com/sketch -->
    <title>已收藏</title>
    <desc>Created with Sketch.</desc>
    <defs></defs>
    <g id="Page-1" fill-rule="evenodd" sketch:type="MSPage">
        <g id="已收藏" sketch:type="MSArtboardGroup" transform="translate(-2.000000, -2.000000)">
            <g sketch:type="MSLayerGroup" transform="translate(2.000000, 2.000000)" id="Fill-1">
                <path d="M15.0809844,5.13692946 L10.2402567,5.0392595 L8.65200263,0.518672199 C8.54284208,0.208426428 8.24887464,0 7.92043544,0 C7.59167706,0 7.29739044,0.208426428 7.18886825,0.518991382 L5.60061419,5.0392595 L0.7589289,5.13692946 C0.428574607,5.14395148 0.138437358,5.3600383 0.0372563813,5.67443345 C-0.0639245954,5.98850942 0.0455551365,6.33322694 0.310157754,6.53271625 L4.16205689,9.42259815 L2.76307828,13.996489 C2.66604668,14.3121609 2.77967579,14.6549633 3.04587432,14.8496649 C3.30760429,15.041813 3.67913318,15.0462815 3.94405498,14.8627514 L7.92043544,12.1248005 L11.8974543,14.8630705 C12.0276809,14.9524417 12.179612,15 12.3369691,15 C12.5019867,15 12.6603014,14.9482924 12.7962733,14.8493457 C13.0618335,14.6540057 13.1751434,14.3115225 13.0781118,13.9968082 L11.6781756,9.42259815 L15.5310323,6.53239706 C15.7956349,6.33322694 15.9051147,5.98787105 15.8032953,5.67475263 C15.7024335,5.36035748 15.4122963,5.14395148 15.0809844,5.13692946 Z" sketch:type="MSShapeGroup"></path>
            </g>
        </g>
    </g>
</svg>