<?xml version="1.0" encoding="UTF-8" standalone="no"?>
<svg width="32px" height="44px" viewBox="0 0 32 44" version="1.1" xmlns="http://www.w3.org/2000/svg" xmlns:xlink="http://www.w3.org/1999/xlink">
    <!-- Generator: Sketch 3.8.1 (29687) - http://www.bohemiancoding.com/sketch -->
    <title>Shape Copy 13</title>
    <desc>Created with Sketch.</desc>
    <defs>
        <path d="M182.603997,205.528442 C178.614745,205.528442 175.439627,208.784974 175.439627,212.692812 C175.439627,216.60065 178.696158,219.857182 182.603997,219.857182 C186.511835,219.857182 189.768366,216.60065 189.768366,212.692812 C189.768366,208.784974 186.593248,205.528442 182.603997,205.528442 L182.603997,205.528442 Z M187.733034,211.797266 L185.372049,213.751185 L186.104768,216.682063 C186.267595,217.251956 185.616288,217.659023 185.127809,217.414783 L182.522583,215.786517 L179.917358,217.414783 C179.428878,217.740436 178.858985,217.251956 178.940398,216.682063 L179.673118,213.751185 L177.312132,211.797266 C176.905066,211.390199 177.067893,210.738893 177.637786,210.657479 L180.650077,210.41324 L181.789864,207.563774 C182.034103,206.993881 182.766823,206.993881 183.011063,207.563774 L184.150849,210.41324 L187.163141,210.657479 C187.977274,210.738893 188.140101,211.471612 187.733034,211.797266 L187.733034,211.797266 Z M187.663598,198.305699 L184,191.874049 L185.966211,188 L193.130581,188 L187.663598,198.305699 Z M179.16437,188 L185.282659,198.364072 C184.387113,198.201245 183.491566,198.119832 182.514607,198.119832 C181.049167,198.119832 179.665141,198.282659 178.281116,198.689725 L172,188 L179.16437,188 Z M193.839031,217.007716 L194.571751,216.60065 C195.385884,216.11217 195.630124,215.053797 195.060231,214.239664 L194.571751,213.588358 C194.164684,213.018465 194.164684,212.285745 194.571751,211.715852 L195.060231,211.064546 C195.630124,210.250413 195.385884,209.19204 194.490337,208.70356 L193.757618,208.296494 C193.187725,207.970841 192.780658,207.319534 192.943485,206.586815 L193.106311,205.772682 C193.269138,204.795722 192.536418,203.981589 191.559459,203.900176 L190.745326,203.900176 C190.09402,203.900176 189.442713,203.411696 189.279887,202.76039 L189.035647,201.946257 C188.791407,201.050711 187.733034,200.562231 186.837488,200.887884 L186.104768,201.213537 C185.453462,201.457777 184.720742,201.294951 184.313676,200.806471 L183.743783,200.155165 C183.092476,199.422445 181.95269,199.422445 181.382797,200.155165 L180.812904,200.806471 C180.324424,201.294951 179.591705,201.457777 179.021812,201.213537 L178.289092,200.887884 C177.393546,200.480818 176.416586,201.050711 176.172346,201.946257 L175.928106,202.76039 C175.76528,203.411696 175.195387,203.900176 174.462667,203.900176 L173.648534,203.981589 C172.671575,204.063003 172.020268,204.958549 172.183095,205.854095 L172.345922,206.668228 C172.508748,207.319534 172.183095,208.052254 171.531789,208.377907 L170.799069,208.784974 C169.984936,209.273453 169.740696,210.331826 170.310589,211.145959 L170.799069,211.797266 C171.206135,212.367159 171.206135,213.099878 170.799069,213.669771 L170.310589,214.321078 C169.740696,215.135211 169.984936,216.193583 170.880482,216.682063 L171.613202,217.08913 C172.183095,217.414783 172.590161,218.066089 172.427335,218.798809 L172.264508,219.612942 C172.101682,220.589901 172.834401,221.404034 173.811361,221.485448 L174.625494,221.485448 C175.2768,221.485448 175.928106,221.973927 176.090933,222.625234 L176.335173,223.439367 C176.579413,224.334913 177.637786,224.823393 178.533332,224.497739 L179.266051,224.172086 C179.917358,223.927846 180.650077,224.090673 181.057144,224.579153 L181.627037,225.230459 C182.278343,225.963179 183.418129,225.963179 183.988023,225.230459 L184.557916,224.579153 C185.046395,224.090673 185.779115,223.927846 186.349008,224.172086 L187.081728,224.497739 C187.977274,224.904806 188.954233,224.334913 189.198473,223.439367 L189.442713,222.625234 C189.60554,221.973927 190.175433,221.485448 190.908153,221.485448 L191.722285,221.404034 C192.699245,221.322621 193.350551,220.427075 193.187725,219.531528 L193.024898,218.717396 C192.862072,217.984676 193.187725,217.33337 193.839031,217.007716 L193.839031,217.007716 Z M191.315219,213.832598 C190.826739,217.740436 187.651621,220.915554 183.743783,221.404034 C177.963439,222.136754 173.160054,217.251956 173.892774,211.553026 C174.381254,207.645188 177.556372,204.470069 181.46421,203.981589 C187.244554,203.24887 192.047939,208.133667 191.315219,213.832598 L191.315219,213.832598 Z" id="path-1"></path>
        <filter x="-50%" y="-50%" width="200%" height="200%" filterUnits="objectBoundingBox" id="filter-2">
            <feOffset dx="0" dy="0" in="SourceAlpha" result="shadowOffsetOuter1"></feOffset>
            <feGaussianBlur stdDeviation="1.5" in="shadowOffsetOuter1" result="shadowBlurOuter1"></feGaussianBlur>
            <feColorMatrix values="0 0 0 0 1   0 0 0 0 1   0 0 0 0 1  0 0 0 0.5 0" type="matrix" in="shadowBlurOuter1"></feColorMatrix>
        </filter>
    </defs>
    <g id="视觉稿-v4" stroke="none" stroke-width="1" fill="none" fill-rule="evenodd">
        <g id="特权页" transform="translate(-167.000000, -185.000000)">
            <g id="Shape-Copy-13">
                <use fill="black" fill-opacity="1" filter="url(#filter-2)" xlink:href="#path-1"></use>
                <use fill="#D5D6E0" fill-rule="evenodd" xlink:href="#path-1"></use>
            </g>
        </g>
    </g>
</svg>