<svg xmlns="http://www.w3.org/2000/svg" xmlns:xlink="http://www.w3.org/1999/xlink" width="0" height="0" style="position:absolute">

<symbol id="icon-hot" viewBox="0 0 26 26">
        <title>Group 5</title><g fill="none" fill-rule="evenodd"><path fill="#F40F25" d="M0 0h26L0 26"/><path d="M7.862 12.35l.006.006-3.933-3.933-.85.85 1.568 1.57-1.536 1.535-1.57-1.57-.85.852 3.934 3.933.85-.85-1.6-1.603 1.535-1.535 1.602 1.602.85-.85-.005-.007zm-1.47-6.574c-.358.36-.6.79-.728 1.282-.133.497-.122.994.016 1.486.133.497.387.928.757 1.298.57.57 1.25.85 2.044.862.797.01 1.47-.265 2.03-.823.363-.364.612-.8.744-1.297.133-.497.122-.995-.01-1.492-.133-.496-.387-.927-.758-1.297-.57-.57-1.248-.85-2.038-.856-.8-.006-1.48.276-2.044.84h-.01zm3.282 3.282l.006.005c-.332.332-.718.487-1.17.464-.454-.022-.846-.204-1.194-.552-.35-.348-.525-.746-.547-1.2-.023-.452.137-.844.463-1.17.33-.33.723-.492 1.182-.475.458.017.856.193 1.204.54.347.35.524.747.54 1.206.017.458-.143.85-.475 1.182h-.01zm2.713-7.596l.005.005-.756-.756-2.873 2.873.757.757 1.01-1.01 3.183 3.18.85-.85-3.182-3.182L12.4 1.462h-.01z" fill="#FFF"/></g>
</symbol>
</svg>