<?xml version="1.0" encoding="UTF-8" standalone="no"?>
<svg width="24px" height="20px" viewBox="0 0 24 20" version="1.1" xmlns="http://www.w3.org/2000/svg" xmlns:xlink="http://www.w3.org/1999/xlink">
    <!-- Generator: Sketch 3.6.1 (26313) - http://www.bohemiancoding.com/sketch -->
    <title>btn_cart_titlebar@3x</title>
    <desc>Created with Sketch.</desc>
    <defs></defs>
    <g id="Page-1" stroke="none" stroke-width="1" fill="none" fill-rule="evenodd">
        <g id="750-确认方案-商品详情评价列表" transform="translate(-295.000000, -32.000000)" fill="#979DA9">
            <g id="顶部兰-copy">
                <g id="btn_cart_titlebar" transform="translate(307.000000, 42.211241) scale(-1, 1) translate(-307.000000, -42.211241) translate(295.000000, 32.711241)">
                    <path d="M22.7163379,-9.76996262e-15 L20.2987917,-9.76996262e-15 C20.206532,-9.76996262e-15 16.5892678,3.41370134 16.5892678,3.41370134 C16.5475801,3.45645951 16.5158017,3.50512735 16.4894906,3.55588095 L9.91957388,3.55588095 L8.28486843,3.55588095 L0.997717854,3.55588095 C0.261348658,3.55588095 -0.16099581,4.14128554 0.0576938821,4.85600753 L2.45644644,12.680058 C2.67616124,13.3951277 3.45763518,13.9801846 4.19366268,13.9801846 L8.28486843,13.9801846 L9.91957388,13.9801846 L14.0100962,13.9801846 C14.7464654,13.9801846 15.5282811,13.39478 15.7469708,12.680058 L18.1235126,4.93109506 L20.7566732,2.25158285 L22.7163379,2.25158285 C23.0371967,2.25158285 23.3003077,1.98460498 23.3003077,1.6578352 L23.3003077,0.593052391 C23.3003077,0.266977864 23.0371967,-9.76996262e-15 22.7163379,-9.76996262e-15 L22.7163379,-9.76996262e-15 Z M3.88338462,18.6402462 C4.74127826,18.6402462 5.43673846,17.9447859 5.43673846,17.0868923 C5.43673846,16.2289987 4.74127826,15.5335385 3.88338462,15.5335385 C3.02549098,15.5335385 2.33003077,16.2289987 2.33003077,17.0868923 C2.33003077,17.9447859 3.02549098,18.6402462 3.88338462,18.6402462 Z M13.2035077,18.6402462 C14.0614013,18.6402462 14.7568615,17.9447859 14.7568615,17.0868923 C14.7568615,16.2289987 14.0614013,15.5335385 13.2035077,15.5335385 C12.3456141,15.5335385 11.6501538,16.2289987 11.6501538,17.0868923 C11.6501538,17.9447859 12.3456141,18.6402462 13.2035077,18.6402462 Z" id="Shape"></path>
                </g>
            </g>
        </g>
    </g>
</svg>