<svg xmlns="http://www.w3.org/2000/svg" xmlns:xlink="http://www.w3.org/1999/xlink" width="0" height="0" style="position:absolute">

<symbol id="icon-cart-disable" viewBox="0 0 19 15">
        <title>Shape Copy 2</title><path d="M.666.267h1.93c.074 0 2.96 2.65 2.96 2.65.035.032.06.07.08.11h12.369c.587 0 .925.454.75 1.008l-1.915 6.073c-.176.555-.8 1.01-1.388 1.01H7.617c-.588 0-1.212-.456-1.386-1.01L4.332 4.094l-2.1-2.08H.665C.41 2.014.2 1.807.2 1.554V.726c0-.253.21-.46.466-.46zM15.7 14.733c-.685 0-1.24-.54-1.24-1.205 0-.666.555-1.206 1.24-1.206.685 0 1.24.54 1.24 1.206 0 .666-.555 1.205-1.24 1.205zm-7.44 0c-.685 0-1.24-.54-1.24-1.205 0-.666.555-1.206 1.24-1.206.685 0 1.24.54 1.24 1.206 0 .666-.555 1.205-1.24 1.205z" fill="#DCDCDC" fill-rule="evenodd"/>
</symbol>

<symbol id="icon-cart-normal" viewBox="0 0 19 15">
        <title>Shape Copy 2</title><path d="M.666.267h1.93c.074 0 2.96 2.65 2.96 2.65.035.032.06.07.08.11h12.369c.587 0 .925.454.75 1.008l-1.915 6.073c-.176.555-.8 1.01-1.388 1.01H7.617c-.588 0-1.212-.456-1.386-1.01L4.332 4.094l-2.1-2.08H.665C.41 2.014.2 1.807.2 1.554V.726c0-.253.21-.46.466-.46zM15.7 14.733c-.685 0-1.24-.54-1.24-1.205 0-.666.555-1.206 1.24-1.206.685 0 1.24.54 1.24 1.206 0 .666-.555 1.205-1.24 1.205zm-7.44 0c-.685 0-1.24-.54-1.24-1.205 0-.666.555-1.206 1.24-1.206.685 0 1.24.54 1.24 1.206 0 .666-.555 1.205-1.24 1.205z" fill="#4A4A4A" fill-rule="evenodd"/>
</symbol>
</svg>