<?xml version="1.0" encoding="utf-8"?>
<!-- Generator: Adobe Illustrator 17.0.0, SVG Export Plug-In . SVG Version: 6.00 Build 0)  -->
<!DOCTYPE svg PUBLIC "-//W3C//DTD SVG 1.1//EN" "http://www.w3.org/Graphics/SVG/1.1/DTD/svg11.dtd">
<svg version="1.1" id="Layer_1" xmlns="http://www.w3.org/2000/svg" xmlns:xlink="http://www.w3.org/1999/xlink" x="0px" y="0px"
	 width="56.693px" height="56.693px" viewBox="0 0 56.693 56.693" enable-background="new 0 0 56.693 56.693" xml:space="preserve">
<path fill="#E62117" d="M51.719,24.477L30.65,6.638c-1.293-1.094-3.338-1.094-4.635,0L4.949,24.476
	c-0.731,0.618-1.177,1.484-1.256,2.439c-0.08,0.955,0.218,1.883,0.836,2.613c0.904,1.069,2.418,1.515,3.744,1.124v18.79
	c0,1.442,1.173,2.615,2.615,2.615H22.78c0.553,0,1-0.448,1-1V34.322h9.108v16.735c0,0.552,0.447,1,1,1h11.89
	c1.443,0,2.617-1.173,2.617-2.615V30.653c1.326,0.388,2.838-0.058,3.743-1.125c0.619-0.731,0.916-1.659,0.837-2.614
	S52.45,25.094,51.719,24.477z M50.613,28.235c-0.543,0.642-1.587,0.735-2.234,0.186l-0.338-0.286
	c-0.297-0.252-0.713-0.308-1.066-0.144s-0.579,0.518-0.579,0.907v20.543c0,0.339-0.277,0.615-0.617,0.615h-10.89V33.322
	c0-0.552-0.447-1-1-1H22.78c-0.553,0-1,0.448-1,1v16.735H10.888c-0.339,0-0.615-0.276-0.615-0.615V28.899
	c0-0.39-0.227-0.744-0.58-0.907c-0.353-0.165-0.771-0.107-1.066,0.145L8.29,28.421c-0.646,0.55-1.686,0.462-2.234-0.186
	c-0.273-0.323-0.404-0.733-0.37-1.155c0.035-0.422,0.232-0.805,0.556-1.078L27.307,8.166c0.574-0.484,1.48-0.484,2.051,0
	l21.069,17.838c0.322,0.273,0.52,0.655,0.555,1.078C51.017,27.503,50.886,27.913,50.613,28.235z"/>
</svg>
