<?xml version="1.0" encoding="UTF-8" standalone="no"?>
<svg width="91px" height="21px" viewBox="0 0 91 21" version="1.1" xmlns="http://www.w3.org/2000/svg" xmlns:xlink="http://www.w3.org/1999/xlink">
    <!-- Generator: Sketch 3.8.3 (29802) - http://www.bohemiancoding.com/sketch -->
    <title>丰趣海淘</title>
    <desc>Created with Sketch.</desc>
    <defs>
        <polygon id="path-1" points="21.8736563 0.274909091 0.177701508 0.274909091 0.177701508 20.3178818 21.8736563 20.3178818 21.8736563 0.274909091"></polygon>
        <polygon id="path-3" points="15.1050854 20.5226318 15.1050854 0.274909091 0.285438191 0.274909091 0.285438191 20.5226318 15.1050854 20.5226318"></polygon>
        <polygon id="path-5" points="0 20.7249955 90.5573467 20.7249955 90.5573467 0.477177273 0 0.477177273"></polygon>
    </defs>
    <g id="Page-1" stroke="none" stroke-width="1" fill="none" fill-rule="evenodd">
        <g id="首页-copy" transform="translate(-142.000000, -32.000000)">
            <g id="页头">
                <g id="丰趣海淘" transform="translate(142.000000, 32.000000)">
                    <g id="Group-3" transform="translate(22.864322, 0.202268)">
                        <mask id="mask-2" fill="white">
                            <use xlink:href="#path-1"></use>
                        </mask>
                        <g id="Clip-2"></g>
                        <path d="M4.40302814,20.3178818 L4.40302814,20.3178818 L21.8736563,20.3178818 L21.8736563,19.2674045 C21.8736563,18.9576545 21.6326663,18.7066091 21.3358874,18.7066091 C21.3084503,18.7066091 21.2956462,18.6913364 21.2897015,18.6698591 L5.46987739,18.6698591 L5.46987739,13.7095636 L7.83816382,13.7095636 L7.83816382,12.6218591 C7.83816382,12.3125864 7.59763116,12.0615409 7.30085226,12.0615409 L5.46987739,12.0615409 L5.46987739,8.46004091 L7.83816382,8.46004091 L7.83816382,7.37806364 L7.83816382,7.37758636 C7.83816382,7.06783636 7.59763116,6.81726818 7.30085226,6.81726818 C7.29079196,6.81726818 7.28301809,6.81488182 7.27570151,6.81249545 L5.46987739,6.81249545 L5.46987739,3.45535909 L7.83816382,3.45535909 L7.83816382,2.38149545 C7.83724925,2.3772 7.83633467,2.37338182 7.83633467,2.36765455 C7.83633467,2.05838182 7.59580201,1.80685909 7.29902312,1.80685909 L5.46987739,1.80685909 L5.46987739,0.274813636 L3.89086734,0.274813636 L3.89086734,1.80685909 L0.656023116,1.80685909 L0.656023116,3.45535909 L3.89086734,3.45535909 L3.89086734,6.81249545 L0.656023116,6.81249545 L0.656023116,8.46004091 L3.89086734,8.46004091 L3.89086734,18.5672455 C3.34898291,18.3519955 2.96120402,17.8098136 2.95617387,17.1707455 C2.95617387,17.16645 2.95663116,17.1621545 2.95663116,17.1578591 L2.95480201,17.1578591 L2.95480201,10.7428364 L1.37579196,10.7428364 L1.37579196,17.1578591 C1.37579196,17.1626318 1.37624925,17.1669273 1.37624925,17.1717 C1.36893266,17.8556318 0.834822111,18.4102227 0.177701508,18.4102227 L0.177701508,20.0582455 C0.934053266,20.0582455 1.61952563,19.7403818 2.12116884,19.2273136 C2.67631457,19.8940636 3.49257085,20.3178818 4.40302814,20.3178818" id="Fill-1" fill="#E62117" mask="url(#mask-2)"></path>
                    </g>
                    <path d="M54.416491,8.75442273 C54.416491,8.06428636 54.9547171,7.50301364 55.6164106,7.50301364 L64.0355111,7.50301364 C64.6972045,7.50301364 65.2354307,8.06428636 65.2354307,8.7549 L65.2354307,11.8977409 L60.6154658,11.8977409 L60.6154658,9.02837727 L59.0364558,9.02837727 L59.0364558,11.8977409 L54.416491,11.8977409 L54.416491,8.75442273 Z M65.2354307,17.5434 C65.2354307,18.2259 64.7036065,18.7866955 64.0496869,18.7943318 L55.6054357,18.7943318 C54.9501442,18.7886045 54.416491,18.2268545 54.416491,17.5438773 L54.416491,13.5452864 L59.0364558,13.5452864 L59.0364558,16.4136955 L60.077697,16.4136955 C60.3744759,16.4136955 60.6154658,16.1631273 60.6154658,15.8533773 L60.6154658,13.5452864 L65.2354307,13.5452864 L65.2354307,17.5434 Z M52.8374809,17.5438773 C52.8383955,19.1274682 54.0730688,20.4280364 55.5981191,20.4423545 L64.0574608,20.4423545 L64.0611191,20.4423545 C65.5788528,20.4280364 66.8144407,19.1274682 66.8144407,17.5434 L66.8144407,13.5452864 L67.6489884,13.5452864 L67.6489884,12.4580591 C67.6489884,12.1483091 67.4089131,11.8977409 67.1121342,11.8977409 L66.8144407,11.8977409 L66.8144407,8.7549 C66.8144407,7.15603636 65.5678779,5.85499091 64.0355111,5.85499091 L55.6164106,5.85499091 C54.084501,5.85499091 52.8383955,7.15603636 52.8374809,8.75442273 L52.8374809,11.8977409 L52.0024759,11.8977409 L52.0024759,13.5452864 L52.8374809,13.5452864 L52.8374809,17.5438773 Z" id="Fill-4" fill="#E62117"></path>
                    <path d="M84.4896588,19.4659977 C85.6104678,19.4659977 86.5227543,18.5143159 86.5227543,17.3435659 L86.5227543,14.3081114 L84.9437442,14.3081114 L84.9437442,17.3440432 C84.9437442,17.6055886 84.7397945,17.817975 84.4896588,17.817975 L82.4716538,17.817975 L82.4922317,12.8739068 L87.253498,12.8739068 L87.253498,11.7871568 C87.253498,11.4774068 87.0129653,11.2258841 86.7161864,11.2258841 L82.499091,11.2258841 L82.5132668,7.83867955 L87.253498,7.83867955 L87.253498,6.71756591 L87.253498,6.71756591 C87.253498,6.47320227 87.1030508,6.26749773 86.8936136,6.19017955 L79.004508,6.19017955 C79.0625834,5.905725 79.0964226,5.61220227 79.0964226,5.31008864 L77.5174126,5.31008864 C77.5174126,6.37011136 76.901905,7.28217955 76.0252869,7.68070227 L76.0252869,9.41606591 C76.9435181,9.17599773 77.7359955,8.60708864 78.2874829,7.83867955 L80.9337995,7.83867955 L80.9200809,11.2258841 L76.2004276,11.2258841 L76.2004276,12.8739068 L80.9132216,12.8739068 L80.8926437,17.817975 L78.4969201,17.817975 C78.2463271,17.817975 78.043292,17.6055886 78.043292,17.3440432 L78.043292,14.3081114 L76.4642819,14.3081114 L76.4642819,17.3440432 C76.4642819,18.5143159 77.3761111,19.4659977 78.4969201,19.4659977 L84.4896588,19.4659977 Z" id="Fill-6" fill="#E62117"></path>
                    <g id="Group-10" transform="translate(75.452261, 0.202268)">
                        <mask id="mask-4" fill="white">
                            <use xlink:href="#path-3"></use>
                        </mask>
                        <g id="Clip-9"></g>
                        <path d="M2.46669447,3.3117 L12.097604,3.3117 C12.8109709,3.3117 13.4168754,3.85722273 13.5266241,4.58792727 L13.5266241,17.3411318 L13.524795,17.3411318 C13.524795,18.1754045 12.874991,18.8746091 12.0765688,18.8746091 L12.0765688,20.5226318 C13.745207,20.5226318 15.103805,19.0836545 15.103805,17.3411318 L15.1051769,17.3411318 L15.1051769,4.53113182 L15.0992322,4.42851818 C14.9103729,2.85256364 13.6199106,1.6632 12.097604,1.6632 L3.21755879,1.6632 C3.33416683,1.22076818 3.39955879,0.755904545 3.39955879,0.274813636 L1.82054874,0.274813636 C1.82054874,1.52192727 1.21052864,2.62204091 0.285438191,3.26826818 L0.285438191,5.12772273 C1.16662915,4.74733636 1.92023719,4.11160909 2.46669447,3.3117" id="Fill-8" fill="#E62117" mask="url(#mask-4)"></path>
                    </g>
                    <path d="M54.916991,3.65829545 L67.660192,3.69695455 L67.6629357,2.59827273 C67.6547045,2.29568182 67.4187447,2.05227273 67.1274533,2.05227273 C67.1160211,2.05227273 67.1087045,2.05036364 67.1018452,2.04702273 L55.7314181,2.01265909 C55.8740915,1.52679545 55.9518302,1.01134091 55.9518302,0.477272727 L54.3732774,0.477272727 C54.3732774,1.72390909 53.7623427,2.8245 52.8372523,3.47072727 L52.8372523,5.33018182 C53.6649407,4.97270455 54.3801367,4.39043182 54.916991,3.65829545" id="Fill-11" fill="#E62117"></path>
                    <path d="M51.0826442,1.67403409 L51.0826442,1.67355682 C51.0826442,1.36428409 50.8421116,1.11276136 50.5453327,1.11276136 C50.5242975,1.11276136 50.5142372,1.10560227 50.5133226,1.09414773 L46.6675437,1.09414773 L46.6675437,2.74169318 L51.0826442,2.74169318 L51.0826442,1.67403409 Z" id="Fill-13" fill="#E62117"></path>
                    <path d="M51.0826442,9.85377273 C51.0826442,9.54402273 50.8421116,9.2925 50.5453327,9.2925 L46.6675437,9.2925 L46.6675437,10.941 L51.0826442,10.941 L51.0826442,9.85377273 Z" id="Fill-15" fill="#E62117"></path>
                    <path d="M51.0826442,18.9205227 C51.0826442,18.6632727 50.9157347,18.4485 50.6893779,18.3826364 L46.6675437,18.3826364 L46.6675437,20.0306591 L51.0826442,20.0306591 L51.0826442,18.9205227 Z" id="Fill-17" fill="#E62117"></path>
                    <path d="M74.533893,1.67403409 L74.533893,1.67355682 C74.533893,1.36428409 74.2933603,1.11276136 73.9965814,1.11276136 C73.9773754,1.11276136 73.9664005,1.10560227 73.9627422,1.09414773 L70.1183352,1.09414773 L70.1183352,2.74169318 L74.533893,2.74169318 L74.533893,1.67403409 Z" id="Fill-19" fill="#E62117"></path>
                    <path d="M74.533893,9.85377273 C74.533893,9.54402273 74.2933603,9.2925 73.9965814,9.2925 L70.1183352,9.2925 L70.1183352,10.941 L74.533893,10.941 L74.533893,9.85377273 Z" id="Fill-21" fill="#E62117"></path>
                    <path d="M74.533893,18.9205227 C74.533893,18.6632727 74.3665261,18.4485 74.1401693,18.3826364 L70.1183352,18.3826364 L70.1183352,20.0306591 L74.533893,20.0306591 L74.533893,18.9205227 Z" id="Fill-23" fill="#E62117"></path>
                    <mask id="mask-6" fill="white">
                        <use xlink:href="#path-5"></use>
                    </mask>
                    <g id="Clip-26"></g>
                    <path d="M33.3631608,14.3997 L35.9948442,14.3997 L35.9948442,11.2812 L33.3631608,11.2812 L33.3631608,14.3997 Z M33.3631608,5.00029091 L35.9948442,5.00029091 L35.9948442,2.49795 L33.3631608,2.49795 L33.3631608,5.00029091 Z M33.3631608,9.63317727 L35.9948442,9.63317727 L35.9948442,6.64831364 L33.3631608,6.64831364 L33.3631608,9.63317727 Z M35.9948442,17.7878591 L37.0360854,17.7878591 C37.3333216,17.7878591 37.5738543,17.5363364 37.5738543,17.2265864 L37.5738543,16.0482 L38.2579548,16.0482 L38.2579548,17.7878591 C39.6513065,16.7388136 40.7241005,15.5671091 41.5536181,14.3548364 C42.3703317,15.5675864 43.4143166,16.6109045 44.7381608,17.4213136 L44.7381608,15.5852455 C43.7943216,14.7471545 43.065407,13.7773364 42.4988291,12.7650409 C44.3833065,9.08383636 44.3595276,5.35490455 44.3595276,3.74888182 C44.3595276,1.67131364 42.9062714,0.947768182 42.1380302,0.8547 L38.5359849,0.84945 L38.5359849,2.49795 L41.9912412,2.49795 C42.1599799,2.52945 42.7805176,2.71797273 42.7805176,3.74888182 C42.7805176,5.12438182 42.7786884,7.94506364 41.6258693,10.8645409 C40.3761055,7.48354091 40.5809698,4.22138182 40.5837136,4.16888182 L39.0083618,4.06054091 C39.0028744,4.14931364 38.8757487,6.26410909 39.4107739,8.91249545 C39.6910905,10.2975409 40.1017337,11.6100409 40.6751709,12.8079955 C40.0642362,13.8374727 39.2767889,14.8416545 38.2579548,15.7599273 L38.2579548,14.9609727 C38.2579548,14.6512227 38.0174221,14.3997 37.7206432,14.3997 L37.5738543,14.3997 L37.5738543,2.49795 L38.2579548,2.49795 L38.2579548,1.41072273 L38.2579548,1.41024545 C38.2579548,1.10097273 38.0174221,0.84945 37.7206432,0.84945 L31.0762714,0.84945 L31.0762714,2.49795 L31.7841508,2.49795 L31.7841508,14.3997 L31.0762714,14.3997 L31.0762714,16.0482 L35.9948442,16.0482 L35.9948442,17.7878591 Z" id="Fill-25" fill="#E62117" mask="url(#mask-6)"></path>
                    <path d="M9.73695427,20.5337045 L10.7786528,20.5337045 C11.0749744,20.5337045 11.3159643,20.2831364 11.3159643,19.9733864 L11.3159643,17.2075909 L21.0529643,17.2075909 L21.0529643,16.1136818 C21.0529643,15.8273182 20.8471854,15.5944091 20.5824166,15.5595682 L11.3159643,15.5595682 L11.3159643,10.4322273 L21.0529643,10.4322273 L21.0529643,9.34356818 L21.0529643,9.34309091 C21.0529643,9.03954545 20.8215774,8.79422727 20.5325724,8.78468182 L11.3159643,8.78468182 L11.3159643,3.65734091 L21.0529643,3.65734091 L21.0529643,2.57059091 L21.0529643,2.57011364 C21.0529643,2.26036364 20.8124317,2.00931818 20.5156528,2.00931818 L11.3159643,2.00931818 L11.3159643,0.477272727 L9.73695427,0.477272727 L9.73695427,2.00931818 L-4.57286432e-05,2.00931818 L-4.57286432e-05,3.65734091 L9.73695427,3.65734091 L9.73695427,8.78468182 L-4.57286432e-05,8.78468182 L-4.57286432e-05,10.4322273 L9.73695427,10.4322273 L9.73695427,15.5595682 L-4.57286432e-05,15.5595682 L-4.57286432e-05,17.2075909 L9.73695427,17.2075909 L9.73695427,20.5337045 Z" id="Fill-27" fill="#E62117" mask="url(#mask-6)"></path>
                </g>
            </g>
        </g>
    </g>
</svg>