<svg xmlns="http://www.w3.org/2000/svg" xmlns:xlink="http://www.w3.org/1999/xlink" width="0" height="0" style="position:absolute">

<symbol id="icon-icon-addtocart" viewBox="0 0 23 19">
        <title>Shape Copy 10</title><path d="M.966.71H3.31c.09 0 3.6 3.22 3.6 3.22.04.04.07.086.096.134H22.03c.715 0 1.124.552.912 1.226l-2.327 7.378c-.213.675-.97 1.226-1.685 1.226H9.41c-.713 0-1.472-.552-1.684-1.226L5.42 5.36 2.868 2.835h-1.9c-.312 0-.567-.25-.567-.56V1.27C.4.963.655.71.966.71zm18.267 17.58c-.832 0-1.506-.657-1.506-1.466 0-.81.674-1.465 1.506-1.465s1.507.655 1.507 1.464c0 .81-.675 1.465-1.507 1.465zm-9.04 0c-.832 0-1.506-.657-1.506-1.466 0-.81.674-1.465 1.506-1.465s1.507.655 1.507 1.464c0 .81-.675 1.465-1.507 1.465z" fill="#4A4A4A" fill-rule="evenodd"/>
</symbol>
</svg>