<?xml version="1.0" encoding="UTF-8" standalone="no"?>
<svg width="14px" height="14px" viewBox="0 0 14 14" version="1.1" xmlns="http://www.w3.org/2000/svg" xmlns:xlink="http://www.w3.org/1999/xlink">
    <!-- Generator: Sketch 3.8.3 (29802) - http://www.bohemiancoding.com/sketch -->
    <title>》</title>
    <desc>Created with Sketch.</desc>
    <defs>
        <circle id="path-1" cx="7" cy="7" r="7"></circle>
        <mask id="mask-2" maskContentUnits="userSpaceOnUse" maskUnits="objectBoundingBox" x="0" y="0" width="14" height="14" fill="white">
            <use xlink:href="#path-1"></use>
        </mask>
    </defs>
    <g id="Page-1" stroke="none" stroke-width="1" fill="none" fill-rule="evenodd">
        <g id="iPhone-6" transform="translate(-309.000000, -160.000000)">
            <g id="限时抢购" transform="translate(-190.000000, 38.000000)">
                <g id="查看全部" transform="translate(445.000000, 46.000000)">
                    <g id="》" transform="translate(54.000000, 76.000000)">
                        <use id="Oval-15" stroke="#CCCCCC" mask="url(#mask-2)" fill="#FFFFFF" xlink:href="#path-1"></use>
                        <path d="M8.5947631,6.99983045 L6.10984911,9.38534332 C5.96338363,9.52618963 5.96338363,9.75413068 6.10984911,9.89452485 C6.25630566,10.0351584 6.49391592,10.0351584 6.64037247,9.89452485 L9.39031158,7.25436802 C9.53656281,7.11376994 9.53656281,6.88568705 9.39031158,6.74550565 L6.64037247,4.1054552 C6.56690317,4.03515173 6.47090209,4 6.37490101,4 C6.27886422,4 6.18286313,4.03515173 6.10984911,4.10569457 C5.96338363,4.24629265 5.96338363,4.4739234 6.10984911,4.61452148 L8.5947631,6.99983045" id="Fill-1" fill="#333333"></path>
                    </g>
                </g>
            </g>
        </g>
    </g>
</svg>