<svg xmlns="http://www.w3.org/2000/svg" xmlns:xlink="http://www.w3.org/1999/xlink" preserveAspectRatio="xMidYMid" width="82.907" height="82" viewBox="0 0 82.907 82">
  <path style="fill: #60c2d7;
  fill-rule: evenodd;" d="M70.768,69.992 C62.934,77.736 52.520,82.000 41.442,82.000 C41.442,82.000 41.441,82.000 41.440,82.000 C30.359,81.998 19.942,77.734 12.109,69.988 C-4.062,54.006 -4.060,27.995 12.112,12.007 C19.946,4.264 30.360,0.000 41.437,0.000 C52.513,0.000 62.927,4.264 70.761,12.007 C86.935,27.997 86.938,54.009 70.768,69.992 ZM68.378,14.362 C61.181,7.249 51.613,3.330 41.437,3.330 C31.261,3.330 21.692,7.249 14.494,14.362 C-0.364,29.051 -0.365,52.949 14.491,67.633 C21.689,74.750 31.259,78.667 41.441,78.669 L41.443,78.669 C51.620,78.669 61.186,74.751 68.385,67.637 C83.241,52.952 83.238,29.054 68.378,14.362 ZM35.829,58.041 C35.816,58.056 35.796,58.060 35.782,58.074 C35.769,58.087 35.764,58.106 35.750,58.119 C35.650,58.211 35.531,58.262 35.417,58.326 C35.353,58.362 35.299,58.414 35.232,58.441 C35.028,58.523 34.814,58.568 34.598,58.568 C34.383,58.568 34.168,58.523 33.965,58.441 C33.898,58.414 33.844,58.362 33.780,58.326 C33.666,58.262 33.547,58.211 33.447,58.119 C33.433,58.106 33.428,58.087 33.415,58.074 C33.401,58.060 33.381,58.056 33.368,58.041 L21.511,45.513 C20.876,44.842 20.911,43.788 21.591,43.158 C22.270,42.529 23.333,42.565 23.973,43.236 L34.598,54.463 L58.899,28.788 C59.537,28.118 60.603,28.082 61.281,28.710 C61.961,29.339 61.996,30.393 61.361,31.065 L35.829,58.041 Z" class="cls-1"/>
</svg>
