<?xml version="1.0" encoding="UTF-8" standalone="no"?>
<svg width="78px" height="98px" viewBox="0 0 78 98" version="1.1" xmlns="http://www.w3.org/2000/svg" xmlns:xlink="http://www.w3.org/1999/xlink" xmlns:sketch="http://www.bohemiancoding.com/sketch/ns">
    <!-- Generator: Sketch 3.4.4 (17249) - http://www.bohemiancoding.com/sketch -->
    <title>octopus</title>
    <desc>Created with Sketch.</desc>
    <defs>
        <path id="path-1" d="M0,0.0569016393 L67.8960755,0.0569016393 L67.8960755,78 L0,78"></path>
    </defs>
    <g id="Page-1" stroke="none" stroke-width="1" fill="none" fill-rule="evenodd" sketch:type="MSPage">
        <g id="品牌详情页-无搜索" sketch:type="MSArtboardGroup" transform="translate(-122.000000, -219.000000)">
            <g id="octopus" sketch:type="MSLayerGroup" transform="translate(122.000000, 219.000000)">
                <ellipse id="Oval-13" fill="#CCCCCC" sketch:type="MSShapeGroup" cx="39" cy="93" rx="39" ry="5"></ellipse>
                <g transform="translate(5.000000, 0.000000)">
                    <path d="M17.4563057,37.7296869 C17.4563057,39.5889 15.9442679,41.0958344 14.0787585,41.0958344 C12.2132491,41.0958344 10.7012113,39.5889 10.7012113,37.7296869 C10.7012113,35.8704738 12.2132491,34.3635393 14.0787585,34.3635393 C15.9442679,34.3635393 17.4563057,35.8704738 17.4563057,37.7296869" id="Fill-1" fill="#CCCCCC" sketch:type="MSShapeGroup"></path>
                    <path d="M57.2957094,37.7296869 C57.2957094,39.5889 55.7836717,41.0958344 53.9181623,41.0958344 C52.0532943,41.0958344 50.5406151,39.5889 50.5406151,37.7296869 C50.5406151,35.8704738 52.0532943,34.3635393 53.9181623,34.3635393 C55.7836717,34.3635393 57.2957094,35.8704738 57.2957094,37.7296869" id="Fill-3" fill="#CCCCCC" sketch:type="MSShapeGroup"></path>
                    <path d="M49.7006226,77.985423 C46.9421321,77.985423 44.6981321,75.747718 44.6981321,72.9985377 L44.6981321,64.1717508 C44.6981321,63.4691115 45.269717,62.898177 45.9753774,62.898177 C46.6803962,62.898177 47.2526226,63.4691115 47.2526226,64.1717508 L47.2526226,72.9985377 C47.2526226,74.343718 48.3508868,75.4389148 49.7006226,75.4389148 C51.051,75.4389148 52.1505472,74.343718 52.1505472,72.9985377 C52.1505472,72.295259 52.7221321,71.7249639 53.4277925,71.7249639 C54.1328113,71.7249639 54.7050377,72.295259 54.7050377,72.9985377 C54.7050377,75.747718 52.4603962,77.985423 49.7006226,77.985423" id="Fill-5" fill="#CCCCCC" sketch:type="MSShapeGroup"></path>
                    <path d="M29.938283,78 C29.2326226,78 28.6603962,77.431623 28.6603962,76.7277049 L28.6603962,66.3306885 C28.6603962,65.6267705 29.2326226,65.0571148 29.938283,65.0571148 C30.6433019,65.0571148 31.2155283,65.6267705 31.2155283,66.3306885 L31.2155283,76.7277049 C31.2155283,77.431623 30.6433019,78 29.938283,78" id="Fill-7" fill="#CCCCCC" sketch:type="MSShapeGroup"></path>
                    <path d="M37.9567019,78 C37.251683,78 36.6788151,77.431623 36.6788151,76.7277049 L36.6788151,66.3306885 C36.6788151,65.6267705 37.251683,65.0571148 37.9567019,65.0571148 C38.6617208,65.0571148 39.2339472,65.6267705 39.2339472,66.3306885 L39.2339472,76.7277049 C39.2339472,77.431623 38.6617208,78 37.9567019,78" id="Fill-9" fill="#CCCCCC" sketch:type="MSShapeGroup"></path>
                    <path d="M18.321766,77.985423 C15.6332,77.985423 13.4469358,75.805259 13.4469358,73.1270459 C13.4469358,72.4231279 14.0185208,71.8534721 14.7235396,71.8534721 C15.4292,71.8534721 16.0007849,72.4231279 16.0007849,73.1270459 C16.0007849,74.401259 17.0419547,75.4389148 18.321766,75.4389148 C19.6015774,75.4389148 20.6440302,74.401259 20.6440302,73.1270459 L20.6440302,64.1723902 C20.6440302,63.4691115 21.2156151,62.8994557 21.9199925,62.8994557 C22.6256528,62.8994557 23.1978792,63.4691115 23.1978792,64.1723902 L23.1978792,73.1270459 C23.1978792,75.805259 21.0103321,77.985423 18.321766,77.985423" id="Fill-11" fill="#CCCCCC" sketch:type="MSShapeGroup"></path>
                    <g id="Group-15">
                        <mask id="mask-2" sketch:name="Clip 14" fill="white">
                            <use xlink:href="#path-1"></use>
                        </mask>
                        <g id="Clip-14"></g>
                        <path d="M45.5044453,62.9892836 C57.5545585,58.231923 65.3412,46.8093984 65.3412,33.8895295 C65.3412,16.6387426 51.2587849,2.60257869 33.9482943,2.60257869 C16.6378038,2.60257869 2.55474717,16.6387426 2.55474717,33.8895295 C2.55474717,46.808759 10.3407472,58.231923 22.3908604,62.9880049 L21.4491245,65.3548574 C15.1944075,62.8869885 9.85704906,58.6558082 6.01376604,53.1216443 C2.07938868,47.4557754 0.000256603774,40.804677 0.000256603774,33.8895295 C0.000256603774,15.2341033 15.2296906,0.0567098361 33.9482943,0.0567098361 C52.6668981,0.0567098361 67.8963321,15.2341033 67.8963321,33.8895295 C67.8963321,40.8059557 65.815917,47.4557754 61.8815396,53.1216443 C58.0388981,58.6564475 52.7008981,62.8869885 46.4455396,65.3561361 L45.5044453,62.9892836 Z" id="Fill-13" fill="#CCCCCC" sketch:type="MSShapeGroup" mask="url(#mask-2)"></path>
                    </g>
                    <path d="M22.9771358,51.9039492 L44.1469472,51.9039492" id="Stroke-16" stroke="#CCCCCC" stroke-width="3.2" sketch:type="MSShapeGroup"></path>
                </g>
            </g>
        </g>
    </g>
</svg>