<?xml version="1.0" encoding="UTF-8" standalone="no"?>
<svg width="16px" height="16px" viewBox="0 0 16 16" version="1.1" xmlns="http://www.w3.org/2000/svg" xmlns:xlink="http://www.w3.org/1999/xlink" xmlns:sketch="http://www.bohemiancoding.com/sketch/ns">
    <!-- Generator: Sketch 3.5.2 (25235) - http://www.bohemiancoding.com/sketch -->
    <title>Oval 58 Copy + Fill 1</title>
    <desc>Created with Sketch.</desc>
    <defs></defs>
    <g id="Page-1" stroke="none" stroke-width="1" fill="none" fill-rule="evenodd" sketch:type="MSPage">
        <g id="新首页搭建效果-copy" sketch:type="MSArtboardGroup" transform="translate(-9.000000, -1591.000000)">
            <g id="Group-Copy" sketch:type="MSLayerGroup" transform="translate(0.000000, 1580.000000)">
                <g id="Oval-58-Copy-+-Fill-1" transform="translate(9.000000, 11.000000)" sketch:type="MSShapeGroup">
                    <circle id="Oval-58-Copy" fill="#F13C34" cx="8" cy="8" r="8"></circle>
                    <path d="M7.78194259,11.99992 C7.73447963,11.99992 7.68742407,11.99892 7.64036852,11.99712 C7.60736852,11.99892 7.56051667,11.99992 7.51285,11.99992 C6.81679444,11.99992 6.14681296,11.83432 5.57562778,11.52072 C5.51635,11.49552 5.44179444,11.46132 5.36825741,11.42512 C3.79688704,10.47692 3.9541463,8.99632 4.09307222,7.68992 C4.17312778,6.93332 4.25583148,6.15392 4.01770185,5.51092 C3.97329444,5.39292 4.01444259,5.25752 4.11812778,5.18272 C4.21997963,5.10912 4.36379444,5.10912 4.46523889,5.18252 C4.59703519,5.27932 4.73881296,5.37252 4.87610926,5.46212 C5.38923889,5.79792 5.83616481,6.76692 6.0826463,7.43012 C6.19896111,6.99752 6.26047963,6.40392 6.31283148,5.89772 C6.34542407,5.58212 6.37618333,5.28392 6.41692407,5.04252 C6.54525741,4.40532 6.95673889,2.86972 8.02659074,2.23912 C8.11540556,2.18692 8.23192407,2.18592 8.3211463,2.23612 C8.41118333,2.28512 8.46842407,2.38092 8.46842407,2.48472 C8.46842407,4.17672 8.5961463,5.39772 8.85810926,6.19052 C9.12516481,5.52472 9.7071463,4.45032 10.7240352,4.28392 C10.7348315,4.28212 10.7615167,4.27972 10.7727204,4.27972 C10.8770167,4.27972 10.9739796,4.33532 11.0259241,4.42492 C11.0864241,4.53132 11.0729796,4.66272 10.9931278,4.75332 C10.4417019,5.38492 10.3793685,6.17972 10.7975722,7.25392 C10.9554426,7.65932 11.1029241,8.03852 11.1681093,8.40852 C11.1994796,8.55372 11.212313,8.70712 11.2057944,8.87032 C11.216387,9.01032 11.212313,9.15592 11.1933685,9.30272 C11.183387,10.79112 9.65622037,11.99992 7.78194259,11.99992" id="Fill-1" fill="#FFFFFF"></path>
                </g>
            </g>
        </g>
    </g>
</svg>