<?xml version="1.0" encoding="UTF-8" standalone="no"?>
<svg width="16px" height="16px" viewBox="0 0 16 16" version="1.1" xmlns="http://www.w3.org/2000/svg" xmlns:xlink="http://www.w3.org/1999/xlink" xmlns:sketch="http://www.bohemiancoding.com/sketch/ns">
    <!-- Generator: Sketch 3.5.2 (25235) - http://www.bohemiancoding.com/sketch -->
    <title>Oval 58 Copy + Fill 1</title>
    <desc>Created with Sketch.</desc>
    <defs></defs>
    <g id="Page-1" stroke="none" stroke-width="1" fill="none" fill-rule="evenodd" sketch:type="MSPage">
        <g id="新首页搭建效果-copy" sketch:type="MSArtboardGroup" transform="translate(-9.000000, -2443.000000)">
            <g id="Group-Copy-5" sketch:type="MSLayerGroup" transform="translate(0.000000, 2432.000000)">
                <g id="Oval-58-Copy-+-Fill-1" transform="translate(9.000000, 11.000000)" sketch:type="MSShapeGroup">
                    <circle id="Oval-58-Copy" fill="#F13434" cx="8" cy="8" r="8"></circle>
                    <path d="M9.93158168,8.56217631 C9.8165057,8.64856866 9.76801671,8.79745034 9.81001774,8.93540493 L10.7224302,11.9171362 L8.13305001,10.1346537 C8.01660814,10.0537249 7.86192144,10.0537249 7.74582105,10.1346537 L5.15575788,11.9174777 L6.06817038,8.93540493 C6.1101714,8.79745034 6.06168241,8.64856866 5.94660644,8.56217631 L3.4371306,6.67964259 L6.58891479,6.61612885 C6.7313085,6.6130556 6.8569701,6.52188265 6.9040932,6.38768425 L7.93909406,3.44180752 L8.97409491,6.38768425 C9.02155948,6.52188265 9.14722109,6.6130556 9.2896148,6.61612885 L12.4410575,6.67964259 L9.93158168,8.56217631 Z M12.5872074,5.99943088 L9.53991359,5.93796597 L8.5404258,3.09316487 C8.4509602,2.83808548 8.20953968,2.66666667 7.93943553,2.66666667 C7.66830697,2.66666667 7.42654497,2.83842695 7.33776232,3.09316487 L6.338616,5.93796597 L3.29063922,5.99943088 C3.01882771,6.0052359 2.78048043,6.18245973 2.69716133,6.44129532 C2.61418369,6.69944795 2.70433223,6.9828695 2.92150826,7.14643447 L5.34493322,8.9647715 L4.46496054,11.8420124 C4.38539763,12.1005065 4.47896088,12.3825622 4.6975028,12.5430539 C4.80779817,12.6239827 4.93824038,12.6666667 5.0744876,12.6666667 C5.20458834,12.6666667 5.329567,12.6273974 5.43576471,12.5536395 L7.93943553,10.8302316 L10.4431064,12.553981 C10.6623312,12.7049115 10.9641922,12.7014968 11.1823927,12.542371 C11.4002516,12.3811963 11.493132,12.0994821 11.413569,11.8420124 L10.5332549,8.9647715 L12.9566799,7.14643447 C13.1745388,6.98252803 13.2643459,6.69876501 13.1806853,6.44095384 C13.0973662,6.18245973 12.8590189,6.00557737 12.5872074,5.99943088 L12.5872074,5.99943088 Z" id="Fill-1" fill="#FFFFFF"></path>
                </g>
            </g>
        </g>
    </g>
</svg>