<?xml version="1.0" encoding="UTF-8" standalone="no"?>
<svg width="16px" height="16px" viewBox="0 0 16 16" version="1.1" xmlns="http://www.w3.org/2000/svg" xmlns:xlink="http://www.w3.org/1999/xlink" xmlns:sketch="http://www.bohemiancoding.com/sketch/ns">
    <!-- Generator: Sketch 3.5.2 (25235) - http://www.bohemiancoding.com/sketch -->
    <title>Page 1</title>
    <desc>Created with Sketch.</desc>
    <defs></defs>
    <g id="Page-1" stroke="none" stroke-width="1" fill="none" fill-rule="evenodd" sketch:type="MSPage">
        <g id="新首页搭建效果-copy" sketch:type="MSArtboardGroup" transform="translate(-9.000000, -3775.000000)">
            <g id="Group-Copy-8" sketch:type="MSLayerGroup" transform="translate(0.000000, 3763.000000)">
                <g id="Group-3" transform="translate(9.000000, 12.000000)" sketch:type="MSShapeGroup">
                    <g id="Page-1">
                        <circle id="Oval-58-Copy" fill="#F13C34" cx="8" cy="8" r="8"></circle>
                        <path d="M12.0578011,6.23800849 L9.63542706,3.9068089 C9.55056293,3.82479173 9.43206683,3.78504108 9.31165387,3.80114261 C9.19350629,3.81623779 9.08738257,3.8846693 9.02761174,3.98429751 C8.81048505,4.34825917 8.75768458,4.79490889 8.87565791,5.2517898 L7.41658748,6.65614508 C7.00777592,6.47617694 6.57613643,6.38158046 6.16105154,6.38158046 C5.54086383,6.38158046 4.97748455,6.59509345 4.5745978,6.98287196 C4.50158328,7.0529807 4.46150372,7.14623539 4.46150372,7.24552816 C4.46150372,7.34347913 4.5028031,7.43924969 4.5745978,7.50818436 L6.32363517,9.19180055 L3.68186905,11.7314814 C3.61373379,11.7968939 3.61373379,11.9030633 3.68169479,11.9686435 C3.71567529,12.0015175 3.76028559,12.0179545 3.80507015,12.0179545 C3.84950619,12.0179545 3.89411648,12.0015175 3.92809698,11.9688112 L6.57003736,9.42896267 L8.31611233,11.1097275 C8.38912684,11.1796686 8.48601483,11.2182451 8.58900189,11.2182451 L8.58917615,11.2182451 C8.6921632,11.2182451 8.7890512,11.1796686 8.86189145,11.1095598 C9.55335108,10.4441977 9.68143143,9.3808258 9.20099942,8.3738093 L10.6602441,6.96945401 C11.12447,7.07948113 11.6097813,7.02614482 11.9772935,6.822863 C12.0809776,6.76550131 12.1520752,6.6631895 12.1675843,6.54930473 C12.1832676,6.43525222 12.1421425,6.31901931 12.0578011,6.23800849" id="Fill-1" fill="#FFFFFF"></path>
                    </g>
                </g>
            </g>
        </g>
    </g>
</svg>