<svg xmlns="http://www.w3.org/2000/svg" xmlns:xlink="http://www.w3.org/1999/xlink" width="0" height="0" style="position:absolute">

<symbol id="icon-cart" viewBox="0 0 19 19">
        <title>Page 1</title><g fill-rule="evenodd"><path d="M6.867 16.17c-.29 0-.577.12-.78.324-.205.205-.324.492-.324.78 0 .29.12.578.323.782.204.205.492.324.78.324.29 0 .577-.12.782-.324.204-.204.323-.492.323-.78 0-.29-.118-.577-.322-.782-.205-.204-.492-.323-.78-.323M16.117 16.17c-.29 0-.577.12-.78.324-.205.205-.324.492-.324.78 0 .29.12.578.323.782.204.205.492.324.78.324.29 0 .577-.12.782-.324.204-.204.323-.492.323-.78 0-.29-.118-.577-.322-.782-.205-.204-.492-.323-.78-.323M17.676 3.654c-.006.022-.01.045-.015.07l-.045.312-.02.08c-.02.073-.028.146-.024.216L16.78 9.67c-.01.033-.015.068-.02.104-.105 1-.548 1.125-.617 1.138l-10.982.795-1.16-8.71 13.186-.036c.052.01.278.058.395.224.074.107.106.268.096.47m.974-1.226c-.49-.694-1.296-.77-1.386-.776l-.048-.002-13.43.036c-.186-.58-.49-.954-.75-1.184-.416-.368-.822-.465-.9-.48-.04-.01-.084-.013-.126-.014L.66 0H.654C.295 0 .002.29 0 .65c-.002.363.29.66.65.66l1.258.008c.142.055.517.26.67.92 0 .016.003.033.005.05l1.423 10.698c0 .003 0 .006.002.01.333 2.262 1.657 2.575 1.807 2.603l.05.006.435.047c.024.003.047.004.07.004h.003L17 15.617c.36 0 .653-.295.652-.657-.002-.36-.295-.653-.655-.653h-.003l-10.59.04-.337-.037c-.102-.044-.53-.284-.728-1.302l10.927-.79c.105-.01.49-.066.888-.384.23-.186.5-.492.69-.987.066-.085.112-.187.128-.3l.93-6.264c.172-.75.087-1.373-.253-1.855"/></g>
</symbol>
</svg>