<svg xmlns="http://www.w3.org/2000/svg" xmlns:xlink="http://www.w3.org/1999/xlink" width="0" height="0" style="position:absolute">

<symbol id="icon-cart" viewBox="0 0 20 18">
        <title>Page 1</title><defs><path id="aaa" d="M19.632 12.894V.126H0v12.768h19.632z"/></defs><g fill-rule="evenodd"><g transform="translate(0 .274)"><mask id="aab" fill="#fff"><use xlink:href="#aaa"/></mask><path d="M18.584 4.688c-.008.02-.014.04-.02.06L16.95 11.45c-.114.267-.38.444-.673.444H6.23c-.314 0-.596-.206-.694-.504L4.1 3.694h13.8c.245 0 .464.116.603.317.14.202.168.45.08.678m.744-1.244c-.323-.47-.857-.75-1.427-.75H3.914l-.238-1.276c-.002-.016-.006-.033-.01-.05C3.448.64 2.765.127 2.003.127H.5c-.276 0-.5.224-.5.5s.224.5.5.5h1.504c.314 0 .597.206.695.504l1.858 9.972c.003.017.007.034.012.05.216.732.898 1.242 1.66 1.242h10.045c.713 0 1.363-.447 1.617-1.112.008-.02.015-.04.02-.062l1.618-6.708c.188-.524.114-1.108-.203-1.568" mask="url(#aab)"/></g><path d="M7.467 16.874c-.57 0-1.034-.464-1.034-1.033 0-.57.464-1.033 1.034-1.033.57 0 1.033.464 1.033 1.034 0 .57-.464 1.034-1.033 1.034m0-3.067c-1.122 0-2.034.912-2.034 2.034 0 1.122.912 2.034 2.034 2.034 1.12 0 2.033-.912 2.033-2.033 0-1.12-.912-2.033-2.033-2.033"/><path d="M15.067 16.874c-.57 0-1.034-.464-1.034-1.033 0-.57.464-1.033 1.034-1.033.57 0 1.033.464 1.033 1.034 0 .57-.464 1.034-1.033 1.034m0-3.067c-1.122 0-2.034.912-2.034 2.034 0 1.122.912 2.034 2.034 2.034 1.12 0 2.033-.912 2.033-2.033 0-1.12-.912-2.033-2.033-2.033"/></g>
</symbol>
</svg>