<?xml version="1.0" encoding="UTF-8" standalone="no"?>
<svg width="18px" height="12px" viewBox="0 0 18 12" version="1.1" xmlns="http://www.w3.org/2000/svg" xmlns:xlink="http://www.w3.org/1999/xlink" xmlns:sketch="http://www.bohemiancoding.com/sketch/ns">
    <!-- Generator: Sketch 3.4.4 (17249) - http://www.bohemiancoding.com/sketch -->
    <title>view</title>
    <desc>Created with Sketch.</desc>
    <defs></defs>
    <g id="海淘发现视觉" stroke="none" stroke-width="1" fill="none" fill-rule="evenodd" sketch:type="MSPage">
        <g id="Artboard-25" sketch:type="MSArtboardGroup" transform="translate(-213.000000, -68.000000)">
            <g id="view" sketch:type="MSLayerGroup" transform="translate(212.000000, 64.000000)">
                <rect id="Rectangle-535" fill-opacity="0" fill="#FFFFFF" sketch:type="MSShapeGroup" x="0" y="0" width="20" height="20"></rect>
                <g id="noun_105511_cc" transform="translate(1.500000, 4.000000)" fill="#9B9B9B" sketch:type="MSShapeGroup">
                    <g id="Group">
                        <g id="Shape">
                            <path d="M16.8,5.73792861 L16.8,5.73792861 C16.8,5.69762662 16.8,5.69762662 16.8,5.73792861 L16.8,5.69762662 C16.8,5.69762662 16.8,5.69762662 16.8,5.65732462 L16.8,5.65732462 C16.7666667,5.49611663 16.7333333,5.37521065 16.6333333,5.25430466 C16.1,4.48856673 15.4666667,3.84373479 14.8333333,3.19890285 C13.4666667,1.86893697 11.9,0.780783071 10.1333333,0.337461112 C9.13333333,0.0956491343 8.13333333,0.055347138 7.1,0.297159116 C6.16666667,0.498669097 5.3,0.90168906 4.46666667,1.42561501 C3.16666667,2.23165494 2,3.31980884 0.966666667,4.56917072 C0.766666667,4.8109827 0.6,5.01249268 0.4,5.29460665 C0.166666667,5.61702262 0.166666667,6.02004259 0.4,6.34245856 C0.933333333,7.10819648 1.56666667,7.75302843 2.2,8.39786037 C3.56666667,9.72782624 5.13333333,10.8159801 6.9,11.2593021 C7.9,11.5011141 8.9,11.5414161 9.93333333,11.2996041 C10.8666667,11.0980941 11.7333333,10.6950742 12.5666667,10.1711482 C13.8666667,9.36510828 15.0333333,8.27695438 16.0666667,7.02759249 C16.2666667,6.78578051 16.4333333,6.58427053 16.6333333,6.30215656 C16.7333333,6.18125057 16.8,6.06034458 16.8,5.8991366 L16.8,5.8991366 C16.8,5.8991366 16.8,5.8991366 16.8,5.8588346 L16.8,5.8588346 L16.8,5.8588346 C16.8,5.8588346 16.8,5.8588346 16.8,5.8185326 C16.8,5.8185326 16.8,5.77823061 16.8,5.73792861 C16.8,5.77823061 16.8,5.73792861 16.8,5.73792861 L16.8,5.73792861 Z M8.53333333,9.0399274 C6.76666667,9.0399274 5.36666667,7.58058076 5.36666667,5.81578947 C5.36666667,4.01705989 6.8,2.55771325 8.53333333,2.55771325 C10.3,2.55771325 11.7333333,4.01705989 11.7333333,5.81578947 C11.7333333,7.58058076 10.3,9.0399274 8.53333333,9.0399274 L8.53333333,9.0399274 Z"></path>
                            <path d="M8.53333333,4.69582577 C9.1,4.69582577 9.6,5.17096189 9.6,5.78185118 C9.6,6.35880218 9.13333333,6.86787659 8.53333333,6.86787659 C7.96666667,6.86787659 7.46666667,6.39274047 7.46666667,5.78185118 C7.46666667,5.20490018 7.96666667,4.69582577 8.53333333,4.69582577 L8.53333333,4.69582577 Z"></path>
                        </g>
                    </g>
                </g>
            </g>
        </g>
    </g>
</svg>