<svg xmlns="http://www.w3.org/2000/svg" xmlns:xlink="http://www.w3.org/1999/xlink" width="0" height="0" style="position:absolute">

<symbol id="icon-like-gray" viewBox="0 0 18 18">
        <title>like grey</title><g transform="translate(-2 -2)" fill="none" fill-rule="evenodd"><path fill="none" d="M0 0h22v22H0z"/><g transform="translate(2 2.5)" stroke-width=".2" stroke="#979DA9" fill="#979DA9"><path d="M4.575 16.83H.53V6.682h4.045V16.83zm-3.332-.73h2.62V7.412h-2.62V16.1zM14.106 16.942H8.34c-1.594 0-2.663-.54-2.708-.562l-.197-.1V7.302h.357c.397 0 .776-.315 1.143-.62l.19-.155c.46-.477 1.14-1.463 1.467-1.94.612-.888.923-1.675.923-2.337V.72c0-.414.42-.692 1.047-.692.62 0 1.233.26 1.638.694.41.438.608 1.045.577 1.757-.042.952-.346 1.817-.59 2.512-.14.398-.27.774-.27.966 0 .44.36.843.758.843h3.666c.44 0 .852.182 1.135.496.256.286.38.652.353 1.032-.01.526-.15.928-.21 1.092l-.097.34c-.01.092-.005.206.083.36.51.895.182 1.394-.057 1.758-.182.277-.292.444-.17.82.268.82-.32 1.354-.71 1.707-.123.11-.307.278-.336.355.086.593-.03 1.085-.346 1.463-.544.65-1.495.72-1.878.72zm-7.958-1.13c.352.138 1.15.398 2.193.398h5.766c.458 0 1.05-.12 1.337-.463.18-.214.238-.505.18-.89-.063-.426.273-.73.57-1 .39-.352.617-.59.507-.928-.233-.717.05-1.147.254-1.46.21-.32.317-.483.033-.98-.16-.28-.213-.563-.167-.865l.01-.048c.04-.13.074-.255.106-.37l.01-.028c.044-.125.163-.454.17-.876V8.28c.016-.18-.044-.352-.166-.49-.148-.163-.37-.257-.61-.257h-3.665c-.798 0-1.472-.72-1.472-1.575 0-.32.14-.714.314-1.214.227-.648.51-1.455.547-2.298.023-.515-.105-.925-.38-1.22-.32-.344-.79-.467-1.122-.467-.162 0-.275.027-.334.05v1.44c0 .817-.354 1.746-1.053 2.76-.55.798-1.12 1.598-1.56 2.05l-.034.03-.196.163c-.358.296-.754.624-1.236.74v7.818z"/></g></g>
</symbol>

<symbol id="icon-like-red" viewBox="0 0 18 18">
        <title>like red</title><g transform="translate(-2 -2)" fill="none" fill-rule="evenodd"><path fill="none" d="M0 0h22v22H0z"/><g transform="translate(2 2.5)" stroke-width=".2" stroke="#F13C34" fill="#F13C34"><path d="M4.575 16.83H.53V6.682h4.045V16.83zM14.106 16.942H8.34c-1.594 0-2.663-.54-2.708-.562l-.197-.1V7.302h.357c.397 0 .776-.315 1.143-.62l.19-.155c.46-.477 1.14-1.463 1.467-1.94.612-.888.923-1.675.923-2.337V.72c0-.414.42-.692 1.047-.692.62 0 1.233.26 1.638.694.41.438.608 1.045.577 1.757-.042.952-.346 1.817-.59 2.512-.14.398-.27.774-.27.966 0 .44.36.843.758.843h3.666c.44 0 .852.182 1.135.496.256.286.38.652.353 1.032-.01.526-.15.928-.21 1.092l-.097.34c-.01.092-.005.206.083.36.51.895.182 1.394-.057 1.758-.182.277-.292.444-.17.82.268.82-.32 1.354-.71 1.707-.123.11-.307.278-.336.355.086.593-.03 1.085-.346 1.463-.544.65-1.495.72-1.878.72z"/></g></g>
</symbol>
</svg>