<svg xmlns="http://www.w3.org/2000/svg" xmlns:xlink="http://www.w3.org/1999/xlink" width="0" height="0" style="position:absolute">

<symbol id="icon-star-gray" viewBox="0 0 20 19">
        <title>star grey</title><g transform="translate(-2 -2)" fill="none" fill-rule="evenodd"><path fill="none" d="M0 0h24v24H0z"/><path stroke="#979DA9" d="M12 17l-5.878 3.09 1.123-6.545L2.49 8.91l6.57-.955L12 2l2.94 5.955 6.57.955-4.755 4.635 1.123 6.545z"/></g>
</symbol>

<symbol id="icon-star-red" viewBox="0 0 20 19">
        <title>star red</title><g transform="translate(-2 -3)" fill="none" fill-rule="evenodd"><path fill="none" d="M0 0h24v24H0z"/><path stroke="#F13C34" fill="#F13C34" d="M12 18l-5.878 3.09 1.123-6.545L2.49 9.91l6.57-.955L12 3l2.94 5.955 6.57.955-4.755 4.635 1.123 6.545z"/></g>
</symbol>

<symbol id="icon-tag" viewBox="0 0 14 14">
        <title>tag</title><g transform="translate(-3 -3)" fill="none" fill-rule="evenodd"><path fill="none" d="M0 0h20v20H0z"/><path d="M16.842 4.082c-.022-.506-.453-.935-.96-.953L12.323 3c-.506-.017-1.213.26-1.57.62L3.27 11.1c-.357.357-.357.943 0 1.3l4.33 4.33c.36.36.945.36 1.303 0l7.478-7.48c.358-.357.634-1.064.612-1.57l-.153-3.598zm-1.44 1.85c-.367.37-.964.37-1.332 0-.37-.368-.37-.965 0-1.334.368-.368.965-.368 1.333 0 .368.37.37.966 0 1.334z" fill="#9B9B9B"/></g>
</symbol>

<symbol id="icon-view" viewBox="0 0 18 12">
        <title>view</title><g transform="translate(-1 -4)" fill="none" fill-rule="evenodd"><path fill="none" d="M0 0h20v20H0z"/><g transform="translate(1.5 4)" fill="#9B9B9B"><path d="M16.8 5.738c0-.04 0-.04 0 0v-.04-.04c-.033-.162-.067-.283-.167-.404-.533-.765-1.166-1.41-1.8-2.055C13.467 1.87 11.9.78 10.133.336c-1-.24-2-.282-3.033-.04-.933.202-1.8.605-2.633 1.13C3.167 2.23 2 3.32.967 4.568c-.2.24-.367.442-.567.725-.233.322-.233.725 0 1.047.533.766 1.167 1.41 1.8 2.056 1.367 1.33 2.933 2.418 4.7 2.86 1 .243 2 .283 3.033.042.934-.202 1.8-.605 2.634-1.13 1.3-.805 2.466-1.893 3.5-3.142.2-.242.366-.444.566-.726.1-.12.167-.242.167-.403v-.04-.04-.082c0 .04 0 0 0 0zM8.533 9.04c-1.766 0-3.166-1.46-3.166-3.224 0-1.8 1.433-3.258 3.166-3.258 1.767 0 3.2 1.46 3.2 3.258 0 1.765-1.433 3.224-3.2 3.224z"/><path d="M8.533 4.696c.567 0 1.067.475 1.067 1.086 0 .577-.467 1.086-1.067 1.086-.566 0-1.066-.475-1.066-1.086 0-.577.5-1.086 1.066-1.086z"/></g></g>
</symbol>
</svg>