<svg xmlns="http://www.w3.org/2000/svg" xmlns:xlink="http://www.w3.org/1999/xlink" width="0" height="0" style="position:absolute">

<symbol id="icon-change" viewBox="0 0 17 9">
        <title>Fill 1910 + Fill 1912</title><g fill="#CCC" fill-rule="evenodd"><path d="M15.873 6.368H2.597l.227-.22c.26-.25.25-.642-.02-.88-.27-.243-.697-.23-.956.014L.56 6.524c-.143.113-.238.28-.238.468s.095.35.238.47l1.288 1.236c.133.13.31.194.488.194.17 0 .337-.057.468-.176.27-.237.28-.63.02-.88l-.226-.22h13.275c.373 0 .676-.28.676-.624 0-.343-.304-.624-.677-.624M.998 2.62h13.275l-.226.22c-.258.248-.25.642.02.88.13.118.3.175.468.175.177 0 .355-.063.488-.194L16.31 2.46c.144-.112.24-.275.24-.463 0-.187-.095-.35-.236-.46l-1.29-1.25c-.26-.245-.687-.257-.957-.014-.27.24-.278.632-.02.882l.227.22H.998c-.374 0-.676.28-.676.623 0 .344.302.625.676.625"/></g>
</symbol>
</svg>