<?xml version="1.0" encoding="UTF-8" standalone="no"?>
<svg width="17px" height="17px" viewBox="0 0 17 17" version="1.1" xmlns="http://www.w3.org/2000/svg" xmlns:xlink="http://www.w3.org/1999/xlink">
    <!-- Generator: Sketch 3.6.1 (26313) - http://www.bohemiancoding.com/sketch -->
    <title>Page 1 Copy</title>
    <desc>Created with Sketch.</desc>
    <defs>
        <path id="path-1" d="M16.77016,11.2500102 L16.77016,0.0647040816 L0.000136,0.0647040816 L0.000136,11.2500102 L16.77016,11.2500102 L16.77016,11.2500102 Z"></path>
    </defs>
    <g id="Page-1" stroke="none" stroke-width="1" fill="none" fill-rule="evenodd">
        <g id="常规-库存充足" transform="translate(-202.000000, -780.000000)">
            <g id="Page-1-Copy" transform="translate(202.000000, 780.000000)">
                <g id="Group-3" transform="translate(0.000000, 1.927488)">
                    <mask id="mask-2" fill="white">
                        <use xlink:href="#path-1"></use>
                    </mask>
                    <g id="Clip-2"></g>
                    <path d="M16.519716,0.945928571 C16.338836,0.89527551 16.151496,1.00456122 16.102196,1.18913265 L15.875756,2.03670408 L11.158596,2.03670408 C10.970916,2.03670408 10.818596,2.19178571 10.818596,2.38364286 C10.818596,2.57515306 10.970916,2.73058163 11.158596,2.73058163 L15.690116,2.73058163 L14.462716,7.32335714 C14.434496,7.44513265 14.329436,7.53047959 14.206696,7.53047959 C14.194456,7.53047959 14.182216,7.53117347 14.169976,7.53256122 L4.416056,8.61396939 L3.098216,2.73058163 L7.502576,2.73058163 C7.690256,2.73058163 7.842576,2.57515306 7.842576,2.38364286 C7.842576,2.19178571 7.690256,2.03670408 7.502576,2.03670408 L3.120656,2.03670408 L3.360356,0.976459184 C3.371576,0.927193878 3.371916,0.875846939 3.361376,0.826234694 C3.269576,0.38527551 2.881976,0.0647040816 2.439636,0.0647040816 L0.340136,0.0647040816 C0.152116,0.0647040816 0.000136,0.219785714 0.000136,0.411642857 C0.000136,0.6035 0.152116,0.758581633 0.340136,0.758581633 L2.439636,0.758581633 C2.542316,0.758581633 2.634456,0.820683673 2.676956,0.911928571 L2.377756,2.23515306 C2.356336,2.28060204 2.342396,2.32986735 2.342396,2.38364286 C2.342396,2.39439796 2.347496,2.40376531 2.348516,2.41452041 C2.348176,2.42007143 2.348856,2.42596939 2.348856,2.43152041 C2.348856,2.45476531 2.346136,2.4780102 2.350556,2.50021429 C2.351236,2.5029898 2.350216,2.50576531 2.350896,2.50888776 L3.799976,8.9782551 L3.430056,10.1880306 C3.426316,10.1991327 3.423596,10.2105816 3.421216,10.2220306 C3.370896,10.4756429 3.433796,10.7358469 3.593596,10.9349898 C3.753736,11.1351735 3.990716,11.2500102 4.244016,11.2500102 L14.357316,11.2500102 C14.544996,11.2500102 14.697316,11.0949286 14.697316,10.9030714 C14.697316,10.7112143 14.544996,10.5561327 14.357316,10.5561327 L4.244016,10.5561327 C4.196076,10.5561327 4.151196,10.5346224 4.120256,10.4957653 C4.092716,10.4614184 4.080136,10.4173571 4.085576,10.372949 L4.410276,9.31270408 L14.227096,8.22435714 C14.658556,8.2149898 15.026096,7.91211224 15.121636,7.49370408 L16.758396,1.37196939 C16.807696,1.18705102 16.700936,0.996234694 16.519716,0.945928571" id="Fill-1" fill="#FFFFFF" mask="url(#mask-2)"></path>
                </g>
                <path d="M4.820418,16.1519776 C4.438938,16.1519776 4.128518,15.8355694 4.128518,15.4463041 C4.128518,15.0570388 4.438938,14.7406306 4.820418,14.7406306 C5.201558,14.7406306 5.511298,15.0570388 5.511298,15.4463041 C5.511298,15.8355694 5.201558,16.1519776 4.820418,16.1519776 M4.820418,14.0467531 C4.063918,14.0467531 3.448518,14.6743653 3.448518,15.4463041 C3.448518,16.2178959 4.063918,16.8458551 4.820418,16.8458551 C5.576238,16.8458551 6.191298,16.2178959 6.191298,15.4463041 C6.191298,14.6743653 5.576238,14.0467531 4.820418,14.0467531" id="Fill-4" fill="#FFFFFF"></path>
                <path d="M12.93496,16.1519776 C12.55348,16.1519776 12.2434,15.8355694 12.2434,15.4463041 C12.2434,15.0570388 12.55348,14.7406306 12.93496,14.7406306 C13.3161,14.7406306 13.62652,15.0570388 13.62652,15.4463041 C13.62652,15.8355694 13.3161,16.1519776 12.93496,16.1519776 M12.93496,14.0467531 C12.1788,14.0467531 11.5634,14.6743653 11.5634,15.4463041 C11.5634,16.2178959 12.1788,16.8458551 12.93496,16.8458551 C13.69146,16.8458551 14.30652,16.2178959 14.30652,15.4463041 C14.30652,14.6743653 13.69146,14.0467531 12.93496,14.0467531" id="Fill-6" fill="#FFFFFF"></path>
                <path d="M7.432842,5.94403265 C7.299902,5.80837959 7.085022,5.80837959 6.952082,5.94403265 C6.819142,6.07968571 6.819142,6.29895102 6.952082,6.43460408 L9.090002,8.6161551 C9.121282,8.64807347 9.158682,8.67374694 9.199822,8.69109388 C9.240962,8.70878776 9.285502,8.7181551 9.330722,8.7181551 C9.376282,8.7181551 9.420482,8.70878776 9.461622,8.69109388 C9.503102,8.67374694 9.540162,8.64807347 9.571442,8.6161551 L11.709362,6.43460408 C11.841962,6.29895102 11.841962,6.07968571 11.709362,5.94403265 C11.576422,5.80837959 11.361202,5.80837959 11.228602,5.94403265 L9.670722,7.53370612 L9.670722,0.346869388 C9.670722,0.155012245 9.518402,-6.9387755e-05 9.330722,-6.9387755e-05 C9.143042,-6.9387755e-05 8.990722,0.155012245 8.990722,0.346869388 L8.990722,7.53370612 L7.432842,5.94403265 Z" id="Fill-8" fill="#FFFFFF"></path>
            </g>
        </g>
    </g>
</svg>