<?xml version="1.0" encoding="UTF-8" standalone="no"?>
<svg width="24px" height="17px" viewBox="0 0 24 17" version="1.1" xmlns="http://www.w3.org/2000/svg" xmlns:xlink="http://www.w3.org/1999/xlink">
    <!-- Generator: Sketch 3.6.1 (26313) - http://www.bohemiancoding.com/sketch -->
    <title>Page 1</title>
    <desc>Created with Sketch.</desc>
    <defs>
        <path id="path-1" d="M7.49043907,0.0213952415 L0.0858028781,0.0213952415 L0.0858028781,7.4266449 L7.49043907,7.4266449 L7.49043907,0.0213952415 L7.49043907,0.0213952415 Z"></path>
    </defs>
    <g id="Page-1" stroke="none" stroke-width="1" fill="none" fill-rule="evenodd">
        <g id="常规-当前SKU-缺货" transform="translate(-204.000000, -782.000000)">
            <g id="Page-1" transform="translate(216.264220, 790.513285) rotate(38.000000) translate(-216.264220, -790.513285) translate(205.764220, 779.013285)">
                <g id="Group-3" transform="translate(0.000000, 2.207409)" fill="#FFFFFF">
                    <path d="M5.91667573,13.8505216 L4.18900999,12.1228558 L9.73929221,1.48719215 L16.5518937,8.30023935 L5.91667573,13.8505216 Z M9.83289639,18.7157103 C9.83111345,18.7174933 9.82754758,18.7206134 9.8199701,18.7206134 L9.80838101,18.7166018 C9.7874315,18.6952066 9.76425332,18.6764857 9.73929221,18.6599936 L5.21419864,15.6472761 L5.22846213,15.6330126 L5.79543603,15.0883254 C5.81638554,15.1097207 5.84000945,15.1284415 5.86452483,15.1449337 L10.3900641,18.1576511 L9.83289639,18.7157103 Z M3.1816507,16.8962233 L1.14687409,14.861001 L2.35704243,14.0582337 L3.98441799,15.6856093 L3.1816507,16.8962233 Z M3.64164839,12.8355848 L5.20350102,14.3974374 L5.14778424,14.4531542 C5.14555557,14.4553829 5.1433269,14.4567201 5.14109823,14.458503 L4.59284517,15.0063104 C4.59017076,15.0089848 4.58838783,15.0121049 4.58615916,15.0147793 L4.57991888,15.0205738 L3.01806625,13.4587212 L3.64164839,12.8355848 Z M9.94031833,0.427236228 C9.84002814,0.326500299 9.69783893,0.279698209 9.55787839,0.301984919 C9.41702638,0.32338016 9.29578668,0.410298329 9.22981802,0.536441106 L3.28149516,11.934756 L1.97014515,13.2452145 L0.19968892,14.4197241 C0.088255371,14.4932703 0.0156006969,14.6136185 0.00222867099,14.7464473 C-0.0111433549,14.8797218 0.03610447,15.0116592 0.13060012,15.1061548 L2.93649689,17.9116058 C3.02074065,17.9954039 3.13440287,18.042206 3.25163097,18.042206 C3.2663402,18.042206 3.28149516,18.0413145 3.29620439,18.0399773 C3.42947891,18.0266053 3.54938141,17.9543963 3.62292755,17.8429628 L4.63028684,16.3243464 C4.64053873,16.3328153 4.64989915,16.3421757 4.66059677,16.3493075 L9.21421732,19.3811915 C9.38047618,19.5305125 9.59398286,19.6120818 9.8199701,19.6120818 C10.0628952,19.6120818 10.2911111,19.5180319 10.4631645,19.3459785 L11.0114176,18.7972797 C11.183471,18.625672 11.2784124,18.3970104 11.2779667,18.1536395 C11.2779667,17.9107144 11.1830253,17.6820527 11.0109719,17.5108908 C10.9904681,17.490387 10.9677357,17.4716662 10.9432203,17.4556198 L6.54605242,14.5275918 L17.5030905,8.80926781 C17.6287875,8.74374488 17.7157057,8.62161371 17.7371009,8.48165317 C17.7589419,8.3412469 17.7125855,8.19905769 17.6118496,8.0987675 L9.94031833,0.427236228 Z" id="Fill-1"></path>
                </g>
                <g id="Group-6" transform="translate(12.480558, 0.424473)">
                    <mask id="mask-2" fill="white">
                        <use xlink:href="#path-1"></use>
                    </mask>
                    <g id="Clip-5"></g>
                    <path d="M5.5177882,1.9940365 C4.18548869,0.661736989 2.41191231,-0.0385114346 0.516204774,0.0252285556 C0.270605231,0.0332517711 0.0776023237,0.23918097 0.0860712735,0.485226247 C0.094094489,0.731717258 0.303143828,0.936309255 0.546068965,0.915805482 C2.19751417,0.869449125 3.73173127,1.46851589 4.88752005,2.62430466 C6.04330882,3.78009343 6.64995306,5.32188802 6.59601922,6.96575574 C6.58755027,7.21224675 6.78055318,7.41817595 7.02659846,7.42575343 C7.03150153,7.4266449 7.03640461,7.4266449 7.04175342,7.4266449 C7.28111268,7.4266449 7.47857293,7.2363164 7.48659615,6.99561993 C7.54899894,5.10214106 6.84964198,3.32589029 5.5177882,1.9940365" id="Fill-4" fill="#FFFFFF" mask="url(#mask-2)"></path>
                </g>
                <path d="M16.8370298,7.34988947 C16.846836,7.35033521 16.8566422,7.35078094 16.8664483,7.35078094 C17.0995673,7.35078094 17.2952446,7.17025859 17.3108453,6.93401947 C17.3790426,5.89590452 16.9983856,4.88141349 16.2669358,4.14996367 C15.535486,3.41895959 14.5232236,3.03741111 13.48288,3.10605418 C13.2372805,3.12210061 13.0509636,3.33427009 13.06701,3.57986963 C13.0835022,3.82636064 13.2983461,4.0095574 13.5408255,3.99573964 C14.3221975,3.94358874 15.0861859,4.23019583 15.6366677,4.78023182 C16.1867037,5.33026782 16.472865,6.09425624 16.4211598,6.87607402 C16.4051134,7.12122783 16.5914303,7.33384304 16.8370298,7.34988947" id="Fill-7" fill="#FFFFFF"></path>
            </g>
        </g>
    </g>
</svg>