<?xml version="1.0" encoding="UTF-8" standalone="no"?>
<svg width="66px" height="66px" viewBox="0 0 33 33" version="1.1" xmlns="http://www.w3.org/2000/svg" xmlns:xlink="http://www.w3.org/1999/xlink" xmlns:sketch="http://www.bohemiancoding.com/sketch/ns">
    <!-- Generator: Sketch 3.3.3 (12072) - http://www.bohemiancoding.com/sketch -->
    <title>svg1</title>
    <desc>Created with Sketch.</desc>
    <defs>
        <path id="path-1" d="M16.5,33 C25.6126984,33 33,25.6126984 33,16.5 C33,7.38730163 25.6126984,0 16.5,0 C7.38730163,0 0,7.38730163 0,16.5 C0,25.6126984 7.38730163,33 16.5,33 Z"></path>
    </defs>
    <g id="Page-2" stroke="none" stroke-width="1" fill="none" fill-rule="evenodd" sketch:type="MSPage">
        <g id="首页-copy" sketch:type="MSArtboardGroup" transform="translate(-24.000000, -251.000000)">
            <g id="Group-Copy-7" sketch:type="MSLayerGroup" transform="translate(0.000000, 238.000000)">
                <g id="Rectangle-61-Copy-5-+-Bitmap-+-摇优惠-Copy-Copy-Copy-Copy-Copy-Copy-Copy" transform="translate(22.000000, 11.000000)">
                    <g id="svg1" transform="translate(2.000000, 2.000000)">
                        <mask id="mask-2" sketch:name="Mask" fill="white">
                            <use xlink:href="#path-1"></use>
                        </mask>
                        <use id="Mask" fill="#F2F2F2" sketch:type="MSShapeGroup" xlink:href="#path-1"></use>
                        <path d="M18.3688965,4 L22,4 L20.1921387,12 L18.3688965,12 L18.3688965,4 Z" id="Rectangle-122" fill="#F8E81C" sketch:type="MSShapeGroup" mask="url(#mask-2)"></path>
                        <path d="M22.8537598,6 L25.6311035,6 L23.2104492,11.3239746 L21.927002,10.8422852 L22.8537598,6 Z" id="Rectangle-122-Copy" fill="#F8E81C" sketch:type="MSShapeGroup" mask="url(#mask-2)"></path>
                        <g id="Rectangle-87-+-Rectangle-89-+-Rectangle-87-Copy" mask="url(#mask-2)" sketch:type="MSShapeGroup">
                            <g transform="translate(11.241845, 26.335537) rotate(-25.000000) translate(-11.241845, -26.335537) translate(-1.258155, 10.835537)">
                                <rect id="Rectangle-87" fill="#4A4A4A" x="3.73034936e-14" y="1" width="24" height="30" rx="1"></rect>
                                <rect id="Rectangle-89" fill="#9B9B9B" x="8" y="3" width="8" height="1" rx="1"></rect>
                                <rect id="Rectangle-87-Copy" fill="#FF5B54" x="2" y="5" width="20" height="25"></rect>
                            </g>
                        </g>
                        <path d="M27.3286133,17.3076173 C24.4494631,15.3984376 20.8314469,23.3193359 24.399318,32.076416 C27.9671891,40.8334961 32.5035133,33.5485831 33.3905289,29.1972661 C27.185939,26.0583492 30.2077636,19.2167969 27.3286133,17.3076173 Z" id="Path-99" fill="#FFD19B" sketch:type="MSShapeGroup" mask="url(#mask-2)"></path>
                    </g>
                </g>
            </g>
        </g>
    </g>
</svg>