<?xml version="1.0" encoding="UTF-8" standalone="no"?>
<svg width="30px" height="30px" viewBox="0 0 30 30" version="1.1" xmlns="http://www.w3.org/2000/svg" xmlns:xlink="http://www.w3.org/1999/xlink" xmlns:sketch="http://www.bohemiancoding.com/sketch/ns">
    <!-- Generator: Sketch 3.3.2 (12043) - http://www.bohemiancoding.com/sketch -->
    <title>Rectangle 15 + 查看物流 Copy 7 + cart</title>
    <desc>Created with Sketch.</desc>
    <defs></defs>
    <g id="我的订单" stroke="none" stroke-width="1" fill="none" fill-rule="evenodd" sketch:type="MSPage">
        <g id="意见反馈-copy-7" sketch:type="MSArtboardGroup" transform="translate(-275.000000, -298.000000)">
            <g id="IMG_3205-+-Rectangle-15-+-查看物流-Copy-7-+-cart-+-Rectangle-15-+-查看物流-Copy-7-+-cart-Copy" sketch:type="MSLayerGroup">
                <g id="Rectangle-15-+-查看物流-Copy-7-+-cart" transform="translate(275.000000, 298.000000)" sketch:type="MSShapeGroup">
                    <g id="Rectangle-15-+-查看物流-Copy-7" fill="#F2F2F2">
                        <rect id="Rectangle-15" x="0" y="0" width="30" height="30" rx="33"></rect>
                    </g>
                    <g id="cart" transform="translate(14.000000, 15.083333) scale(-1, 1) translate(-14.000000, -15.083333) translate(4.000000, 7.083333)" fill="#B3B3B3">
                        <path d="M18.9302816,-7.99360578e-15 L16.9156597,-7.99360578e-15 C16.8387766,-7.99360578e-15 13.8243898,2.84475111 13.8243898,2.84475111 C13.78965,2.88038292 13.7631681,2.92093946 13.7412422,2.96323413 L8.26631156,2.96323413 L6.90405702,2.96323413 L0.831431545,2.96323413 C0.217790548,2.96323413 -0.134163175,3.45107128 0.0480782351,4.04667294 L2.0470387,10.566715 C2.23013437,11.1626064 2.88136265,11.6501538 3.4947189,11.6501538 L6.90405702,11.6501538 L8.26631156,11.6501538 L11.6750802,11.6501538 C12.2887212,11.6501538 12.9402342,11.1623167 13.1224756,10.566715 L15.1029272,4.10924588 L17.2972277,1.87631904 L18.9302816,1.87631904 C19.1976639,1.87631904 19.4169231,1.65383749 19.4169231,1.38152933 L19.4169231,0.494210326 C19.4169231,0.222481553 19.1976639,-7.99360578e-15 18.9302816,-7.99360578e-15 Z M3.23615385,15.5335385 C3.95106521,15.5335385 4.53061538,14.9539883 4.53061538,14.2390769 C4.53061538,13.5241656 3.95106521,12.9446154 3.23615385,12.9446154 C2.52124248,12.9446154 1.94169231,13.5241656 1.94169231,14.2390769 C1.94169231,14.9539883 2.52124248,15.5335385 3.23615385,15.5335385 Z M11.0029231,15.5335385 C11.7178344,15.5335385 12.2973846,14.9539883 12.2973846,14.2390769 C12.2973846,13.5241656 11.7178344,12.9446154 11.0029231,12.9446154 C10.2880117,12.9446154 9.70846154,13.5241656 9.70846154,14.2390769 C9.70846154,14.9539883 10.2880117,15.5335385 11.0029231,15.5335385 Z" id="Shape"></path>
                    </g>
                </g>
            </g>
        </g>
    </g>
</svg>