<?xml version="1.0" encoding="UTF-8" standalone="no"?>
<svg width="292px" height="131px" viewBox="0 0 292 131" version="1.1" xmlns="http://www.w3.org/2000/svg" xmlns:xlink="http://www.w3.org/1999/xlink" xmlns:sketch="http://www.bohemiancoding.com/sketch/ns">
    <!-- Generator: Sketch 3.3.3 (12072) - http://www.bohemiancoding.com/sketch -->
    <title>img_cupon@2x</title>
    <desc>Created with Sketch.</desc>
    <defs>
        <filter x="-50%" y="-50%" width="200%" height="200%" filterUnits="objectBoundingBox" id="filter-1">
            <feOffset dx="0" dy="2" in="SourceAlpha" result="shadowOffsetOuter1"></feOffset>
            <feGaussianBlur stdDeviation="0" in="shadowOffsetOuter1" result="shadowBlurOuter1"></feGaussianBlur>
            <feColorMatrix values="0 0 0 0 0   0 0 0 0 0   0 0 0 0 0  0 0 0 0.07 0" in="shadowBlurOuter1" type="matrix" result="shadowMatrixOuter1"></feColorMatrix>
            <feMerge>
                <feMergeNode in="shadowMatrixOuter1"></feMergeNode>
                <feMergeNode in="SourceGraphic"></feMergeNode>
            </feMerge>
        </filter>
    </defs>
    <g id="Page-1" stroke="none" stroke-width="1" fill="none" fill-rule="evenodd" sketch:type="MSPage">
        <g id="3Shake" sketch:type="MSArtboardGroup" transform="translate(-14.000000, -243.000000)" fill="#FF5B54">
            <g id="Rectangle-313-+-Rectangle-313-Copy-4" sketch:type="MSLayerGroup" transform="translate(15.000000, 244.000000)">
                <g id="img_cupon" transform="translate(0.000000, 0.000000)" sketch:type="MSShapeGroup">
                    <path d="M0,103.126017 L0,92.8739825 C1.72522721,92.4299397 3,90.8638394 3,89 C3,87.1361606 1.72522721,85.5700603 2.70894418e-14,85.1260175 L0,85.1260175 L0,78.8739825 C1.72522721,78.4299397 3,76.8638394 3,75 C3,73.1361606 1.72522721,71.5700603 2.70894418e-14,71.1260175 L0,71.1260175 L0,64.8739825 C1.72522721,64.4299397 3,62.8638394 3,61 C3,59.1361606 1.72522721,57.5700603 2.70894418e-14,57.1260175 L0,57.1260175 L0,50.8739825 C1.72522721,50.4299397 3,48.8638394 3,47 C3,45.1361606 1.72522721,43.5700603 2.70894418e-14,43.1260175 L0,43.1260175 L0,36.8739825 C1.72522721,36.4299397 3,34.8638394 3,33 C3,31.1361606 1.72522721,29.5700603 2.70894418e-14,29.1260175 L0,29.1260175 L0,22.8739825 C1.72522721,22.4299397 3,20.8638394 3,19 C3,17.1361606 1.72522721,15.5700603 -1.11022302e-16,15.1260175 L0,15.1260175 L0,10 C5.5228475,10 10,5.5228475 10,1.77635684e-15 L10,0 L280,0 L280,0 C280,5.5228475 284.477153,10 290,10 L290,15.1260175 L290,15.1260175 C288.274773,15.5700603 287,17.1361606 287,19 C287,20.8638394 288.274773,22.4299397 290,22.8739825 L290,29.1260175 L290,29.1260175 C288.274773,29.5700603 287,31.1361606 287,33 C287,34.8638394 288.274773,36.4299397 290,36.8739825 L290,43.1260175 L290,43.1260175 C288.274773,43.5700603 287,45.1361606 287,47 C287,48.8638394 288.274773,50.4299397 290,50.8739825 L290,57.1260175 L290,57.1260175 C288.274773,57.5700603 287,59.1361606 287,61 C287,62.8638394 288.274773,64.4299397 290,64.8739825 L290,71.1260175 L290,71.1260175 C288.274773,71.5700603 287,73.1361606 287,75 C287,76.8638394 288.274773,78.4299397 290,78.8739825 L290,85.1260175 L290,85.1260175 C288.274773,85.5700603 287,87.1361606 287,89 C287,90.8638394 288.274773,92.4299397 290,92.8739825 L290,103.126017 L290,103.126017 C288.274773,103.57006 287,105.136161 287,107 C287,108.863839 288.274773,110.42994 290,110.873983 L290,117 L290,117 C284.477153,117 280,121.477153 280,127 L10,127 C10,121.477153 5.5228475,117 0,117 L0,117 L0,110.873983 C1.72522721,110.42994 3,108.863839 3,107 C3,105.136161 1.72522721,103.57006 2.70894418e-14,103.126017 Z" id="Rectangle-313" stroke-opacity="0.16833673" stroke="#D0011B" stroke-width="0.5" filter="url(#filter-1)"></path>
                    <path d="M9.20472441,109.838583 L9.20472441,17.1614173 C14.3769768,17.1614173 18.5699158,13.2835687 18.5699158,8.5 L18.5699158,8.5 L271.430084,8.5 L271.430084,8.5 C271.430084,13.2835687 275.623023,17.1614173 280.795276,17.1614173 L280.795276,109.838583 L280.795276,109.838583 C275.623023,109.838583 271.430084,113.716431 271.430084,118.5 L18.5699158,118.5 C18.5699158,113.716431 14.3769768,109.838583 9.20472441,109.838583 Z" id="Rectangle-313-Copy" stroke="#F63F37"></path>
                </g>
            </g>
        </g>
    </g>
</svg>