<?xml version="1.0" encoding="UTF-8" standalone="no"?>
<svg width="16px" height="15px" viewBox="0 0 16 15" version="1.1" xmlns="http://www.w3.org/2000/svg" xmlns:xlink="http://www.w3.org/1999/xlink" xmlns:sketch="http://www.bohemiancoding.com/sketch/ns">
    <!-- Generator: Sketch 3.2.2 (9983) - http://www.bohemiancoding.com/sketch -->
    <title>btn_info_gray</title>
    <desc>Created with Sketch.</desc>
    <defs></defs>
    <g id="Page-1" stroke="none" stroke-width="1" fill="none" fill-rule="evenodd" sketch:type="MSPage">
        <path d="M8.00053559,15.0247117 C3.85811706,15.0247117 0.5,11.6613025 0.5,7.51208761 C0.5,3.36314101 3.85811706,0 8.00053559,0 C12.1429541,0 15.5,3.36314101 15.5,7.51208761 C15.5,11.6613025 12.1429541,15.0247117 8.00053559,15.0247117 L8.00053559,15.0247117 L8.00053559,15.0247117 Z M5.86291912,6.33740201 L5.83560676,6.83382741 C5.907905,6.80673988 6.01688706,6.77804322 6.11783706,6.74800563 C6.21878706,6.7182362 6.31732647,6.70294918 6.41372441,6.70294918 C6.60973294,6.70294918 6.90454824,6.73620514 6.97390118,6.80244883 C7.04298588,6.86842428 7.14982647,6.98589287 7.14982647,7.15431812 C7.14982647,7.24764933 7.13858088,7.26052259 7.11608794,7.37343188 C7.093595,7.48607294 7.06547882,7.60568706 7.032275,7.73227414 L6.51601294,8.9420931 C6.347585,9.29181677 6.37677147,9.80326096 6.37677147,9.81613422 C6.37677147,10.0870093 6.59339882,10.3104141 6.79315559,10.4866169 C6.99291324,10.6625515 7.27326941,10.7507871 7.63395676,10.7507871 C7.86825676,10.7507871 8.073905,10.7196766 8.25116971,10.6579922 C8.42870176,10.5963078 8.55776706,10.6333185 8.85526118,10.51585 L8.95460353,10.1095375 C8.69968559,10.2299561 8.71548412,10.1862407 8.45494294,10.1862407 C8.26268353,10.1862407 8.18181676,10.08245 8.10389529,10.0191564 C8.02570559,9.95613104 7.98687941,9.83705331 7.98687941,9.66272785 C7.98687941,9.59326578 7.99892882,9.31219947 8.02302853,9.17703018 C8.04712735,9.04159266 8.07417235,8.92117401 8.10443088,8.81550592 L8.70852235,7.61024635 C8.74467147,7.49009585 8.76930588,7.35760848 8.78296294,7.21305237 C8.79635088,7.06849635 8.80331353,6.96792393 8.80331353,6.91079883 C8.80331353,6.63375534 8.56178353,6.35456641 8.36791735,6.18158187 C8.17378382,6.00859733 7.80854353,5.92170279 7.45080147,5.92170279 C7.252115,5.92170279 7.04164735,5.95737252 6.81886206,6.02790726 C6.59634412,6.09871024 6.10659059,6.23790244 5.86291912,6.33740201 L5.86291912,6.33740201 L5.86291912,6.33740201 Z M8.84829853,3.94565633 C8.686565,3.79359087 8.49189588,3.71742407 8.26375471,3.71742407 C8.03588176,3.71742407 7.84040882,3.81048704 7.67733588,3.9625525 C7.51399559,4.11488611 7.432325,4.31495818 7.432325,4.52897627 C7.432325,4.74326251 7.51399559,4.94252996 7.67733588,5.09352265 C7.84040882,5.24424711 8.03588176,5.35340173 8.26375471,5.35340173 C8.49189588,5.35340173 8.686565,5.24424711 8.84829853,5.09352265 C9.01030029,4.94252996 9.09116706,4.74326251 9.09116706,4.52897627 C9.09116706,4.31495818 9.01030029,4.09798994 8.84829853,3.94565633 L8.84829853,3.94565633 L8.84829853,3.94565633 Z" id="btn_info_gray" opacity="0.5" fill="#966300" sketch:type="MSShapeGroup"></path>
    </g>
</svg>