<?xml version="1.0" encoding="utf-8"?>
<!-- Generator: Adobe Illustrator 17.0.2, SVG Export Plug-In . SVG Version: 6.00 Build 0)  -->
<!DOCTYPE svg PUBLIC "-//W3C//DTD SVG 1.1//EN" "http://www.w3.org/Graphics/SVG/1.1/DTD/svg11.dtd">
<svg version="1.1" id="Layer_1" xmlns="http://www.w3.org/2000/svg" xmlns:xlink="http://www.w3.org/1999/xlink" x="0px" y="0px"
	 width="56.693px" height="56.693px" viewBox="0 0 56.693 56.693" enable-background="new 0 0 56.693 56.693" xml:space="preserve">
<path d="M43.107,24.285l-2.149-0.152L26.284,6.951c-1.375-1.752-2.79-2.641-4.207-2.644l-2.08,0.002
	c-0.342,0-0.66,0.175-0.843,0.464c-0.183,0.288-0.207,0.65-0.062,0.96l8.875,18.956l-11.226,0.833l-4.815-5.388
	c-0.189-0.213-0.461-0.334-0.746-0.334H7.196c-0.367,0-0.705,0.201-0.879,0.524c-0.175,0.322-0.159,0.716,0.042,1.022l4.932,7.546
	l-4.947,8.319c-0.184,0.309-0.188,0.692-0.01,1.005c0.177,0.312,0.509,0.506,0.869,0.506l3.979,0.002h0
	c0.285,0,0.556-0.121,0.746-0.334l4.814-5.388l11.229,0.835l-8.877,19.059c-0.145,0.31-0.121,0.671,0.063,0.959
	s0.501,0.463,0.843,0.463h2.077c1.418,0,2.833-0.89,4.179-2.611l14.699-17.212l2.214-0.158c0.603-0.081,1.158-0.153,1.664-0.213
	c0.552-0.066,1.241-0.203,2.105-0.419c0.951-0.236,1.896-0.734,2.808-1.48c1.036-0.848,1.561-1.828,1.56-2.913
	C51.304,26.434,48.55,24.743,43.107,24.285z M48.48,30.677c-0.681,0.557-1.362,0.923-2.025,1.088
	c-0.772,0.192-1.397,0.318-1.857,0.373c-0.514,0.062-1.081,0.134-1.631,0.211l-2.569,0.182c-0.268,0.019-0.516,0.144-0.69,0.348
	L24.709,50.442c-0.96,1.228-1.871,1.877-2.631,1.877h-0.508l8.826-18.948c0.139-0.298,0.123-0.645-0.043-0.928
	c-0.167-0.283-0.461-0.467-0.789-0.491l-13.165-0.979c-0.317-0.025-0.613,0.099-0.82,0.331l-4.844,5.422l-1.774-0.001l4.368-7.346
	c0.195-0.328,0.187-0.738-0.022-1.058L9.045,21.8h1.688l4.845,5.422c0.207,0.232,0.505,0.361,0.82,0.331l13.165-0.978
	c0.328-0.024,0.623-0.208,0.789-0.492s0.182-0.631,0.042-0.929L21.57,6.307h0.506c0.76,0.001,1.671,0.65,2.661,1.91L39.709,25.75
	c0.174,0.204,0.422,0.329,0.689,0.348l2.554,0.181c2.898,0.245,6.353,0.97,6.354,3.035C49.305,29.483,49.306,30.001,48.48,30.677z"
	/>
</svg>
