<?xml version="1.0" encoding="utf-8"?>
<!-- Generator: Adobe Illustrator 17.0.2, SVG Export Plug-In . SVG Version: 6.00 Build 0)  -->
<!DOCTYPE svg PUBLIC "-//W3C//DTD SVG 1.1//EN" "http://www.w3.org/Graphics/SVG/1.1/DTD/svg11.dtd">
<svg version="1.1" id="Layer_1" xmlns="http://www.w3.org/2000/svg" xmlns:xlink="http://www.w3.org/1999/xlink" x="0px" y="0px"
	 width="56.693px" height="56.693px" viewBox="0 0 56.693 56.693" enable-background="new 0 0 56.693 56.693" xml:space="preserve">
<g>
	<path d="M22.489,24.463H10.675c-0.547,0-0.99,0.443-0.99,0.99s0.443,0.99,0.99,0.99h11.814c0.547,0,0.99-0.443,0.99-0.99
		S23.036,24.463,22.489,24.463z"/>
	<path d="M22.489,30.223H10.675c-0.547,0-0.99,0.443-0.99,0.99s0.443,0.99,0.99,0.99h11.814c0.547,0,0.99-0.443,0.99-0.99
		S23.036,30.223,22.489,30.223z"/>
	<path d="M22.489,35.983H10.675c-0.547,0-0.99,0.443-0.99,0.99c0,0.547,0.443,0.99,0.99,0.99h11.814c0.547,0,0.99-0.443,0.99-0.99
		C23.479,36.427,23.036,35.983,22.489,35.983z"/>
	<path d="M46.628,14.232v-3.435c0-0.464-0.18-0.899-0.505-1.223c-0.321-0.322-0.768-0.508-1.224-0.508h-9.406
		c-0.953,0-1.729,0.776-1.729,1.73v3.405c-2.297,0.42-4.248,1.093-5.356,2.037c-2.056-1.754-7.013-2.573-11.707-2.573
		c-6.114,0-12.694,1.384-12.694,4.424v30.564c0,0.292,0.129,0.569,0.353,0.757c0.18,0.151,0.406,0.233,0.637,0.233
		c0.056,0,0.113-0.005,0.169-0.015c6.965-1.207,16.11-1.206,23.073,0c0.057,0.01,0.112-0.008,0.169-0.008
		c0.057,0,0.112,0.018,0.169,0.008c6.965-1.207,16.108-1.207,23.073,0c0.056,0.01,0.113,0.015,0.169,0.015
		c0.231,0,0.457-0.081,0.637-0.233c0.224-0.188,0.353-0.466,0.353-0.757V18.089C52.81,16.155,50.141,14.895,46.628,14.232z
		 M27.419,47.489c-3.305-0.5-6.983-0.763-10.717-0.763c-3.733,0-7.41,0.263-10.714,0.763v-29.4c0-0.709,3.754-2.444,10.714-2.444
		c6.962,0,10.717,1.734,10.717,2.444V47.489z M35.745,11.046h8.903v23.46l-4.452-4.443l-4.451,4.443V11.046z M50.83,47.489
		c-6.61-1-14.823-1-21.431,0v-29.4c0-0.447,1.513-1.299,4.366-1.869v18.887c-0.002,0.701,0.416,1.33,1.066,1.601
		c0.212,0.087,0.434,0.132,0.662,0.132c0.462,0,0.896-0.18,1.222-0.506l3.48-3.474l3.479,3.473c0.482,0.482,1.261,0.635,1.882,0.377
		c0.212-0.087,0.401-0.214,0.564-0.376c0.327-0.327,0.507-0.761,0.507-1.223V16.25c2.749,0.57,4.202,1.4,4.202,1.839V47.489z"/>
</g>
</svg>
