<?xml version="1.0" encoding="utf-8"?>
<!-- Generator: Adobe Illustrator 17.0.2, SVG Export Plug-In . SVG Version: 6.00 Build 0)  -->
<!DOCTYPE svg PUBLIC "-//W3C//DTD SVG 1.1//EN" "http://www.w3.org/Graphics/SVG/1.1/DTD/svg11.dtd">
<svg version="1.1" id="Layer_1" xmlns="http://www.w3.org/2000/svg" xmlns:xlink="http://www.w3.org/1999/xlink" x="0px" y="0px"
	 width="56.693px" height="56.693px" viewBox="0 0 56.693 56.693" enable-background="new 0 0 56.693 56.693" xml:space="preserve">
<g>
	<path d="M53.296,18.172c0-0.253-0.094-0.484-0.249-0.66L45.963,5.565c-0.18-0.304-0.507-0.49-0.86-0.49H11.649
		c-0.353,0-0.68,0.187-0.86,0.49L3.615,17.663c-0.014,0.024-0.02,0.051-0.033,0.076c-0.015,0.03-0.027,0.059-0.039,0.091
		c-0.04,0.11-0.068,0.222-0.068,0.338c0,0.002-0.001,0.003-0.001,0.004v33.397c0,0.553,0.448,1,1,1h47.8c0.552,0,1-0.447,1-1V18.274
		C53.279,18.239,53.296,18.208,53.296,18.172z M24.507,17.171v-0.663L26.2,7.925l4.604,0.001l1.692,8.582v0.663V30.27h-7.989V17.171
		z M50.52,17.171H34.497v-0.761c0-0.065-0.006-0.13-0.019-0.193l-1.803-9.143h11.858L50.52,17.171z M12.218,7.075h12.111
		l-1.803,9.143c-0.013,0.063-0.019,0.129-0.019,0.193v0.761H6.232L12.218,7.075z M5.475,50.569V19.172h17.032V31.27
		c0,0.553,0.448,1,1,1h9.989c0.552,0,1-0.447,1-1V19.172h16.779v31.396H5.475z"/>
	<path d="M12.182,36.298h4.147c0.552,0,1-0.447,1-1s-0.448-1-1-1h-4.147c-0.552,0-1,0.447-1,1S11.629,36.298,12.182,36.298z"/>
	<path d="M24.343,38.645H12.182c-0.552,0-1,0.447-1,1s0.448,1,1,1h12.161c0.552,0,1-0.447,1-1S24.895,38.645,24.343,38.645z"/>
	<path d="M24.343,42.992H12.182c-0.552,0-1,0.447-1,1s0.448,1,1,1h12.161c0.552,0,1-0.447,1-1S24.895,42.992,24.343,42.992z"/>
</g>
</svg>
