<?xml version="1.0" encoding="UTF-8" standalone="no"?>
<svg width="18px" height="18px" viewBox="0 0 18 18" version="1.1" xmlns="http://www.w3.org/2000/svg" xmlns:xlink="http://www.w3.org/1999/xlink" xmlns:sketch="http://www.bohemiancoding.com/sketch/ns">
    <!-- Generator: Sketch 3.4.4 (17249) - http://www.bohemiancoding.com/sketch -->
    <title>like red</title>
    <desc>Created with Sketch.</desc>
    <defs></defs>
    <g id="海淘发现视觉" stroke="none" stroke-width="1" fill="none" fill-rule="evenodd" sketch:type="MSPage">
        <g id="Artboard-25" sketch:type="MSArtboardGroup" transform="translate(-171.000000, -64.000000)">
            <g id="like-red" sketch:type="MSLayerGroup" transform="translate(169.000000, 62.000000)">
                <rect id="Rectangle-541" fill-opacity="0" fill="#FFFFFF" sketch:type="MSShapeGroup" x="0" y="0" width="22" height="22"></rect>
                <g id="noun_86134_cc-copy" transform="translate(1.500000, 2.500000)" stroke-width="0.2" stroke="#F13C34" fill="#F13C34" sketch:type="MSShapeGroup">
                    <g id="Group" transform="translate(0.500000, 0.000000)">
                        <g id="Shape">
                            <path d="M4.57532136,16.8301828 L0.529411765,16.8301828 L0.529411765,6.68191398 L4.57532136,6.68191398 L4.57532136,16.8301828 L4.57532136,16.8301828 Z"></path>
                            <path d="M14.1056693,16.9416882 L14.1056693,16.9416882 L14.0502093,16.9411398 L8.34138947,16.9411398 C6.74588731,16.9411398 5.67716656,16.4029892 5.63240619,16.3801398 L5.43517523,16.2790538 L5.43517523,7.30268817 L5.79183158,7.30268817 C6.18879009,7.30268817 6.56827245,6.98809677 6.9350935,6.68410753 C6.99911331,6.63091398 7.06241981,6.57863441 7.12483467,6.52836559 C7.58474303,6.05108602 8.26417337,5.06490323 8.59229721,4.58835484 C9.20449783,3.69996774 9.51496718,2.91339785 9.51496718,2.25058065 L9.51496718,0.719849462 C9.51496718,0.306 9.93546502,0.0279677419 10.5617536,0.0279677419 C11.1826923,0.0279677419 11.7954279,0.287172043 12.2004111,0.721677419 C12.6087827,1.15965591 12.8081536,1.76726882 12.7767678,2.47870968 C12.7346824,3.43235484 12.4313461,4.2967957 12.1877498,4.99160215 C12.0481189,5.38991398 11.9163344,5.76610753 11.9163344,5.95804301 C11.9163344,6.39949462 12.2779839,6.80146237 12.6752991,6.80146237 L16.3408347,6.80146237 C16.7791653,6.80146237 17.1923517,6.98188172 17.4746452,7.29629032 C17.7309028,7.58163441 17.8562675,7.94777419 17.8284483,8.32835484 C17.8179269,8.85425806 17.677761,9.25567742 17.6183777,9.41982796 C17.5887752,9.52694624 17.5561412,9.64119355 17.5213672,9.76037634 C17.5101325,9.85177419 17.5149474,9.96565591 17.6026848,10.1199355 C18.1125251,11.0149032 17.7851146,11.5137527 17.5461548,11.8780645 C17.3642601,12.1551828 17.2544099,12.3224409 17.3765647,12.697172 C17.6438786,13.5192043 17.0548607,14.0524194 16.6652136,14.4053978 C16.5425238,14.5163548 16.3590241,14.6825161 16.3304916,14.7596559 C16.4164458,15.3531935 16.2998192,15.8452796 15.9836433,16.2227527 C15.4402774,16.8716774 14.4892533,16.9416882 14.1056693,16.9416882 L14.1056693,16.9416882 Z"></path>
                        </g>
                    </g>
                </g>
            </g>
        </g>
    </g>
</svg>