<?xml version="1.0" encoding="UTF-8" standalone="no"?>
<svg width="21px" height="20px" viewBox="0 0 21 20" version="1.1" xmlns="http://www.w3.org/2000/svg" xmlns:xlink="http://www.w3.org/1999/xlink">
    <!-- Generator: Sketch 3.6.1 (26313) - http://www.bohemiancoding.com/sketch -->
    <title>Page 1</title>
    <desc>Created with Sketch.</desc>
    <defs></defs>
    <g id="Page-1" stroke="none" stroke-width="1" fill="none" fill-rule="evenodd">
        <g id="主页" transform="translate(-5.000000, -5.000000)" fill="#FFFFFF">
            <g id="Page-1" transform="translate(5.000000, 5.000000)">
                <path d="M19.8160711,9.53944681 C19.5868044,9.8126383 19.1460044,9.85221277 18.8728267,9.61859574 L18.7301156,9.49689362 C18.6047156,9.38965957 18.4290711,9.36582979 18.2796044,9.43561702 C18.13056,9.50540426 18.0351378,9.65604255 18.0351378,9.82157447 L18.0351378,18.5637021 C18.0351378,18.7079574 17.9181822,18.8254043 17.7746267,18.8254043 L13.1766267,18.8254043 L13.1766267,11.7037021 C13.1766267,11.4688085 12.9878933,11.2781702 12.7544044,11.2781702 L8.06436,11.2781702 C7.83087111,11.2781702 7.64213778,11.4688085 7.64213778,11.7037021 L7.64213778,18.8254043 L3.04329333,18.8254043 C2.90058222,18.8254043 2.78362667,18.7079574 2.78362667,18.5637021 L2.78362667,9.82157447 C2.78362667,9.65604255 2.68820444,9.50540426 2.53873778,9.43561702 C2.39011556,9.36582979 2.21362667,9.39008511 2.08864889,9.49731915 L1.94636,9.61859574 C1.67318222,9.8526383 1.23449333,9.81519149 1.00269333,9.53987234 C0.887426667,9.40242553 0.832115556,9.22753191 0.846471111,9.04795745 C0.861248889,8.86838298 0.944848889,8.70540426 1.08122667,8.58965957 L9.97576,0.999021277 C10.2185378,0.79306383 10.6010711,0.79306383 10.8417378,0.999021277 L19.7375378,8.58965957 C19.8739156,8.70582979 19.9570933,8.86838298 19.9718711,9.04838298 C19.9866489,9.22795745 19.9313378,9.40242553 19.8160711,9.53944681 M20.2830489,7.93987234 L11.3872489,0.349234043 C10.8413156,-0.116297872 9.97787111,-0.116297872 9.43024889,0.349234043 L0.535715556,7.93987234 C0.227071111,8.20285106 0.03876,8.5713617 0.00540444444,8.97774468 C-0.0283733333,9.38412766 0.0974488889,9.77859574 0.358382222,10.0896596 C0.740071111,10.5445532 1.37931556,10.7343404 1.93918222,10.5679574 L1.93918222,18.5637021 C1.93918222,19.1773191 2.43444889,19.6764681 3.04329333,19.6764681 L8.06436,19.6764681 C8.29784889,19.6764681 8.48658222,19.4858298 8.48658222,19.2509362 L8.48658222,12.129234 L12.3321822,12.129234 L12.3321822,19.2509362 C12.3321822,19.4858298 12.5213378,19.6764681 12.7544044,19.6764681 L17.7746267,19.6764681 C18.3838933,19.6764681 18.8795822,19.1773191 18.8795822,18.5637021 L18.8795822,10.568383 C19.4394489,10.7334894 20.0778489,10.5437021 20.45996,10.0896596 C20.7217378,9.77859574 20.8467156,9.38370213 20.81336,8.97774468 C20.7800044,8.5713617 20.5916933,8.20285106 20.2830489,7.93987234" id="Fill-1"></path>
            </g>
        </g>
    </g>
</svg>