<?xml version="1.0" encoding="UTF-8" standalone="no"?>
<svg width="18px" height="18px" viewBox="0 0 18 18" version="1.1" xmlns="http://www.w3.org/2000/svg" xmlns:xlink="http://www.w3.org/1999/xlink">
    <!-- Generator: Sketch 3.6.1 (26313) - http://www.bohemiancoding.com/sketch -->
    <title>Fill 1</title>
    <desc>Created with Sketch.</desc>
    <defs></defs>
    <g id="Page-1" stroke="none" stroke-width="1" fill="none" fill-rule="evenodd">
        <g id="搜索" transform="translate(-6.000000, -6.000000)" fill="#FFFFFF">
            <path d="M16.6507892,7.22780887 C19.6785659,7.22780887 22.1409366,9.69079347 22.1409366,12.7179562 C22.1409366,15.745119 19.6785659,18.2087175 16.6507892,18.2087175 C13.6230125,18.2087175 11.1606418,15.745119 11.1606418,12.7179562 C11.1606418,9.69079347 13.6230125,7.22780887 16.6507892,7.22780887 M16.6507892,19.4365264 C20.3550885,19.4365264 23.3687454,16.4228695 23.3687454,12.7179562 C23.3687454,9.01365688 20.3550885,6 16.6507892,6 C12.9464898,6 9.93283293,9.01365688 9.93283293,12.7179562 C9.93283293,14.3497142 10.5184978,15.8464133 11.4890807,17.0116039 L6.18002748,22.1510136 C5.93999084,22.3904363 5.93999084,22.7790379 6.18002748,23.0190745 C6.29973884,23.1387859 6.45689838,23.1989485 6.61405791,23.1989485 C6.77121745,23.1989485 6.92837698,23.1387859 7.04808835,23.0190745 L12.3571416,17.8796647 C13.5223322,18.8502477 15.0190312,19.4365264 16.6507892,19.4365264" id="Fill-1"></path>
        </g>
    </g>
</svg>