<?xml version="1.0" encoding="UTF-8" standalone="no"?>
<svg width="19px" height="19px" viewBox="0 0 19 19" version="1.1" xmlns="http://www.w3.org/2000/svg" xmlns:xlink="http://www.w3.org/1999/xlink">
    <!-- Generator: Sketch 3.8.3 (29802) - http://www.bohemiancoding.com/sketch -->
    <title>Page 1</title>
    <desc>Created with Sketch.</desc>
    <defs></defs>
    <g id="Page-1" stroke="none" stroke-width="1" fill-rule="evenodd">
        <g id="个性化推荐和一行一个商品组件效果优化" transform="translate(-336.000000, -147.000000)">
            <g id="tabs" transform="translate(0.000000, 53.000000)">
                <g id="1">
                    <g id="购物车" transform="translate(328.000000, 85.000000)">
                        <g id="Page-1" transform="translate(8.000000, 9.000000)">
                            <path d="M6.86680548,16.1710281 C6.5777493,16.1710281 6.29048104,16.2900716 6.08604424,16.4944817 C5.88163413,16.6988919 5.76259059,16.9861868 5.76259059,17.2753497 C5.76259059,17.5644059 5.88163413,17.8517008 6.08604424,18.056111 C6.29048104,18.2605211 6.5777493,18.3795646 6.86680548,18.3795646 C7.1559684,18.3795646 7.44326334,18.2605211 7.64767346,18.056111 C7.85208357,17.8517008 7.97112711,17.5644059 7.97112711,17.2753497 C7.97112711,16.9861868 7.85208357,16.6988919 7.64767346,16.4944817 C7.44326334,16.2900716 7.1559684,16.1710281 6.86680548,16.1710281" id="Fill-1"></path>
                            <path d="M16.1169501,16.1710281 C15.8277872,16.1710281 15.5404923,16.2900716 15.3360822,16.4944817 C15.1316721,16.6988919 15.0126285,16.9861868 15.0126285,17.2753497 C15.0126285,17.5644059 15.1316721,17.8517809 15.3360822,18.0562177 C15.5404923,18.2606278 15.8277872,18.3796713 16.1169501,18.3796713 C16.4060063,18.3796713 16.6933813,18.2606278 16.8978181,18.0562177 C17.1022282,17.8517809 17.221165,17.5644059 17.221165,17.2753497 C17.221165,16.9861868 17.1022282,16.6988919 16.8978181,16.4944817 C16.6933813,16.2900716 16.4060063,16.1710281 16.1169501,16.1710281" id="Fill-3"></path>
                            <path d="M17.6755372,3.65371334 C17.6696931,3.67631587 17.6649164,3.69947879 17.6613673,3.72301531 L17.6149881,4.03606166 C17.6083167,4.06274705 17.6013251,4.08975267 17.5936131,4.11726531 C17.573599,4.18928919 17.5666074,4.26174003 17.5708771,4.33229621 L16.7784544,9.6694816 C16.7692746,9.70305183 16.7626032,9.73787626 16.7588673,9.77363469 C16.6529529,10.7735897 16.2104558,10.8985841 16.1412338,10.9121403 L5.15848666,11.7072583 L3.99948666,2.99575829 L17.1835386,2.96114733 C17.2360555,2.97011362 17.4618406,3.01796053 17.5789094,3.18378357 C17.6544824,3.29073862 17.6864782,3.45189171 17.6755372,3.65371334 M18.6495541,2.42754621 C18.15921,1.7335125 17.3539515,1.65815295 17.2638083,1.65188188 C17.2478504,1.65073441 17.2316791,1.65022739 17.2160414,1.65033413 L3.78461587,1.68561222 C3.59963272,1.10592542 3.29672683,0.732063062 3.03673104,0.502328511 C2.62027879,0.134256882 2.21354003,0.0372021067 2.1363125,0.0214577247 C2.09460323,0.0129183989 2.05206671,0.00854199438 2.00955688,0.00822176966 L0.659436096,2.66853931e-06 L0.655273174,2.66853931e-06 C0.295207163,2.66853931e-06 0.00220154494,0.290820084 1.33426966e-05,0.651393118 C-0.00217485955,1.01330042 0.289496489,1.30852093 0.651403792,1.31070913 L1.90759199,1.31842121 C2.04958497,1.37304621 2.42472823,1.5769493 2.57838272,2.23802654 C2.57931671,2.25427795 2.58067767,2.27066278 2.58297261,2.28712767 L4.00637149,12.9861024 C4.00677177,12.9891178 4.00719874,12.99224 4.0076257,12.9952555 C4.34148666,15.2583103 5.66481531,15.5705027 5.81462711,15.5987625 C5.83149228,15.6018847 5.84849087,15.6043931 5.86548947,15.6061544 L6.30027458,15.6530673 C6.3236243,15.6555757 6.34708076,15.6568299 6.37053722,15.6568299 L6.37280548,15.6568299 L16.9988223,15.6177358 C17.3607296,15.6163749 17.6531215,15.3219015 17.6517872,14.9599676 C17.6504263,14.5987808 17.3572872,14.3069226 16.9965274,14.3069226 L16.994019,14.3069226 L6.40440098,14.34591 L6.06728441,14.3096178 C5.96526615,14.266174 5.53613834,14.0258454 5.33914677,13.0081445 L16.2673757,12.2167892 C16.3721159,12.2075294 16.7580133,12.1524774 17.1545583,11.8338271 C17.3853336,11.6483903 17.6556299,11.3418018 17.8461903,10.8474015 C17.9114361,10.7621417 17.9565611,10.6596698 17.9734529,10.5459367 L18.9033855,4.28311503 C19.0753729,3.53373581 18.9904333,2.91007149 18.6495541,2.42754621" id="Fill-5"></path>
                        </g>
                    </g>
                </g>
            </g>
        </g>
    </g>
</svg>