<?xml version="1.0" encoding="UTF-8" standalone="no"?>
<svg width="20px" height="18px" viewBox="0 0 20 18" version="1.1" xmlns="http://www.w3.org/2000/svg" xmlns:xlink="http://www.w3.org/1999/xlink">
    <!-- Generator: Sketch 3.8.3 (29802) - http://www.bohemiancoding.com/sketch -->
    <title>Page 1</title>
    <desc>Created with Sketch.</desc>
    <defs>
        <polygon id="path-1" points="19.632 12.89448 19.632 0.12608 0 0.12608 0 12.89448 19.632 12.89448"></polygon>
    </defs>
    <g id="Page-1" stroke="none" stroke-width="1" fill="none" fill-rule="evenodd">
        <g id="秒杀、boder不可改、要有线、没title不补12" transform="translate(-335.000000, -204.000000)">
            <g id="限时抢购" transform="translate(0.000000, 20.000000)">
                <g id="商品" transform="translate(0.000000, 90.000000)">
                    <g id="1">
                        <g id="购物车" transform="translate(328.000000, 85.000000)">
                            <g id="Page-1" transform="translate(7.000000, 9.000000)">
                                <g id="Group-3" transform="translate(0.000000, 0.273840)">
                                    <mask id="mask-2" fill="white">
                                        <use xlink:href="#path-1"></use>
                                    </mask>
                                    <g id="Clip-2"></g>
                                    <path d="M18.5836,4.68768 C18.576,4.70768 18.57,4.72848 18.5648,4.74928 L16.9484,11.45008 C16.834,11.71728 16.5672,11.89448 16.2752,11.89448 L6.2312,11.89448 C5.9164,11.89448 5.6336,11.68848 5.536,11.39048 L4.1008,3.69408 L17.9004,3.69408 C18.1448,3.69408 18.3644,3.80968 18.5032,4.01128 C18.642,4.21248 18.6712,4.45928 18.5836,4.68768 M19.3268,3.44408 C19.004,2.97448 18.4704,2.69408 17.9004,2.69408 L3.9144,2.69408 L3.6764,1.41848 C3.6736,1.40168 3.6696,1.38488 3.6648,1.36888 C3.4492,0.63728 2.7664,0.12608 2.0036,0.12608 L0.5,0.12608 C0.224,0.12608 0,0.35008 0,0.62608 C0,0.90248 0.224,1.12608 0.5,1.12608 L2.0036,1.12608 C2.3184,1.12608 2.6012,1.33208 2.6988,1.63008 L4.5584,11.60248 C4.5612,11.61928 4.5652,11.63568 4.57,11.65208 C4.7856,12.38368 5.4684,12.89448 6.2312,12.89448 L16.2752,12.89448 C16.988,12.89448 17.638,12.44728 17.8924,11.78168 C17.9004,11.76168 17.9068,11.74088 17.9116,11.72008 L19.53,5.01248 C19.7184,4.48808 19.6436,3.90448 19.3268,3.44408" id="Fill-1" mask="url(#mask-2)"></path>
                                </g>
                                <path d="M7.4668,16.87384 C6.8968,16.87384 6.4332,16.41024 6.4332,15.84064 C6.4332,15.27064 6.8968,14.80704 7.4668,14.80704 C8.0364,14.80704 8.5,15.27064 8.5,15.84064 C8.5,16.41024 8.0364,16.87384 7.4668,16.87384 M7.4668,13.80704 C6.3452,13.80704 5.4332,14.71904 5.4332,15.84064 C5.4332,16.96184 6.3452,17.87384 7.4668,17.87384 C8.588,17.87384 9.5,16.96184 9.5,15.84064 C9.5,14.71904 8.588,13.80704 7.4668,13.80704" id="Fill-4" fill="#E62117"></path>
                                <path d="M15.0668,16.87384 C14.4968,16.87384 14.0332,16.41024 14.0332,15.84064 C14.0332,15.27064 14.4968,14.80704 15.0668,14.80704 C15.6364,14.80704 16.1,15.27064 16.1,15.84064 C16.1,16.41024 15.6364,16.87384 15.0668,16.87384 M15.0668,13.80704 C13.9452,13.80704 13.0332,14.71904 13.0332,15.84064 C13.0332,16.96184 13.9452,17.87384 15.0668,17.87384 C16.188,17.87384 17.1,16.96184 17.1,15.84064 C17.1,14.71904 16.188,13.80704 15.0668,13.80704" id="Fill-6"></path>
                            </g>
                        </g>
                    </g>
                </g>
            </g>
        </g>
    </g>
</svg>