<svg xmlns="http://www.w3.org/2000/svg" xmlns:xlink="http://www.w3.org/1999/xlink" width="0" height="0" style="position:absolute">

<symbol id="icon-readed" viewBox="0 0 15 12">
        <title>已读</title><defs><path id="aaa" d="M7.5 11.02h7.498v-11H0v11h7.5z"/></defs><g fill="none" fill-rule="evenodd"><g><mask id="aab" fill="#fff"><use xlink:href="#aaa"/></mask><path d="M13.988 5.56s0 .004-.002.006c-.002.007-.005.014-.006.022-1.23 2.652-3.83 4.432-6.48 4.432-2.645 0-5.24-1.775-6.482-4.437l-.008-.026c0-.01-.002-.016-.003-.02l-.003-.02V5.51c.003-.01.005-.023.006-.035l.006-.02C2.248 2.802 4.848 1.02 7.5 1.02c2.652 0 5.252 1.783 6.48 4.433 0 .005 0 .01.003.013 0 .004.002.01.004.013.003.02.005.04.008.048l-.007.03m1.01-.036c0-.09-.015-.165-.02-.174-.003-.045-.018-.126-.032-.17-.004-.01-.01-.02-.013-.03-.008-.026-.016-.05-.025-.07-1.383-3.024-4.36-5.057-7.41-5.057C4.453.02 1.476 2.053.1 5.06c-.016.033-.028.065-.036.092l-.01.025c-.027.08-.027.135-.025.12-.013.06-.025.176-.025.176-.003.035-.003.063 0 .098 0 0 .013.103.018.123.002.03.01.07.018.11.006.032.016.063.03.094.007.024.016.047.023.063 1.386 3.026 4.363 5.06 7.41 5.06 3.048 0 6.025-2.032 7.393-5.026.02-.04.034-.076.044-.108l.01-.027c.024-.07.03-.13.027-.13.01-.05.024-.122.024-.208" fill="#999" mask="url(#aab)"/></g><path d="M7.5 7.022c-.827 0-1.5-.673-1.5-1.5s.673-1.5 1.5-1.5c.826 0 1.5.673 1.5 1.5s-.674 1.5-1.5 1.5m0-4c-1.38 0-2.5 1.12-2.5 2.5 0 1.378 1.12 2.5 2.5 2.5 1.378 0 2.5-1.122 2.5-2.5 0-1.38-1.122-2.5-2.5-2.5" fill="#999"/></g>
</symbol>
</svg>