<?xml version="1.0" encoding="UTF-8" standalone="no"?>
<svg width="28px" height="32px" viewBox="0 0 28 32" version="1.1" xmlns="http://www.w3.org/2000/svg" xmlns:xlink="http://www.w3.org/1999/xlink" xmlns:sketch="http://www.bohemiancoding.com/sketch/ns">
    <!-- Generator: Sketch 3.5.2 (25235) - http://www.bohemiancoding.com/sketch -->
    <title>octopus@1x</title>
    <desc>Created with Sketch.</desc>
    <defs></defs>
    <g id="Page-1" stroke="none" stroke-width="1" fill="none" fill-rule="evenodd" sketch:type="MSPage">
        <g id="H5-无搜索结果" sketch:type="MSArtboardGroup" transform="translate(-15.000000, -74.000000)">
            <g id="octopus" sketch:type="MSLayerGroup" transform="translate(15.000000, 74.000000)">
                <path d="M19.1718879,26.6770732 L18.7877383,25.7139512 C23.7034393,23.7780813 26.8797383,19.1302764 26.8797383,13.8726504 C26.8797383,6.85294309 21.135028,1.14133333 14.0740561,1.14133333 C7.01229907,1.14133333 1.26785047,6.85294309 1.26785047,13.8726504 C1.26785047,19.1297561 4.44388785,23.7780813 9.3593271,25.7136911 L8.97517757,26.676813 C6.42403738,25.6725854 4.24684112,23.9505691 2.6791028,21.6986016 C1.07420561,19.3933008 0.225831776,16.6868293 0.225831776,13.8726504 C0.225831776,6.28136585 6.43842991,0.105365854 14.0740561,0.105365854 C21.7096822,0.105365854 27.921757,6.28136585 27.921757,13.8726504 C27.921757,16.6870894 27.0733832,19.3933008 25.468486,21.6986016 C23.9007477,23.9510894 21.7235514,25.6725854 19.1718879,26.6770732" id="Fill-5" fill-opacity="0.5" fill="#4A4A4A" sketch:type="MSShapeGroup"></path>
                <path id="Fill-6" fill="#BEBFBE" sketch:type="MSShapeGroup"></path>
                <path d="M23.587514,16.2109919 C22.0514393,16.2109919 20.8063551,14.9733984 20.8063551,13.4462439 M7.38284112,13.4465041 C7.38284112,14.9733984 6.13749533,16.211252 4.60142056,16.211252 M6.65327103,19.9105041 C7.81069159,19.9105041 7.81069159,21.4714797 8.96785047,21.4714797 C10.1255327,21.4714797 10.1255327,19.9105041 11.2834766,19.9105041 C12.4414206,19.9105041 12.4414206,21.4714797 13.5996262,21.4714797 C14.7573084,21.4714797 14.7573084,19.9105041 15.9149907,19.9105041 C17.0734579,19.9105041 17.0734579,21.4714797 18.2321869,21.4714797 C19.3906542,21.4714797 19.3906542,19.9105041 20.5491215,19.9105041" id="Stroke-7" stroke="#4A4A4A" stroke-width="1.29024" opacity="0.5" sketch:type="MSShapeGroup"></path>
                <path d="M20.4994019,31.8163252 C19.3741682,31.8163252 18.4588037,30.9057561 18.4588037,29.7870569 L18.4588037,26.195252 C18.4588037,25.9093333 18.6919626,25.6770081 18.9800748,25.6770081 C19.2674019,25.6770081 19.5008224,25.9093333 19.5008224,26.195252 L19.5008224,29.7870569 C19.5008224,30.334439 19.9488224,30.7800976 20.4994019,30.7800976 C21.0505047,30.7800976 21.499028,30.334439 21.499028,29.7870569 C21.499028,29.500878 21.7321869,29.2690732 22.0197757,29.2690732 C22.3076262,29.2690732 22.5410467,29.500878 22.5410467,29.7870569 C22.5410467,30.9057561 21.6251589,31.8163252 20.4994019,31.8163252" id="Fill-1" fill="#9F9F9F" sketch:type="MSShapeGroup"></path>
                <path d="M12.4382804,31.8223089 C12.1501682,31.8223089 11.9170093,31.5907642 11.9170093,31.3045854 L11.9170093,27.0738211 C11.9170093,26.7873821 12.1501682,26.5555772 12.4382804,26.5555772 C12.7258692,26.5555772 12.959028,26.7873821 12.959028,27.0738211 L12.959028,31.3045854 C12.959028,31.5907642 12.7258692,31.8223089 12.4382804,31.8223089" id="Fill-2" fill="#9F9F9F" sketch:type="MSShapeGroup"></path>
                <path d="M15.708785,31.8223089 C15.4214579,31.8223089 15.1877757,31.5907642 15.1877757,31.3045854 L15.1877757,27.0738211 C15.1877757,26.7873821 15.4214579,26.5555772 15.708785,26.5555772 C15.9963738,26.5555772 16.2300561,26.7873821 16.2300561,27.0738211 L16.2300561,31.3045854 C16.2300561,31.5907642 15.9963738,31.8223089 15.708785,31.8223089" id="Fill-3" fill="#9F9F9F" sketch:type="MSShapeGroup"></path>
                <path d="M7.69973832,31.8163252 C6.60302804,31.8163252 5.71095327,30.9291707 5.71095327,29.8390894 C5.71095327,29.5529106 5.94437383,29.3211057 6.23170093,29.3211057 C6.51981308,29.3211057 6.75297196,29.5529106 6.75297196,29.8390894 C6.75297196,30.3578537 7.17768224,30.7800976 7.69973832,30.7800976 C8.22179439,30.7800976 8.64676636,30.3578537 8.64676636,29.8390894 L8.64676636,26.1957724 C8.64676636,25.9093333 8.88018692,25.6775285 9.16751402,25.6775285 C9.4551028,25.6775285 9.68878505,25.9093333 9.68878505,26.1957724 L9.68878505,29.8390894 C9.68878505,30.9291707 8.7964486,31.8163252 7.69973832,31.8163252" id="Fill-4" fill="#9F9F9F" sketch:type="MSShapeGroup"></path>
            </g>
        </g>
    </g>
</svg>