<?xml version="1.0" encoding="UTF-8" standalone="no"?>
<svg width="18px" height="17px" viewBox="0 0 18 17" version="1.1" xmlns="http://www.w3.org/2000/svg" xmlns:xlink="http://www.w3.org/1999/xlink" xmlns:sketch="http://www.bohemiancoding.com/sketch/ns">
    <!-- Generator: Sketch 3.4.4 (17249) - http://www.bohemiancoding.com/sketch -->
    <title>Shape</title>
    <desc>Created with Sketch.</desc>
    <defs></defs>
    <g id="Page-1" stroke="none" stroke-width="1" fill="none" fill-rule="evenodd" sketch:type="MSPage">
        <g id="首页-0105" sketch:type="MSArtboardGroup" transform="translate(-286.000000, -1734.000000)" stroke="#979DA9" stroke-width="0.3" fill="#979DA9">
            <g id="Rectangle-743-+-Shape-Copy-2" sketch:type="MSLayerGroup" transform="translate(283.000000, 1730.500000)">
                <path d="M15.7030833,5.26555722 C17.9437833,5.26555722 19.7666667,7.16854107 19.7666667,9.50789253 C19.7666667,14.5596132 13.7518667,18.4760125 12.24945,19.3753509 C10.7452,18.4767781 4.73333333,14.5684171 4.73333333,9.50789253 C4.73333333,7.16873246 6.5564,5.26555722 8.7971,5.26555722 C9.90571667,5.26555722 10.9419167,5.72412599 11.7150333,6.55686085 L12.2335,7.11533484 L12.2470667,7.10117203 L12.26375,7.11877985 L12.78515,6.55724363 C13.5580833,5.72431738 14.5942833,5.26555722 15.7030833,5.26555722 L15.7030833,5.26555722 Z M15.7030833,4.5 C14.351,4.5 13.1303667,5.08488571 12.25825,6.02441581 L12.2498167,6.0156119 L12.2415667,6.02422442 C11.36945,5.08488571 10.149,4.50019139 8.7971,4.50019139 C6.14775,4.5 4,6.74193431 4,9.50789253 C4,15.7952226 12.2498167,20.25 12.2498167,20.25 C12.2498167,20.25 20.5,15.7952226 20.5,9.50789253 C20.5,6.74193431 18.35225,4.5 15.7030833,4.5 L15.7030833,4.5 L15.7030833,4.5 Z" id="Shape" sketch:type="MSShapeGroup"></path>
            </g>
        </g>
    </g>
</svg>