<?xml version="1.0" encoding="UTF-8" standalone="no"?>
<svg width="18px" height="18px" viewBox="0 0 18 18" version="1.1" xmlns="http://www.w3.org/2000/svg" xmlns:xlink="http://www.w3.org/1999/xlink" xmlns:sketch="http://www.bohemiancoding.com/sketch/ns">
    <!-- Generator: Sketch 3.4.4 (17249) - http://www.bohemiancoding.com/sketch -->
    <title>love grey</title>
    <desc>Created with Sketch.</desc>
    <defs></defs>
    <g id="海淘发现视觉" stroke="none" stroke-width="1" fill="none" fill-rule="evenodd" sketch:type="MSPage">
        <g id="Artboard-25" sketch:type="MSArtboardGroup" transform="translate(-113.000000, -33.000000)">
            <g id="love-grey" sketch:type="MSLayerGroup" transform="translate(110.000000, 30.000000)">
                <rect id="Rectangle-551" fill-opacity="0" fill="#FFFFFF" sketch:type="MSShapeGroup" x="0" y="0" width="24" height="24"></rect>
                <path d="M15.5577222,4.78875592 C17.8663222,4.78875592 19.7444444,6.74940595 19.7444444,9.15964685 C19.7444444,14.36445 13.5473778,18.3995281 11.9994333,19.3261191 C10.4496,18.4003168 4.25555556,14.3735207 4.25555556,9.15964685 C4.25555556,6.74960314 6.13386667,4.78875592 8.44246667,4.78875592 C9.58467778,4.78875592 10.6522778,5.26122072 11.4488222,6.11918997 L11.983,6.69458741 L11.9969778,6.67999543 L12.0141667,6.69813681 L12.5513667,6.11958435 C13.3477222,5.2614179 14.4153222,4.78875592 15.5577222,4.78875592 L15.5577222,4.78875592 Z M15.5577222,4 C14.1646667,4 12.9070444,4.60260952 12.0085,5.57061023 L11.9998111,5.56153953 L11.9913111,5.57041304 C11.0927667,4.60260952 9.83533333,4.00019719 8.44246667,4.00019719 C5.71283333,4 3.5,6.30987171 3.5,9.15964685 C3.5,15.637502 11.9998111,20.2272727 11.9998111,20.2272727 C11.9998111,20.2272727 20.5,15.637502 20.5,9.15964685 C20.5,6.30987171 18.2871667,4 15.5577222,4 L15.5577222,4 L15.5577222,4 Z" id="Shape" stroke="#979DA9" stroke-width="0.2" fill="#979DA9" sketch:type="MSShapeGroup"></path>
            </g>
        </g>
    </g>
</svg>