<?xml version="1.0" encoding="UTF-8" standalone="no"?>
<svg width="51px" height="49px" viewBox="0 0 51 49" version="1.1" xmlns="http://www.w3.org/2000/svg" xmlns:xlink="http://www.w3.org/1999/xlink">
    <!-- Generator: Sketch 3.8.1 (29687) - http://www.bohemiancoding.com/sketch -->
    <title>Group 13 Copy</title>
    <desc>Created with Sketch.</desc>
    <defs></defs>
    <g id="视觉稿-v4" stroke="none" stroke-width="1" fill="none" fill-rule="evenodd">
        <g id="Group-13-Copy">
            <path d="M26.813635,48.7482759 C14.2498419,48.7482759 3.68604877,38.9310345 2.76535912,26.3982759 L4.48432464,26.2706897 C5.33949705,37.9086207 15.1481177,47.0241379 26.813635,47.0241379 C39.1722557,47.0241379 49.2274281,36.9689655 49.2274281,24.6103448 C49.2274281,12.2517241 39.1722557,2.19655172 26.813635,2.19655172 L26.813635,0.472413793 C40.1239798,0.472413793 50.951566,11.3 50.951566,24.6103448 C50.951566,37.9206897 40.1222557,48.7482759 26.813635,48.7482759 L26.813635,48.7482759 Z" id="Shape"></path>
            <polygon id="Shape" points="7.41708326 26.537931 0.305014292 26.537931 3.74984188 17.9068966 3.86018671 17.9448276"></polygon>
            <ellipse id="Oval" cx="26.0946695" cy="24.1810345" rx="2.5862069" ry="2.5862069"></ellipse>
            <rect id="Rectangle-path" x="25.2326005" y="9.89482759" width="1.72413793" height="14.2344828"></rect>
            <rect id="Rectangle-path" transform="translate(22.020036, 27.617689) rotate(47.772174) translate(-22.020036, -27.617689) " x="21.1579419" y="22.238221" width="1.7241885" height="10.7589362"></rect>
            <ellipse id="Oval" cx="26.0119108" cy="42.0689655" rx="1.4362069" ry="1.4362069"></ellipse>
            <ellipse id="Oval" cx="44.3653591" cy="24.3241379" rx="1.4362069" ry="1.4362069"></ellipse>
            <ellipse id="Oval" cx="41.9326005" cy="33.3034483" rx="1.4362069" ry="1.4362069"></ellipse>
            <ellipse id="Oval" cx="35.1877729" cy="39.8586207" rx="1.4362069" ry="1.4362069"></ellipse>
            <path d="M17.482057,2.98896692 L12.052772,10.783869 L8.22318698,7.64263981 C7.80629545,7.3033095 7.19550088,7.36148041 6.85617056,7.77837194 C6.51684025,8.19526347 6.57501116,8.80605804 6.99190269,9.14538835 L11.6358804,12.955583 C11.8103932,13.1010103 12.0236865,13.1785715 12.246675,13.1785715 C12.2951508,13.1785715 12.3339314,13.1785715 12.3824071,13.1688764 C12.6538714,13.1300958 12.886555,12.9846685 13.0416775,12.76168 L19.0623668,4.10390938 C19.3726116,3.66762755 19.2562698,3.05683298 18.819988,2.75628327 C18.3934013,2.43634326 17.7826067,2.54298993 17.482057,2.98896692 L17.482057,2.98896692 Z" id="Shape-Copy-7"></path>
        </g>
    </g>
</svg>