<?xml version="1.0" encoding="UTF-8" standalone="no"?>
<svg width="45px" height="50px" viewBox="0 0 45 50" version="1.1" xmlns="http://www.w3.org/2000/svg" xmlns:xlink="http://www.w3.org/1999/xlink">
    <!-- Generator: Sketch 3.8.1 (29687) - http://www.bohemiancoding.com/sketch -->
    <title>Group 15 Copy 3</title>
    <desc>Created with Sketch.</desc>
    <defs></defs>
    <g id="视觉稿-v4" stroke="none" stroke-width="1" fill="none" fill-rule="evenodd">
        <g id="Group-15-Copy-3">
            <path d="M44.4828912,27.0665129 C44.4828912,25.0096117 43.0603614,23.3179546 41.1380238,22.8565936 L41.1380238,22.0107651 C41.1380238,20.0692042 39.8500577,18.4352172 38.0430604,17.9738562 C38.0430604,17.8008458 38.0815071,17.6278354 38.0815071,17.4356017 C38.0815071,15.4940408 37.7547097,13.5524798 37.0818916,11.6493656 C37.0818916,11.6109189 36.7935409,10.8612072 36.7935409,10.8419839 C36.2360631,9.47712418 35.5055748,8.16993464 34.6020761,6.97808535 C31.2764321,2.55670896 26.201461,0 20.6843522,0 C15.1864667,0.0192233756 9.97693195,2.65282584 6.68973472,7.07420223 C5.82468281,8.24682814 5.11341792,9.51557093 4.55594002,10.8612072 C4.4982699,10.9381007 4.44059977,11.0149942 4.42137639,11.0918877 C3.65244137,13.0911188 3.24875048,15.2056901 3.24875048,17.4163783 C3.24875048,17.5893887 3.21030373,17.7816225 3.2295271,17.9546328 C1.40330642,18.3967705 0,20.0499808 0,22.0107651 L0,32.1222607 C0,34.4290657 1.92233756,36.2937332 4.22914264,36.2937332 C6.53594771,36.2937332 8.45828527,34.4290657 8.45828527,32.1222607 L8.45828527,21.9915417 C8.45828527,20.011534 7.05497885,18.3391003 5.19031142,17.9161861 C5.19031142,17.7431757 5.17108804,17.5701653 5.17108804,17.3971549 C5.17108804,15.7439446 5.42099193,14.1484045 5.92079969,12.6297578 L9.53479431,13.9561707 C9.65013456,13.9946175 9.76547482,14.0138408 9.8615917,14.0138408 C10.2460592,14.0138408 10.6113033,13.7831603 10.7650903,13.3794694 C12.3606305,9.09265667 16.4936563,6.2283737 21.0495963,6.2283737 C25.6055363,6.2283737 29.7385621,9.09265667 31.3341023,13.3794694 C31.526336,13.8792772 32.0645905,14.1291811 32.5643983,13.9369473 L35.4863514,12.8604383 C35.9477124,14.3598616 36.1976163,15.8977316 36.1976163,17.4163783 C36.1976163,17.5701653 36.1976163,17.7431757 36.1783929,17.9161861 C34.2945021,18.319877 32.8719723,19.9923106 32.8719723,21.9915417 L32.8719723,32.1222607 C32.8719723,34.4290657 34.698193,36.2937332 37.0049981,36.2937332 C39.3118032,36.2937332 41.1380238,34.4290657 41.1380238,32.1222607 L41.1380238,31.6608997 C41.3302576,33.4294502 41.3302576,36.5436371 39.40792,39.254133 C37.254902,42.3298731 33.3333333,44.1945406 27.6816609,44.7904652 C27.1626298,43.1757017 25.6632065,42.0030757 23.8754325,42.0030757 C21.6647443,42.0030757 19.8769704,43.7908497 19.8769704,46.0015379 C19.8769704,48.2122261 21.6647443,50 23.8754325,50 C25.8362168,50 27.4702038,48.5774702 27.8162245,46.7128028 C34.1022684,46.059208 38.5428681,43.9254133 41.041907,40.3498654 C43.7524029,36.4475202 43.2718185,32.0645905 42.9642445,30.3921569 C43.9061899,29.5847751 44.4828912,28.4121492 44.4828912,27.0665129 L44.4828912,27.0665129 Z M6.53594771,22.0107651 L6.53594771,32.1222607 C6.53594771,33.3717801 5.47866205,34.3713956 4.22914264,34.3713956 C2.97962322,34.3713956 1.92233756,33.3525567 1.92233756,32.1222607 L1.92233756,21.9915417 C1.92233756,20.8573626 2.80661284,19.9154171 3.90234525,19.7616301 C3.99846213,19.7808535 4.11380238,19.8000769 4.20991926,19.8000769 C4.30603614,19.8000769 4.44059977,19.7808535 4.53671665,19.7424068 C5.65167243,19.8961938 6.53594771,20.8573626 6.53594771,22.0107651 L6.53594771,22.0107651 Z M32.7566321,11.8415994 C30.6805075,7.32410611 26.0861207,4.32525952 21.0495963,4.32525952 C16.0130719,4.32525952 11.4186851,7.30488274 9.32333718,11.8415994 L6.65128797,10.8612072 C7.09342561,9.9384852 7.61245675,9.03498654 8.22760477,8.20838139 C11.1495579,4.28681276 15.8016148,1.94156094 20.6843522,1.94156094 C25.6055363,1.94156094 30.1230296,4.20991926 33.0642061,8.15071126 C33.7562476,9.07343329 34.3329489,10.0538255 34.7943099,11.0918877 L32.7566321,11.8415994 L32.7566321,11.8415994 Z M39.2156863,32.1222607 C39.2156863,33.3717801 38.2545175,34.3713956 37.0049981,34.3713956 C35.7554787,34.3713956 34.7943099,33.3717801 34.7943099,32.1222607 L34.7943099,21.9915417 C34.7943099,20.8381392 35.6785852,19.8769704 36.7935409,19.7616301 C36.8896578,19.8000769 36.9857747,19.8193003 37.101115,19.8193003 C37.1972318,19.8193003 37.2356786,19.8000769 37.3317955,19.7808535 C38.4275279,19.9346405 39.2156863,20.8765859 39.2156863,22.0107651 L39.2156863,32.1222607 L39.2156863,32.1222607 Z M23.8946559,48.0776624 C22.7412534,48.0776624 21.8185313,47.1549404 21.8185313,46.0015379 C21.8185313,44.8481353 22.7412534,43.9254133 23.8946559,43.9254133 C25.0480584,43.9254133 25.9707805,44.8481353 25.9707805,46.0015379 C25.9707805,47.1549404 25.0480584,48.0776624 23.8946559,48.0776624 L23.8946559,48.0776624 Z M41.1380238,29.2579777 L41.1380238,24.8942714 C42.0991926,25.2787389 42.5028835,26.1053441 42.5028835,27.0857363 C42.5028835,28.0661284 42.0991926,28.8542868 41.1380238,29.2579777 L41.1380238,29.2579777 Z" id="Shape"></path>
        </g>
    </g>
</svg>