<?xml version="1.0" encoding="UTF-8" standalone="no"?>
<svg width="53px" height="38px" viewBox="0 0 53 38" version="1.1" xmlns="http://www.w3.org/2000/svg" xmlns:xlink="http://www.w3.org/1999/xlink">
    <!-- Generator: Sketch 3.8.1 (29687) - http://www.bohemiancoding.com/sketch -->
    <title>Group 14 Copy 3</title>
    <desc>Created with Sketch.</desc>
    <defs></defs>
    <g id="视觉稿-v4" stroke="none" stroke-width="1" fill="none" fill-rule="evenodd">
        <g id="Group-14-Copy-3" transform="translate(-1.000000, 0.000000)">
            <path d="M47.0719829,11.3637755 C46.8255543,11.2872449 40.9633094,9.52857143 34.6701972,10.0214286 C32.5533604,10.1890306 29.9842278,10.5043367 27.2643298,10.8372449 C22.0671359,11.4762755 16.1758094,12.194898 12.3393298,11.9859694 C6.53295225,11.6622449 1.94341144,11.1739796 1.89749307,11.1701531 C1.47121756,11.1188776 1.10004409,11.4295918 1.05489103,11.8497449 C1.0510645,11.8857143 1.04953389,11.9209184 1.0510645,11.9561224 C1.05029919,11.9637755 1.05029919,11.9714286 1.05029919,11.9783163 L1.05029919,34.8877551 C1.05029919,35.2237245 1.26994205,35.5214286 1.59213593,35.6193878 C1.80795225,35.6859694 6.34086042,37.0482143 11.6987686,37.0482143 C12.4502992,37.0482143 13.2186665,37.0214286 13.9931563,36.9609694 C16.1092278,36.7933673 18.6775951,36.4788265 21.3967278,36.1451531 C26.5946869,35.5068878 32.4867788,34.7867347 36.3232584,34.9971939 C42.1296359,35.3201531 46.7207074,35.8084184 46.7666257,35.8122449 C46.9786155,35.8329082 47.1982584,35.7418367 47.359738,35.5979592 C47.5212176,35.4533163 47.6130543,35.2237245 47.6130543,35.0063776 L47.6130543,12.0954082 C47.6138196,11.7586735 47.3941767,11.4617347 47.0719829,11.3637755 L47.0719829,11.3637755 Z M36.4089727,33.4681122 C32.434738,33.2431122 26.472238,33.9785714 21.2115237,34.6244898 C18.5092278,34.9566327 15.9576972,35.2696429 13.8737686,35.4341837 C8.94672777,35.8252551 4.15897266,34.7193878 2.58167674,34.3045918 L2.58167674,12.7765306 C4.17963593,12.9326531 7.87376858,13.2701531 12.2543808,13.5135204 C16.2309114,13.7331633 22.1903502,13.0022959 27.4502992,12.3563776 C30.1541257,12.0242347 32.7071869,11.7112245 34.7911155,11.5466837 C39.7204523,11.1571429 44.5066767,12.2630102 46.0832074,12.6770408 L46.0832074,34.2043367 C44.4852482,34.0482143 40.7895849,33.7107143 36.4089727,33.4681122 Z" id="Shape"></path>
            <path d="M50.1630543,6.50382653 C49.9166257,6.42806122 44.0605033,4.66173469 37.7627992,5.1630102 C35.6459625,5.33061224 33.0783604,5.64515306 30.3592278,5.97882653 C25.1605033,6.61632653 19.2668808,7.33494898 15.4319318,7.12678571 C9.62708491,6.80382653 5.03677879,6.31556122 4.99162572,6.31173469 C4.56535021,6.26734694 4.19341144,6.57117347 4.14825838,6.99132653 C4.10310532,7.41147959 4.40769715,7.78877551 4.82861552,7.83392857 C4.87453389,7.83928571 9.50004409,8.33061224 15.3462176,8.65510204 C19.3212176,8.88086735 25.2837176,8.14464286 30.5444318,7.49872449 C33.2467278,7.16658163 35.7990237,6.85357143 37.8829523,6.68903061 C42.812289,6.2994898 47.5969829,7.40306122 49.1735135,7.81785714 L49.1735135,30.1464286 C49.1735135,30.5696429 49.5163706,30.9117347 49.9388196,30.9117347 C50.3612686,30.9117347 50.7041257,30.5696429 50.7041257,30.1464286 L50.7041257,7.23545918 C50.704891,6.8994898 50.4852482,6.60178571 50.1630543,6.50382653 L50.1630543,6.50382653 Z" id="Shape"></path>
            <path d="M53.2571869,1.6255102 C53.0115237,1.54897959 47.15234,-0.208163265 40.8569318,0.284693878 C38.7400951,0.452295918 36.1717278,0.766836735 33.4518298,1.1005102 C28.2546359,1.7380102 22.3656053,2.46122449 18.5268298,2.24846939 C12.7212176,1.9255102 8.13167674,1.43647959 8.08575838,1.43265306 C7.66943185,1.3875 7.28754409,1.69132653 7.24239103,2.1122449 C7.19723797,2.53239796 7.50182981,2.90969388 7.92274817,2.95484694 C7.96866654,2.96020408 12.5941767,3.45229592 18.4411155,3.77678571 C22.4130543,4.00331633 28.3763196,3.26556122 33.6377992,2.61964286 C36.3400951,2.28826531 38.8931563,1.9752551 40.9770849,1.81071429 C45.9079523,1.41887755 50.6903502,2.5247449 52.2676461,2.93954082 L52.2676461,25.2665816 C52.2676461,25.6897959 52.6105033,26.0318878 53.0329523,26.0318878 C53.4554012,26.0318878 53.7982584,25.6897959 53.7982584,25.2665816 L53.7982584,2.35714286 C53.7990237,2.02117347 53.5793808,1.72346939 53.2571869,1.6255102 L53.2571869,1.6255102 Z" id="Shape"></path>
            <path d="M9.76101348,32.6813776 L4.9885645,32.1908163 C4.56688083,32.1494898 4.19264613,32.4540816 4.14902368,32.8742347 C4.10540123,33.2951531 4.41228899,33.6709184 4.83244205,33.7145408 L9.60489103,34.205102 C9.63167674,34.207398 9.65693185,34.2089286 9.68448287,34.2089286 C10.0717278,34.2089286 10.4038706,33.9158163 10.4444318,33.522449 C10.487289,33.1007653 10.1819318,32.725 9.76101348,32.6813776 L9.76101348,32.6813776 Z" id="Shape"></path>
            <path d="M38.8281053,14.1571429 L43.6020849,14.6477041 C43.6281053,14.65 43.6541257,14.6515306 43.6809114,14.6515306 C44.0689216,14.6515306 44.4002992,14.3584184 44.4408604,13.965051 C44.4844829,13.5441327 44.1783604,13.1683673 43.7574421,13.1247449 L38.9849931,12.6341837 C38.5640747,12.6012755 38.1883094,12.8966837 38.1446869,13.317602 C38.1010645,13.7385204 38.4087176,14.1135204 38.8281053,14.1571429 L38.8281053,14.1571429 Z" id="Shape"></path>
            <path d="M27.1717278,18.5446429 L24.304891,22.2418367 L21.437289,18.5446429 C21.1786155,18.2102041 20.697238,18.1497449 20.3643298,18.4091837 C20.029891,18.6678571 19.9694318,19.1492347 20.2281053,19.4829082 L23.5395849,23.752551 L23.5395849,24.3380102 L21.5436665,24.3380102 C21.1212176,24.3380102 20.7783604,24.680102 20.7783604,25.1033163 C20.7783604,25.5265306 21.1212176,25.8686224 21.5436665,25.8686224 L23.5395849,25.8686224 L23.5395849,26.4778061 L21.5436665,26.4778061 C21.1212176,26.4778061 20.7783604,26.819898 20.7783604,27.2431122 C20.7783604,27.6663265 21.1212176,28.0084184 21.5436665,28.0084184 L23.5388196,28.0084184 L23.5388196,30.5431122 C23.5388196,30.9655612 23.8816767,31.3084184 24.3041257,31.3084184 C24.72734,31.3084184 25.0694318,30.9663265 25.0694318,30.5431122 L25.0694318,28.0084184 L27.0645849,28.0084184 C27.4877992,28.0084184 27.829891,27.6663265 27.829891,27.2431122 C27.829891,26.819898 27.4877992,26.4778061 27.0645849,26.4778061 L25.0701972,26.4778061 L25.0701972,25.8686224 L27.0645849,25.8686224 C27.4877992,25.8686224 27.829891,25.5265306 27.829891,25.1033163 C27.829891,24.680102 27.4877992,24.3380102 27.0645849,24.3380102 L25.0701972,24.3380102 L25.0701972,23.752551 L28.3809114,19.4829082 C28.6403502,19.1484694 28.5791257,18.6678571 28.2454523,18.4091837 C27.9125441,18.1505102 27.4304012,18.2109694 27.1717278,18.5446429 L27.1717278,18.5446429 Z" id="Shape"></path>
        </g>
    </g>
</svg>