<?xml version="1.0" encoding="UTF-8" standalone="no"?>
<svg width="54px" height="50px" viewBox="0 0 54 50" version="1.1" xmlns="http://www.w3.org/2000/svg" xmlns:xlink="http://www.w3.org/1999/xlink">
    <!-- Generator: Sketch 3.8.1 (29687) - http://www.bohemiancoding.com/sketch -->
    <title>Group 11</title>
    <desc>Created with Sketch.</desc>
    <defs></defs>
    <g id="视觉稿-v4" stroke="none" stroke-width="1" fill="none" fill-rule="evenodd">
        <g id="特权页" transform="translate(-53.000000, -546.000000)">
            <g id="Group-11" transform="translate(53.000000, 546.000000)">
                <path d="M21.3888889,49.7222222 C20.1851852,49.7222222 18.9814815,49.2592593 18.0555556,48.3333333 L2.22222222,32.4074074 C1.38888889,31.5740741 0.833333333,30.3703704 0.833333333,29.0740741 C0.833333333,27.8703704 1.2962963,26.6666667 2.22222222,25.7407407 L20.3703704,7.68518519 C20.6481481,7.40740741 21.2962963,7.03703704 23.0555556,6.66666667 C27.5,5.74074074 37.037037,4.72222222 42.4074074,4.16666667 C43.6111111,4.07407407 44.537037,4.35185185 45.1851852,5.09259259 C45.8333333,5.74074074 46.1111111,6.66666667 46.0185185,7.77777778 C44.537037,28.7037037 43.4259259,29.7222222 42.962963,30.1851852 L24.7222222,48.3333333 C23.8888889,49.1666667 22.6851852,49.7222222 21.3888889,49.7222222 L21.3888889,49.7222222 Z M42.7777778,6.01851852 L42.5,6.01851852 C38.2407407,6.38888889 27.8703704,7.5 23.4259259,8.42592593 C21.9444444,8.7037037 21.6666667,8.88888889 21.6666667,8.98148148 L3.51851852,27.1296296 C2.40740741,28.2407407 2.40740741,30 3.51851852,31.1111111 L19.4444444,47.037037 C20.462963,48.0555556 22.4074074,48.0555556 23.4259259,47.037037 L41.5740741,28.8888889 C42.037037,28.1481481 43.0555556,22.1296296 44.0740741,7.68518519 C44.0740741,7.31481481 44.0740741,6.75925926 43.7962963,6.38888889 C43.5185185,6.2037037 43.1481481,6.01851852 42.7777778,6.01851852 L42.7777778,6.01851852 Z" id="Shape"></path>
                <path d="M38.1481481,16.3888889 C37.1296296,16.3888889 36.1111111,16.0185185 35.3703704,15.2777778 C34.6296296,14.537037 34.2592593,13.5185185 34.2592593,12.5 C34.2592593,11.4814815 34.6296296,10.462963 35.3703704,9.72222222 C36.1111111,8.98148148 37.1296296,8.61111111 38.1481481,8.61111111 C39.1666667,8.61111111 40.1851852,8.98148148 40.9259259,9.72222222 C41.6666667,10.462963 42.037037,11.4814815 42.037037,12.5 C42.037037,13.5185185 41.6666667,14.537037 40.9259259,15.2777778 C40.1851852,15.9259259 39.1666667,16.3888889 38.1481481,16.3888889 L38.1481481,16.3888889 Z M38.1481481,10.3703704 C37.5925926,10.3703704 37.037037,10.5555556 36.6666667,11.0185185 C36.2962963,11.3888889 36.0185185,11.9444444 36.0185185,12.5 C36.0185185,13.0555556 36.2037037,13.6111111 36.6666667,13.9814815 C37.5,14.7222222 38.7962963,14.8148148 39.6296296,13.9814815 C40,13.6111111 40.2777778,13.0555556 40.2777778,12.5 C40.2777778,11.9444444 40.0925926,11.3888889 39.6296296,11.0185185 C39.1666667,10.5555556 38.7037037,10.3703704 38.1481481,10.3703704 L38.1481481,10.3703704 Z" id="Shape"></path>
                <path d="M44.6296296,17.4074074 C43.1481481,17.4074074 41.6666667,17.037037 40.3703704,16.2037037 C39.1666667,15.462963 38.2407407,14.537037 37.5,13.3333333 C37.2222222,12.8703704 37.4074074,12.3148148 37.8703704,12.037037 C38.3333333,11.7592593 38.8888889,11.9444444 39.1666667,12.4074074 C39.7222222,13.3333333 40.462963,14.0740741 41.3888889,14.6296296 C42.8703704,15.5555556 44.537037,15.7407407 46.2037037,15.3703704 C47.8703704,15 49.2592593,13.9814815 50.1851852,12.5 C51.1111111,11.0185185 51.2962963,9.35185185 50.9259259,7.68518519 C50.5555556,6.01851852 49.537037,4.62962963 48.0555556,3.7037037 C46.3888889,2.68518519 44.3518519,2.5 42.5,3.14814815 C42.037037,3.33333333 41.4814815,3.05555556 41.2962963,2.59259259 C41.1111111,2.12962963 41.3888889,1.57407407 41.8518519,1.38888889 C44.2592593,0.462962963 46.8518519,0.740740741 49.0740741,2.03703704 C50.9259259,3.14814815 52.3148148,5 52.7777778,7.12962963 C53.3333333,9.25925926 52.962963,11.4814815 51.8518519,13.3333333 C50.7407407,15.1851852 48.8888889,16.5740741 46.7592593,17.037037 C45.9259259,17.3148148 45.2777778,17.4074074 44.6296296,17.4074074 L44.6296296,17.4074074 Z" id="Shape"></path>
                <path d="M20.7407407,25.2777778 C18.6111111,25.2777778 16.8518519,23.7962963 16.4814815,21.6666667 C16.2962963,20.5555556 16.5740741,19.3518519 17.2222222,18.4259259 C17.8703704,17.5 18.8888889,16.8518519 20,16.6666667 C22.4074074,16.2962963 24.537037,17.8703704 24.9074074,20.1851852 C25.0925926,21.2962963 24.8148148,22.5 24.1666667,23.4259259 C23.5185185,24.3518519 22.5,25 21.3888889,25.1851852 C21.2037037,25.2777778 20.9259259,25.2777778 20.7407407,25.2777778 L20.7407407,25.2777778 Z M20.7407407,18.5185185 L20.3703704,18.5185185 C19.7222222,18.6111111 19.1666667,18.9814815 18.7962963,19.537037 C18.4259259,20.0925926 18.2407407,20.7407407 18.3333333,21.3888889 C18.5185185,22.6851852 19.8148148,23.6111111 21.1111111,23.4259259 C21.7592593,23.3333333 22.3148148,22.962963 22.6851852,22.4074074 C23.0555556,21.8518519 23.2407407,21.2037037 23.1481481,20.5555556 C22.962963,19.3518519 21.9444444,18.5185185 20.7407407,18.5185185 L20.7407407,18.5185185 Z" id="Shape"></path>
                <path d="M22.962963,39.1666667 C20.8333333,39.1666667 19.0740741,37.6851852 18.7037037,35.5555556 C18.3333333,33.2407407 19.9074074,31.0185185 22.2222222,30.6481481 C24.6296296,30.2777778 26.7592593,31.8518519 27.1296296,34.1666667 C27.5,36.4814815 25.9259259,38.7037037 23.6111111,39.0740741 C23.4259259,39.1666667 23.2407407,39.1666667 22.962963,39.1666667 L22.962963,39.1666667 Z M22.962963,32.4074074 L22.5925926,32.4074074 C21.2962963,32.5925926 20.3703704,33.8888889 20.5555556,35.1851852 C20.7407407,36.4814815 22.037037,37.4074074 23.3333333,37.2222222 C24.6296296,37.037037 25.5555556,35.7407407 25.3703704,34.4444444 C25.1851852,33.2407407 24.1666667,32.4074074 22.962963,32.4074074 L22.962963,32.4074074 Z" id="Shape"></path>
                <path d="M13.0555556,33.8888889 C12.7777778,33.8888889 12.4074074,33.7037037 12.2222222,33.4259259 C11.9444444,32.962963 12.1296296,32.4074074 12.5925926,32.1296296 L30.2777778,21.7592593 C30.7407407,21.4814815 31.2962963,21.6666667 31.5740741,22.1296296 C31.8518519,22.5925926 31.6666667,23.1481481 31.2037037,23.4259259 L13.5185185,33.7962963 C13.3333333,33.8888889 13.1481481,33.8888889 13.0555556,33.8888889 L13.0555556,33.8888889 Z" id="Shape"></path>
            </g>
        </g>
    </g>
</svg>