<?xml version="1.0" encoding="UTF-8" standalone="no"?>
<svg width="14px" height="25px" viewBox="0 0 14 25" version="1.1" xmlns="http://www.w3.org/2000/svg" xmlns:xlink="http://www.w3.org/1999/xlink">
    <!-- Generator: Sketch 3.8.1 (29687) - http://www.bohemiancoding.com/sketch -->
    <title>Group 3</title>
    <desc>Created with Sketch.</desc>
    <defs></defs>
    <g id="视觉稿-v4" stroke="none" stroke-width="1" fill="none" fill-rule="evenodd">
        <g id="特权页" transform="translate(-332.000000, -621.000000)" fill="#F13C34">
            <g id="Group-3" transform="translate(339.268360, 635.388842) rotate(-45.000000) translate(-339.268360, -635.388842) translate(329.268360, 624.888842)">
                <path d="M4.12048193,15.9759036 C4.12048193,15.9759036 3.92771084,14.6987952 4.12048193,13.686747 C3.68674699,13.7349398 3.27710843,13.9277108 2.96385542,14.2650602 C2.1686747,15.060241 2.53012048,17.5903614 2.53012048,17.5903614 C2.53012048,17.5903614 5.06024096,17.9518072 5.85542169,17.1566265 C6.19277108,16.8192771 6.36144578,16.4096386 6.43373494,16 C5.39759036,16.1686747 4.12048193,15.9759036 4.12048193,15.9759036 L4.12048193,15.9759036 Z" id="Shape"></path>
                <path d="M13.3975904,14.8433735 C13.6144578,14.3614458 13.5662651,13.8313253 13.3493976,13.373494 C20.8433735,6.48192771 19.8795181,0.240963855 19.8795181,0.240963855 C19.8795181,0.240963855 13.6385542,-0.746987952 6.74698795,6.77108434 C6.28915663,6.55421687 5.75903614,6.53012048 5.27710843,6.72289157 C4.36144578,7.10843373 -0.168674699,10.2409639 0.0722891566,10.8674699 C0.21686747,11.2048193 2.1686747,11.0120482 3.92771084,10.6987952 C3.6626506,11.6144578 4.57831325,12.9156627 5.87951807,14.2409639 C7.18072289,15.5421687 8.48192771,16.4578313 9.42168675,16.1927711 C9.10843373,17.9518072 8.91566265,19.9036145 9.25301205,20.0481928 C9.87951807,20.2891566 13.0120482,15.7590361 13.3975904,14.8433735 L13.3975904,14.8433735 Z M13.253012,6.86746988 C12.6506024,6.26506024 12.6506024,5.3253012 13.253012,4.72289157 C13.8554217,4.12048193 14.7951807,4.12048193 15.3975904,4.72289157 C16,5.3253012 16,6.26506024 15.3975904,6.86746988 C14.7951807,7.44578313 13.8313253,7.46987952 13.253012,6.86746988 L13.253012,6.86746988 Z" id="Shape"></path>
            </g>
        </g>
    </g>
</svg>