<svg xmlns="http://www.w3.org/2000/svg" xmlns:xlink="http://www.w3.org/1999/xlink" width="0" height="0" style="position:absolute">

<symbol id="icon-cart" viewBox="0 0 17 16">
        <title>购物车- 可点</title><g transform="translate(0 1)" stroke-linecap="round" fill="none" fill-rule="evenodd"><path d="M2.314 2.107H15.57M0 0h2.122c.104 0 .197.062.24.155l-.33 1.45v.008c-.01.047-.01.095 0 .145v.003l1.465 6.51-.374 1.217c-.004.01-.007.023-.01.034-.05.256.013.518.175.72.162.2.402.315.658.315h9.952M3.498 8.27L13.65 7.098c.436-.01.807-.314.904-.735L16.21.903M4.967 13c0 .55-.44 1-.983 1C3.44 14 3 13.55 3 13c0-.553.44-1 .984-1 .543 0 .983.447.983 1zM13.967 13c0 .55-.44 1-.983 1-.544 0-.984-.45-.984-1 0-.553.44-1 .984-1 .543 0 .983.447.983 1z"/></g>
</symbol>

<symbol id="icon-like" viewBox="0 0 14 14">
        <title>Fill 1 Copy 3</title><path d="M12.45 7.068L7.17 13.16c-.058.068-.144.107-.234.107v.275l-.002-.275c-.09 0-.176-.04-.235-.11l-5.263-6.23c-.42-.566-.644-1.24-.644-1.948 0-1.8 1.462-3.263 3.258-3.263 1.067 0 2.087.506 2.73 1.354.053.07.133.11.22.11.085 0 .165-.04.217-.11.644-.847 1.665-1.353 2.73-1.353 1.798 0 3.26 1.464 3.26 3.262 0 .763-.27 1.506-.756 2.088M10.056.936c-1.163 0-2.28.5-3.056 1.355C6.223 1.438 5.106.937 3.943.937 1.77.936 0 2.708 0 4.886c0 .856.27 1.672.782 2.36l5.473 6.48c.168.2.413.315.675.316h.004c.258 0 .503-.11.672-.306L13.08 7.42c.594-.71.92-1.61.92-2.535 0-2.177-1.77-3.95-3.945-3.95" fill="#666" fill-rule="evenodd"/>
</symbol>

<symbol id="icon-share" viewBox="0 0 14 19">
        <title>分享 copy</title><defs><path id="aca" d="M0 0h13.712v19H0"/><path id="acc" d="M0 0h13.712v19H0"/></defs><g fill="none" fill-rule="evenodd"><mask id="acb" fill="#fff"><use xlink:href="#aca"/></mask><path d="M4.45 3.336l2.017-2.012v10.173c0 .215.174.388.39.388.214 0 .388-.173.388-.388V1.324l2.018 2.012c.076.075.175.113.275.113.1 0 .2-.04.275-.114.152-.152.152-.397 0-.55L7.133.115C7.094.078 7.052.05 7.002.03c-.093-.04-.2-.04-.295 0-.048.02-.09.048-.127.084L3.9 2.787c-.153.152-.153.397 0 .55.152.15.397.15.55 0" fill="#E73736" mask="url(#acb)"/><g><mask id="acd" fill="#fff"><use xlink:href="#acc"/></mask><path d="M13.323 5.328H9.15c-.216 0-.39.174-.39.388 0 .214.174.388.39.388h3.784v12.12H.778V6.105h3.785c.215 0 .39-.174.39-.388 0-.214-.175-.388-.39-.388H.39c-.216 0-.39.174-.39.388v12.896c0 .215.174.388.39.388h12.933c.215 0 .39-.173.39-.388V5.716c0-.214-.175-.388-.39-.388" fill="#E73736" mask="url(#acd)"/></g></g>
</symbol>

<symbol id="icon-share02" viewBox="0 0 14 18">
        <title>分享</title><g transform="translate(1)" stroke-linecap="round" stroke="#555" fill="none" fill-rule="evenodd"><path d="M3.88 5.25H.363c-.2 0-.362.148-.362.33v10.694c0 .184.162.332.362.332h11.303c.2 0 .362-.148.362-.332V5.58c0-.182-.162-.33-.362-.33h-3.52M5.844.53v8.5M3.188 2.796L5.983 0 8.78 2.796"/></g>
</symbol>

<symbol id="icon-star02" viewBox="0 0 16 15">
        <title>已收藏</title><path d="M15.08 5.137l-4.84-.098L8.652.52C8.542.207 8.25 0 7.92 0c-.328 0-.623.208-.73.52L5.6 5.04l-4.84.097c-.33.007-.622.223-.723.537-.1.315.01.66.273.86l3.852 2.89-1.4 4.572c-.096.316.018.66.284.854.262.192.633.196.898.013l3.976-2.738 3.977 2.738c.13.09.283.137.44.137.165 0 .323-.052.46-.15.265-.196.378-.538.28-.853l-1.4-4.574 3.854-2.89c.266-.2.375-.545.273-.858-.1-.315-.39-.53-.722-.538z" fill-rule="evenodd"/>
</symbol>
</svg>