<svg xmlns="http://www.w3.org/2000/svg" xmlns:xlink="http://www.w3.org/1999/xlink" width="0" height="0" style="position:absolute">

<symbol id="icon-cart" viewBox="0 0 17 14">
        <title>Page 1</title><defs><path id="aaa" d="M0 .06h16.77V14H0V.06z"/></defs><g fill="none" fill-rule="evenodd"><mask id="aab" fill="#fff"><use xlink:href="#aaa"/></mask><path d="M14.463 6.873c-.03.114-.134.194-.256.194-.012 0-.025 0-.037.002L4.416 8.083 3.11 2.607h12.567l-1.214 4.266zM16.52.888c-.18-.048-.368.055-.418.228l-.24.84H3.11l.25-1.04c.01-.046.012-.094.002-.14C3.27.36 2.882.06 2.44.06H.34C.152.06 0 .207 0 .387c0 .18.152.326.34.326h2.1c.102 0 .194.058.237.144L2.35 2.21v.006c-.008.044-.01.09 0 .135v.004L3.8 8.426 3.43 9.56l-.01.033c-.05.238.014.482.174.67.16.187.397.294.65.294h10.113c.188 0 .34-.145.34-.325 0-.18-.152-.326-.34-.326H4.244c-.048 0-.093-.02-.124-.056-.027-.033-.04-.074-.035-.116l.325-.995 9.817-1.022c.432-.01.8-.293.895-.686l1.636-5.745c.05-.173-.057-.352-.238-.4z" fill="#F13C34" mask="url(#aab)"/><path d="M4.82 13.35c-.38 0-.69-.298-.69-.663 0-.366.31-.663.69-.663.382 0 .69.297.69.663 0 .365-.308.662-.69.662m0-1.977c-.756 0-1.37.59-1.37 1.314 0 .724.614 1.313 1.37 1.313.756 0 1.37-.59 1.37-1.313 0-.725-.614-1.314-1.37-1.314M12.935 13.35c-.382 0-.692-.298-.692-.663 0-.366.31-.663.692-.663.38 0 .692.297.692.663 0 .365-.31.662-.692.662m0-1.977c-.756 0-1.372.59-1.372 1.314 0 .724.616 1.313 1.372 1.313.756 0 1.372-.59 1.372-1.313 0-.725-.616-1.314-1.372-1.314" fill="#F13C34"/></g>
</symbol>

<symbol id="icon-like" viewBox="0 0 14 14">
        <title>Fill 1 Copy 3</title><path d="M12.45 7.068L7.17 13.16c-.058.068-.144.107-.234.107v.275l-.002-.275c-.09 0-.176-.04-.235-.11l-5.263-6.23c-.42-.566-.644-1.24-.644-1.948 0-1.8 1.462-3.263 3.258-3.263 1.067 0 2.087.506 2.73 1.354.053.07.133.11.22.11.085 0 .165-.04.217-.11.644-.847 1.665-1.353 2.73-1.353 1.798 0 3.26 1.464 3.26 3.262 0 .763-.27 1.506-.756 2.088M10.056.936c-1.163 0-2.28.5-3.056 1.355C6.223 1.438 5.106.937 3.943.937 1.77.936 0 2.708 0 4.886c0 .856.27 1.672.782 2.36l5.473 6.48c.168.2.413.315.675.316h.004c.258 0 .503-.11.672-.306L13.08 7.42c.594-.71.92-1.61.92-2.535 0-2.177-1.77-3.95-3.945-3.95" fill="#666" fill-rule="evenodd"/>
</symbol>

<symbol id="icon-share" viewBox="0 0 14 19">
        <title>分享 copy</title><defs><path id="aca" d="M0 0h13.712v19H0"/><path id="acc" d="M0 0h13.712v19H0"/></defs><g fill="none" fill-rule="evenodd"><mask id="acb" fill="#fff"><use xlink:href="#aca"/></mask><path d="M4.45 3.336l2.017-2.012v10.173c0 .215.174.388.39.388.214 0 .388-.173.388-.388V1.324l2.018 2.012c.076.075.175.113.275.113.1 0 .2-.04.275-.114.152-.152.152-.397 0-.55L7.133.115C7.094.078 7.052.05 7.002.03c-.093-.04-.2-.04-.295 0-.048.02-.09.048-.127.084L3.9 2.787c-.153.152-.153.397 0 .55.152.15.397.15.55 0" fill="#E73736" mask="url(#acb)"/><g><mask id="acd" fill="#fff"><use xlink:href="#acc"/></mask><path d="M13.323 5.328H9.15c-.216 0-.39.174-.39.388 0 .214.174.388.39.388h3.784v12.12H.778V6.105h3.785c.215 0 .39-.174.39-.388 0-.214-.175-.388-.39-.388H.39c-.216 0-.39.174-.39.388v12.896c0 .215.174.388.39.388h12.933c.215 0 .39-.173.39-.388V5.716c0-.214-.175-.388-.39-.388" fill="#E73736" mask="url(#acd)"/></g></g>
</symbol>

<symbol id="icon-share02" viewBox="0 0 12 16">
        <title>分享 copy 5</title><defs><path id="ada" d="M0 0h11.06v15.115H0"/><path id="adc" d="M0 0h13.233v18.086H0"/></defs><g transform="translate(-1 -1)" fill="none" fill-rule="evenodd"><g transform="translate(1.75 1.343)"><mask id="adb" fill="#fff"><use xlink:href="#ada"/></mask><path d="M3.59 2.654l1.626-1.6v8.093c0 .17.14.308.314.308.173 0 .313-.138.313-.308V1.053l1.628 1.6c.062.06.142.09.223.09.08 0 .16-.03.222-.09.122-.12.122-.315 0-.435L5.752.09C5.722.063 5.688.04 5.65.025c-.077-.032-.163-.032-.24 0-.038.015-.073.038-.102.067L3.145 2.22c-.122.12-.122.315 0 .436.123.12.32.12.444 0" fill="#666" mask="url(#adb)"/></g><g transform="translate(0 .644)"><mask id="add" fill="#fff"><use xlink:href="#adc"/></mask><path d="M12.496 4.938H9.13c-.174 0-.315.138-.315.308 0 .17.14.31.314.31h3.052v9.64H2.377v-9.64H5.43c.174 0 .314-.14.314-.31 0-.17-.14-.308-.313-.308H2.065c-.174 0-.314.138-.314.308v10.26c0 .17.14.308.314.308h10.432c.173 0 .314-.138.314-.308V5.246c0-.17-.14-.308-.314-.308" fill="#666" mask="url(#add)"/></g></g>
</symbol>

<symbol id="icon-star02" viewBox="0 0 15 14">
        <title>Fill 1</title><path d="M14.076 4.794l-4.518-.09L8.075.483C7.973.194 7.7 0 7.392 0c-.306 0-.58.195-.682.484l-1.483 4.22-4.52.09C.4 4.8.13 5.004.036 5.296c-.095.293.008.615.254.8l3.595 2.698-1.306 4.27c-.092.294.014.614.263.796.244.18.59.183.838.012l3.712-2.556 3.712 2.556c.122.084.264.128.41.128.155 0 .302-.048.43-.14.247-.183.353-.503.262-.796L10.9 8.794l3.596-2.697c.247-.186.35-.508.254-.8-.094-.294-.365-.496-.674-.503z" fill-rule="evenodd"/>
</symbol>
</svg>