<svg xmlns="http://www.w3.org/2000/svg" xmlns:xlink="http://www.w3.org/1999/xlink" width="0" height="0" style="position:absolute">

<symbol id="icon-header-detail01" viewBox="0 0 12 21">
        <title>btn_back_red copy</title><path d="M10.126.222l-9.59 9.59L0 10.35l.536.536 9.524 9.524c.296.296.775.296 1.07 0 .297-.296.297-.775 0-1.07L1.608 9.812v1.07l9.59-9.59c.296-.296.296-.775 0-1.07-.295-.297-.775-.297-1.07 0z" fill="#FFF" fill-rule="evenodd"/>
</symbol>

<symbol id="icon-header-detail02" viewBox="0 0 18 18">
        <title>Fill 1</title><path d="M10.65 1.228c3.03 0 5.49 2.463 5.49 5.49s-2.46 5.49-5.49 5.49c-3.027 0-5.49-2.463-5.49-5.49s2.463-5.49 5.49-5.49m0 12.21c3.705 0 6.72-3.015 6.72-6.72C17.37 3.014 14.354 0 10.65 0 6.947 0 3.934 3.014 3.934 6.718c0 1.632.585 3.128 1.556 4.294l-5.31 5.14c-.24.238-.24.627 0 .867.12.12.277.18.434.18.157 0 .314-.06.434-.18l5.31-5.14c1.164.97 2.66 1.557 4.293 1.557" fill="#FFF" fill-rule="evenodd"/>
</symbol>

<symbol id="icon-header-detail03" viewBox="0 0 21 20">
        <title>Page 1</title><path d="M19.816 9.54c-.23.273-.67.312-.943.08l-.143-.123c-.125-.107-.3-.13-.45-.06-.15.068-.245.22-.245.385v8.742c0 .144-.117.26-.26.26h-4.598v-7.12c0-.235-.19-.426-.423-.426h-4.69c-.233 0-.422.19-.422.426v7.12h-4.6c-.14 0-.258-.116-.258-.26V9.822c0-.166-.096-.317-.245-.386-.15-.07-.326-.046-.45.06l-.144.123c-.273.233-.712.195-.943-.08-.116-.138-.17-.312-.157-.492.015-.18.1-.343.235-.458L9.977 1c.243-.207.625-.207.866 0l8.896 7.59c.136.116.22.278.234.458.015.18-.04.354-.156.49m.467-1.598L11.387.35c-.546-.466-1.41-.466-1.957 0L.536 7.94c-.31.263-.497.63-.53 1.038-.034.406.09.8.352 1.112.382.455 1.02.644 1.58.478v7.996c0 .613.496 1.112 1.105 1.112h5.02c.235 0 .424-.19.424-.425v-7.12h3.845v7.12c0 .236.19.426.422.426h5.02c.61 0 1.106-.5 1.106-1.112v-7.996c.56.165 1.198-.024 1.58-.478.262-.31.387-.706.353-1.112-.033-.407-.22-.775-.53-1.038" fill="#FFF" fill-rule="evenodd"/>
</symbol>
</svg>