<?xml version="1.0" encoding="UTF-8" standalone="no"?>
<svg width="15px" height="12px" viewBox="0 0 15 12" version="1.1" xmlns="http://www.w3.org/2000/svg" xmlns:xlink="http://www.w3.org/1999/xlink">
    <!-- Generator: Sketch 3.8.3 (29802) - http://www.bohemiancoding.com/sketch -->
    <title>已读</title>
    <desc>Created with Sketch.</desc>
    <defs>
        <polygon id="path-1" points="7.49903328 11.0194903 14.998066 11.0194903 14.998066 0.0210044978 7.49903328 0.0210044978 6.01619417e-07 0.0210044978 6.01619417e-07 11.0194903 7.49903328 11.0194903"></polygon>
    </defs>
    <g id="Page-1" stroke="none" stroke-width="1" fill="none" fill-rule="evenodd">
        <g id="新增趣文组件（小编推荐）" transform="translate(-280.000000, -386.000000)">
            <g id="吃货趴-copy-2" transform="translate(0.000000, 15.000000)">
                <g id="Group-16" transform="translate(12.000000, 65.000000)">
                    <g id="已读" transform="translate(268.000000, 306.000000)">
                        <g id="Group-3" transform="translate(0.000000, 0.001484)">
                            <mask id="mask-2" fill="white">
                                <use xlink:href="#path-1"></use>
                            </mask>
                            <g id="Clip-2"></g>
                            <path d="M13.9883703,5.55895052 C13.9878306,5.56113193 13.9866837,5.56376312 13.9856492,5.56596702 C13.9839625,5.57255622 13.9813313,5.58011244 13.9796672,5.58775862 C12.749015,8.24001499 10.1505967,10.0196177 7.4993973,10.0196177 C4.85476462,10.0196177 2.2610015,8.24494003 1.01813793,5.58344078 C1.01507946,5.57413043 1.01296552,5.56544978 1.00970465,5.55674663 C1.00909745,5.54804348 1.00752324,5.54102699 1.00698351,5.53610195 C1.00585907,5.53065967 1.0048021,5.52301349 1.00401499,5.51651424 L1.00401499,5.50965517 C1.00698351,5.49850075 1.00909745,5.48734633 1.01024438,5.47513493 C1.01244828,5.46863568 1.01402249,5.4624063 1.01647376,5.45527736 C2.24764318,2.80169415 4.84826537,1.02121439 7.4993973,1.02121439 C10.1516537,1.02121439 12.7517361,2.80326837 13.97906,5.45282609 C13.9801844,5.4579985 13.9812414,5.4624063 13.9829055,5.46591454 C13.9839625,5.4702099 13.9850195,5.47461769 13.9872234,5.47927286 C13.9899445,5.49910795 13.9921484,5.51871814 13.9948696,5.52845577 C13.9916087,5.53882309 13.9899445,5.54858321 13.9883703,5.55895052 M14.9980705,5.52195652 C14.9980705,5.43182159 14.9828681,5.35655172 14.9784828,5.34757871 C14.9752219,5.30296102 14.960042,5.22161919 14.9458966,5.17891304 C14.9421184,5.16827586 14.9371934,5.15712144 14.9328081,5.14650675 C14.9251619,5.121994 14.917066,5.09808846 14.9078456,5.07904048 C13.5247871,2.05412294 10.5472309,0.0210044978 7.4993973,0.0210044978 C4.45217091,0.0210044978 1.47486207,2.05218891 0.0981229385,5.06084708 C0.0815262369,5.09343328 0.069832084,5.12471514 0.0624557721,5.15194903 C0.0592173913,5.16089955 0.0554392804,5.16933283 0.0524482759,5.17724888 C0.0252143928,5.25701649 0.0246971514,5.31245127 0.0268785607,5.29803598 C0.01405997,5.35655172 0.00236581709,5.47293103 0.00236581709,5.47293103 C-0.000872563718,5.507991 -0.000872563718,5.53601199 0.00290554723,5.57089205 C0.00290554723,5.57089205 0.0145772114,5.6726087 0.0203793103,5.69325337 C0.021976012,5.72206147 0.0290824588,5.76398051 0.0375157421,5.80209895 L0.0369085457,5.80209895 C0.0442848576,5.83468516 0.0542923538,5.86632684 0.068167916,5.89731634 C0.0752968516,5.92122189 0.0837301349,5.94353073 0.0911064468,5.9603973 C1.47591904,8.98583208 4.45277811,11.0194903 7.4993973,11.0194903 C10.5477481,11.0194903 13.5253268,8.98751874 14.8925757,5.99413043 C14.9137376,5.95495502 14.9273658,5.91796102 14.9366762,5.88582459 C14.9409715,5.87606447 14.9448396,5.86736132 14.9475607,5.85868066 C14.9714438,5.78901049 14.9763688,5.72865067 14.9741874,5.72865067 L14.9736477,5.7291904 C14.9834078,5.6807946 14.9980705,5.6084033 14.9980705,5.52195652" id="Fill-1" fill="#999999" mask="url(#mask-2)"></path>
                        </g>
                        <path d="M7.49939505,7.02175412 C6.67302324,7.02175412 5.99948501,6.34875562 5.99948501,5.52177661 C5.99948501,4.69504498 6.67302324,4.02213643 7.49939505,4.02213643 C8.32637406,4.02213643 8.99937256,4.69513493 8.99937256,5.52177661 C8.99937256,6.34875562 8.32637406,7.02175412 7.49939505,7.02175412 M7.49939505,3.02208396 C6.12132909,3.02208396 4.99945502,4.14337331 4.99945502,5.52177661 C4.99945502,6.89982009 6.12132909,8.02171664 7.49939505,8.02171664 C8.87752849,8.02171664 9.99933508,6.89982009 9.99933508,5.52177661 C9.99933508,4.14337331 8.87752849,3.02208396 7.49939505,3.02208396" id="Fill-4" fill="#999999"></path>
                    </g>
                </g>
            </g>
        </g>
    </g>
</svg>