<?xml version="1.0" encoding="UTF-8" standalone="no"?>
<svg width="19px" height="15px" viewBox="0 0 19 15" version="1.1" xmlns="http://www.w3.org/2000/svg" xmlns:xlink="http://www.w3.org/1999/xlink" xmlns:sketch="http://www.bohemiancoding.com/sketch/ns">
    <!-- Generator: Sketch 3.3.2 (12043) - http://www.bohemiancoding.com/sketch -->
    <title>Shape Copy 2</title>
    <desc>Created with Sketch.</desc>
    <defs></defs>
    <g id="首页" stroke="none" stroke-width="1" fill="none" fill-rule="evenodd" sketch:type="MSPage">
        <g id="HOME" sketch:type="MSArtboardGroup" transform="translate(-278.000000, -1623.000000)" fill="#DCDCDC">
            <g id="Rectangle-37-+-每日必看-+-List-+-List-Copy" sketch:type="MSLayerGroup" transform="translate(0.000000, 1495.000000)">
                <g id="List-Copy-3" transform="translate(0.000000, 35.000000)" sketch:type="MSShapeGroup">
                    <g id="Rectangle-15-+-查看物流-Copy-4" transform="translate(271.000000, 83.000000)">
                        <path d="M25.3338328,10.2666667 L23.4039716,10.2666667 C23.3303232,10.2666667 20.4427599,12.9160351 20.4427599,12.9160351 C20.4094817,12.9492196 20.384114,12.9869907 20.3631105,13.0263805 L15.1185252,13.0263805 L13.8135845,13.0263805 L7.99645095,13.0263805 C7.4086275,13.0263805 7.07148144,13.4807121 7.24605545,14.0354067 L9.16091418,20.1076404 C9.33630651,20.6626049 9.96013584,21.1166667 10.5476865,21.1166667 L13.8135845,21.1166667 L15.1185252,21.1166667 L18.3838776,21.1166667 C18.9717011,21.1166667 19.5958032,20.6623351 19.7703772,20.1076404 L21.6675057,14.093682 L23.769486,12.0141167 L25.3338328,12.0141167 C25.5899656,12.0141167 25.8,11.8069156 25.8,11.55331 L25.8,10.7269337 C25.8,10.4738678 25.5899656,10.2666667 25.3338328,10.2666667 L25.3338328,10.2666667 Z M10.3,24.7333333 C10.9848331,24.7333333 11.54,24.1935877 11.54,23.5277778 C11.54,22.8619678 10.9848331,22.3222222 10.3,22.3222222 C9.61516691,22.3222222 9.06,22.8619678 9.06,23.5277778 C9.06,24.1935877 9.61516691,24.7333333 10.3,24.7333333 Z M17.74,24.7333333 C18.4248331,24.7333333 18.98,24.1935877 18.98,23.5277778 C18.98,22.8619678 18.4248331,22.3222222 17.74,22.3222222 C17.0551669,22.3222222 16.5,22.8619678 16.5,23.5277778 C16.5,24.1935877 17.0551669,24.7333333 17.74,24.7333333 Z" id="Shape-Copy-2" transform="translate(16.500000, 17.500000) scale(-1, 1) translate(-16.500000, -17.500000) "></path>
                    </g>
                </g>
            </g>
        </g>
    </g>
</svg>