<svg xmlns="http://www.w3.org/2000/svg" xmlns:xlink="http://www.w3.org/1999/xlink" preserveAspectRatio="xMidYMid" width="29" height="24" viewBox="0 0 29 24">
  <defs>
    <style>
      .cls-2 {
        fill: #aaa;
        fill-rule: evenodd;
      }
    </style>
  </defs>
  <path d="M27.000,24.000 L2.000,24.000 C0.895,24.000 -0.000,23.104 -0.000,22.000 L-0.000,6.000 C-0.000,4.895 0.895,4.000 2.000,4.000 L8.062,4.000 C8.062,4.000 8.000,3.881 8.000,2.500 C8.000,1.119 9.119,-0.000 10.500,-0.000 L18.500,-0.000 C19.881,-0.000 21.000,1.119 21.000,2.500 C21.000,3.881 21.062,4.000 21.062,4.000 L27.000,4.000 C28.104,4.000 28.999,4.895 28.999,6.000 L28.999,22.000 C28.999,23.104 28.104,24.000 27.000,24.000 ZM14.545,19.973 C17.858,19.973 20.545,17.287 20.545,13.973 C20.545,10.659 17.858,7.973 14.545,7.973 C11.231,7.973 8.545,10.659 8.545,13.973 C8.545,17.287 11.231,19.973 14.545,19.973 Z" class="cls-2"/>
</svg>
