<?xml version="1.0" encoding="UTF-8" standalone="no"?>
<svg width="26px" height="26px" viewBox="0 0 26 26" version="1.1" xmlns="http://www.w3.org/2000/svg" xmlns:xlink="http://www.w3.org/1999/xlink">
    <!-- Generator: Sketch 3.8.3 (29802) - http://www.bohemiancoding.com/sketch -->
    <title>Group 5</title>
    <desc>Created with Sketch.</desc>
    <defs></defs>
    <g id="Page-1" stroke="none" stroke-width="1" fill="none" fill-rule="evenodd">
        <g id="TOP排行榜" transform="translate(-12.000000, -284.000000)">
            <g id="热搜词" transform="translate(0.000000, 239.000000)">
                <g id="Group-2" transform="translate(12.000000, 45.000000)">
                    <g id="Group-5">
                        <path d="M0,4.99767164 C0,2.23753381 2.23924844,0 4.99767164,0 L26,0 L0,26 L0,4.99767164 Z" id="Rectangle-145" fill="#F40F25"></path>
                        <path d="M4.95418726,10.8916824 L4.95418726,10.8994949 L4.95418726,5.33698963 L3.75106111,5.33698963 L3.75106111,7.55574175 L1.57918404,7.55574175 L1.57918404,5.33698963 L0.376057891,5.33698963 L0.376057891,10.8994949 L1.57918404,10.8994949 L1.57918404,8.63386778 L3.75106111,8.63386778 L3.75106111,10.8994949 L4.95418726,10.8994949 L4.95418726,10.8916824 Z M8.56356041,5.20417701 C8.05574743,5.20417701 7.57918447,5.33698963 7.14168405,5.59480238 C6.69637113,5.85261512 6.3526208,6.21199047 6.10262056,6.65730339 C5.84480782,7.10261632 5.7198077,7.58699178 5.7198077,8.11042978 C5.7198077,8.91511804 6.00105797,9.59480619 6.55574599,10.1651192 C7.11043402,10.7354323 7.78230966,11.0166825 8.57137292,11.0166825 C9.08699841,11.0166825 9.57137387,10.8838699 10.0166868,10.6260572 C10.4619997,10.3682444 10.80575,10.0088691 11.0635628,9.56355616 C11.3213755,9.11824324 11.4463757,8.63386778 11.4463757,8.11042978 C11.4463757,7.30574151 11.1651254,6.62605336 10.6104374,6.06355282 C10.0479368,5.49323978 9.36824868,5.21198951 8.57137292,5.21198951 L8.56356041,5.20417701 Z M8.56356041,9.84480643 L8.56356041,9.85261894 C8.09480996,9.85261894 7.7119971,9.68855628 7.40730931,9.35261846 C7.10262152,9.01668064 6.95418387,8.61043025 6.95418387,8.11824228 C6.95418387,7.62605431 7.11043402,7.21980393 7.41512181,6.88386611 C7.7198096,6.54792829 8.11043498,6.38386563 8.57137292,6.38386563 C9.04012336,6.38386563 9.43074874,6.54792829 9.74324903,6.88386611 C10.0557493,7.21980393 10.2119995,7.62605431 10.2119995,8.11824228 C10.2119995,8.61043025 10.0557493,9.01668064 9.74324903,9.35261846 C9.43074874,9.68855628 9.04012336,9.85261894 8.57137292,9.85261894 L8.56356041,9.84480643 Z M15.8526239,6.39167814 L15.8526239,6.39949065 L15.8526239,5.32917712 L11.79012,5.32917712 L11.79012,6.39949065 L13.2198089,6.39949065 L13.2198089,10.8994949 L14.422935,10.8994949 L14.422935,6.39949065 L15.8604364,6.39949065 L15.8526239,6.39167814 Z" id="HOT" fill="#FFFFFF" transform="translate(8.169026, 8.110430) rotate(-45.000000) translate(-8.169026, -8.110430) "></path>
                    </g>
                </g>
            </g>
        </g>
    </g>
</svg>