<?xml version="1.0" encoding="UTF-8" standalone="no"?>
<svg width="14px" height="14px" viewBox="0 0 14 14" version="1.1" xmlns="http://www.w3.org/2000/svg" xmlns:xlink="http://www.w3.org/1999/xlink" xmlns:sketch="http://www.bohemiancoding.com/sketch/ns">
    <!-- Generator: Sketch 3.4.4 (17249) - http://www.bohemiancoding.com/sketch -->
    <title>tag</title>
    <desc>Created with Sketch.</desc>
    <defs></defs>
    <g id="海淘发现视觉" stroke="none" stroke-width="1" fill="none" fill-rule="evenodd" sketch:type="MSPage">
        <g id="Artboard-25" sketch:type="MSArtboardGroup" transform="translate(-215.000000, -32.000000)">
            <g id="tag" sketch:type="MSLayerGroup" transform="translate(212.000000, 29.000000)">
                <rect id="Rectangle-536" fill-opacity="0" fill="#FFFFFF" sketch:type="MSShapeGroup" x="0" y="0" width="20" height="20"></rect>
                <g id="noun_129113_cc-copy" transform="translate(3.000000, 3.000000)" fill="#9B9B9B" sketch:type="MSShapeGroup">
                    <path d="M13.8420625,1.08171875 C13.8201875,0.57575 13.3888125,0.147 12.8828438,0.12884375 L9.321375,0.000874999999 C8.815625,-0.01728125 8.10884375,0.26075 7.75075,0.618625 L0.27278125,8.09878125 C-0.0853125,8.45709375 -0.08509375,9.04290625 0.27278125,9.40078125 L4.60315625,13.731375 C4.96125,14.0894687 5.54684375,14.0894687 5.9049375,13.731375 L13.3833438,6.25121875 C13.741,5.893125 14.016625,5.18634375 13.99475,4.680375 L13.8420625,1.08171875 L13.8420625,1.08171875 Z M12.403125,2.932125 C12.0351875,3.30071875 11.438,3.30071875 11.069625,2.932125 C10.7008125,2.56375 10.7008125,1.9665625 11.0691875,1.5981875 C11.4375625,1.2298125 12.03475,1.2298125 12.403125,1.5981875 C12.7715,1.9665625 12.7719375,2.56396875 12.403125,2.932125 L12.403125,2.932125 Z" id="Shape"></path>
                </g>
            </g>
        </g>
    </g>
</svg>