<?xml version="1.0" encoding="utf-8"?>
<!-- Generator: Adobe Illustrator 17.0.2, SVG Export Plug-In . SVG Version: 6.00 Build 0)  -->
<!DOCTYPE svg PUBLIC "-//W3C//DTD SVG 1.1//EN" "http://www.w3.org/Graphics/SVG/1.1/DTD/svg11.dtd">
<svg version="1.1" id="Layer_1" xmlns="http://www.w3.org/2000/svg" xmlns:xlink="http://www.w3.org/1999/xlink" x="0px" y="0px"
	 width="56.693px" height="56.693px" viewBox="0 0 56.693 56.693" enable-background="new 0 0 56.693 56.693" xml:space="preserve">
<g>
	<path d="M27.7,40.919H12.452c-0.547,0-0.99,0.443-0.99,0.99c0,0.547,0.443,0.99,0.99,0.99H27.7c0.547,0,0.99-0.443,0.99-0.99
		C28.69,41.362,28.246,40.919,27.7,40.919z"/>
	<path d="M27.7,33.989H12.452c-0.547,0-0.99,0.443-0.99,0.99c0,0.547,0.443,0.99,0.99,0.99H27.7c0.547,0,0.99-0.443,0.99-0.99
		C28.69,34.432,28.246,33.989,27.7,33.989z"/>
	<path d="M27.7,27.059H12.452c-0.547,0-0.99,0.443-0.99,0.99c0,0.547,0.443,0.99,0.99,0.99H27.7c0.547,0,0.99-0.443,0.99-0.99
		C28.69,27.502,28.246,27.059,27.7,27.059z"/>
	<path d="M12.452,22.109h5.601c0.547,0,0.99-0.443,0.99-0.99c0-0.547-0.443-0.99-0.99-0.99h-5.601c-0.547,0-0.99,0.443-0.99,0.99
		C11.462,21.666,11.906,22.109,12.452,22.109z"/>
	<path d="M29.55,5.249c-0.495-0.49-1.153-0.759-1.85-0.759c0,0,0,0-0.001,0H6.329c-1.453,0-2.635,1.182-2.635,2.635v44.027
		c0,1.454,1.182,2.636,2.635,2.636h28.268c1.454,0,2.637-1.183,2.637-2.636V13.925c0-0.7-0.286-1.384-0.786-1.877L29.55,5.249z
		 M34.528,12.935h-5.83l-0.006-5.752L34.528,12.935z M34.597,51.809H6.329c-0.362,0-0.655-0.294-0.655-0.656V7.125
		c0-0.362,0.294-0.656,0.655-0.656h20.382l0.008,7.456c0,0.546,0.444,0.989,0.99,0.989h7.546v36.237
		C35.255,51.515,34.96,51.809,34.597,51.809z"/>
	<path d="M52.574,5.341c-0.361-0.534-0.903-0.845-1.5-0.853L44.179,4.49c-0.587,0.001-1.134,0.312-1.5,0.856
		c-0.292,0.434-0.451,0.989-0.45,1.561l0,32.006c0,0.282,0.039,0.561,0.116,0.829l3.446,12.011c0.274,0.965,0.994,1.588,1.836,1.588
		l0.001-0.665c0,0,0,0,0.001,0v0.665h0c0.586,0,1.133-0.311,1.497-0.85c0.147-0.217,0.262-0.465,0.339-0.735l3.449-12.02
		c0.076-0.272,0.114-0.553,0.111-0.824l0-31.828L53.026,6.9C53.023,6.323,52.863,5.769,52.574,5.341z M44.314,6.47l6.631-0.001
		c0.048,0.082,0.1,0.238,0.101,0.43l-0.001,31.025h-6.836l0.001-29.59l0-1.43C44.209,6.722,44.252,6.577,44.314,6.47z
		 M48.369,48.394h-1.483l-2.436-8.491h6.355L48.369,48.394z"/>
</g>
</svg>
