<?xml version="1.0" encoding="UTF-8" standalone="no"?>
<svg width="30px" height="28px" viewBox="0 0 30 28" version="1.1" xmlns="http://www.w3.org/2000/svg" xmlns:xlink="http://www.w3.org/1999/xlink">
    <!-- Generator: Sketch 3.8.1 (29687) - http://www.bohemiancoding.com/sketch -->
    <title>Combined Shape Copy 4</title>
    <desc>Created with Sketch.</desc>
    <defs></defs>
    <g id="视觉稿-v4" stroke="none" stroke-width="1" fill="none" fill-rule="evenodd">
        <g id="规则页" transform="translate(-61.000000, -549.000000)" fill="#BFDDF5">
            <path d="M72.38375,556.20375 L79.616875,556.20375 L76,549.92875 L72.38375,556.20375 Z M69.964375,556.20375 L66.26125,549.778125 L61.703125,556.20375 L69.964375,556.20375 Z M84.5975,549.041875 L77.04375,549.023125 L80.82625,555.585625 L84.5975,549.041875 Z M76,576.221875 L80.040625,557.560625 L71.959375,557.560625 L76,576.221875 Z M82.035,556.20375 L90.296875,556.20375 L85.73875,549.7775 L82.035,556.20375 Z M81.429375,557.560625 L77.221875,576.99125 L91,557.560625 L81.429375,557.560625 Z M71.174375,555.585625 L74.959375,549.018125 L67.37875,549 L71.174375,555.585625 Z M70.570625,557.560625 L61,557.560625 L74.778125,576.99125 L70.570625,557.560625 Z" id="Combined-Shape-Copy-4"></path>
        </g>
    </g>
</svg>