<svg xmlns="http://www.w3.org/2000/svg" xmlns:xlink="http://www.w3.org/1999/xlink" width="0" height="0" style="position:absolute">

<symbol id="icon-love-gray" viewBox="0 0 18 17">
        <title>Shape</title><path d="M12.703 1.766c2.24 0 4.064 1.903 4.064 4.242 0 5.052-6.015 8.968-7.518 9.867-1.505-.898-7.517-4.807-7.517-9.867 0-2.34 1.823-4.242 4.064-4.242 1.11 0 2.145.458 2.918 1.29l.518.56.014-.015.017.02.52-.563c.774-.833 1.81-1.29 2.92-1.29zm0-.766c-1.352 0-2.573.585-3.445 1.524l-.008-.008-.008.008C8.37 1.584 7.15 1 5.797 1 3.147 1 1 3.242 1 6.008 1 12.295 9.25 16.75 9.25 16.75s8.25-4.455 8.25-10.742C17.5 3.242 15.352 1 12.703 1z" stroke="#979DA9" stroke-width=".3" fill="#979DA9" fill-rule="evenodd"/>
</symbol>

<symbol id="icon-love-red" viewBox="0 0 18 17">
        <title>Shape</title><path d="M12.703.5c-1.352 0-2.573.585-3.445 1.524l-.008-.008-.008.008C8.37 1.084 7.15.5 5.797.5 3.147.5 1 2.742 1 5.508 1 11.795 9.25 16.25 9.25 16.25s8.25-4.455 8.25-10.742C17.5 2.742 15.352.5 12.703.5z" stroke="#F13C34" stroke-width=".3" fill="#F13C34" fill-rule="evenodd"/>
</symbol>
</svg>