<?xml version="1.0" encoding="UTF-8" standalone="no"?>
<svg width="117px" height="36px" viewBox="0 0 117 36" version="1.1" xmlns="http://www.w3.org/2000/svg" xmlns:xlink="http://www.w3.org/1999/xlink">
    <!-- Generator: Sketch 3.8.2 (29753) - http://www.bohemiancoding.com/sketch -->
    <title>正在闪购logo</title>
    <desc>Created with Sketch.</desc>
    <defs>
        <polygon id="path-1" points="116.86772 17.8644375 116.86772 35.55 0 35.55 0 0.178875 116.86772 0.178875"></polygon>
    </defs>
    <g id="Page-1" stroke="none" stroke-width="1" fill="none" fill-rule="evenodd">
        <g id="首页" transform="translate(-13.000000, -434.000000)">
            <g id="闪购" transform="translate(0.000000, 429.000000)">
                <g id="titlebar">
                    <g id="正在闪购logo" transform="translate(13.000000, 5.000000)">
                        <g id="Group-3" transform="translate(0.000000, 0.271125)">
                            <mask id="mask-2" fill="white">
                                <use xlink:href="#path-1"></use>
                            </mask>
                            <g id="Clip-2"></g>
                            <path d="M116.86772,0.178875 L94.6023582,3.047625 L94.4561082,3.066525 L87.3671306,10.219725 L7.01694403,9.997425 C4.5935597,9.990675 2.50458582,11.752875 2.03134701,14.202675 L0.0742164179,24.333975 C-0.392910448,26.752725 1.40225373,29.007675 3.79464179,29.007675 L81.6507201,29.007675 L77.1300672,35.550225 L108.650653,17.069175 L102.170687,12.298275 L116.86772,0.178875 Z" id="Fill-1" fill="#231814" mask="url(#mask-2)"></path>
                        </g>
                        <polygon id="Fill-4" fill="#FFFFFF" points="24.4671448 12.397095 24.1405925 14.305095 17.3943201 14.305095 16.7193873 18.248895 22.8492269 18.248895 22.5226746 20.156895 16.3932716 20.156895 15.5480776 25.096995 22.5004097 25.096995 22.1738575 27.004995 2.6130291 27.004995 2.93958134 25.096995 4.66707761 25.096995 6.10338358 16.701345 9.8059097 16.701345 8.36960373 25.096995 11.8455515 25.096995 13.691794 14.305095 4.97049179 14.305095 5.29704403 12.397095"></polygon>
                        <path d="M35.5244743,18.821205 L36.0540302,15.725655 L39.7565563,15.725655 L39.2270004,18.821205 L43.6079519,18.821205 L43.2813996,20.729655 L38.9004481,20.729655 L38.1495526,25.118505 L42.880631,25.118505 L42.5540787,27.026505 L29.4313063,27.026505 L29.757422,25.118505 L34.4474631,25.118505 L35.197922,20.729655 L30.8580078,20.729655 L31.1845601,18.821205 L35.5244743,18.821205 Z M28.5036011,14.813955 L25.7265974,14.813955 L26.0527131,12.905955 L29.7971496,12.905955 L30.3987392,12.037005 L34.1034481,12.037005 L33.5223772,12.905955 L45.1232765,12.905955 L44.7967243,14.813955 L32.2318847,14.813955 L29.698922,18.588105 L30.3603213,18.588105 L28.8877802,27.196155 L25.1852541,27.196155 L26.2408735,21.026205 L24.2457616,21.026205 L28.5036011,14.813955 Z" id="Fill-6" fill="#FFFFFF"></path>
                        <path d="M51.370116,12.52449 L65.6650713,12.52449 L63.4604071,25.41249 L62.903784,27.21699 L59.0999743,27.21699 L59.7687951,25.35174 L61.6364295,14.43249 L51.0435638,14.43249 L51.370116,12.52449 Z M54.3151981,22.36194 L51.9983362,25.56324 L48.3578026,25.56324 L53.1059071,18.96984 L53.7659966,15.11109 L57.3654929,15.11109 L56.7054034,18.96984 L59.1977653,25.56324 L55.5567951,25.56324 L54.3151981,22.36194 Z M49.6221011,15.76809 L47.6636608,27.21699 L43.9611347,27.21699 L45.919575,15.76809 L49.6221011,15.76809 Z M50.1429257,12.12129 L50.083116,14.87799 L46.3827728,14.87799 L46.4408362,12.12129 L50.1429257,12.12129 Z" id="Fill-8" fill="#FFFFFF"></path>
                        <path d="M81.1464851,19.902375 L80.6627687,25.012125 L72.7233582,25.012125 L75.1314627,17.188875 L78.7514776,17.188875 L76.9785784,23.104125 L77.7805522,23.104125 L78.1228209,19.902375 L81.1464851,19.902375 Z M75.7657948,12.036825 L79.6329067,12.036825 L79.2116194,13.054725 L86.657709,13.054725 L84.594056,25.118325 L83.8077985,27.174825 L79.9022687,27.174825 L80.9426082,24.821325 L82.6290672,14.962275 L78.4533022,14.962275 L77.8813993,16.383375 L74.0762799,16.383375 L75.7657948,12.036825 Z M68.5925597,14.771475 L71.6777799,14.771475 L70.3213657,22.700925 L70.6361306,23.506425 L72.2536119,14.051025 L68.2633881,14.051025 L66.6459067,23.506425 L67.2361455,22.700925 L68.5925597,14.771475 Z M74.5185224,12.354525 L72.5675037,23.761125 L70.7369776,23.761125 L72.1117276,27.195975 L68.9579664,27.195975 L68.3035522,25.478325 L67.0637015,27.195975 L63.9164888,27.195975 L66.4581828,23.761125 L64.6276567,23.761125 L66.5791119,12.354525 L74.5185224,12.354525 Z" id="Fill-10" fill="#FFFFFF"></path>
                        <polygon id="Fill-12" fill="#FFEC00" points="95.0567373 5.688495 109.026887 3.888495 98.1127075 12.888495 104.224648 17.388495 81.0865881 31.788495 93.7470358 17.838495 88.0716627 13.338495"></polygon>
                    </g>
                </g>
            </g>
        </g>
    </g>
</svg>