<?xml version="1.0" encoding="UTF-8" standalone="no"?>
<svg width="60px" height="79px" viewBox="0 0 60 79" version="1.1" xmlns="http://www.w3.org/2000/svg" xmlns:xlink="http://www.w3.org/1999/xlink">
    <!-- Generator: Sketch 3.7 (28169) - http://www.bohemiancoding.com/sketch -->
    <title>Group 3</title>
    <desc>Created with Sketch.</desc>
    <defs>
        <polygon id="path-1" points="52.8169254 0.248452555 0.000179661017 0.248452555 0.000179661017 51.6036409 52.8169254 51.6036409 52.8169254 0.248452555"></polygon>
    </defs>
    <g id="Page-1" stroke="none" stroke-width="1" fill="none" fill-rule="evenodd">
        <g id="没有评价" transform="translate(-154.000000, -250.000000)">
            <g id="Group-3" transform="translate(154.000000, 250.000000)">
                <g id="Group-2" transform="translate(8.000000, 75.000000)" fill="#F0F0F0">
                    <ellipse id="Oval-135" cx="25.9728261" cy="1.75308642" rx="25.9728261" ry="1.75308642"></ellipse>
                </g>
                <g id="Page-1" transform="translate(7.000000, 4.000000)">
                    <path d="M38.6626466,61.7400526 C36.5170449,61.7400526 34.771189,59.9800672 34.771189,57.8182131 L34.771189,50.8760234 C34.771189,50.323454 35.21585,49.8745197 35.7647144,49.8745197 C36.3135788,49.8745197 36.7582398,50.323454 36.7582398,50.8760234 L36.7582398,57.8182131 C36.7582398,58.8762861 37.612528,59.7370453 38.6626466,59.7370453 C39.7132144,59.7370453 40.5684008,58.8762861 40.5684008,57.8182131 C40.5684008,57.2647387 41.0130619,56.8167095 41.5619263,56.8167095 C42.1107907,56.8167095 42.5554517,57.2647387 42.5554517,57.8182131 C42.5554517,59.9800672 40.8091466,61.7400526 38.6626466,61.7400526" id="Fill-1" fill="#CCCCCC"></path>
                    <path d="M23.289278,61.7515474 C22.7404136,61.7515474 22.2953034,61.3044234 22.2953034,60.7509489 L22.2953034,52.5741898 C22.2953034,52.0207153 22.7404136,51.5726861 23.289278,51.5726861 C23.8376932,51.5726861 24.2828034,52.0207153 24.2828034,52.5741898 L24.2828034,60.7509489 C24.2828034,61.3044234 23.8376932,61.7515474 23.289278,61.7515474" id="Fill-3" fill="#CCCCCC"></path>
                    <path d="M29.5269737,61.7515474 C28.9781093,61.7515474 28.5329992,61.3044234 28.5329992,60.7509489 L28.5329992,52.5741898 C28.5329992,52.0207153 28.9781093,51.5726861 29.5269737,51.5726861 C30.075389,51.5726861 30.5204992,52.0207153 30.5204992,52.5741898 L30.5204992,60.7509489 C30.5204992,61.3044234 30.075389,61.7515474 29.5269737,61.7515474" id="Fill-5" fill="#CCCCCC"></path>
                    <path d="M14.2526881,61.7400526 C12.1614339,61.7400526 10.4604932,60.0253226 10.4604932,57.9191328 C10.4604932,57.3656584 10.9051542,56.9176292 11.4535695,56.9176292 C12.0024339,56.9176292 12.4470949,57.3656584 12.4470949,57.9191328 C12.4470949,58.9210891 13.2569169,59.7370453 14.2526881,59.7370453 C15.2484593,59.7370453 16.0587305,58.9210891 16.0587305,57.9191328 L16.0587305,50.8769285 C16.0587305,50.323454 16.5038407,49.8754248 17.0518068,49.8754248 C17.6006712,49.8754248 18.0457814,50.323454 18.0457814,50.8769285 L18.0457814,57.9191328 C18.0457814,60.0253226 16.3439424,61.7400526 14.2526881,61.7400526" id="Fill-7" fill="#CCCCCC"></path>
                    <g id="Group-11" transform="translate(0.000000, 0.204102)">
                        <mask id="mask-2" fill="white">
                            <use xlink:href="#path-1"></use>
                        </mask>
                        <g id="Clip-10"></g>
                        <path d="M36.1304593,51.6036409 L35.3983407,49.7422832 C44.7721542,46.0005606 50.8298746,37.0178015 50.8298746,26.8561372 C50.8298746,13.2894511 39.8745949,2.25028321 26.4085525,2.25028321 C12.9425102,2.25028321 1.98723051,13.2894511 1.98723051,26.8561372 C1.98723051,37.0168964 8.04405254,46.0005606 17.4178661,49.7413781 L16.6852983,51.6027358 C11.820078,49.6617285 7.66811186,46.3336409 4.67855254,41.9814219 C1.61757797,37.5260204 0.000179661017,32.2949401 0.000179661017,26.8561372 C0.000179661017,12.1843124 11.8474763,0.248181022 26.4085525,0.248181022 C40.970078,0.248181022 52.8169254,12.1843124 52.8169254,26.8561372 C52.8169254,32.2958453 51.199078,37.5260204 48.1381034,41.9814219 C45.1489932,46.334546 40.996578,49.6617285 36.1304593,51.6036409" id="Fill-9" fill="#CCCCCC" mask="url(#mask-2)"></path>
                    </g>
                    <path d="M44.4156619,32.7111547 C40.8224415,32.7111547 38.1248314,29.8582496 38.1248314,26.2378117 L40.3705941,26.2378117 C40.3705941,28.5005854 42.1698992,30.448381 44.4156619,30.448381 L44.4156619,32.7111547 Z" id="Fill-12" fill="#CCCCCC"></path>
                    <path d="M8.48345847,32.7116073 L8.48345847,30.4488336 C10.7292212,30.4488336 12.5253822,28.5005854 12.5253822,26.2378117 L14.7711449,26.2378117 C14.7711449,29.8582496 12.0766788,32.7116073 8.48345847,32.7116073" id="Fill-14" fill="#CCCCCC"></path>
                    <path d="M34.3382508,42.7270058 C32.7019881,42.7270058 31.8688102,41.7028745 31.2602085,40.955254 C30.6920305,40.2560569 30.4458949,40.0116774 29.9194881,40.0116774 C29.3944288,40.0116774 29.1487424,40.2560569 28.5805644,40.9548015 C27.9724119,41.7024219 27.1396831,42.7270058 25.5038695,42.7270058 C23.8680559,42.7270058 23.0353271,41.7028745 22.4267254,40.955254 C21.8585475,40.2560569 21.612861,40.0116774 21.0869034,40.0116774 C20.5618441,40.0116774 20.3161576,40.2560569 19.7479797,40.9548015 C19.1398271,41.7024219 18.3070983,42.7270058 16.6712847,42.7270058 C15.0359203,42.7270058 14.1129119,41.7024219 13.5052085,40.9548015 C12.9374797,40.2560569 12.9752085,40.0116774 12.0769034,40.0116774 L12.0769034,37.7489036 C13.8735136,37.7489036 14.6348271,38.7734876 15.2429797,39.521108 C15.8102593,40.2198526 16.1013102,40.4642321 16.6263695,40.4642321 C17.151878,40.4642321 17.420022,40.2198526 17.9882,39.5206555 C18.5963525,38.773035 19.4403102,37.7489036 21.0756746,37.7489036 C22.7114881,37.7489036 23.5500559,38.773035 24.1582085,39.5206555 C24.7268356,40.2198526 24.9752169,40.4642321 25.5011746,40.4642321 C26.0266831,40.4642321 26.2737169,40.2198526 26.8418949,39.5206555 C27.4500475,38.773035 28.2836746,37.7489036 29.919039,37.7489036 C31.5548525,37.7489036 32.3884797,38.773035 32.9970814,39.5206555 C33.5652593,40.2198526 33.8118441,40.4642321 34.3382508,40.4642321 C34.8642085,40.4642321 35.0205136,40.2198526 35.5886915,39.5206555 C36.1972932,38.773035 37.2294458,37.7489036 38.5769034,37.7489036 L38.5769034,40.0116774 C38.1277508,40.0116774 37.8941915,40.2560569 37.3260136,40.955254 C36.7174119,41.7028745 35.9745136,42.7270058 34.3382508,42.7270058" id="Fill-16" fill="#CCCCCC"></path>
                </g>
                <g id="Page-1" fill="#CCCCCC">
                    <path d="M2.90717308,7.45398519 L5.76923077e-05,7.45398519 L5.76923077e-05,5.67620741 L2.90717308,5.67620741 C4.03332692,5.67620741 4.94948077,4.73576296 4.94948077,3.57902222 L4.94948077,0.592355556 L6.68025,0.592355556 L6.68025,3.57902222 C6.68025,5.71531852 4.98755769,7.45398519 2.90717308,7.45398519" id="Fill-1"></path>
                    <path d="M14.8921154,7.45398519 L11.985,7.45398519 C9.90461538,7.45398519 8.21192308,5.71531852 8.21192308,3.57902222 L8.21192308,0.592355556 L9.94269231,0.592355556 L9.94269231,3.57902222 C9.94269231,4.73576296 10.8588462,5.67620741 11.985,5.67620741 L14.8921154,5.67620741 L14.8921154,7.45398519 Z" id="Fill-4"></path>
                    <path d="M9.94292308,15.9771852 L8.21215385,15.9771852 L8.21215385,12.9911111 C8.21215385,10.8542222 9.90484615,9.11555556 11.9852308,9.11555556 L14.8923462,9.11555556 L14.8923462,10.8933333 L11.9852308,10.8933333 C10.8590769,10.8933333 9.94292308,11.8343704 9.94292308,12.9911111 L9.94292308,15.9771852 Z" id="Fill-7"></path>
                    <path d="M6.67996154,15.9771852 L4.94919231,15.9771852 L4.94919231,12.9911111 C4.94919231,11.8343704 4.03303846,10.8933333 2.90688462,10.8933333 L-0.000230769231,10.8933333 L-0.000230769231,9.11555556 L2.90688462,9.11555556 C4.98726923,9.11555556 6.67996154,10.8542222 6.67996154,12.9911111 L6.67996154,15.9771852 Z" id="Fill-10"></path>
                </g>
            </g>
        </g>
    </g>
</svg>