<?xml version="1.0" encoding="UTF-8" standalone="no"?>
<svg width="66px" height="66px" viewBox="0 0 33 33" version="1.1" xmlns="http://www.w3.org/2000/svg" xmlns:xlink="http://www.w3.org/1999/xlink" xmlns:sketch="http://www.bohemiancoding.com/sketch/ns">
    <!-- Generator: Sketch 3.3.3 (12072) - http://www.bohemiancoding.com/sketch -->
    <title>svg4</title>
    <desc>Created with Sketch.</desc>
    <defs>
        <circle id="path-1" cx="16.5" cy="16.5" r="16.5"></circle>
    </defs>
    <g id="Page-2" stroke="none" stroke-width="1" fill="none" fill-rule="evenodd" sketch:type="MSPage">
        <g id="首页-copy" sketch:type="MSArtboardGroup" transform="translate(-265.000000, -251.000000)">
            <g id="Group-Copy-6" sketch:type="MSLayerGroup" transform="translate(0.000000, 238.000000)">
                <g id="Rectangle-61-Copy-5-+-Bitmap-+-摇优惠-Copy-Copy-Copy-Copy-Copy-Copy" transform="translate(263.000000, 11.000000)">
                    <g id="svg4" transform="translate(2.000000, 2.000000)">
                        <mask id="mask-2" sketch:name="Mask" fill="white">
                            <use xlink:href="#path-1"></use>
                        </mask>
                        <use id="Mask" fill="#F2F2F2" sketch:type="MSShapeGroup" xlink:href="#path-1"></use>
                        <g id="gift" mask="url(#mask-2)" sketch:type="MSShapeGroup">
                            <g transform="translate(4.000000, 8.000000)">
                                <path d="M22.2222222,24.8695652 L2.77777778,24.8695652 C2.01388889,24.8695652 1.38888889,24.2478261 1.38888889,23.4879227 L1.38888889,9.67149758 L23.6111111,9.67149758 L23.6111111,23.4879227 C23.6111111,24.2478261 22.9861111,24.8695652 22.2222222,24.8695652 L22.2222222,24.8695652 Z" id="Shape" fill="#D32F2F"></path>
                                <path d="M25,9.67149758 L0,9.67149758 L0,5.52657005 C0,4.76666667 0.625,4.14492754 1.38888889,4.14492754 L23.6111111,4.14492754 C24.375,4.14492754 25,4.76666667 25,5.52657005 L25,9.67149758 L25,9.67149758 Z" id="Shape" fill="#F44336"></path>
                                <rect id="Rectangle-path" fill="#FF8F00" x="11.1111111" y="9.67149758" width="2.77777778" height="15.1980676"></rect>
                                <path d="M18.0555556,0 L15.2777778,0 L11.1111111,4.14492754 L13.8888889,4.14492754 L18.0555556,0 Z" id="Shape" fill="#FF8F00"></path>
                                <path d="M9.72222222,0 L6.94444444,0 L11.1111111,4.14492754 L11.1111111,9.67149758 L13.8888889,9.67149758 L13.8888889,4.14492754 L9.72222222,0 Z" id="Shape" fill="#FFC107"></path>
                            </g>
                        </g>
                    </g>
                </g>
            </g>
        </g>
    </g>
</svg>