<?xml version="1.0" encoding="utf-8"?>
<!-- Generator: Adobe Illustrator 17.0.0, SVG Export Plug-In . SVG Version: 6.00 Build 0)  -->
<!DOCTYPE svg PUBLIC "-//W3C//DTD SVG 1.1//EN" "http://www.w3.org/Graphics/SVG/1.1/DTD/svg11.dtd">
<svg version="1.1" id="图层_1" xmlns="http://www.w3.org/2000/svg" xmlns:xlink="http://www.w3.org/1999/xlink" x="0px" y="0px"
	 width="1036.803px" height="178.491px" viewBox="0 0 1036.803 178.491" enable-background="new 0 0 1036.803 178.491"
	 xml:space="preserve">
<path fill="#E8F2D4" d="M493.242,63.51c-1.841,0-3.333-1.492-3.333-3.333s1.492-3.333,3.333-3.333h32.863
	c1.841,0,3.333,1.492,3.333,3.333v2.667"/>
<rect x="200.482" y="28.72" fill="#E0685D" width="57.75" height="18.083"/>
<rect x="200.482" y="74.303" fill="#E0685D" width="57.75" height="18.083"/>
<rect x="200.482" y="28.72" fill="none" stroke="#3E3A39" stroke-width="1.5" stroke-miterlimit="10" width="50" height="64.333"/>
<rect x="200.482" y="28.72" fill="none" stroke="#3E3A39" stroke-width="1.5" stroke-miterlimit="10" width="53.833" height="64.333"/>
<rect x="200.482" y="28.72" fill="none" stroke="#3E3A39" stroke-width="1.5" stroke-miterlimit="10" width="57.75" height="64.333"/>
<path fill="none" stroke="#3E3A39" stroke-width="1.5" stroke-miterlimit="10" d="M211.732,32.886V24.47
	c0-7.088,6.1-12.833,13.625-12.833c7.525,0,13.625,5.746,13.625,12.833v8.417"/>
<path fill="none" stroke="#3E3A39" stroke-width="1.5" stroke-miterlimit="10" d="M219.227,28.72v-4.25
	c0-7.088,6.1-12.833,13.625-12.833c7.525,0,13.625,5.746,13.625,12.833v4.25"/>
<g>
	<g>
		
			<line fill="none" stroke="#3E3A39" stroke-width="1.5" stroke-miterlimit="10" x1="204.066" y1="46.803" x2="204.816" y2="46.803"/>
		
			<line fill="none" stroke="#3E3A39" stroke-width="1.5" stroke-miterlimit="10" stroke-dasharray="1.5153,2.0203" x1="206.836" y1="46.803" x2="244.717" y2="46.803"/>
		
			<line fill="none" stroke="#3E3A39" stroke-width="1.5" stroke-miterlimit="10" x1="245.727" y1="46.803" x2="246.477" y2="46.803"/>
	</g>
</g>
<g>
	<g>
		
			<line fill="none" stroke="#3E3A39" stroke-width="1.5" stroke-miterlimit="10" x1="204.066" y1="74.303" x2="204.816" y2="74.303"/>
		
			<line fill="none" stroke="#3E3A39" stroke-width="1.5" stroke-miterlimit="10" stroke-dasharray="1.5153,2.0203" x1="206.836" y1="74.303" x2="244.717" y2="74.303"/>
		
			<line fill="none" stroke="#3E3A39" stroke-width="1.5" stroke-miterlimit="10" x1="245.727" y1="74.303" x2="246.477" y2="74.303"/>
	</g>
</g>
<line fill="none" stroke="#3E3A39" stroke-width="1.5" stroke-miterlimit="10" x1="217.566" y1="43.053" x2="231.816" y2="43.053"/>
<line fill="none" stroke="#3E3A39" stroke-width="1.5" stroke-miterlimit="10" x1="217.566" y1="78.553" x2="231.816" y2="78.553"/>
<path fill="#FAEBE8" d="M292.501,154.637c0,3.131-2.538,5.669-5.669,5.669H202.17c-3.131,0-5.669-2.538-5.669-5.669v-47.161
	c0-3.131,2.538-5.669,5.669-5.669h84.661c3.131,0,5.669,2.538,5.669,5.669V154.637z"/>
<path fill="none" stroke="#323333" stroke-width="1.5" stroke-miterlimit="10" d="M292.501,154.637c0,3.131-2.538,5.669-5.669,5.669
	H202.17c-3.131,0-5.669-2.538-5.669-5.669v-47.161c0-3.131,2.538-5.669,5.669-5.669h84.661c3.131,0,5.669,2.538,5.669,5.669V154.637
	z"/>
<line fill="none" stroke="#323333" stroke-width="1.5" stroke-miterlimit="10" x1="202.173" y1="137.82" x2="221.727" y2="137.82"/>
<line fill="none" stroke="#323333" stroke-width="1.5" stroke-miterlimit="10" x1="202.173" y1="152.176" x2="232.122" y2="152.176"/>
<line fill="none" stroke="#323333" stroke-width="1.5" stroke-miterlimit="10" x1="223.343" y1="137.82" x2="242.896" y2="137.82"/>
<line fill="none" stroke="#323333" stroke-width="1.5" stroke-miterlimit="10" x1="234.724" y1="152.176" x2="249.613" y2="152.176"/>
<line fill="none" stroke="#323333" stroke-width="1.5" stroke-miterlimit="10" x1="244.512" y1="137.82" x2="264.066" y2="137.82"/>
<line fill="none" stroke="#323333" stroke-width="1.5" stroke-miterlimit="10" x1="265.682" y1="137.82" x2="285.235" y2="137.82"/>
<circle fill="none" stroke="#323333" stroke-width="1.5" stroke-miterlimit="10" cx="210.094" cy="120.659" r="7.673"/>
<line fill="none" stroke="#323333" stroke-width="1.5" stroke-miterlimit="10" x1="206.299" y1="114.554" x2="206.299" y2="127.964"/>
<line fill="none" stroke="#323333" stroke-width="1.5" stroke-miterlimit="10" x1="210.028" y1="128.332" x2="210.028" y2="113.482"/>
<line fill="none" stroke="#323333" stroke-width="1.5" stroke-miterlimit="10" x1="213.758" y1="127.402" x2="213.758" y2="114.554"/>
<line fill="none" stroke="#323333" stroke-width="1.5" stroke-miterlimit="10" x1="202.916" y1="120.659" x2="217.748" y2="120.659"/>
<polygon fill="#E8F2D4" points="267.543,81.25 267.543,32.9 299.25,32.9 299.25,81.25 282.841,94.875 "/>
<polygon fill="none" stroke="#323333" stroke-width="1.5" stroke-miterlimit="10" points="267.543,81.25 267.543,32.9 299.25,32.9 
	299.25,81.25 282.841,94.875 "/>
<polygon fill="#E8F2D4" points="87.618,108.95 75.415,114.417 75.415,160.043 107.729,160.043 107.729,114.417 95.526,108.95 "/>
<polygon fill="none" stroke="#323333" stroke-width="1.5" stroke-miterlimit="10" points="87.618,108.95 75.415,114.417 
	75.415,160.043 107.729,160.043 107.729,114.417 95.526,108.95 "/>
<polygon fill="#E8F2D4" points="9.975,35.757 1.029,44.703 1.029,93.053 32.736,93.053 32.736,44.703 23.79,35.757 "/>
<polygon fill="none" stroke="#323333" stroke-width="1.5" stroke-miterlimit="10" points="9.975,35.757 1.029,44.703 1.029,93.053 
	32.736,93.053 32.736,44.703 23.79,35.757 "/>
<rect x="4.384" y="50.295" fill="#FFFFFF" stroke="#3E3A39" stroke-width="1.5" stroke-miterlimit="10" stroke-dasharray="1.5,2" width="24.931" height="32.562"/>
<text transform="matrix(1 0 0 1 9.2806 72.096)" font-family="'Gotham-Bold'" font-size="17.0132">%</text>
<circle fill="none" stroke="#323333" stroke-width="1.5" stroke-miterlimit="10" cx="16.85" cy="41.835" r="1.75"/>
<path fill="#E8F2D4" d="M182.615,57.678v32.664c0,1.566-1.269,2.835-2.835,2.835h-61.331c-1.566,0-2.835-1.269-2.835-2.835V57.678
	H182.615z"/>
<rect x="111.281" y="49.177" fill="#E8F2D4" width="75.333" height="8.501"/>
<path fill="none" stroke="#323333" stroke-width="1.5" stroke-miterlimit="10" d="M182.615,57.678v32.664
	c0,1.566-1.269,2.835-2.835,2.835h-61.331c-1.566,0-2.835-1.269-2.835-2.835V57.678H182.615z"/>
<rect x="111.281" y="49.177" fill="none" stroke="#323333" stroke-width="1.5" stroke-miterlimit="10" width="75.333" height="8.501"/>
<path fill="#E8F2D4" d="M168.463,29.572l-22.415,22.415c-1.302,1.302-1.302,3.412,0,4.714s3.412,1.302,4.714,0l22.415-22.415
	c1.302-1.302,1.302-3.412,0-4.714S169.764,28.27,168.463,29.572z"/>
<path fill="none" stroke="#323333" stroke-width="1.5" stroke-miterlimit="10" d="M168.463,29.572l-22.415,22.415
	c-1.302,1.302-1.302,3.412,0,4.714s3.412,1.302,4.714,0l22.415-22.415c1.302-1.302,1.302-3.412,0-4.714
	S169.764,28.27,168.463,29.572z"/>
<circle fill="#323333" cx="148.948" cy="53.927" r="1.636"/>
<line fill="none" stroke="#323333" stroke-width="1.5" stroke-miterlimit="10" x1="127.531" y1="60.302" x2="127.531" y2="90.552"/>
<line fill="none" stroke="#323333" stroke-width="1.5" stroke-miterlimit="10" x1="148.594" y1="60.302" x2="148.594" y2="90.552"/>
<line fill="none" stroke="#323333" stroke-width="1.5" stroke-miterlimit="10" x1="138.062" y1="60.302" x2="138.062" y2="90.552"/>
<line fill="none" stroke="#323333" stroke-width="1.5" stroke-miterlimit="10" x1="159.125" y1="59.677" x2="159.125" y2="89.927"/>
<line fill="none" stroke="#323333" stroke-width="1.5" stroke-miterlimit="10" x1="169.656" y1="59.677" x2="169.656" y2="89.927"/>
<path fill="#E0685D" d="M348.306,87.61c0,2.801-2.271,5.072-5.072,5.072h-23.637c-2.801,0-5.072-2.271-5.072-5.072V63.973
	c0-2.801,2.271-5.072,5.072-5.072h23.637c2.801,0,5.072,2.271,5.072,5.072V87.61z"/>
<path fill="none" stroke="#323333" stroke-width="1.5" stroke-miterlimit="10" d="M348.306,87.61c0,2.801-2.271,5.072-5.072,5.072
	h-23.637c-2.801,0-5.072-2.271-5.072-5.072V63.973c0-2.801,2.271-5.072,5.072-5.072h23.637c2.801,0,5.072,2.271,5.072,5.072V87.61z"
	/>
<line fill="none" stroke="#323333" stroke-width="1.5" stroke-miterlimit="10" x1="314.525" y1="77.458" x2="348.306" y2="77.458"/>
<line fill="none" stroke="#323333" stroke-width="1.5" stroke-miterlimit="10" x1="347.771" y1="70.748" x2="315.06" y2="70.748"/>
<line fill="none" stroke="#323333" stroke-width="1.5" stroke-miterlimit="10" x1="331.416" y1="57.999" x2="331.416" y2="38.093"/>
<circle fill="#E0685D" cx="345.826" cy="46.369" r="6.71"/>
<circle fill="none" stroke="#323333" stroke-width="1.5" stroke-miterlimit="10" cx="345.826" cy="46.369" r="6.71"/>
<line fill="none" stroke="#323333" stroke-width="1.5" stroke-miterlimit="10" x1="340.026" y1="46.369" x2="322.805" y2="46.369"/>
<line fill="none" stroke="#323333" stroke-width="1.5" stroke-miterlimit="10" x1="318.568" y1="43.238" x2="312.976" y2="39.659"/>
<line fill="none" stroke="#323333" stroke-width="1.5" stroke-miterlimit="10" x1="317.226" y1="46.369" x2="310.516" y2="46.369"/>
<line fill="none" stroke="#323333" stroke-width="1.5" stroke-miterlimit="10" x1="319.36" y1="48.839" x2="314.663" y2="53.871"/>
<rect x="359.274" y="77.791" fill="#FAEBE8" width="20.8" height="15.533"/>
<rect x="359.274" y="77.791" fill="none" stroke="#323333" stroke-width="1.5" stroke-miterlimit="10" width="20.8" height="15.533"/>
<rect x="361.734" y="64.001" fill="none" stroke="#323333" stroke-width="1.5" stroke-miterlimit="10" width="16.327" height="13.791"/>
<line fill="none" stroke="#323333" stroke-width="1.5" stroke-miterlimit="10" x1="359.274" y1="85.558" x2="380.074" y2="85.558"/>
<polygon fill="#E0685D" points="362.852,48.369 375.825,40.093 375.825,64.001 362.852,64.001 "/>
<polygon fill="none" stroke="#323333" stroke-width="1.5" stroke-miterlimit="10" points="362.852,48.369 375.825,40.093 
	375.825,64.001 362.852,64.001 "/>
<path fill="#E8F2D4" d="M342.25,157.466v-52.063c0-1.831-0.52-2.487-2.352-2.487h-31.503c-1.831,0-4.145,0.656-4.145,2.487v52.063
	l7.047-5.43l6.287,5.43l6.321-5.43l6.546,5.43l5.347-5.43L342.25,157.466z"/>
<path fill="none" stroke="#323333" stroke-width="2" stroke-miterlimit="10" d="M342.25,157.466v-52.063
	c0-1.831-0.52-2.487-2.352-2.487h-31.503c-1.831,0-4.145,0.656-4.145,2.487v52.063l7.047-5.43l6.287,5.43l6.321-5.43l6.546,5.43
	l5.347-5.43L342.25,157.466z"/>
<line fill="none" stroke="#323333" stroke-width="2" stroke-miterlimit="10" x1="311.25" y1="109.916" x2="335.25" y2="109.916"/>
<line fill="none" stroke="#323333" stroke-width="2" stroke-miterlimit="10" x1="311.25" y1="118.916" x2="331.25" y2="118.916"/>
<text transform="matrix(1 0 0 1 306.5987 142.7088)" fill="#3E3A39" font-family="'MicrosoftYaHei'" font-size="21.8683">￥</text>
<rect x="42.25" y="25.916" fill="#E0685D" width="56" height="67"/>
<rect x="42.25" y="25.916" fill="none" stroke="#323333" stroke-width="2" stroke-miterlimit="10" width="56" height="67"/>
<line fill="none" stroke="#323333" stroke-width="2" stroke-miterlimit="10" x1="60.25" y1="25.916" x2="60.25" y2="89.916"/>
<polyline fill="none" stroke="#323333" stroke-width="1.5" stroke-miterlimit="10" points="43.597,91.568 53.03,81.238 
	61.563,91.568 "/>
<line fill="none" stroke="#323333" stroke-width="2" stroke-miterlimit="10" x1="51.25" y1="80.916" x2="51.25" y2="47.916"/>
<circle fill="#FFFFFF" stroke="#3E3A39" stroke-width="1.5" stroke-miterlimit="10" stroke-dasharray="1.5,2" cx="81.101" cy="54.514" r="9.657"/>
<path fill="none" stroke="#323333" stroke-width="2" stroke-miterlimit="10" d="M64.25,23.916v-6.12
	c0-5.953,4.547-10.723,10.5-10.723s10.5,4.882,10.5,10.836v6.008"/>
<path fill="none" stroke="#323333" stroke-width="2" stroke-miterlimit="10" d="M52.25,23.916v-6.12
	c0-5.953,5.441-10.723,11.394-10.723c2.14,0,3.829,0.716,5.506,1.802"/>
<line fill="none" stroke="#323333" stroke-width="2" stroke-miterlimit="10" x1="73.25" y1="70.916" x2="91.25" y2="70.916"/>
<rect x="154.633" y="108.164" fill="#FAEBE8" width="27.374" height="52.011"/>
<rect x="154.633" y="108.164" fill="none" stroke="#323333" stroke-width="1.5" stroke-miterlimit="10" width="27.374" height="52.011"/>
<rect x="505.111" y="108.742" fill="none" stroke="#323333" stroke-width="1.5" stroke-miterlimit="10" width="27.374" height="52.011"/>
<rect x="505.111" y="116.612" fill="#E8F2D4" width="27.374" height="44.141"/>
<rect x="505.111" y="116.612" fill="none" stroke="#323333" stroke-width="1.5" stroke-miterlimit="10" width="27.374" height="44.141"/>
<rect x="46.866" y="108.164" fill="none" stroke="#323333" stroke-width="1.5" stroke-miterlimit="10" width="20.074" height="52.011"/>
<rect x="46.866" y="108.164" fill="#E8F2D4" width="20.074" height="33.305"/>
<rect x="46.866" y="108.164" fill="none" stroke="#323333" stroke-width="1.5" stroke-miterlimit="10" width="20.074" height="33.305"/>
<line fill="none" stroke="#323333" stroke-width="1.5" stroke-miterlimit="10" x1="155.431" y1="121.394" x2="181.209" y2="121.394"/>
<circle fill="#E0685D" cx="168.32" cy="141.469" r="6.615"/>
<circle fill="none" stroke="#323333" stroke-width="1.5" stroke-miterlimit="10" cx="168.32" cy="141.469" r="6.615"/>
<rect x="115.195" y="108.164" fill="none" stroke="#323333" stroke-width="1.5" stroke-miterlimit="10" width="33.761" height="52.011"/>
<rect x="115.195" y="108.164" fill="none" stroke="#323333" stroke-width="1.5" stroke-miterlimit="10" width="33.761" height="52.011"/>
<rect x="1.257" y="108.164" fill="none" stroke="#323333" stroke-width="1.5" stroke-miterlimit="10" width="39.236" height="52.011"/>
<rect x="1.257" y="113.482" fill="#FAEBE8" width="39.236" height="46.693"/>
<rect x="1.257" y="113.482" fill="none" stroke="#323333" stroke-width="1.5" stroke-miterlimit="10" width="39.236" height="46.693"/>
<rect x="354.734" y="108.286" fill="none" stroke="#323333" stroke-width="1.5" stroke-miterlimit="10" width="39.236" height="52.011"/>
<rect x="115.195" y="121.394" fill="#E0685D" width="33.761" height="26.69"/>
<rect x="115.195" y="121.394" fill="none" stroke="#323333" stroke-width="1.5" stroke-miterlimit="10" width="33.761" height="26.69"/>
<ellipse fill="none" stroke="#323333" stroke-width="1.5" stroke-miterlimit="10" cx="132.076" cy="128.922" rx="5.247" ry="0"/>
<ellipse fill="none" stroke="#323333" stroke-width="1.5" stroke-miterlimit="10" cx="132.076" cy="134.169" rx="9.581" ry="0"/>
<ellipse fill="none" stroke="#323333" stroke-width="1.5" stroke-miterlimit="10" cx="132.076" cy="141.469" rx="5.247" ry="0"/>
<line fill="none" stroke="#323333" stroke-width="1.5" stroke-miterlimit="10" x1="52.569" y1="148.084" x2="61.237" y2="148.084"/>
<line fill="none" stroke="#323333" stroke-width="1.5" stroke-miterlimit="10" x1="17.681" y1="125.272" x2="24.068" y2="125.272"/>
<line fill="none" stroke="#323333" stroke-width="1.5" stroke-miterlimit="10" x1="371.159" y1="114.88" x2="377.546" y2="114.88"/>
<line fill="none" stroke="#323333" stroke-width="1.5" stroke-miterlimit="10" x1="371.159" y1="147.172" x2="377.546" y2="147.172"/>
<line fill="none" stroke="#323333" stroke-width="1.5" stroke-miterlimit="10" x1="16.883" y1="150.365" x2="24.867" y2="150.365"/>
<polygon fill="#E0685D" points="20.875,144.679 10.259,137.713 20.875,130.747 31.491,137.713 "/>
<polygon fill="none" stroke="#323333" stroke-width="1.5" stroke-miterlimit="10" points="20.875,144.679 10.259,137.713 
	20.875,130.747 31.491,137.713 "/>
<polygon fill="#E8F2D4" points="550.967,35.757 542.021,44.703 542.021,93.053 573.728,93.053 573.728,44.703 564.782,35.757 "/>
<polygon fill="none" stroke="#323333" stroke-width="1.5" stroke-miterlimit="10" points="550.967,35.757 542.021,44.703 
	542.021,93.053 573.728,93.053 573.728,44.703 564.782,35.757 "/>
<rect x="545.376" y="50.295" fill="#FFFFFF" stroke="#3E3A39" stroke-width="1.5" stroke-miterlimit="10" stroke-dasharray="1.5,2" width="24.931" height="32.562"/>
<text transform="matrix(1 0 0 1 550.2726 72.096)" font-family="'Gotham-Bold'" font-size="17.0132">%</text>
<circle fill="none" stroke="#323333" stroke-width="1.5" stroke-miterlimit="10" cx="557.842" cy="41.835" r="1.75"/>
<rect x="539.256" y="108.186" fill="none" stroke="#323333" stroke-width="1.5" stroke-miterlimit="10" width="39.236" height="52.011"/>
<rect x="539.256" y="113.504" fill="#FAEBE8" width="39.236" height="46.693"/>
<rect x="539.256" y="113.504" fill="none" stroke="#323333" stroke-width="1.5" stroke-miterlimit="10" width="39.236" height="46.693"/>
<line fill="none" stroke="#323333" stroke-width="1.5" stroke-miterlimit="10" x1="555.681" y1="125.294" x2="562.068" y2="125.294"/>
<line fill="none" stroke="#323333" stroke-width="1.5" stroke-miterlimit="10" x1="554.883" y1="146.387" x2="562.867" y2="146.387"/>
<polygon fill="#E0685D" points="558.875,144.701 548.259,137.735 558.875,130.769 569.491,137.735 "/>
<polygon fill="none" stroke="#323333" stroke-width="1.5" stroke-miterlimit="10" points="558.875,144.701 548.259,137.735 
	558.875,130.769 569.491,137.735 "/>
<circle fill="#E0685D" cx="374.352" cy="135.66" r="9.581"/>
<circle fill="none" stroke="#323333" stroke-width="1.5" stroke-miterlimit="10" cx="374.352" cy="135.66" r="9.581"/>
<rect x="52.569" y="114.779" fill="none" stroke="#323333" stroke-width="1.5" stroke-miterlimit="10" width="8.668" height="8.668"/>
<rect x="399.344" y="109.198" fill="#E8F2D4" width="20.074" height="52.011"/>
<rect x="399.344" y="109.198" fill="none" stroke="#323333" stroke-width="1.5" stroke-miterlimit="10" width="20.074" height="52.011"/>
<rect x="399.344" y="121.516" fill="#E0685D" width="20.074" height="14.143"/>
<rect x="399.344" y="121.516" fill="none" stroke="#323333" stroke-width="1.5" stroke-miterlimit="10" width="20.074" height="14.143"/>
<rect x="426.262" y="108.286" fill="none" stroke="#323333" stroke-width="1.5" stroke-miterlimit="10" width="25.321" height="52.923"/>
<rect x="426.262" y="108.286" fill="#E0685D" width="25.321" height="16.653"/>
<rect x="426.262" y="143.644" fill="#E0685D" width="25.321" height="16.653"/>
<rect x="426.262" y="108.286" fill="none" stroke="#323333" stroke-width="1.5" stroke-miterlimit="10" width="25.321" height="16.653"/>
<rect x="426.262" y="143.644" fill="none" stroke="#323333" stroke-width="1.5" stroke-miterlimit="10" width="25.321" height="16.653"/>
<circle fill="none" stroke="#323333" stroke-width="1.5" stroke-miterlimit="10" cx="438.922" cy="134.747" r="4.334"/>
<rect x="87.618" y="100.18" fill="#E0685D" width="7.908" height="8.77"/>
<rect x="87.618" y="100.18" fill="none" stroke="#323333" stroke-width="1.5" stroke-miterlimit="10" width="7.908" height="8.77"/>
<polygon fill="#FFFFFF" points="80.156,119.062 86.239,116.502 86.239,127.097 80.156,127.097 "/>
<polygon fill="none" stroke="#323333" stroke-width="1.5" stroke-miterlimit="10" points="80.156,119.062 86.239,116.502 
	86.239,127.097 80.156,127.097 "/>
<circle fill="#E0685D" cx="91.572" cy="142.854" r="10.552"/>
<circle fill="none" stroke="#323333" stroke-width="1.5" stroke-miterlimit="10" cx="91.572" cy="142.854" r="10.552"/>
<rect x="458.402" y="108.286" fill="#E0685D" width="38.6" height="52.923"/>
<rect x="458.402" y="108.286" fill="none" stroke="#323333" stroke-width="1.5" stroke-miterlimit="10" width="38.6" height="52.923"/>
<polygon fill="#FAEBE8" points="497.003,134.747 458.402,121.516 458.402,108.286 497.003,108.286 "/>
<polygon fill="#FAEBE8" points="458.402,134.747 497.003,147.978 497.003,161.209 458.402,161.209 "/>
<polygon fill="none" stroke="#323333" stroke-width="1.5" stroke-miterlimit="10" points="497.003,134.747 458.402,121.516 
	458.402,108.286 497.003,108.286 "/>
<polygon fill="none" stroke="#323333" stroke-width="1.5" stroke-miterlimit="10" points="458.402,134.747 497.003,147.978 
	497.003,161.209 458.402,161.209 "/>
<line fill="none" stroke="#3E3A39" stroke-width="1.5" stroke-miterlimit="10" stroke-dasharray="1.5,2" x1="467.513" y1="118.88" x2="487.892" y2="126.079"/>
<line fill="none" stroke="#3E3A39" stroke-width="1.5" stroke-miterlimit="10" stroke-dasharray="1.5,2" x1="467.133" y1="144.404" x2="488.272" y2="151.172"/>
<rect x="511.27" y="128.588" fill="#E0685D" width="15.056" height="15.056"/>
<rect x="511.27" y="128.588" fill="none" stroke="#323333" stroke-width="1.5" stroke-miterlimit="10" width="15.056" height="15.056"/>
<rect x="389.131" y="41.234" fill="#FAEBE8" width="92.498" height="50.343"/>
<rect x="389.131" y="41.234" fill="none" stroke="#323333" stroke-width="1.5" stroke-miterlimit="10" width="92.498" height="50.343"/>
<line fill="none" stroke="#323333" stroke-width="1.5" stroke-miterlimit="10" x1="402.955" y1="47.995" x2="402.955" y2="86.629"/>
<line fill="none" stroke="#323333" stroke-width="1.5" stroke-miterlimit="10" x1="408.486" y1="79.254" x2="408.486" y2="47.995"/>
<line fill="none" stroke="#323333" stroke-width="1.5" stroke-miterlimit="10" x1="420.867" y1="47.995" x2="420.867" y2="79.78"/>
<line fill="none" stroke="#323333" stroke-width="1.5" stroke-miterlimit="10" x1="427.189" y1="79.78" x2="427.189" y2="47.556"/>
<line fill="none" stroke="#323333" stroke-width="1.5" stroke-miterlimit="10" x1="432.721" y1="47.556" x2="432.721" y2="79.78"/>
<line fill="none" stroke="#323333" stroke-width="1.5" stroke-miterlimit="10" x1="442.028" y1="47.556" x2="442.028" y2="79.78"/>
<line fill="none" stroke="#323333" stroke-width="1.5" stroke-miterlimit="10" x1="450.458" y1="47.556" x2="450.458" y2="79.254"/>
<line fill="none" stroke="#323333" stroke-width="1.5" stroke-miterlimit="10" x1="456.78" y1="47.556" x2="456.78" y2="79.254"/>
<line fill="none" stroke="#323333" stroke-width="1.5" stroke-miterlimit="10" x1="468.019" y1="47.556" x2="468.019" y2="86.19"/>
<path fill="#E8F2D4" d="M492.743,63.51h37.164c1.566,0,2.835,1.269,2.835,2.835v23.581c0,1.566-1.269,2.835-2.835,2.835h-37.164
	c-1.566,0-2.835-1.269-2.835-2.835V60.177"/>
<path fill="none" stroke="#323333" stroke-width="1.5" stroke-miterlimit="10" d="M493.242,63.51h36.665
	c1.566,0,2.835,1.269,2.835,2.835v23.581c0,1.566-1.269,2.835-2.835,2.835h-37.164c-1.566,0-2.835-1.269-2.835-2.835V60.177"/>
<path fill="none" stroke="#323333" stroke-width="1.5" stroke-miterlimit="10" d="M529.438,62.843v-2.667
	c0-1.841-1.492-3.333-3.333-3.333h-32.863c-1.841,0-3.333,1.492-3.333,3.333s1.492,3.333,3.333,3.333"/>
<line fill="none" stroke="#323333" stroke-width="1.5" stroke-miterlimit="10" x1="492.659" y1="60.677" x2="526.492" y2="60.677"/>
<line fill="#FFFFFF" stroke="#3E3A39" stroke-width="1.5" stroke-miterlimit="10" stroke-dasharray="1.5,2" x1="492.659" y1="67.843" x2="529.825" y2="67.843"/>
<circle fill="#FFFFFF" cx="525.159" cy="78.01" r="2.333"/>
<circle fill="none" stroke="#323333" stroke-width="1.5" stroke-miterlimit="10" cx="525.159" cy="78.01" r="2.333"/>
<circle fill="#FFFFFF" cx="283.397" cy="83.542" r="3.333"/>
<circle fill="none" stroke="#323333" stroke-width="1.5" stroke-miterlimit="10" cx="283.397" cy="83.542" r="3.333"/>
<path fill="#E8F2D4" d="M989.95,65.177c-1.841,0-3.333-1.492-3.333-3.333c0-1.841,1.492-3.333,3.333-3.333h32.863
	c1.841,0,3.333,1.492,3.333,3.333v2.667"/>
<path fill="#E8F2D4" d="M877.059,87.751c0,3.131-2.538,5.669-5.669,5.669h-84.661c-3.131,0-5.669-2.538-5.669-5.669V40.59
	c0-3.131,2.538-5.669,5.669-5.669h84.661c3.131,0,5.669,2.538,5.669,5.669V87.751z"/>
<path fill="none" stroke="#323333" stroke-width="1.5" stroke-miterlimit="10" d="M877.059,87.751c0,3.131-2.538,5.669-5.669,5.669
	h-84.661c-3.131,0-5.669-2.538-5.669-5.669V40.59c0-3.131,2.538-5.669,5.669-5.669h84.661c3.131,0,5.669,2.538,5.669,5.669V87.751z"
	/>
<line fill="none" stroke="#323333" stroke-width="1.5" stroke-miterlimit="10" x1="786.731" y1="70.935" x2="806.285" y2="70.935"/>
<line fill="none" stroke="#323333" stroke-width="1.5" stroke-miterlimit="10" x1="786.731" y1="81.29" x2="816.68" y2="81.29"/>
<line fill="none" stroke="#323333" stroke-width="1.5" stroke-miterlimit="10" x1="807.901" y1="70.935" x2="827.454" y2="70.935"/>
<line fill="none" stroke="#323333" stroke-width="1.5" stroke-miterlimit="10" x1="819.282" y1="81.29" x2="834.171" y2="81.29"/>
<line fill="none" stroke="#323333" stroke-width="1.5" stroke-miterlimit="10" x1="829.07" y1="70.935" x2="848.624" y2="70.935"/>
<line fill="none" stroke="#323333" stroke-width="1.5" stroke-miterlimit="10" x1="852.24" y1="70.935" x2="871.793" y2="70.935"/>
<circle fill="none" stroke="#323333" stroke-width="1.5" stroke-miterlimit="10" cx="794.652" cy="53.774" r="7.673"/>
<line fill="none" stroke="#323333" stroke-width="1.5" stroke-miterlimit="10" x1="789.895" y1="47.458" x2="789.895" y2="60.274"/>
<line fill="none" stroke="#323333" stroke-width="1.5" stroke-miterlimit="10" x1="794.385" y1="61.588" x2="794.385" y2="46.737"/>
<line fill="none" stroke="#323333" stroke-width="1.5" stroke-miterlimit="10" x1="798.905" y1="60.586" x2="798.905" y2="47.031"/>
<line fill="none" stroke="#323333" stroke-width="1.5" stroke-miterlimit="10" x1="787.474" y1="53.774" x2="802.306" y2="53.774"/>
<polygon fill="#E8F2D4" points="591.597,147.553 591.597,99.203 623.304,99.203 623.304,147.553 606.895,161.178 "/>
<polygon fill="none" stroke="#323333" stroke-width="1.5" stroke-miterlimit="10" points="591.597,147.553 591.597,99.203 
	623.304,99.203 623.304,147.553 606.895,161.178 "/>
<polygon fill="#E8F2D4" points="675.854,42.367 663.651,47.834 663.651,93.46 695.965,93.46 695.965,47.834 683.762,42.367 "/>
<polygon fill="none" stroke="#323333" stroke-width="1.5" stroke-miterlimit="10" points="675.854,42.367 663.651,47.834 
	663.651,93.46 695.965,93.46 695.965,47.834 683.762,42.367 "/>
<path fill="#FAEBE8" d="M788.99,125.38v32.664c0,1.566-1.269,2.835-2.835,2.835h-61.331c-1.566,0-2.835-1.269-2.835-2.835V125.38
	H788.99z"/>
<rect x="717.656" y="116.878" fill="#FAEBE8" width="75.333" height="8.501"/>
<path fill="none" stroke="#323333" stroke-width="1.5" stroke-miterlimit="10" d="M788.99,125.38v32.664
	c0,1.566-1.269,2.835-2.835,2.835h-61.331c-1.566,0-2.835-1.269-2.835-2.835V125.38H788.99z"/>
<rect x="717.656" y="116.878" fill="none" stroke="#323333" stroke-width="1.5" stroke-miterlimit="10" width="75.333" height="8.501"/>
<path fill="#FAEBE8" d="M774.838,97.274l-22.415,22.415c-1.302,1.302-1.302,3.412,0,4.714s3.412,1.302,4.714,0l22.415-22.415
	c1.302-1.302,1.302-3.412,0-4.714S776.139,95.972,774.838,97.274z"/>
<path fill="none" stroke="#323333" stroke-width="1.5" stroke-miterlimit="10" d="M774.838,97.274l-22.415,22.415
	c-1.302,1.302-1.302,3.412,0,4.714s3.412,1.302,4.714,0l22.415-22.415c1.302-1.302,1.302-3.412,0-4.714
	S776.139,95.972,774.838,97.274z"/>
<circle fill="#323333" cx="755.323" cy="121.629" r="1.636"/>
<line fill="none" stroke="#323333" stroke-width="1.5" stroke-miterlimit="10" x1="733.906" y1="128.003" x2="733.906" y2="158.253"/>
<line fill="none" stroke="#323333" stroke-width="1.5" stroke-miterlimit="10" x1="754.969" y1="128.003" x2="754.969" y2="158.253"/>
<line fill="none" stroke="#323333" stroke-width="1.5" stroke-miterlimit="10" x1="744.438" y1="128.003" x2="744.438" y2="158.253"/>
<line fill="none" stroke="#323333" stroke-width="1.5" stroke-miterlimit="10" x1="765.5" y1="127.378" x2="765.5" y2="157.628"/>
<line fill="none" stroke="#323333" stroke-width="1.5" stroke-miterlimit="10" x1="776.031" y1="127.378" x2="776.031" y2="157.628"/>
<path fill="#FAEBE8" d="M672.36,153.913c0,2.801-2.271,5.072-5.072,5.072h-23.637c-2.801,0-5.072-2.271-5.072-5.072v-23.637
	c0-2.801,2.271-5.072,5.072-5.072h23.637c2.801,0,5.072,2.271,5.072,5.072V153.913z"/>
<path fill="none" stroke="#323333" stroke-width="1.5" stroke-miterlimit="10" d="M672.36,153.913c0,2.801-2.271,5.072-5.072,5.072
	h-23.637c-2.801,0-5.072-2.271-5.072-5.072v-23.637c0-2.801,2.271-5.072,5.072-5.072h23.637c2.801,0,5.072,2.271,5.072,5.072
	V153.913z"/>
<line fill="none" stroke="#323333" stroke-width="1.5" stroke-miterlimit="10" x1="638.58" y1="143.761" x2="672.36" y2="143.761"/>
<line fill="none" stroke="#323333" stroke-width="1.5" stroke-miterlimit="10" x1="671.825" y1="137.051" x2="639.115" y2="137.051"/>
<line fill="none" stroke="#323333" stroke-width="1.5" stroke-miterlimit="10" x1="655.47" y1="124.303" x2="655.47" y2="104.397"/>
<circle fill="#E0685D" cx="669.88" cy="112.672" r="6.71"/>
<circle fill="none" stroke="#323333" stroke-width="1.5" stroke-miterlimit="10" cx="669.88" cy="112.672" r="6.71"/>
<line fill="none" stroke="#323333" stroke-width="1.5" stroke-miterlimit="10" x1="664.081" y1="112.672" x2="646.859" y2="112.672"/>
<line fill="none" stroke="#323333" stroke-width="1.5" stroke-miterlimit="10" x1="642.622" y1="109.541" x2="637.031" y2="105.962"/>
<line fill="none" stroke="#323333" stroke-width="1.5" stroke-miterlimit="10" x1="641.28" y1="112.672" x2="634.57" y2="112.672"/>
<line fill="none" stroke="#323333" stroke-width="1.5" stroke-miterlimit="10" x1="643.415" y1="115.142" x2="638.718" y2="120.175"/>
<rect x="683.328" y="144.095" fill="#E0685D" width="20.8" height="15.533"/>
<rect x="683.328" y="144.095" fill="none" stroke="#323333" stroke-width="1.5" stroke-miterlimit="10" width="20.8" height="15.533"/>
<rect x="685.789" y="130.304" fill="none" stroke="#323333" stroke-width="1.5" stroke-miterlimit="10" width="16.327" height="13.791"/>
<line fill="none" stroke="#323333" stroke-width="1.5" stroke-miterlimit="10" x1="683.552" y1="151.861" x2="704.352" y2="151.861"/>
<polygon fill="#FAEBE8" points="686.907,114.672 699.879,106.397 699.879,130.304 686.907,130.304 "/>
<polygon fill="none" stroke="#323333" stroke-width="1.5" stroke-miterlimit="10" points="686.907,114.672 699.879,106.397 
	699.879,130.304 686.907,130.304 "/>
<path fill="#E0685D" d="M625.25,93.466V41.403c0-1.831-0.521-2.487-2.352-2.487h-31.503c-1.831,0-4.145,0.656-4.145,2.487v52.063
	l7.047-5.43l6.287,5.43l6.321-5.43l6.546,5.43l5.347-5.43L625.25,93.466z"/>
<path fill="none" stroke="#323333" stroke-width="2" stroke-miterlimit="10" d="M625.25,93.466V41.403
	c0-1.831-0.521-2.487-2.352-2.487h-31.503c-1.831,0-4.145,0.656-4.145,2.487v52.063l7.047-5.43l6.287,5.43l6.321-5.43l6.546,5.43
	l5.347-5.43L625.25,93.466z"/>
<line fill="none" stroke="#323333" stroke-width="2" stroke-miterlimit="10" x1="594.25" y1="44.916" x2="618.25" y2="44.916"/>
<line fill="none" stroke="#323333" stroke-width="2" stroke-miterlimit="10" x1="594.25" y1="54.916" x2="614.25" y2="54.916"/>
<text transform="matrix(1 0 0 1 589.5986 78.7088)" fill="#3E3A39" font-family="'MicrosoftYaHei'" font-size="21.8683">￥</text>
<rect x="797.25" y="113.916" fill="#E0685D" width="39" height="47"/>
<rect x="797.25" y="113.916" fill="none" stroke="#323333" stroke-width="2" stroke-miterlimit="10" width="39" height="47"/>
<line fill="none" stroke="#323333" stroke-width="2" stroke-miterlimit="10" x1="810.25" y1="113.916" x2="810.25" y2="159.916"/>
<polyline fill="none" stroke="#323333" stroke-width="1.5" stroke-miterlimit="10" points="798.199,160.967 804.845,153.688 
	810.857,160.967 "/>
<line fill="none" stroke="#323333" stroke-width="2" stroke-miterlimit="10" x1="804.25" y1="153.916" x2="804.25" y2="129.916"/>
<circle fill="#FFFFFF" stroke="#3E3A39" stroke-width="1.5" stroke-miterlimit="10" stroke-dasharray="1.5,2" cx="824.623" cy="133.86" r="6.804"/>
<path fill="none" stroke="#323333" stroke-width="2" stroke-miterlimit="10" d="M812.25,111.916v-3.926
	c0-4.194,3.306-7.555,7.5-7.555s7.5,3.44,7.5,7.634v3.847"/>
<path fill="none" stroke="#323333" stroke-width="2" stroke-miterlimit="10" d="M804.25,111.916v-3.926
	c0-4.194,3.856-7.555,8.05-7.555c1.508,0,2.686,0.311,3.868,1.076"/>
<line fill="none" stroke="#323333" stroke-width="2" stroke-miterlimit="10" x1="819.25" y1="145.916" x2="832.25" y2="145.916"/>
<rect x="746.258" y="40.57" fill="#FAEBE8" width="27.374" height="52.011"/>
<rect x="746.258" y="40.57" fill="none" stroke="#323333" stroke-width="1.5" stroke-miterlimit="10" width="27.374" height="52.011"/>
<rect x="998.874" y="108.742" fill="none" stroke="#323333" stroke-width="1.5" stroke-miterlimit="10" width="27.374" height="52.011"/>
<rect x="998.874" y="116.612" fill="#E8F2D4" width="27.374" height="44.141"/>
<rect x="998.874" y="116.612" fill="none" stroke="#323333" stroke-width="1.5" stroke-miterlimit="10" width="27.374" height="44.141"/>
<rect x="635.103" y="41.581" fill="none" stroke="#323333" stroke-width="1.5" stroke-miterlimit="10" width="20.074" height="52.011"/>
<rect x="635.103" y="41.581" fill="#E8F2D4" width="20.074" height="33.305"/>
<rect x="635.103" y="41.581" fill="none" stroke="#323333" stroke-width="1.5" stroke-miterlimit="10" width="20.074" height="33.305"/>
<line fill="none" stroke="#323333" stroke-width="1.5" stroke-miterlimit="10" x1="747.057" y1="53.801" x2="772.834" y2="53.801"/>
<circle fill="#E0685D" cx="759.945" cy="73.875" r="6.615"/>
<circle fill="none" stroke="#323333" stroke-width="1.5" stroke-miterlimit="10" cx="759.945" cy="73.875" r="6.615"/>
<rect x="703.432" y="41.581" fill="none" stroke="#323333" stroke-width="1.5" stroke-miterlimit="10" width="33.761" height="52.011"/>
<rect x="703.432" y="41.581" fill="none" stroke="#323333" stroke-width="1.5" stroke-miterlimit="10" width="33.761" height="52.011"/>
<rect x="848.498" y="108.286" fill="none" stroke="#323333" stroke-width="1.5" stroke-miterlimit="10" width="39.236" height="52.011"/>
<rect x="703.432" y="54.812" fill="#E0685D" width="33.761" height="26.69"/>
<rect x="703.432" y="54.812" fill="none" stroke="#323333" stroke-width="1.5" stroke-miterlimit="10" width="33.761" height="26.69"/>
<ellipse fill="none" stroke="#323333" stroke-width="1.5" stroke-miterlimit="10" cx="720.312" cy="62.339" rx="5.247" ry="0"/>
<ellipse fill="none" stroke="#323333" stroke-width="1.5" stroke-miterlimit="10" cx="720.312" cy="67.586" rx="9.581" ry="0"/>
<ellipse fill="none" stroke="#323333" stroke-width="1.5" stroke-miterlimit="10" cx="720.312" cy="74.886" rx="5.247" ry="0"/>
<line fill="none" stroke="#323333" stroke-width="1.5" stroke-miterlimit="10" x1="636.471" y1="77.501" x2="645.14" y2="77.501"/>
<line fill="none" stroke="#323333" stroke-width="1.5" stroke-miterlimit="10" x1="864.922" y1="114.88" x2="871.31" y2="114.88"/>
<line fill="none" stroke="#323333" stroke-width="1.5" stroke-miterlimit="10" x1="864.922" y1="147.172" x2="871.31" y2="147.172"/>
<circle fill="#E0685D" cx="868.116" cy="135.66" r="9.581"/>
<circle fill="none" stroke="#323333" stroke-width="1.5" stroke-miterlimit="10" cx="868.116" cy="135.66" r="9.581"/>
<rect x="640.805" y="48.196" fill="none" stroke="#323333" stroke-width="1.5" stroke-miterlimit="10" width="8.668" height="8.668"/>
<rect x="893.107" y="109.198" fill="#E8F2D4" width="20.074" height="52.011"/>
<rect x="893.107" y="109.198" fill="none" stroke="#323333" stroke-width="1.5" stroke-miterlimit="10" width="20.074" height="52.011"/>
<rect x="893.107" y="121.516" fill="#E0685D" width="20.074" height="14.143"/>
<rect x="893.107" y="121.516" fill="none" stroke="#323333" stroke-width="1.5" stroke-miterlimit="10" width="20.074" height="14.143"/>
<rect x="920.025" y="108.286" fill="none" stroke="#323333" stroke-width="1.5" stroke-miterlimit="10" width="25.321" height="52.923"/>
<rect x="920.025" y="108.286" fill="#E0685D" width="25.321" height="16.653"/>
<rect x="920.025" y="143.644" fill="#E0685D" width="25.321" height="16.653"/>
<rect x="920.025" y="108.286" fill="none" stroke="#323333" stroke-width="1.5" stroke-miterlimit="10" width="25.321" height="16.653"/>
<rect x="920.025" y="143.644" fill="none" stroke="#323333" stroke-width="1.5" stroke-miterlimit="10" width="25.321" height="16.653"/>
<circle fill="none" stroke="#323333" stroke-width="1.5" stroke-miterlimit="10" cx="932.686" cy="134.747" r="4.334"/>
<rect x="675.854" y="33.218" fill="#E0685D" width="7.908" height="8.77"/>
<rect x="675.854" y="33.597" fill="none" stroke="#323333" stroke-width="1.5" stroke-miterlimit="10" width="7.908" height="8.77"/>
<polygon fill="#FFFFFF" points="668.393,52.48 674.476,49.92 674.476,60.514 668.393,60.514 "/>
<polygon fill="none" stroke="#323333" stroke-width="1.5" stroke-miterlimit="10" points="668.393,52.48 674.476,49.92 
	674.476,60.514 668.393,60.514 "/>
<circle fill="#E0685D" cx="679.808" cy="76.272" r="10.552"/>
<circle fill="none" stroke="#323333" stroke-width="1.5" stroke-miterlimit="10" cx="679.808" cy="76.272" r="10.552"/>
<rect x="952.166" y="108.286" fill="#E0685D" width="38.6" height="52.923"/>
<rect x="952.166" y="108.286" fill="none" stroke="#323333" stroke-width="1.5" stroke-miterlimit="10" width="38.6" height="52.923"/>
<polygon fill="#FAEBE8" points="990.766,134.747 952.166,121.516 952.166,108.286 990.766,108.286 "/>
<polygon fill="#FAEBE8" points="952.166,134.747 990.766,147.978 990.766,161.209 952.166,161.209 "/>
<polygon fill="none" stroke="#323333" stroke-width="1.5" stroke-miterlimit="10" points="990.766,134.747 952.166,121.516 
	952.166,108.286 990.766,108.286 "/>
<polygon fill="none" stroke="#323333" stroke-width="1.5" stroke-miterlimit="10" points="952.166,134.747 990.766,147.978 
	990.766,161.209 952.166,161.209 "/>
<line fill="none" stroke="#3E3A39" stroke-width="1.5" stroke-miterlimit="10" stroke-dasharray="1.5,2" x1="961.277" y1="118.88" x2="981.655" y2="126.079"/>
<line fill="none" stroke="#3E3A39" stroke-width="1.5" stroke-miterlimit="10" stroke-dasharray="1.5,2" x1="960.897" y1="144.404" x2="982.036" y2="151.172"/>
<rect x="885.143" y="43.234" fill="#FAEBE8" width="92.498" height="50.343"/>
<rect x="885.143" y="43.234" fill="none" stroke="#323333" stroke-width="1.5" stroke-miterlimit="10" width="92.498" height="50.343"/>
<line fill="none" stroke="#323333" stroke-width="1.5" stroke-miterlimit="10" x1="898.967" y1="49.995" x2="898.967" y2="88.629"/>
<line fill="none" stroke="#323333" stroke-width="1.5" stroke-miterlimit="10" x1="904.499" y1="81.254" x2="904.499" y2="49.995"/>
<line fill="none" stroke="#323333" stroke-width="1.5" stroke-miterlimit="10" x1="916.879" y1="49.995" x2="916.879" y2="81.78"/>
<line fill="none" stroke="#323333" stroke-width="1.5" stroke-miterlimit="10" x1="923.201" y1="81.78" x2="923.201" y2="49.556"/>
<line fill="none" stroke="#323333" stroke-width="1.5" stroke-miterlimit="10" x1="928.733" y1="49.556" x2="928.733" y2="81.78"/>
<line fill="none" stroke="#323333" stroke-width="1.5" stroke-miterlimit="10" x1="938.04" y1="49.556" x2="938.04" y2="81.78"/>
<line fill="none" stroke="#323333" stroke-width="1.5" stroke-miterlimit="10" x1="946.47" y1="49.556" x2="946.47" y2="81.254"/>
<line fill="none" stroke="#323333" stroke-width="1.5" stroke-miterlimit="10" x1="952.792" y1="49.556" x2="952.792" y2="81.254"/>
<line fill="none" stroke="#323333" stroke-width="1.5" stroke-miterlimit="10" x1="965.728" y1="49.556" x2="965.728" y2="88.19"/>
<path fill="#E8F2D4" d="M989.451,65.177h37.164c1.566,0,2.835,1.269,2.835,2.835v23.581c0,1.566-1.269,2.835-2.835,2.835h-37.164
	c-1.566,0-2.835-1.269-2.835-2.835V61.843"/>
<path fill="none" stroke="#323333" stroke-width="1.5" stroke-miterlimit="10" d="M989.95,65.177h36.665
	c1.566,0,2.835,1.269,2.835,2.835v23.581c0,1.566-1.269,2.835-2.835,2.835h-37.164c-1.566,0-2.835-1.269-2.835-2.835V61.843"/>
<path fill="none" stroke="#323333" stroke-width="1.5" stroke-miterlimit="10" d="M1026.146,64.51v-2.667
	c0-1.841-1.492-3.333-3.333-3.333H989.95c-1.841,0-3.333,1.492-3.333,3.333c0,1.841,1.492,3.333,3.333,3.333"/>
<line fill="none" stroke="#323333" stroke-width="1.5" stroke-miterlimit="10" x1="989.367" y1="62.343" x2="1023.2" y2="62.343"/>
<line fill="#FFFFFF" stroke="#3E3A39" stroke-width="1.5" stroke-miterlimit="10" stroke-dasharray="1.5,2" x1="989.367" y1="69.51" x2="1026.533" y2="69.51"/>
<circle fill="#FFFFFF" cx="607.451" cy="149.845" r="3.333"/>
<circle fill="none" stroke="#323333" stroke-width="1.5" stroke-miterlimit="10" cx="607.451" cy="149.845" r="3.333"/>
</svg>
