<?xml version="1.0" encoding="utf-8"?>
<!-- Generator: Adobe Illustrator 17.0.0, SVG Export Plug-In . SVG Version: 6.00 Build 0)  -->
<!DOCTYPE svg PUBLIC "-//W3C//DTD SVG 1.1//EN" "http://www.w3.org/Graphics/SVG/1.1/DTD/svg11.dtd">
<svg version="1.1" id="Layer_1" xmlns="http://www.w3.org/2000/svg" xmlns:xlink="http://www.w3.org/1999/xlink" x="0px" y="0px" width="15px" height="15px" viewBox="0 0 15 15" enable-background="new 0 0 15 15" xml:space="preserve">
<path fill="#999899" d="M14.687,13.173L10.753,9.24c0.656-0.951,1.043-2.101,1.043-3.341C11.797,2.646,9.151,0,5.898,0S0,2.646,0,5.898s2.646,5.898,5.898,5.898c1.24,0,2.391-0.387,3.341-1.043l3.933,3.934C13.382,14.895,13.656,15,13.93,15c0.274,0,0.548-0.104,0.757-0.313C15.104,14.269,15.104,13.59,14.687,13.173z M5.898,11.188c-2.917,0-5.29-2.373-5.29-5.29c0-2.917,2.373-5.29,5.29-5.29s5.29,2.373,5.29,5.29C11.188,8.815,8.815,11.188,5.898,11.188z M14.257,14.256c-0.18,0.18-0.473,0.18-0.653,0l-3.878-3.879c0.234-0.201,0.453-0.419,0.653-0.653l3.878,3.879C14.437,13.783,14.437,14.076,14.257,14.256z"/>
</svg>
