<svg xmlns="http://www.w3.org/2000/svg" xmlns:xlink="http://www.w3.org/1999/xlink" width="0" height="0" style="position:absolute">
<symbol id="icon-comment-list-none" viewBox="0 0 60 79">
        <title>Group 3</title><defs><path id="aaa" d="M52.817.248H0v51.356h52.817V.248z"/></defs><g fill="none" fill-rule="evenodd"><ellipse cx="25.973" cy="1.753" rx="25.973" ry="1.753" transform="translate(8 75)" fill="#F0F0F0"/><g transform="translate(7 4)"><path d="M38.663 61.74c-2.146 0-3.892-1.76-3.892-3.922v-6.942c0-.553.446-1 .995-1 .55 0 .993.447.993 1v6.942c0 1.058.855 1.92 1.905 1.92s1.905-.862 1.905-1.92c0-.553.445-1 .994-1 .55 0 .993.447.993 1 0 2.162-1.746 3.922-3.892 3.922M23.29 61.752c-.55 0-.995-.448-.995-1v-8.178c0-.553.445-1 .994-1 .548 0 .993.447.993 1v8.177c0 .554-.445 1.002-.994 1.002M29.527 61.752c-.55 0-.994-.448-.994-1v-8.178c0-.553.445-1 .994-1 .548 0 .993.447.993 1v8.177c0 .554-.445 1.002-.993 1.002M14.253 61.74c-2.092 0-3.793-1.715-3.793-3.82 0-.554.445-1.002.994-1.002.548 0 .993.448.993 1 0 1.003.81 1.82 1.806 1.82.995 0 1.806-.817 1.806-1.82v-7.04c0-.555.444-1.003.992-1.003.55 0 .994.448.994 1.002v7.042c0 2.105-1.702 3.82-3.793 3.82" fill="#CCC"/><g transform="translate(0 .204)"><mask id="aab" fill="#fff"><use xlink:href="#aaa"/></mask><path d="M36.13 51.604l-.732-1.862c9.374-3.74 15.432-12.724 15.432-22.886C50.83 13.29 39.875 2.25 26.41 2.25c-13.467 0-24.423 11.04-24.423 24.606 0 10.16 6.057 19.145 15.43 22.885l-.732 1.863c-4.865-1.94-9.017-5.27-12.006-9.622C1.617 37.527 0 32.296 0 26.857 0 12.184 11.847.248 26.41.248c14.56 0 26.407 11.936 26.407 26.608 0 5.44-1.618 10.67-4.68 15.125-2.988 4.355-7.14 7.682-12.007 9.624" fill="#CCC" mask="url(#aab)"/></g><path d="M44.416 32.71c-3.594 0-6.29-2.852-6.29-6.472h2.245c0 2.263 1.8 4.21 4.046 4.21v2.263zM8.483 32.712V30.45c2.246 0 4.042-1.95 4.042-4.212h2.246c0 3.62-2.693 6.474-6.287 6.474M34.338 42.727c-1.636 0-2.47-1.024-3.078-1.772-.568-.7-.814-.943-1.34-.943-.526 0-.77.244-1.34.943-.608.747-1.44 1.772-3.076 1.772-1.636 0-2.47-1.024-3.077-1.772-.568-.7-.814-.943-1.34-.943-.525 0-.77.244-1.34.943-.607.747-1.44 1.772-3.076 1.772-1.634 0-2.557-1.025-3.165-1.772-.568-.7-.53-.943-1.428-.943V37.75c1.797 0 2.558 1.023 3.166 1.77.567.7.858.944 1.383.944.526 0 .794-.244 1.362-.943.608-.747 1.452-1.77 3.088-1.77 1.635 0 2.474 1.023 3.082 1.77.57.7.817.944 1.343.944.527 0 .774-.244 1.342-.943.608-.747 1.442-1.77 3.077-1.77s2.468 1.023 3.077 1.77c.568.7.815.944 1.34.944.527 0 .684-.244 1.252-.943.607-.747 1.64-1.77 2.987-1.77v2.262c-.45 0-.683.244-1.25.943-.61.748-1.352 1.772-2.99 1.772" fill="#CCC"/></g><g fill="#CCC"><path d="M2.907 7.454H0V5.676h2.907c1.126 0 2.042-.94 2.042-2.097V.59h1.73V3.58c0 2.135-1.692 3.874-3.773 3.874M14.892 7.454h-2.907c-2.08 0-3.773-1.74-3.773-3.875V.59h1.73V3.58c0 1.156.917 2.096 2.043 2.096h2.907v1.778zM9.943 15.977h-1.73V12.99c0-2.136 1.692-3.874 3.772-3.874h2.907v1.777h-2.907c-1.126 0-2.042.94-2.042 2.098v2.987zM6.68 15.977H4.95V12.99c0-1.156-.917-2.097-2.043-2.097H0V9.116h2.907c2.08 0 3.773 1.738 3.773 3.875v2.987z"/></g></g>
</symbol>
<symbol id="icon-star" viewBox="0 0 13 13">
        <title>星星 小 会</title><path d="M6.5 10.417l-3.82 2.008.73-4.254L.317 5.16l4.272-.62L6.5.667l1.91 3.87 4.272.62-3.09 3.013.73 4.255"  fill-rule="evenodd"/>
</symbol>
</svg>