<?xml version="1.0" encoding="UTF-8" standalone="no"?>
<svg width="81px" height="71px" viewBox="0 0 81 71" version="1.1" xmlns="http://www.w3.org/2000/svg" xmlns:xlink="http://www.w3.org/1999/xlink">
    <!-- Generator: Sketch 3.7 (28169) - http://www.bohemiancoding.com/sketch -->
    <title>Group 2</title>
    <desc>Created with Sketch.</desc>
    <defs></defs>
    <g id="Page-1" stroke="none" stroke-width="1" fill="none" fill-rule="evenodd">
        <g id="没有有趣晒单" transform="translate(-148.000000, -261.000000)">
            <g id="Group-2" transform="translate(148.000000, 261.000000)">
                <g id="Page-1">
                    <polygon id="Fill-1" fill="#FFFFFF" points="56.6549308 60.9571538 15.4367308 55.8127678 22.2988846 0.878697661 63.5170846 6.02308363"></polygon>
                    <path d="M21.93804,0.415121637 L14.9728708,56.1733731 L57.0156092,61.4207298 L63.9807785,5.66289357 L21.93804,0.415121637 Z M15.9000092,55.4521626 L22.6591477,1.34227368 L63.05364,6.38368889 L56.2945015,60.4935778 L15.9000092,55.4521626 Z" id="Fill-2" fill="#E73836"></path>
                    <polygon id="Fill-3" fill="#FFFFFF" points="65.0620246 55.6738819 24.0598246 62.3246304 15.1884554 7.67871228 56.1906554 1.02796374"></polygon>
                    <path d="M14.7119677,7.33537953 L23.71626,62.8009117 L65.5384292,56.0172977 L56.5341369,0.551350292 L14.7119677,7.33537953 Z M15.6652754,8.02212807 L55.8475062,1.50424503 L64.5851215,55.3305491 L24.4037215,61.848017 L15.6652754,8.02212807 Z" id="Fill-4" fill="#E73836"></path>
                    <polygon id="Fill-5" fill="#FFFFFF" points="19.0791554 3.5566848 19.0791554 58.9171702 60.6176169 58.9171702 60.6176169 14.7638895 49.6792938 3.5566848"></polygon>
                    <path d="M19.4944985,58.5021316 L60.2021908,58.5021316 L60.2021908,14.9330439 L49.5043754,3.97205556 L19.4944985,3.97205556 L19.4944985,58.5021316 Z M61.03296,59.3325409 L18.6637292,59.3325409 L18.6637292,3.1416462 L49.8541292,3.1416462 L61.03296,14.594652 L61.03296,59.3325409 Z" id="Fill-6" fill="#E73836"></path>
                    <polygon id="Fill-7" fill="#E73836" points="60.2021908 15.1791357 49.2638677 15.1791357 49.2638677 3.55672632 50.0946369 3.55672632 50.0946369 14.3487263 60.2021908 14.3487263"></polygon>
                    <g id="Group-33" transform="translate(0.000000, 12.376652)">
                        <path d="M49.6008692,29.8965407 C48.1727769,29.8965407 46.9411615,30.5002483 46.3509,31.700605 C45.7602231,30.5002483 44.5286077,29.8965407 43.1005154,29.8965407 C41.0991923,29.8965407 39.4767,31.5183301 39.4767,33.5187863 C39.4767,38.8961021 46.3509,41.6966576 46.3509,41.6966576 C46.3509,41.6966576 53.2246846,38.8961021 53.2246846,33.5187863 C53.2246846,31.5183301 51.6021923,29.8965407 49.6008692,29.8965407 L49.6008692,29.8965407 Z" id="Fill-8" fill="#F8F8F8"></path>
                        <path d="M43.1005985,30.5194307 C41.4461215,30.5194307 40.09986,31.8651091 40.09986,33.5188693 C40.09986,37.8805945 45.1841677,40.4776997 46.3501523,41.0153898 C47.5148908,40.4760389 52.6016908,37.8706296 52.6016908,33.5188693 C52.6016908,31.8651091 51.2554292,30.5194307 49.6009523,30.5194307 C48.34566,30.5194307 47.3649369,31.0500623 46.9096754,31.9755535 L46.3505677,33.112384 L45.79146,31.9751383 C45.3366138,31.0500623 44.3554754,30.5194307 43.1005985,30.5194307 L43.1005985,30.5194307 Z M46.3505677,42.3693723 L46.11546,42.27346 C45.8188754,42.1526354 38.8537062,39.2486939 38.8537062,33.5188693 C38.8537062,31.1779454 40.75866,29.2738167 43.1005985,29.2738167 C44.4551677,29.2738167 45.5937369,29.7446588 46.3505677,30.592922 C47.1078138,29.7446588 48.2463831,29.2738167 49.6009523,29.2738167 C51.9424754,29.2738167 53.8478446,31.1779454 53.8478446,33.5188693 C53.8478446,39.2486939 46.88226,42.1526354 46.5860908,42.27346 L46.3505677,42.3693723 Z" id="Fill-10" fill="#E73836"></path>
                        <path d="M25.1819031,1.42172079 L42.3966877,1.42172079" id="Fill-12" fill="#F8F8F8"></path>
                        <polygon id="Fill-14" fill="#E73836" points="25.1818615 2.04423717 42.3966462 2.04423717 42.3966462 0.798623132 25.1818615 0.798623132"></polygon>
                        <path d="M66.8910046,4.54156875 L70.6136815,4.54156875" id="Fill-16" fill="#F8F8F8"></path>
                        <path d="M70.6135569,4.95677342 L66.89088,4.95677342 C66.6615877,4.95677342 66.4754954,4.77076173 66.4754954,4.54156875 C66.4754954,4.31237576 66.6615877,4.12636407 66.89088,4.12636407 L70.6135569,4.12636407 C70.8428492,4.12636407 71.0289415,4.31237576 71.0289415,4.54156875 C71.0289415,4.77076173 70.8428492,4.95677342 70.6135569,4.95677342" id="Fill-17" fill="#F7C6C6"></path>
                        <path d="M68.75226,2.68111962 L68.75226,6.40218395" id="Fill-18" fill="#F8F8F8"></path>
                        <path d="M68.7522185,6.81726407 C68.5229262,6.81726407 68.3368338,6.63125237 68.3368338,6.40205939 L68.3368338,2.68099506 C68.3368338,2.45180208 68.5229262,2.26579038 68.7522185,2.26579038 C68.9815108,2.26579038 69.1676031,2.45180208 69.1676031,2.68099506 L69.1676031,6.40205939 C69.1676031,6.63125237 68.9815108,6.81726407 68.7522185,6.81726407" id="Fill-19" fill="#F7C6C6"></path>
                        <path d="M25.1819031,9.10300734 L55.0688262,9.10300734" id="Fill-20" fill="#F8F8F8"></path>
                        <polygon id="Fill-21" fill="#E73836" points="25.1818615 9.72552372 55.0687846 9.72552372 55.0687846 8.47990968 25.1818615 8.47990968"></polygon>
                        <path d="M25.1819031,16.7842939 L55.0688262,16.7842939" id="Fill-22" fill="#F8F8F8"></path>
                        <polygon id="Fill-23" fill="#E73836" points="25.1818615 17.4068103 55.0687846 17.4068103 55.0687846 16.1611962 25.1818615 16.1611962"></polygon>
                        <path d="M25.1819031,24.4655804 L55.0688262,24.4655804" id="Fill-24" fill="#F8F8F8"></path>
                        <polygon id="Fill-25" fill="#E73836" points="25.1818615 25.0880968 55.0687846 25.0880968 55.0687846 23.8424828 25.1818615 23.8424828"></polygon>
                        <path d="M25.1819031,32.146867 L33.7895031,32.146867" id="Fill-26" fill="#F8F8F8"></path>
                        <polygon id="Fill-27" fill="#E73836" points="25.1818615 32.7693834 33.7894615 32.7693834 33.7894615 31.5237693 25.1818615 31.5237693"></polygon>
                        <path d="M78.5170385,21.6975354 C77.7660231,21.6975354 77.1549923,22.3083015 77.1549923,23.0589916 C77.1549923,23.8096816 77.7660231,24.4204477 78.5170385,24.4204477 C79.2680538,24.4204477 79.8790846,23.8096816 79.8790846,23.0589916 C79.8790846,22.3083015 79.2680538,21.6975354 78.5170385,21.6975354 M78.5170385,25.2508571 C77.3078538,25.2508571 76.3242231,24.2672372 76.3242231,23.0589916 C76.3242231,21.8503307 77.3078538,20.8671261 78.5170385,20.8671261 C79.7262231,20.8671261 80.7098538,21.8503307 80.7098538,23.0589916 C80.7098538,24.2672372 79.7262231,25.2508571 78.5170385,25.2508571" id="Fill-28" fill="#F7C6C6"></path>
                        <path d="M68.0443615,17.2010348 L68.0443615,18.5438068 L69.1011,17.8724208 L68.0443615,17.2010348 Z M67.2135923,20.055567 L67.2135923,15.6892746 L70.6496538,17.8724208 L67.2135923,20.055567 Z" id="Fill-29" fill="#F7C6C6"></path>
                        <path d="M0.830769231,31.1714266 L2.67798462,32.2372571 L4.5252,31.1714266 L4.5252,29.0393506 L2.67798462,27.9735202 L0.830769231,29.0393506 L0.830769231,31.1714266 Z M2.67798462,33.1959647 L0,31.6505728 L0,28.5597892 L2.67798462,27.0143974 L5.35596923,28.5597892 L5.35596923,31.6505728 L2.67798462,33.1959647 Z" id="Fill-30" fill="#F7C6C6"></path>
                        <path d="M11.5526769,19.818153 L12.0129231,20.083884 L12.4735846,19.818153 L12.4735846,19.286691 L12.0129231,19.02096 L11.5526769,19.2862758 L11.5526769,19.818153 Z M12.0129231,21.0430068 L10.7219077,20.2972992 L10.7219077,18.8071296 L12.0129231,18.0618372 L13.3043538,18.8067144 L13.3043538,20.2972992 L12.0129231,21.0430068 Z" id="Fill-31" fill="#F7C6C6"></path>
                        <path d="M3.54356308,9.83825179 L4.18824,10.1907606 L4.54048615,10.834743 L4.89314769,10.1907606 L5.53782462,9.83825179 L4.89314769,9.48574301 L4.54048615,8.84176056 L4.18824,9.48574301 L3.54356308,9.83825179 Z M4.54048615,12.5653161 L3.57596308,10.8023571 L1.81224,9.83825179 L3.57596308,8.87414652 L4.54048615,7.11118746 L5.50542462,8.87414652 L7.26956308,9.83825179 L5.50542462,10.8023571 L4.54048615,12.5653161 Z" id="Fill-32" fill="#F7C6C6"></path>
                    </g>
                </g>
                <ellipse id="Oval-135" fill="#F7C8C9" cx="40.0597826" cy="69.2469136" rx="25.9728261" ry="1.75308642"></ellipse>
            </g>
        </g>
    </g>
</svg>