<?xml version="1.0" encoding="UTF-8" standalone="no"?>
<svg width="12px" height="12px" viewBox="0 0 12 12" version="1.1" xmlns="http://www.w3.org/2000/svg" xmlns:xlink="http://www.w3.org/1999/xlink">
    <!-- Generator: Sketch 3.7 (28169) - http://www.bohemiancoding.com/sketch -->
    <title>Fill 1 Copy 3</title>
    <desc>Created with Sketch.</desc>
    <defs></defs>
    <g id="Page-1" stroke="none" stroke-width="1" fill="none" fill-rule="evenodd">
        <g id="评论列表" transform="translate(-92.000000, -362.000000)" fill="#9B9B9B">
            <path d="M102.671913,367.256183 L98.1465035,372.477907 C98.0957908,372.535971 98.022539,372.569586 97.9450612,372.569586 L97.9450612,372.804661 L97.9436525,372.569586 C97.8657051,372.569116 97.7922186,372.53456 97.7419754,372.475086 L93.2313575,367.134414 C92.8704986,366.649925 92.6798563,366.072815 92.6798563,365.465616 C92.6798563,363.923758 93.9326491,362.669633 95.4725795,362.669633 C96.3861135,362.669633 97.2606738,363.103346 97.812175,363.829493 C97.8565486,363.887792 97.9258091,363.922113 97.9990609,363.922113 C98.0725474,363.922113 98.1415731,363.888027 98.1859468,363.829493 C98.7379176,363.103346 99.6129474,362.669633 100.526716,362.669633 C102.067116,362.669633 103.320144,363.923758 103.320144,365.465616 C103.320144,366.1203 103.088884,366.757354 102.671913,367.256183 M100.618491,362 C99.6218978,362 98.663747,362.429247 97.9990268,363.161306 C97.3347932,362.429247 96.377129,362 95.3807786,362 C93.516545,362 92,363.518443 92,365.384766 C92,366.119505 92.2309002,366.818432 92.6705596,367.408707 L97.3610706,372.963339 C97.5051095,373.133869 97.7155718,373.232532 97.940146,373.233994 L97.9430657,373.233994 C98.1642336,373.233994 98.3742092,373.13801 98.5192214,372.970891 L103.211922,367.556337 C103.720195,366.948765 104,366.177485 104,365.384766 C104,363.518443 102.482968,362 100.618491,362" id="Fill-1-Copy-3"></path>
        </g>
    </g>
</svg>