<?xml version="1.0" encoding="UTF-8" standalone="no"?>
<svg width="48px" height="48px" viewBox="0 0 48 48" version="1.1" xmlns="http://www.w3.org/2000/svg" xmlns:xlink="http://www.w3.org/1999/xlink" xmlns:sketch="http://www.bohemiancoding.com/sketch/ns">
    <!-- Generator: Sketch 3.3.2 (12043) - http://www.bohemiancoding.com/sketch -->
    <title>Rectangle 15 + 查看物流 Copy 7 + cart</title>
    <desc>Created with Sketch.</desc>
    <defs>
        <filter x="-50%" y="-50%" width="200%" height="200%" filterUnits="objectBoundingBox" id="filter-1">
            <feOffset dx="0" dy="0" in="SourceAlpha" result="shadowOffsetOuter1"></feOffset>
            <feGaussianBlur stdDeviation="2" in="shadowOffsetOuter1" result="shadowBlurOuter1"></feGaussianBlur>
            <feColorMatrix values="0 0 0 0 0   0 0 0 0 0   0 0 0 0 0  0 0 0 0.208446558 0" in="shadowBlurOuter1" type="matrix" result="shadowMatrixOuter1"></feColorMatrix>
            <feMerge>
                <feMergeNode in="shadowMatrixOuter1"></feMergeNode>
                <feMergeNode in="SourceGraphic"></feMergeNode>
            </feMerge>
        </filter>
    </defs>
    <g id="我的订单" stroke="none" stroke-width="1" fill="none" fill-rule="evenodd" sketch:type="MSPage">
        <g id="意见反馈-copy-8" sketch:type="MSArtboardGroup" transform="translate(-261.000000, -509.000000)">
            <g id="Rectangle-15-+-查看物流-Copy-7-+-cart" sketch:type="MSLayerGroup" transform="translate(265.000000, 513.000000)">
                <g id="Rectangle-15-+-查看物流-Copy-7" stroke="#FFFFFF" filter="url(#filter-1)" fill="#FF5B54" sketch:type="MSShapeGroup">
                    <rect id="Rectangle-15" x="0" y="0" width="40" height="40" rx="33"></rect>
                </g>
                <g id="cart" transform="translate(19.500000, 20.000000) scale(-1, 1) translate(-19.500000, -20.000000) translate(7.000000, 10.000000)" fill="#FFFFFF" sketch:type="MSShapeGroup">
                    <path d="M23.662852,-9.76996262e-15 L21.1445747,-9.76996262e-15 C21.0484708,-9.76996262e-15 17.2804873,3.55593889 17.2804873,3.55593889 C17.2370626,3.60047866 17.2039601,3.65117432 17.1765527,3.70404266 L10.3328895,3.70404266 L8.63007128,3.70404266 L1.03928943,3.70404266 C0.272238185,3.70404266 -0.167703968,4.31383911 0.0600977939,5.05834118 L2.55879837,13.2083938 C2.78766796,13.953258 3.60170332,14.5626923 4.36839862,14.5626923 L8.63007128,14.5626923 L10.3328895,14.5626923 L14.5938502,14.5626923 C15.3609015,14.5626923 16.1752928,13.9528959 16.4030945,13.2083938 L18.878659,5.13655735 L21.6215346,2.3453988 L23.662852,2.3453988 C23.9970799,2.3453988 24.2711538,2.06729686 24.2711538,1.72691167 L24.2711538,0.617762907 C24.2711538,0.278101942 23.9970799,-9.76996262e-15 23.662852,-9.76996262e-15 Z M4.04519231,19.4169231 C4.93883152,19.4169231 5.66326923,18.6924854 5.66326923,17.7988462 C5.66326923,16.9052069 4.93883152,16.1807692 4.04519231,16.1807692 C3.1515531,16.1807692 2.42711538,16.9052069 2.42711538,17.7988462 C2.42711538,18.6924854 3.1515531,19.4169231 4.04519231,19.4169231 Z M13.7536538,19.4169231 C14.6472931,19.4169231 15.3717308,18.6924854 15.3717308,17.7988462 C15.3717308,16.9052069 14.6472931,16.1807692 13.7536538,16.1807692 C12.8600146,16.1807692 12.1355769,16.9052069 12.1355769,17.7988462 C12.1355769,18.6924854 12.8600146,19.4169231 13.7536538,19.4169231 Z" id="Shape"></path>
                </g>
            </g>
        </g>
    </g>
</svg>