<?xml version="1.0" encoding="UTF-8" standalone="no"?>
<svg width="46px" height="38px" viewBox="0 0 23 19" version="1.1" xmlns="http://www.w3.org/2000/svg" xmlns:xlink="http://www.w3.org/1999/xlink" xmlns:sketch="http://www.bohemiancoding.com/sketch/ns">
    <!-- Generator: Sketch 3.3.3 (12072) - http://www.bohemiancoding.com/sketch -->
    <title>Shape Copy 10</title>
    <desc>Created with Sketch.</desc>
    <defs></defs>
    <g id="Page-2" stroke="none" stroke-width="1" fill="none" fill-rule="evenodd" sketch:type="MSPage">
        <path d="M22.4335818,0.711110963 L20.0886967,0.711110963 C19.9992099,0.711110963 16.4906652,3.93023608 16.4906652,3.93023608 C16.4502304,3.97055709 16.4194072,4.01645093 16.3938869,4.06431165 L10.0214337,4.06431165 L8.43586044,4.06431165 L1.36773035,4.06431165 C0.653493257,4.06431165 0.243842652,4.61634899 0.45595947,5.29033283 L2.78261581,12.6684233 C2.99572693,13.342735 3.75371312,13.8944445 4.46761878,13.8944445 L8.43586044,13.8944445 L10.0214337,13.8944445 L13.9890124,13.8944445 C14.7032495,13.8944445 15.4615672,13.3424072 15.673684,12.6684233 L17.9787972,5.36114047 L20.5328163,2.83435672 L22.4335818,2.83435672 C22.744797,2.83435672 23,2.58259622 23,2.27445187 L23,1.27036019 C23,0.96287146 22.744797,0.711110963 22.4335818,0.711110963 L22.4335818,0.711110963 Z M4.16666635,18.288889 C4.99877539,18.288889 5.67333304,17.6330691 5.67333304,16.8240742 C5.67333304,16.0150793 4.99877539,15.3592594 4.16666635,15.3592594 C3.33455731,15.3592594 2.65999966,16.0150793 2.65999966,16.8240742 C2.65999966,17.6330691 3.33455731,18.288889 4.16666635,18.288889 Z M13.2066665,18.288889 C14.0387755,18.288889 14.7133332,17.6330691 14.7133332,16.8240742 C14.7133332,16.0150793 14.0387755,15.3592594 13.2066665,15.3592594 C12.3745575,15.3592594 11.6999998,16.0150793 11.6999998,16.8240742 C11.6999998,17.6330691 12.3745575,18.288889 13.2066665,18.288889 Z" id="Shape-Copy-10" fill="#4A4A4A" sketch:type="MSShapeGroup" transform="translate(11.700000, 9.500000) scale(-1, 1) translate(-11.700000, -9.500000) "></path>
    </g>
</svg>