<?xml version="1.0" encoding="UTF-8" standalone="no"?>
<svg width="48px" height="48px" viewBox="0 0 48 48" version="1.1" xmlns="http://www.w3.org/2000/svg" xmlns:xlink="http://www.w3.org/1999/xlink" xmlns:sketch="http://www.bohemiancoding.com/sketch/ns">
    <!-- Generator: Sketch 3.4 (15575) - http://www.bohemiancoding.com/sketch -->
    <title>icon-welfare2</title>
    <desc>Created with Sketch.</desc>
    <defs>
        <path id="path-1" d="M0.0565597905,9.38092368 C0.0565597905,7.44567329 1.53286928,5.38169274 3.37249549,4.78448341 C3.37249549,4.78448341 16.9014226,0.069273054 23.8176913,0.069273054 C30.3932495,0.069273054 44.2600603,4.80148745 44.2600603,4.80148745 C46.0929622,5.39538985 47.5788228,7.44151117 47.5788228,9.38092368 L47.5788228,32.6613986 C47.5788228,34.596649 46.0112077,36.1654794 44.0843973,36.1654794 L3.55098525,36.1654794 C1.62106736,36.1654794 0.0565597905,34.6008111 0.0565597905,32.6613986 L0.0565597905,9.38092368 Z"></path>
        <filter x="-50%" y="-50%" width="200%" height="200%" filterUnits="objectBoundingBox" id="filter-3">
            <feOffset dx="0" dy="1" in="SourceAlpha" result="shadowOffsetOuter1"></feOffset>
            <feGaussianBlur stdDeviation="1" in="shadowOffsetOuter1" result="shadowBlurOuter1"></feGaussianBlur>
            <feColorMatrix values="0 0 0 0 0   0 0 0 0 0   0 0 0 0 0  0 0 0 0.35 0" in="shadowBlurOuter1" type="matrix" result="shadowMatrixOuter1"></feColorMatrix>
            <feMerge>
                <feMergeNode in="shadowMatrixOuter1"></feMergeNode>
                <feMergeNode in="SourceGraphic"></feMergeNode>
            </feMerge>
        </filter>
        <path id="path-4" d="M0.0385601926,22.4688058 L8.00586651,31.9917201 L15.082846,26.1606627 L22.5895351,32.3389005 L29.9503241,23.5127141 L29.9503241,3.69531644 C29.9503241,1.76826296 28.381113,0.206077449 26.4489812,0.206077449 L3.27267415,0.206077449 L0.00434833959,4.64369267"></path>
        <filter x="-50%" y="-50%" width="200%" height="200%" filterUnits="objectBoundingBox" id="filter-6">
            <feOffset dx="0" dy="0" in="SourceAlpha" result="shadowOffsetOuter1"></feOffset>
            <feGaussianBlur stdDeviation="1" in="shadowOffsetOuter1" result="shadowBlurOuter1"></feGaussianBlur>
            <feColorMatrix values="0 0 0 0 0.888206845   0 0 0 0 0.774405999   0 0 0 0 0.19320882  0 0 0 0.7 0" in="shadowBlurOuter1" type="matrix" result="shadowMatrixOuter1"></feColorMatrix>
            <feMerge>
                <feMergeNode in="shadowMatrixOuter1"></feMergeNode>
                <feMergeNode in="SourceGraphic"></feMergeNode>
            </feMerge>
        </filter>
    </defs>
    <g id="福利社" stroke="none" stroke-width="1" fill="none" fill-rule="evenodd" sketch:type="MSPage">
        <g id="福利社1111" sketch:type="MSArtboardGroup" transform="translate(-20.000000, -206.000000)">
            <g id="icon-welfare2" sketch:type="MSLayerGroup" transform="translate(20.000000, 206.000000)">
                <g id="Mask-+-Path-42" transform="translate(0.092514, 11.465451)">
                    <mask id="mask-2" sketch:name="Mask" fill="white">
                        <use xlink:href="#path-1"></use>
                    </mask>
                    <use id="Mask" fill="#C03C36" sketch:type="MSShapeGroup" xlink:href="#path-1"></use>
                    <path d="M42.2113451,9.89000068 L12.5093669,34.4993847 L72.2199961,34.4993847 L42.2113451,9.89000068 Z" id="Path-42-Copy" fill="#FF534C" sketch:type="MSShapeGroup" mask="url(#mask-2)">
                        <g transform="translate(42.364682, 22.194693) scale(-1, -1) rotate(90.000000) translate(-42.364682, -22.194693) "></g>
                    </path>
                    <path d="M7.0096688,11.637422 L-22.6923094,36.2468061 L37.0183199,36.2468061 L7.0096688,11.637422 Z" id="Path-42-Copy-2" fill="#FF534C" sketch:type="MSShapeGroup" mask="url(#mask-2)">
                        <g transform="translate(7.163005, 23.942114) scale(1, -1) rotate(90.000000) translate(-7.163005, -23.942114) "></g>
                    </path>
                    <path d="M23.6643548,14.6993591 L-6.03762335,39.3087432 L53.6730059,39.3087432 L23.6643548,14.6993591 Z" id="Path-42" fill="#FF534C" filter="url(#filter-3)" sketch:type="MSShapeGroup" mask="url(#mask-2)"></path>
                </g>
                <g id="Oval-17" transform="translate(8.691461, 0.000000)">
                    <mask id="mask-5" sketch:name="Mask" fill="white">
                        <use xlink:href="#path-4"></use>
                    </mask>
                    <use id="Mask" fill="#FBDF50" sketch:type="MSShapeGroup" xlink:href="#path-4"></use>
                    <path d="M0.880041907,5.24226402 C2.66216556,5.24226402 4.10686223,3.80796085 4.10686223,2.03865823 C4.10686223,0.269355608 2.66216556,-1.16494756 0.880041907,-1.16494756 C-0.902081749,-1.16494756 -2.34677842,0.269355608 -2.34677842,2.03865823 C-2.34677842,3.80796085 -0.902081749,5.24226402 0.880041907,5.24226402 Z" fill="#FFE993" filter="url(#filter-6)" sketch:type="MSShapeGroup" mask="url(#mask-5)"></path>
                </g>
            </g>
        </g>
    </g>
</svg>