<?xml version="1.0" encoding="UTF-8" standalone="no"?>
<svg width="17px" height="9px" viewBox="0 0 17 9" version="1.1" xmlns="http://www.w3.org/2000/svg" xmlns:xlink="http://www.w3.org/1999/xlink" xmlns:sketch="http://www.bohemiancoding.com/sketch/ns">
    <!-- Generator: Sketch 3.3.2 (12043) - http://www.bohemiancoding.com/sketch -->
    <title>Fill 1910 + Fill 1912</title>
    <desc>Created with Sketch.</desc>
    <defs></defs>
    <g id="Page-1" stroke="none" stroke-width="1" fill="none" fill-rule="evenodd" sketch:type="MSPage">
        <g id="H5-账户明细" sketch:type="MSArtboardGroup" transform="translate(-398.000000, -818.000000)" fill="#CCCCCC">
            <g id="Fill-1910-+-Fill-1912" sketch:type="MSLayerGroup" transform="translate(398.000000, 818.000000)">
                <path d="M15.8726875,6.36777491 L2.59742614,6.36777491 L2.82393182,6.14915142 C3.08289205,5.89929602 3.07342614,5.50577375 2.80432386,5.26841111 C2.53454545,5.02542673 2.10655114,5.03729486 1.84826705,5.28152852 L0.560903409,6.52393454 C0.416886364,6.63699411 0.321551136,6.80502187 0.321551136,6.99241343 C0.321551136,7.17980498 0.416886364,7.34283563 0.559551136,7.46089231 L1.84826705,8.69767658 C1.98146591,8.82885067 2.15861364,8.89193916 2.3364375,8.89193916 C2.50479545,8.89193916 2.67315341,8.83509706 2.80432386,8.71641574 C3.07342614,8.4790531 3.08289205,8.08553083 2.82393182,7.83630007 L2.59810227,7.61705194 L15.8726875,7.61705194 C16.2459148,7.61705194 16.5488239,7.33658925 16.5488239,6.99241343 C16.5488239,6.64886224 16.2459148,6.36777491 15.8726875,6.36777491" id="Fill-1910" sketch:type="MSShapeGroup"></path>
                <path d="M0.9976875,2.61994379 L14.2729489,2.61994379 L14.0471193,2.83919191 C13.7888352,3.08842268 13.797625,3.48194495 14.0674034,3.71993222 C14.1978977,3.8379889 14.3669318,3.89483101 14.5346136,3.89483101 C14.7124375,3.89483101 14.8902614,3.83174252 15.0227841,3.70056843 L16.3115,2.45753777 C16.4541648,2.34572748 16.5488239,2.18332146 16.5488239,1.99530527 C16.5488239,1.80791371 16.4548409,1.6455077 16.3135284,1.5336974 L15.0227841,0.283795727 C14.7645,0.0401867047 14.3365057,0.0283185729 14.0674034,0.271302957 C13.797625,0.508665594 13.7888352,0.902187861 14.0471193,1.15204327 L14.273625,1.37066675 L0.9976875,1.37066675 C0.624460227,1.37066675 0.321551136,1.65175408 0.321551136,1.99530527 C0.321551136,2.33948109 0.624460227,2.61994379 0.9976875,2.61994379" id="Fill-1911" sketch:type="MSShapeGroup"></path>
            </g>
        </g>
    </g>
</svg>