<?xml version="1.0" encoding="UTF-8" standalone="no"?>
<svg width="28px" height="28px" viewBox="0 0 28 28" version="1.1" xmlns="http://www.w3.org/2000/svg" xmlns:xlink="http://www.w3.org/1999/xlink" xmlns:sketch="http://www.bohemiancoding.com/sketch/ns">
    <!-- Generator: Sketch 3.4 (15575) - http://www.bohemiancoding.com/sketch -->
    <title>icon-welfare5</title>
    <desc>Created with Sketch.</desc>
    <defs></defs>
    <g id="福利社" stroke="none" stroke-width="1" fill="none" fill-rule="evenodd" sketch:type="MSPage">
        <g id="福利社1111" sketch:type="MSArtboardGroup" transform="translate(-152.000000, -446.000000)" fill="#F4A818">
            <g id="icon-welfare5" sketch:type="MSLayerGroup" transform="translate(152.000000, 446.000000)">
                <path d="M25.0258462,0.153846154 L2.872,0.153846154 C1.34861538,0.153846154 0.102769231,1.4 0.102769231,2.92307692 L0.102769231,20.4104615 C0.102769231,21.9338462 1.34861538,23.1796923 2.872,23.1796923 L10.8716923,23.1796923 L13.9486154,27.7950769 L17.0255385,23.1796923 L25.0255385,23.1796923 C26.5489231,23.1796923 27.7947692,21.9338462 27.7947692,20.4104615 L27.7947692,2.92307692 C27.7950769,1.4 26.5492308,0.153846154 25.0258462,0.153846154 L25.0258462,0.153846154 Z M22.2566154,17.6356923 L5.64123077,17.6356923 L5.64123077,15.7950769 L22.2566154,15.7950769 L22.2566154,17.6356923 L22.2566154,17.6356923 Z M22.2566154,12.4076923 L5.64123077,12.4076923 L5.64123077,10.5670769 L22.2566154,10.5670769 L22.2566154,12.4076923 L22.2566154,12.4076923 Z M22.2566154,7.17938462 L5.64123077,7.17938462 L5.64123077,5.33876923 L22.2566154,5.33876923 L22.2566154,7.17938462 L22.2566154,7.17938462 Z" id="Shape" sketch:type="MSShapeGroup"></path>
            </g>
        </g>
    </g>
</svg>