<?xml version="1.0" encoding="UTF-8" standalone="no"?>
<svg width="53px" height="42px" viewBox="0 0 53 42" version="1.1" xmlns="http://www.w3.org/2000/svg" xmlns:xlink="http://www.w3.org/1999/xlink" xmlns:sketch="http://www.bohemiancoding.com/sketch/ns">
    <!-- Generator: Sketch 3.4 (15575) - http://www.bohemiancoding.com/sketch -->
    <title>icon-welfare3</title>
    <desc>Created with Sketch.</desc>
    <defs></defs>
    <g id="福利社" stroke="none" stroke-width="1" fill="none" fill-rule="evenodd" sketch:type="MSPage">
        <g id="福利社1111" sketch:type="MSArtboardGroup" transform="translate(-17.000000, -297.000000)">
            <g id="icon-welfare3" sketch:type="MSLayerGroup" transform="translate(17.000000, 297.000000)">
                <g id="img_cupon-copy-2" transform="translate(2.962613, 17.568783)" sketch:type="MSShapeGroup">
                    <g id="下单支付">
                        <g id="img_cupon">
                            <path d="M0,19.4488152 L0,17.5153562 C0.285556806,17.431613 0.496555128,17.1362579 0.496555128,16.7847513 C0.496555128,16.4332448 0.285556806,16.1378897 4.48380042e-15,16.0541465 L0,16.0541465 L0,14.8750582 C0.285556806,14.791315 0.496555128,14.4959599 0.496555128,14.1444534 C0.496555128,13.7929468 0.285556806,13.4975917 4.48380042e-15,13.4138485 L0,13.4138485 L0,12.2347603 C0.285556806,12.151017 0.496555128,11.8556619 0.496555128,11.5041554 C0.496555128,11.1526489 0.285556806,10.8572938 4.48380042e-15,10.7735505 L0,10.7735505 L0,9.59446231 C0.285556806,9.51071907 0.496555128,9.21536397 0.496555128,8.86385744 C0.496555128,8.51235092 0.285556806,8.21699581 4.48380042e-15,8.13325258 L0,8.13325258 L0,6.95416434 C0.285556806,6.87042111 0.496555128,6.57506601 0.496555128,6.22355948 C0.496555128,5.87205295 0.285556806,5.57669785 1.21283126e-15,5.49295462 L0,5.49295462 L0,4.31386638 C0.285556806,4.23012315 0.496555128,3.93476805 0.496555128,3.58326152 C0.496555128,3.23175499 0.285556806,2.93639989 4.48380042e-15,2.85265665 L0,2.85265665 L0,1.88592712 C0.91413275,1.88592712 1.65518376,1.04156879 1.65518376,3.35007953e-16 L1.65518376,0 L46.3451453,0 C46.3451453,1.04156879 47.0861964,1.88592712 48.0003291,1.88592712 L48.0003291,2.85265665 C47.7147723,2.93639989 47.5037739,3.23175499 47.5037739,3.58326152 C47.5037739,3.93476805 47.7147723,4.23012315 48.0003291,4.31386638 L48.0003291,5.49295462 C47.7147723,5.57669785 47.5037739,5.87205295 47.5037739,6.22355948 C47.5037739,6.57506601 47.7147723,6.87042111 48.0003291,6.95416434 L48.0003291,8.13325258 C47.7147723,8.21699581 47.5037739,8.51235092 47.5037739,8.86385744 C47.5037739,9.21536397 47.7147723,9.51071907 48.0003291,9.59446231 L48.0003291,10.7735505 C47.7147723,10.8572938 47.5037739,11.1526489 47.5037739,11.5041554 C47.5037739,11.8556619 47.7147723,12.151017 48.0003291,12.2347603 L48.0003291,13.4138485 C47.7147723,13.4975917 47.5037739,13.7929468 47.5037739,14.1444534 C47.5037739,14.4959599 47.7147723,14.791315 48.0003291,14.8750582 L48.0003291,16.0541465 C47.7147723,16.1378897 47.5037739,16.4332448 47.5037739,16.7847513 C47.5037739,17.1362579 47.7147723,17.431613 48.0003291,17.5153562 L48.0003291,19.4488152 C47.7147723,19.5325584 47.5037739,19.8279137 47.5037739,20.1794201 C47.5037739,20.5309266 47.7147723,20.8262818 48.0003291,20.9100251 L48.0003291,22.0653472 C47.0861964,22.0653472 46.3451453,22.9097057 46.3451453,23.9512744 L1.65518376,23.9512744 C1.65518376,22.9097057 0.91413275,22.0653472 0,22.0653472 L0,20.9100251 C0.285556806,20.8262818 0.496555128,20.5309266 0.496555128,20.1794201 C0.496555128,19.8279137 0.285556806,19.5325584 4.48380042e-15,19.4488152 L0,19.4488152 Z" id="Rectangle-313" stroke-opacity="0.16833673" stroke="#D0011B" stroke-width="0.5" fill="#FF5B54"></path>
                            <path d="M1.52355104,20.7147562 L1.52355104,3.23651822 C2.37965385,3.23651822 3.07366231,2.50518424 3.07366231,1.60303805 L3.07366231,1.60303805 L44.9266667,1.60303805 C44.9266667,2.50518424 45.6206752,3.23651822 46.4767781,3.23651822 L46.4767781,20.7147562 C45.6206752,20.7147562 44.9266667,21.4460901 44.9266667,22.3482363 L3.07366231,22.3482363 C3.07366231,21.4460901 2.37965385,20.7147562 1.52355104,20.7147562 L1.52355104,20.7147562 Z" id="Rectangle-313-Copy" stroke="#D74942" fill="#FF534C"></path>
                            <path id="Path-306" stroke="#F53F37" d="M1.67765159,14.0617599 L46.4056271,14.0617599"></path>
                        </g>
                    </g>
                </g>
                <g id="img_cupon-copy-3" transform="translate(27.060201, 18.384015) rotate(-14.000000) translate(-27.060201, -18.384015) translate(2.560201, 5.884015)" sketch:type="MSShapeGroup">
                    <g id="下单支付" transform="translate(-0.000000, -0.000000)">
                        <g id="img_cupon">
                            <path d="M0,19.5859066 L0,17.638819 C0.287295231,17.5544855 0.499578077,17.2570485 0.499578077,16.9030642 C0.499578077,16.54908 0.287295231,16.251643 4.51109708e-15,16.1673094 L0,16.1673094 L0,14.97991 C0.287295231,14.8955765 0.499578077,14.5981395 0.499578077,14.2441552 C0.499578077,13.890171 0.287295231,13.592734 4.51109708e-15,13.5084005 L0,13.5084005 L0,12.321001 C0.287295231,12.2366675 0.499578077,11.9392305 0.499578077,11.5852463 C0.499578077,11.231262 0.287295231,10.933825 4.51109708e-15,10.8494915 L0,10.8494915 L0,9.66209206 C0.287295231,9.57775853 0.499578077,9.28032152 0.499578077,8.92633728 C0.499578077,8.57235304 0.287295231,8.27491603 4.51109708e-15,8.19058251 L0,8.19058251 L0,7.00318308 C0.287295231,6.91884955 0.499578077,6.62141254 0.499578077,6.2674283 C0.499578077,5.91344407 0.287295231,5.61600706 1.22021478e-15,5.53167353 L0,5.53167353 L0,4.3442741 C0.287295231,4.25994057 0.499578077,3.96250356 0.499578077,3.60851933 C0.499578077,3.25453509 0.287295231,2.95709808 4.51109708e-15,2.87276455 L0,2.87276455 L0,1.8992207 C0.919697845,1.8992207 1.66526026,1.04891063 1.66526026,3.37369368e-16 L1.66526026,0 L46.6272872,0 C46.6272872,1.04891063 47.3728497,1.8992207 48.2925475,1.8992207 L48.2925475,2.87276455 C48.0052523,2.95709808 47.7929694,3.25453509 47.7929694,3.60851933 C47.7929694,3.96250356 48.0052523,4.25994057 48.2925475,4.3442741 L48.2925475,5.53167353 C48.0052523,5.61600706 47.7929694,5.91344407 47.7929694,6.2674283 C47.7929694,6.62141254 48.0052523,6.91884955 48.2925475,7.00318308 L48.2925475,8.19058251 C48.0052523,8.27491603 47.7929694,8.57235304 47.7929694,8.92633728 C47.7929694,9.28032152 48.0052523,9.57775853 48.2925475,9.66209206 L48.2925475,10.8494915 C48.0052523,10.933825 47.7929694,11.231262 47.7929694,11.5852463 C47.7929694,11.9392305 48.0052523,12.2366675 48.2925475,12.321001 L48.2925475,13.5084005 C48.0052523,13.592734 47.7929694,13.890171 47.7929694,14.2441552 C47.7929694,14.5981395 48.0052523,14.8955765 48.2925475,14.97991 L48.2925475,16.1673094 C48.0052523,16.251643 47.7929694,16.54908 47.7929694,16.9030642 C47.7929694,17.2570485 48.0052523,17.5544855 48.2925475,17.638819 L48.2925475,19.5859066 C48.0052523,19.6702402 47.7929694,19.9676773 47.7929694,20.3216615 C47.7929694,20.6756456 48.0052523,20.9730828 48.2925475,21.0574163 L48.2925475,22.2208822 C47.3728497,22.2208822 46.6272872,23.0711923 46.6272872,24.1201029 L1.66526026,24.1201029 C1.66526026,23.0711923 0.919697845,22.2208822 0,22.2208822 L0,21.0574163 C0.287295231,20.9730828 0.499578077,20.6756456 0.499578077,20.3216615 C0.499578077,19.9676773 0.287295231,19.6702402 4.51109708e-15,19.5859066 L0,19.5859066 Z" id="Rectangle-313" stroke="#FFFFFF" stroke-width="0.5" fill="#FF5B54"></path>
                            <path d="M1.53282617,20.860771 L1.53282617,3.25933189 C2.39414081,3.25933189 3.09237428,2.52284286 3.09237428,1.61433759 L3.09237428,1.61433759 L45.2001732,1.61433759 C45.2001732,2.52284286 45.8984066,3.25933189 46.7597214,3.25933189 L46.7597214,20.860771 C45.8984066,20.860771 45.2001732,21.5972599 45.2001732,22.5057653 L3.09237428,22.5057653 C3.09237428,21.5972599 2.39414081,20.860771 1.53282617,20.860771 L1.53282617,20.860771 Z" id="Rectangle-313-Copy" stroke="#D84842" fill="#FF534C"></path>
                            <path id="Path-306" stroke="#F53F37" d="M1.68786487,14.1608789 L46.6881371,14.1608789"></path>
                        </g>
                    </g>
                </g>
                <polygon id="Star-1-Copy" fill="#FFFFFF" sketch:type="MSShapeGroup" points="26.7816562 21.5749524 24.4642844 23.822388 24.1267531 20.6039786 20.9138648 20.8288402 22.7141086 18.1453865 20.1090501 16.2424589 23.2047149 15.3495787 22.4264219 12.2092629 25.3690117 13.5247448 26.7816562 10.6164294 28.1943006 13.5247448 31.1368905 12.2092629 30.3585975 15.3495787 33.4542623 16.2424589 30.8492037 18.1453865 32.6494475 20.8288402 29.4365593 20.6039786 29.099028 23.822388 "></polygon>
                <text id="%-copy" sketch:type="MSTextLayer" transform="translate(27.325849, 18.177478) rotate(-17.000000) translate(-27.325849, -18.177478) " font-family="Heiti SC" font-size="7.26923077" font-weight="260" fill="#FF5E57">
                    <tspan x="24.414272" y="20.5253043">%</tspan>
                </text>
            </g>
        </g>
    </g>
</svg>