<?xml version="1.0" encoding="UTF-8" standalone="no"?>
<svg width="38px" height="54px" viewBox="0 0 38 54" version="1.1" xmlns="http://www.w3.org/2000/svg" xmlns:xlink="http://www.w3.org/1999/xlink" xmlns:sketch="http://www.bohemiancoding.com/sketch/ns">
    <!-- Generator: Sketch 3.3.3 (12072) - http://www.bohemiancoding.com/sketch -->
    <title>icon_paper</title>
    <desc>Created with Sketch.</desc>
    <defs></defs>
    <g id="申请返回税金" stroke="none" stroke-width="1" fill="none" fill-rule="evenodd" sketch:type="MSPage">
        <g id="申请-H5-未填写" sketch:type="MSArtboardGroup" transform="translate(-39.000000, -219.000000)" fill="#9B9B9B">
            <g id="icon_paper" sketch:type="MSLayerGroup" transform="translate(39.000000, 219.000000)">
                <path d="M34.5737705,0 L2.99016393,0 C1.43278689,0 0,1.36551724 0,2.91724138 L0,51.4551724 C0,52.8206897 0.872131148,53.3793103 1.68196721,53.3793103 C2.11803279,53.3793103 2.67868852,53.1931034 3.1147541,52.8206897 L5.04590164,51.2068966 C5.48196721,50.8344828 6.2295082,50.8965517 6.60327869,51.2689655 L8.22295082,52.7586207 C8.78360656,53.2551724 9.46885246,53.5034483 10.2163934,53.5034483 C10.9639344,53.5034483 11.7114754,53.2551724 12.2098361,52.7586207 L13.8295082,51.2689655 C14.2032787,50.9586207 14.8262295,50.9586207 15.1377049,51.3310345 L16.2590164,52.5724138 C16.757377,53.1310345 17.504918,53.5034483 18.3147541,53.5034483 C19,53.5034483 19.6852459,53.2551724 20.2459016,52.7586207 L21.8032787,51.3310345 C22.1770492,50.9586207 22.8622951,50.9586207 23.2360656,51.3310345 L24.7311475,52.7586207 C25.2918033,53.3172414 26.0393443,53.5655172 26.8491803,53.5655172 C27.5344262,53.5655172 28.2196721,53.3172414 28.7803279,52.8827586 L30.7737705,51.2068966 C31.2098361,50.8344828 32.0196721,50.8344828 32.4557377,51.2068966 L34.4491803,52.8206897 C34.8852459,53.1931034 35.3836066,53.3793103 35.8196721,53.3793103 C36.3180328,53.3793103 36.8163934,53.1310345 37.0655738,52.6965517 C37.3147541,52.3862069 37.4393443,51.9517241 37.4393443,51.3931034 L37.4393443,2.91724138 C37.3770492,1.36551724 36.1311475,0 34.5737705,0 L34.5737705,0 Z M35.5081967,51.3310345 L33.6393443,49.7793103 C33.0786885,49.3448276 32.3311475,49.0965517 31.5836066,49.0965517 C30.8360656,49.0965517 30.0885246,49.3448276 29.5278689,49.7793103 L27.4721311,51.4551724 C27.0360656,51.7655172 26.2885246,51.7655172 25.9147541,51.3931034 L24.4196721,49.9655172 C23.8590164,49.4689655 23.1737705,49.1586207 22.4262295,49.1586207 C21.6786885,49.1586207 20.9934426,49.4068966 20.4327869,49.9655172 L18.8754098,51.3931034 C18.5016393,51.7034483 17.9409836,51.7034483 17.6295082,51.3310345 L16.5081967,50.0896552 C16.0098361,49.5310345 15.2,49.1586207 14.452459,49.1586207 C13.7672131,49.1586207 13.0819672,49.4068966 12.5836066,49.9034483 L10.9639344,51.3931034 C10.5901639,51.7655172 9.90491803,51.7655172 9.46885246,51.3931034 L7.84918033,49.9034483 C7.28852459,49.4068966 6.54098361,49.0965517 5.79344262,49.0965517 C5.04590164,49.0965517 4.29836066,49.3448276 3.73770492,49.7793103 L1.86885246,51.3310345 L1.86885246,2.91724138 C1.86885246,2.42068966 2.49180328,1.86206897 2.99016393,1.86206897 L34.5737705,1.86206897 C35.0721311,1.86206897 35.5081967,2.42068966 35.5081967,2.91724138 L35.5081967,51.3310345 L35.5081967,51.3310345 Z" id="Shape" sketch:type="MSShapeGroup"></path>
                <path d="M29.5278689,14.2758621 L8.03606557,14.2758621 C7.53770492,14.2758621 7.10163934,14.7103448 7.10163934,15.2068966 C7.10163934,15.7034483 7.53770492,16.137931 8.03606557,16.137931 L29.5278689,16.137931 C30.0262295,16.137931 30.4622951,15.7034483 30.4622951,15.2068966 C30.4622951,14.7103448 30.0262295,14.2758621 29.5278689,14.2758621 L29.5278689,14.2758621 Z" id="Shape" sketch:type="MSShapeGroup"></path>
                <path d="M29.5278689,24.2068966 L8.03606557,24.2068966 C7.53770492,24.2068966 7.10163934,24.6413793 7.10163934,25.137931 C7.10163934,25.6344828 7.53770492,26.0689655 8.03606557,26.0689655 L29.5278689,26.0689655 C30.0262295,26.0689655 30.4622951,25.6344828 30.4622951,25.137931 C30.4622951,24.6413793 30.0262295,24.2068966 29.5278689,24.2068966 L29.5278689,24.2068966 Z" id="Shape" sketch:type="MSShapeGroup"></path>
                <path d="M29.5278689,33.5172414 L8.03606557,33.5172414 C7.53770492,33.5172414 7.10163934,33.9517241 7.10163934,34.4482759 C7.10163934,34.9448276 7.53770492,35.3793103 8.03606557,35.3793103 L29.5278689,35.3793103 C30.0262295,35.3793103 30.4622951,34.9448276 30.4622951,34.4482759 C30.4622951,33.9517241 30.0262295,33.5172414 29.5278689,33.5172414 L29.5278689,33.5172414 Z" id="Shape" sketch:type="MSShapeGroup"></path>
            </g>
        </g>
    </g>
</svg>