<?xml version="1.0" encoding="UTF-8" standalone="no"?>
<svg width="10px" height="12px" viewBox="0 0 10 12" version="1.1" xmlns="http://www.w3.org/2000/svg" xmlns:xlink="http://www.w3.org/1999/xlink" xmlns:sketch="http://www.bohemiancoding.com/sketch/ns">
    <!-- Generator: Sketch 3.4 (15575) - http://www.bohemiancoding.com/sketch -->
    <title>blackfire</title>
    <desc>Created with Sketch.</desc>
    <defs></defs>
    <g id="新品推荐" stroke="none" stroke-width="1" fill="none" fill-rule="evenodd" sketch:type="MSPage">
        <g sketch:type="MSArtboardGroup" transform="translate(-91.000000, -71.000000)" id="blackfire" fill="#4A4A4A">
            <g sketch:type="MSLayerGroup" transform="translate(91.000000, 71.000000)">
                <g id="Group" sketch:type="MSShapeGroup">
                    <path d="M7.95,3.594 L7.78560606,3.4662439 C7.5919697,3.31580488 7.29893939,3.37317073 7.19212121,3.58990244 C7.14015152,3.69526829 7.10348485,4.76195122 7.10348485,4.94165854 C7.10348485,4.97795122 7.09560606,5.0375122 7.09651515,5.04380488 C7.09651515,5.19541463 6.95606061,5.31570732 6.79424242,5.28995122 C6.6669697,5.2697561 6.58,5.15312195 6.57939394,5.02858537 C6.57121212,3.20429268 5.99409091,1.93214634 4.93484848,0.982097561 C4.28712121,0.401121951 3.52121212,-0.11195122 3.28681818,0.288585366 C3.2269697,0.390731707 3.32590909,0.620341463 3.42560606,0.914487805 C3.64712121,1.56878049 2.97121212,2.61365854 2.01575758,3.65780488 C1.11772727,4.63931707 0,5.86097561 0,7.66082927 C0,9.42278049 1.2569697,11.0701463 2.94606061,11.8374146 C3.09757576,11.9061951 3.24409091,11.7241463 3.13681818,11.6000488 C2.76590909,11.1708293 2.55257576,10.6103415 2.58287879,10.0009756 C2.64166667,8.82073171 3.64772727,7.85078049 4.86969697,7.79634146 C6.24909091,7.73473171 7.38757576,8.79673171 7.38757576,10.115561 C7.38757576,10.6792683 7.17924242,11.195561 6.83318182,11.5974146 C6.72424242,11.724 6.86560606,11.9083902 7.01984848,11.838439 C8.70984848,11.0714634 9.96772727,9.42365854 9.96772727,7.66097561 C9.96772727,6.13141463 9.21333333,4.61107317 7.95,3.594 L7.95,3.594 Z" id="Shape"></path>
                </g>
            </g>
        </g>
    </g>
</svg>