<?xml version="1.0" encoding="UTF-8" standalone="no"?>
<svg width="15px" height="20px" viewBox="0 0 15 20" version="1.1" xmlns="http://www.w3.org/2000/svg" xmlns:xlink="http://www.w3.org/1999/xlink" xmlns:sketch="http://www.bohemiancoding.com/sketch/ns">
    <!-- Generator: Sketch 3.3.2 (12043) - http://www.bohemiancoding.com/sketch -->
    <title>Group</title>
    <desc>Created with Sketch.</desc>
    <defs></defs>
    <g id="Page-1" stroke="none" stroke-width="1" fill="none" fill-rule="evenodd" sketch:type="MSPage">
        <g id="H5-收益图表" sketch:type="MSArtboardGroup" transform="translate(-29.000000, -170.000000)" stroke="#FFFFFF" stroke-width="2" stroke-linecap="round" stroke-linejoin="round">
            <g id="Group" sketch:type="MSLayerGroup" transform="translate(30.000000, 171.000000)">
                <path d="M8.36922839,6.7488398 L4.02962848,6.7488398 C2.31083695,7.95035304 0,11.0911087 0,13.0567843 C0,15.7761092 1.90043479,17.562459 6.19942843,17.562459 C10.4984221,17.562459 12.3988569,15.7761092 12.3988569,13.0567843 C12.3988569,11.091409 10.0880199,7.95035304 8.36922839,6.7488398 L8.36922839,6.7488398 Z" id="Stroke-4714" sketch:type="MSShapeGroup"></path>
                <path d="M4.02962848,5.4 L8.36922839,5.4" id="Stroke-4715" sketch:type="MSShapeGroup"></path>
                <path d="M9.60911407,1.0416519 L7.1293427,1.94278683 L6.19942843,0.140516974 L5.26951417,1.94278683 L2.7897428,1.0416519 C2.7897428,1.0416519 4.3395999,2.84392177 4.3395999,4.34581332 L8.05925696,4.34581332 C8.05925696,2.84392177 9.60911407,1.0416519 9.60911407,1.0416519 L9.60911407,1.0416519 Z" id="Stroke-4716" sketch:type="MSShapeGroup"></path>
                <path d="M6.19047619,14.8590542 L6.19047619,15.4598108" id="Stroke-4717" sketch:type="MSShapeGroup"></path>
                <path d="M6.19047619,9.45224459 L6.19047619,10.0530012" id="Stroke-4718" sketch:type="MSShapeGroup"></path>
                <path d="M4.95954275,13.6575409 C4.95954275,14.321377 5.51470156,14.8590542 6.19942843,14.8590542 C6.8841553,14.8590542 7.43931412,14.321377 7.43931412,13.6575409 C7.43931412,12.9937049 6.8841553,12.4560277 6.19942843,12.4560277 C5.51470156,12.4560277 4.95954275,11.9183505 4.95954275,11.2545145 C4.95954275,10.5906784 5.51470156,10.0530012 6.19942843,10.0530012 C6.8841553,10.0530012 7.43931412,10.5906784 7.43931412,11.2545145" id="Stroke-4719" sketch:type="MSShapeGroup"></path>
            </g>
        </g>
    </g>
</svg>