<?xml version="1.0" encoding="UTF-8" standalone="no"?>
<svg width="16px" height="12px" viewBox="0 0 16 12" version="1.1" xmlns="http://www.w3.org/2000/svg" xmlns:xlink="http://www.w3.org/1999/xlink" xmlns:sketch="http://www.bohemiancoding.com/sketch/ns">
    <!-- Generator: Sketch 3.2.2 (9983) - http://www.bohemiancoding.com/sketch -->
    <title>Rectangle 87</title>
    <desc>Created with Sketch.</desc>
    <defs></defs>
    <g id="Page-1" stroke="none" stroke-width="1" fill="none" fill-rule="evenodd" sketch:type="MSPage">
        <path d="M15.0780108,11.6848222 C14.7682251,11.8843441 14.4002674,12 14.0059397,12 L1.99406028,12 C1.59948209,12 1.23167134,11.8842166 0.922099146,11.6847221 L0.922099146,11.6847221 C1.71516781,10.9624631 1.80046921,10.8847779 4.33881175,8.57307311 C5.51355141,7.50322091 5.63749695,7.39034195 6.43384594,6.66509554 L8.00079348,8.08654891 L8.00079348,8.11157235 L9.57778161,6.67568492 C9.62939249,6.72268768 9.68952684,6.7774529 9.76513716,6.84631229 C10.7648035,7.75672267 10.7648035,7.75672267 11.964403,8.84921512 C14.2751791,10.9536719 14.3603433,11.0312321 15.0780108,11.6848222 Z M15.7576796,10.951253 C15.9121535,10.6660923 16,10.3390942 16,9.9914698 L16,2.0085302 C16,1.66133587 15.912114,1.33428565 15.7574761,1.04891738 L15.7574761,1.04891738 L10.320437,5.99947847 C10.3554245,6.0313421 10.3943061,6.06675208 10.4384668,6.10696991 C11.4381331,7.01738029 11.4381331,7.01738029 12.6377327,8.10987274 C14.9552947,10.2205096 15.0341539,10.2923278 15.7576796,10.951253 Z M0.242518456,10.9510726 C0.0878839824,10.6657067 0,10.3386601 0,9.9914698 L0,2.0085302 C0,1.66082908 0.0878853258,1.33376335 0.242422735,1.04855818 L0.242422735,1.04855818 L5.68981086,5.99014559 C4.95567481,6.65873378 4.80456438,6.7963522 3.66548208,7.83373073 C1.12048604,10.151495 1.04140781,10.2235126 0.242518456,10.9510726 L0.242518456,10.9510726 Z M15.078048,0.315372773 C14.7684452,0.115820053 14.4005804,0 14.0059397,0 L1.99406028,0 C1.59974929,0 1.2318061,0.115646047 0.922028575,0.315152367 L8.01263412,6.76757821 L8.01263412,6.76890899 L15.078048,0.315372773 L15.078048,0.315372773 Z" id="Rectangle-87" fill="#FF5B54" sketch:type="MSShapeGroup"></path>
    </g>
</svg>