<?xml version="1.0" encoding="UTF-8" standalone="no"?>
<svg width="48px" height="48px" viewBox="0 0 48 48" version="1.1" xmlns="http://www.w3.org/2000/svg" xmlns:xlink="http://www.w3.org/1999/xlink" xmlns:sketch="http://www.bohemiancoding.com/sketch/ns">
    <!-- Generator: Sketch 3.4 (15575) - http://www.bohemiancoding.com/sketch -->
    <title>another_icon</title>
    <desc>Created with Sketch.</desc>
    <defs></defs>
    <g id="H5" stroke="none" stroke-width="1" fill="none" fill-rule="evenodd" sketch:type="MSPage">
        <g id="iPhone-5/5S/5C" sketch:type="MSArtboardGroup" transform="translate(-257.000000, -449.000000)">
            <g id="another_icon" sketch:type="MSLayerGroup" transform="translate(257.000000, 449.000000)">
                <g id="Oval-4" fill-opacity="0.9" fill="#FC4E4F" sketch:type="MSShapeGroup">
                    <circle cx="24" cy="24" r="24"></circle>
                </g>
                <path d="M24.0108776,2.01087763 C11.8714462,2 1.99456119,11.876885 2.00543881,24.0163164 C2.02175525,36.0959209 11.876885,45.9510507 23.9564895,45.9673671 C36.0959209,45.9836836 45.9728059,36.1013597 45.9619283,23.9619283 C45.9456119,11.8877627 36.0904821,2.02719407 24.0108776,2.01087763 L24.0108776,2.01087763 Z M44.4880099,29.7597033 C44.5478368,30.6353523 44.6076638,31.5327565 44.2595797,32.3866502 C43.900618,33.2405439 43.2262052,33.8279357 42.5735476,34.3935723 C42.1166873,34.7906057 41.6815822,35.160445 41.3933251,35.6009889 C41.0996292,36.0415328 40.9147095,36.5854141 40.7189122,37.1673671 C40.4415328,37.9995056 40.1532756,38.8533993 39.5060569,39.5060569 C38.8479604,40.1587145 37.9995056,40.4415328 37.1782447,40.7134734 C36.6017305,40.9038319 36.063288,41.0833127 35.6227441,41.3770087 C35.1822002,41.6707046 34.8069221,42.1058096 34.4044499,42.5681088 C33.8279357,43.2262052 33.2351051,43.9114957 32.3866502,44.2650185 C31.9297899,44.4499382 31.4239802,44.5369592 30.7985167,44.5369592 C30.4558714,44.5369592 30.1077874,44.5097651 29.7760198,44.4880099 C29.449691,44.4662546 29.1396786,44.4390606 28.8351051,44.4390606 C28.546848,44.4390606 28.3075402,44.4608158 28.0899876,44.5043263 C27.5733004,44.6076638 27.0566131,44.863288 26.507293,45.1406675 C25.7241038,45.5322621 24.9137206,45.9347342 23.9945612,45.9401731 L23.9945612,45.9401731 L23.9945612,45.9401731 C23.0699629,45.9347342 22.2758962,45.5377009 21.5035847,45.1461063 C20.9651422,44.8741656 20.4538937,44.6185414 19.9372064,44.515204 C19.7196539,44.4716934 19.4694685,44.4499382 19.1703337,44.4499382 C18.8657602,44.4499382 18.5557478,44.4716934 18.229419,44.4934487 C17.8976514,44.515204 17.5550062,44.542398 17.2123609,44.542398 C16.570581,44.542398 16.0593325,44.455377 15.6024722,44.2704574 C14.7485785,43.9114957 14.1611867,43.2370828 13.5955501,42.5844252 C13.1985167,42.1275649 12.8286774,41.6924598 12.3881335,41.4042027 C11.9475896,41.1105068 11.3982695,40.9255871 10.8217553,40.7297899 C9.99505562,40.4524104 9.13572311,40.1641533 8.48306551,39.5169345 C7.83040791,38.8588381 7.54758962,38.0103832 7.27564895,37.1891224 C7.08529048,36.6126082 6.90580964,36.0741656 6.61211372,35.6336218 C6.3184178,35.1930779 5.88331273,34.8123609 5.4210136,34.4098888 C4.76291718,33.8333745 4.0776267,33.2405439 3.72410383,32.392089 C3.37058096,31.5327565 3.43584672,30.6407911 3.50111248,29.7814586 C3.54462299,29.1777503 3.5881335,28.6066749 3.48479604,28.0899876 C3.38145859,27.5733004 3.12583436,27.0566131 2.84845488,26.507293 C2.45686032,25.7241038 2.05438813,24.9137206 2.05438813,23.9945612 C2.05982695,23.0645241 2.45686032,22.2704574 2.84845488,21.4981459 C3.12039555,20.9597033 3.37601978,20.4484549 3.47935723,19.9317676 C3.58269468,19.4150803 3.54462299,18.8385661 3.50111248,18.2239802 C3.44128554,17.3483313 3.37601978,16.4509271 3.72954265,15.5970334 C4.08850433,14.7431397 4.76291718,14.1557478 5.41557478,13.5901112 C5.87243511,13.1930779 6.30754017,12.8232386 6.59579728,12.3826947 C6.8894932,11.9421508 7.07441286,11.3982695 7.27021014,10.8163164 C7.54758962,9.984178 7.83584672,9.1302843 8.48306551,8.4776267 C9.14116193,7.8249691 9.98961681,7.5421508 10.8108776,7.27021014 C11.3873918,7.07985167 11.9258344,6.90037083 12.3663782,6.60667491 C12.8069221,6.31297899 13.1876391,5.87787392 13.5901112,5.41557478 C14.1666255,4.75747837 14.7594561,4.07218789 15.607911,3.71866502 C16.0647713,3.53374536 16.570581,3.44672435 17.1960445,3.44672435 C17.5386897,3.44672435 17.8867738,3.47391842 18.2185414,3.49567367 C18.5448702,3.51742892 18.8603214,3.54462299 19.1594561,3.54462299 C19.4477132,3.54462299 19.687021,3.52286774 19.9045735,3.47935723 C20.4212608,3.37601978 20.9379481,3.12039555 21.4872682,2.84301607 C22.2704574,2.45142151 23.0808405,2.04894932 24,2.04894932 C24.9300371,2.05438813 25.7241038,2.45142151 26.4964153,2.84301607 C27.0348578,3.11495674 27.5461063,3.37058096 28.0627936,3.47391842 C28.2803461,3.51742892 28.5305315,3.53918418 28.8242274,3.53918418 C29.128801,3.53918418 29.4388133,3.51742892 29.7651422,3.49567367 C30.0969098,3.47391842 30.439555,3.44672435 30.7822002,3.44672435 C31.4239802,3.44672435 31.9352287,3.53374536 32.392089,3.71866502 C33.2459827,4.0776267 33.8333745,4.75203956 34.3990111,5.40469716 C34.7960445,5.86155748 35.1658838,6.29666255 35.6064277,6.58491965 C36.0469716,6.87861557 36.5908529,7.06353523 37.1728059,7.25933251 C38.0049444,7.53671199 38.8588381,7.8249691 39.5114957,8.47218789 C40.1641533,9.1302843 40.4469716,9.97873918 40.7189122,10.8 C40.9092707,11.3765142 41.0887515,11.9149567 41.3824475,12.3555006 C41.6761434,12.7960445 42.1112485,13.1713226 42.5735476,13.5792336 C43.231644,14.1557478 43.9169345,14.7485785 44.2704574,15.5970334 C44.6239802,16.4563659 44.5587145,17.3483313 44.4934487,18.2076638 C44.4499382,18.8113721 44.4064277,19.3824475 44.5097651,19.8991347 C44.6131026,20.415822 44.8687268,20.9325093 45.1461063,21.4818294 C45.5377009,22.2650185 45.9401731,23.0754017 45.9401731,23.9945612 C45.9347342,24.9245983 45.5377009,25.718665 45.1461063,26.4909765 C44.8741656,27.029419 44.6185414,27.5406675 44.515204,28.0573548 C44.4064277,28.5686032 44.4444994,29.1451174 44.4880099,29.7597033 L44.4880099,29.7597033 Z" id="Shape" fill="#FFFFFF" sketch:type="MSShapeGroup"></path>
                <g id="分会场-+-&gt;&gt;" transform="translate(6.000000, 13.000000)" font-weight="normal" font-family="PingFang SC" fill="#FFFFFF" sketch:type="MSTextLayer">
                    <text id="分会场" font-size="12" line-spacing="8">
                        <tspan x="0" y="13">分会场</tspan>
                    </text>
                    <text id="&gt;&gt;" font-size="10">
                        <tspan x="12" y="23">&gt;&gt;</tspan>
                    </text>
                </g>
            </g>
        </g>
    </g>
</svg>