<?xml version="1.0" encoding="UTF-8" standalone="no"?>
<svg width="28px" height="27px" viewBox="0 0 28 27" version="1.1" xmlns="http://www.w3.org/2000/svg" xmlns:xlink="http://www.w3.org/1999/xlink" xmlns:sketch="http://www.bohemiancoding.com/sketch/ns">
    <!-- Generator: Sketch 3.4 (15575) - http://www.bohemiancoding.com/sketch -->
    <title>icon-welfare4</title>
    <desc>Created with Sketch.</desc>
    <defs></defs>
    <g id="福利社" stroke="none" stroke-width="1" fill="none" fill-rule="evenodd" sketch:type="MSPage">
        <g id="福利社1111" sketch:type="MSArtboardGroup" transform="translate(-43.000000, -446.000000)" fill="#5AA1DD">
            <g id="icon-welfare4" sketch:type="MSLayerGroup" transform="translate(43.000000, 446.000000)">
                <path d="M25.2021538,21.6940469 C24.4046154,22.7908504 22.1492308,22.4669208 21.0532308,23.265044 C19.968,24.0554692 19.5833846,26.306349 18.2796923,26.7297361 C17.0218462,27.138651 15.3941538,25.5571848 14,25.5571848 C12.6058462,25.5571848 10.9781538,27.138651 9.72030769,26.7297361 C8.41661538,26.3060411 8.032,24.0551613 6.94676923,23.2647361 C5.85076923,22.4666129 3.59538462,22.7905425 2.79784615,21.693739 C2.008,20.6077126 3.00738462,18.5652933 2.58430769,17.2606452 C2.17569231,16.0018768 0.153846154,14.943563 0.153846154,13.5483871 C0.153846154,12.1532111 2.17569231,11.0948974 2.584,9.83612903 C3.00738462,8.53148094 2.008,6.48875367 2.79784615,5.40272727 C3.59538462,4.30592375 5.85076923,4.62985337 6.94676923,3.83173021 C8.032,3.04130499 8.41661538,0.79042522 9.72030769,0.367038123 C10.9781538,-0.0418768328 12.6058462,1.53958944 14,1.53958944 C15.3941538,1.53958944 17.0218462,-0.0418768328 18.2796923,0.367038123 C19.5833846,0.790733138 19.968,3.0416129 21.0532308,3.83203812 C22.1492308,4.63016129 24.4046154,4.30623167 25.2021538,5.40303519 C25.992,6.48906158 24.9926154,8.53148094 25.4156923,9.83612903 C25.8243077,11.0948974 27.8461538,12.1532111 27.8461538,13.5483871 C27.8461538,14.943563 25.8243077,16.0018768 25.416,17.2606452 C24.9926154,18.5652933 25.992,20.6080205 25.2021538,21.6940469 L25.2021538,21.6940469 Z M20.8196923,9.70002933 C20.5793846,9.45954545 20.1898462,9.45954545 19.9495385,9.70002933 L13.3590769,16.2956305 L9.15292308,12.0867009 C8.91261538,11.846217 8.52307692,11.846217 8.28276923,12.0867009 C8.04246154,12.3271848 8.04246154,12.7170088 8.28276923,12.9574927 L13.3590769,18.037522 L20.8196923,10.571129 C21.06,10.3306452 21.06,9.9405132 20.8196923,9.70002933 L20.8196923,9.70002933 Z" id="Shape" sketch:type="MSShapeGroup"></path>
            </g>
        </g>
    </g>
</svg>