<?xml version="1.0" encoding="UTF-8" standalone="no"?>
<svg width="16px" height="12px" viewBox="0 0 16 12" version="1.1" xmlns="http://www.w3.org/2000/svg" xmlns:xlink="http://www.w3.org/1999/xlink" xmlns:sketch="http://www.bohemiancoding.com/sketch/ns">
    <!-- Generator: Sketch 3.3.3 (12072) - http://www.bohemiancoding.com/sketch -->
    <title>icon_upload</title>
    <desc>Created with Sketch.</desc>
    <defs></defs>
    <g id="申请返回税金" stroke="none" stroke-width="1" fill="none" fill-rule="evenodd" sketch:type="MSPage">
        <g id="申请-H5-未填写" sketch:type="MSArtboardGroup" transform="translate(-163.000000, -240.000000)" fill="#000000">
            <g id="icon_upload" sketch:type="MSLayerGroup" transform="translate(163.000000, 240.000000)">
                <g id="Group" sketch:type="MSShapeGroup">
                    <path d="M11.9674066,2.88042383 C11.4405001,2.88042383 10.8581298,3.01908343 10.3034914,3.2409388 C9.44380187,1.41063204 7.8630824,0.384550977 5.86638411,0.384550977 C2.87133669,0.384550977 0.32,2.93588767 0.32,5.93093509 C0.32,8.73185907 2.2057706,10.867217 4.92349881,11.1722681 C5.22854994,11.2 5.50586915,10.9781446 5.53360107,10.6730935 C5.56133299,10.3680424 5.33947762,10.0907232 5.0344265,10.0629913 C2.89906861,9.84113589 1.42927682,8.12175682 1.42927682,5.93093509 C1.42927682,3.57372184 3.50917087,1.4938278 5.86638411,1.4938278 C7.58576319,1.4938278 8.88916346,2.4367131 9.49926571,4.1838241 C9.55472955,4.35021562 9.66565723,4.4611433 9.83204876,4.51660714 C9.99844028,4.57207098 10.1648318,4.54433906 10.3034914,4.4611433 C10.802666,4.15609218 11.4405001,3.98970065 11.9674066,3.98970065 C13.3540027,3.98970065 14.7405987,5.04351363 14.7405987,7.04021191 C14.7405987,8.73185907 13.3817346,10.0907232 11.6900874,10.0907232 L11.0245213,10.0907232 C10.7194702,10.0907232 10.4698829,10.3403105 10.4698829,10.6453616 C10.4698829,10.9504127 10.7194702,11.2 11.0245213,11.2 L11.6900874,11.2 C13.9918368,11.2 15.8498755,9.34196132 15.8498755,7.04021191 C15.8498755,5.01578171 14.4910114,2.88042383 11.9674066,2.88042383 L11.9674066,2.88042383 Z" id="Shape"></path>
                    <path d="M10.4144191,7.20660344 L8.47318465,5.265369 C8.36225697,5.15444132 8.19586544,5.09897747 8.02947392,5.09897747 L7.97401008,5.09897747 C7.72442279,5.09897747 7.50256743,5.265369 7.44710359,5.51495628 L5.75545643,7.20660344 C5.53360107,7.4284588 5.53360107,7.76124185 5.75545643,7.98309721 C5.9773118,8.20495258 6.31009484,8.20495258 6.53195021,7.98309721 L7.41937167,7.09567576 L7.41937167,10.6453616 C7.41937167,10.9504127 7.66895895,11.2 7.97401008,11.2 C8.2790612,11.2 8.52864849,10.9504127 8.52864849,10.6453616 L8.52864849,6.87382039 L9.63792531,7.98309721 C9.74885299,8.0940249 9.8875126,8.14948874 10.0261722,8.14948874 C10.1648318,8.14948874 10.3034914,8.0940249 10.4144191,7.98309721 C10.6362745,7.76124185 10.6362745,7.4284588 10.4144191,7.20660344 L10.4144191,7.20660344 Z" id="Shape"></path>
                </g>
            </g>
        </g>
    </g>
</svg>