<svg xmlns="http://www.w3.org/2000/svg" xmlns:xlink="http://www.w3.org/1999/xlink" width="0" height="0" style="position:absolute">

<symbol id="icon-icon1" viewBox="0 0 54 50">
        <title>Group 11</title><g fill-rule="evenodd"><path d="M21.39 49.722c-1.205 0-2.41-.463-3.334-1.39L2.222 32.408c-.833-.833-1.39-2.037-1.39-3.333 0-1.204.464-2.407 1.39-3.333L20.37 7.686c.278-.278.926-.648 2.686-1.018 4.444-.926 13.98-1.945 19.35-2.5 1.205-.093 2.13.185 2.78.926.647.648.925 1.574.833 2.685-1.483 20.926-2.594 21.944-3.057 22.407l-18.24 18.148c-.834.834-2.038 1.39-3.334 1.39zM42.777 6.02H42.5c-4.26.37-14.63 1.48-19.074 2.406-1.482.278-1.76.463-1.76.555L3.52 27.13c-1.113 1.11-1.113 2.87 0 3.98l15.924 15.927c1.02 1.02 2.963 1.02 3.982 0L41.574 28.89c.463-.742 1.482-6.76 2.5-21.205 0-.37 0-.926-.278-1.296-.277-.186-.648-.37-1.018-.37z"/><path d="M38.148 16.39c-1.018 0-2.037-.37-2.778-1.112-.74-.74-1.11-1.76-1.11-2.778 0-1.02.37-2.037 1.11-2.778.74-.74 1.76-1.11 2.778-1.11 1.02 0 2.037.37 2.778 1.11.74.74 1.11 1.76 1.11 2.778 0 1.02-.37 2.037-1.11 2.778-.74.648-1.76 1.11-2.778 1.11zm0-6.02c-.555 0-1.11.186-1.48.65-.372.37-.65.924-.65 1.48 0 .556.186 1.11.65 1.48.832.742 2.128.835 2.962 0 .37-.37.648-.924.648-1.48 0-.556-.185-1.11-.648-1.48-.463-.464-.926-.65-1.482-.65z"/><path d="M44.63 17.407c-1.482 0-2.963-.37-4.26-1.203-1.203-.74-2.13-1.667-2.87-2.87-.278-.464-.093-1.02.37-1.297.463-.278 1.02-.093 1.297.37.555.926 1.296 1.667 2.222 2.223 1.48.926 3.147 1.11 4.814.74 1.666-.37 3.055-1.39 3.98-2.87.927-1.48 1.112-3.148.742-4.815-.37-1.666-1.39-3.055-2.87-3.98-1.667-1.02-3.704-1.205-5.556-.557-.463.185-1.02-.092-1.204-.555-.185-.463.093-1.02.556-1.204 2.407-.927 5-.65 7.222.647 1.852 1.11 3.24 2.963 3.704 5.093.555 2.13.185 4.35-.926 6.203-1.11 1.852-2.963 3.24-5.093 3.704-.834.278-1.482.37-2.13.37zM20.74 25.278c-2.13 0-3.888-1.482-4.26-3.61-.184-1.112.094-2.316.742-3.242.648-.926 1.667-1.574 2.778-1.76 2.407-.37 4.537 1.204 4.907 3.52.186 1.11-.092 2.314-.74 3.24-.648.926-1.667 1.574-2.778 1.76-.186.092-.464.092-.65.092zm0-6.76h-.37c-.648.093-1.203.463-1.574 1.02-.37.555-.555 1.203-.463 1.85.186 1.297 1.482 2.223 2.778 2.038.65-.093 1.205-.463 1.575-1.02.37-.554.556-1.202.463-1.85-.185-1.204-1.204-2.037-2.407-2.037zM22.963 39.167c-2.13 0-3.89-1.482-4.26-3.61-.37-2.316 1.204-4.538 3.52-4.91 2.407-.37 4.536 1.205 4.907 3.52.37 2.314-1.204 4.537-3.52 4.907-.184.093-.37.093-.647.093zm0-6.76h-.37c-1.297.186-2.223 1.482-2.037 2.778.185 1.296 1.48 2.222 2.777 2.037 1.297-.185 2.223-1.48 2.037-2.778-.185-1.203-1.203-2.037-2.407-2.037zM13.056 33.89c-.278 0-.65-.186-.834-.464-.278-.463-.092-1.02.37-1.296L30.28 21.76c.463-.28 1.018-.093 1.296.37.278.463.093 1.018-.37 1.296L13.52 33.796c-.187.093-.372.093-.464.093z"/></g>
</symbol>

<symbol id="icon-icon2" viewBox="0 0 51 49">
        <title>Group 13 Copy</title><g fill-rule="evenodd"><path d="M26.814 48.748c-12.564 0-23.128-9.817-24.05-22.35l1.72-.127c.855 11.64 10.664 20.754 22.33 20.754 12.358 0 22.413-10.055 22.413-22.414 0-12.358-10.055-22.413-22.413-22.413V.472c13.31 0 24.138 10.828 24.138 24.138 0 13.31-10.83 24.138-24.138 24.138z"/><path d="M7.417 26.538H.305l3.445-8.63.11.037"/><ellipse cx="26.095" cy="24.181" rx="2.586" ry="2.586"/><path d="M25.233 9.895h1.724V24.13h-1.724z"/><path d="M25.424 23.364l1.16 1.276-7.968 7.23-1.16-1.275z"/><ellipse cx="26.012" cy="42.069" rx="1.436" ry="1.436"/><ellipse cx="44.365" cy="24.324" rx="1.436" ry="1.436"/><ellipse cx="41.933" cy="33.303" rx="1.436" ry="1.436"/><ellipse cx="35.188" cy="39.859" rx="1.436" ry="1.436"/><path d="M17.482 2.99l-5.43 7.794-3.83-3.14c-.416-.34-1.026-.283-1.366.134-.34.417-.28 1.028.136 1.367l4.644 3.81c.174.146.388.224.61.224.05 0 .088 0 .136-.01.272-.04.505-.185.66-.408l6.02-8.658c.31-.436.194-1.047-.242-1.348-.427-.32-1.037-.213-1.338.233z"/></g>
</symbol>

<symbol id="icon-icon3" viewBox="0 0 53 38">
        <title>Group 14 Copy 3</title><g transform="translate(-1)" fill-rule="evenodd"><path d="M47.072 11.364c-.246-.077-6.11-1.835-12.402-1.343-2.117.17-4.686.484-7.406.817-5.197.64-11.088 1.358-14.925 1.15-5.807-.325-10.397-.813-10.443-.817-.426-.05-.797.26-.842.68-.004.036-.005.07-.004.106v22.932c0 .336.22.633.542.73.216.068 4.75 1.43 10.107 1.43.75 0 1.52-.027 2.293-.087 2.116-.167 4.685-.48 7.404-.815 5.198-.638 11.09-1.358 14.926-1.148 5.807.323 10.398.81 10.444.815.212.02.43-.07.593-.214.16-.145.253-.374.253-.592v-22.91c0-.337-.22-.634-.54-.732zM36.41 33.468c-3.975-.225-9.938.51-15.198 1.156-2.703.333-5.254.646-7.338.81-4.927.39-9.715-.715-11.292-1.13V12.778c1.598.156 5.292.493 9.672.737 3.977.22 9.936-.512 15.196-1.158 2.704-.332 5.257-.645 7.34-.81 4.93-.39 9.717.717 11.293 1.13v21.528c-1.598-.156-5.293-.493-9.674-.736z"/><path d="M50.163 6.504c-.246-.076-6.102-1.842-12.4-1.34-2.117.167-4.685.48-7.404.815-5.2.636-11.093 1.355-14.928 1.147-5.805-.323-10.395-.81-10.44-.815-.427-.045-.8.26-.844.68-.045.42.26.797.68.842.047.005 4.672.497 10.518.82 3.975.227 9.938-.51 15.198-1.155 2.703-.333 5.255-.646 7.34-.81 4.928-.39 9.713.713 11.29 1.128v22.328c0 .424.342.766.765.766.42 0 .764-.342.764-.766V7.236c0-.337-.22-.634-.54-.732z"/><path d="M53.257 1.626c-.245-.077-6.105-1.834-12.4-1.34-2.117.166-4.685.48-7.405.815-5.197.638-11.086 1.36-14.925 1.148-5.806-.322-10.395-.812-10.44-.815-.418-.046-.8.258-.845.68-.045.42.26.797.68.842.047.005 4.672.497 10.52.822 3.97.226 9.934-.51 15.196-1.157 2.702-.332 5.255-.645 7.34-.81 4.93-.39 9.712.715 11.29 1.13v22.327c0 .423.343.765.765.765s.765-.342.765-.765V2.357c0-.336-.22-.634-.54-.73zM9.76 32.68l-4.77-.49c-.423-.04-.797.264-.84.684-.045.42.262.797.682.84l4.773.49c.027.003.052.005.08.005.387 0 .72-.294.76-.688.042-.42-.263-.797-.684-.84z"/><path d="M38.828 14.157l4.774.49c.026.003.052.005.08.005.387 0 .718-.294.76-.687.042-.42-.264-.797-.685-.84l-4.772-.49c-.42-.034-.797.262-.84.683-.044.42.264.796.683.84zM27.172 18.545l-2.867 3.697-2.868-3.697c-.258-.335-.74-.395-1.073-.136-.334.258-.395.74-.136 1.073l3.312 4.27v.585h-1.996c-.423 0-.766.342-.766.765 0 .424.343.766.766.766h1.996v.608h-1.996c-.423 0-.766.342-.766.765s.343.765.766.765h1.995v2.535c0 .423.342.765.764.765.423 0 .765-.342.765-.765v-2.535h1.995c.423 0 .765-.342.765-.765s-.342-.765-.765-.765H25.07v-.61h1.995c.423 0 .765-.34.765-.765 0-.423-.342-.765-.765-.765H25.07v-.585l3.31-4.27c.26-.335.2-.815-.135-1.074-.332-.26-.815-.2-1.073.135z"/></g>
</symbol>

<symbol id="icon-icon4" viewBox="0 0 45 50">
        <title>Group 15 Copy 3</title><path d="M44.483 27.067c0-2.057-1.423-3.75-3.345-4.21v-.846c0-1.94-1.288-3.575-3.095-4.036 0-.173.04-.346.04-.538 0-1.942-.328-3.884-1-5.787 0-.04-.29-.79-.29-.808-.557-1.365-1.287-2.672-2.19-3.864C31.275 2.558 26.2 0 20.682 0 15.187.02 9.978 2.653 6.69 7.074c-.865 1.173-1.577 2.442-2.134 3.787-.058.078-.115.155-.135.232-.768 2-1.17 4.114-1.17 6.324 0 .173-.04.366-.02.54C1.403 18.395 0 20.05 0 22.01v10.112c0 2.307 1.922 4.172 4.23 4.172 2.306 0 4.228-1.865 4.228-4.172v-10.13c0-1.98-1.403-3.653-3.268-4.076 0-.173-.02-.346-.02-.52 0-1.652.25-3.248.75-4.766l3.615 1.326c.115.04.23.058.327.058.384 0 .75-.23.903-.635 1.596-4.287 5.73-7.152 10.285-7.152 4.556 0 8.69 2.865 10.284 7.15.192.5.73.75 1.23.56l2.922-1.078c.462 1.5.712 3.038.712 4.556 0 .154 0 .327-.02.5-1.883.404-3.306 2.076-3.306 4.076v10.13c0 2.307 1.826 4.172 4.133 4.172s4.133-1.865 4.133-4.172v-.46c.192 1.767.192 4.882-1.73 7.592-2.153 3.076-6.075 4.94-11.726 5.536-.52-1.614-2.02-2.787-3.807-2.787-2.21 0-3.998 1.788-3.998 4 0 2.21 1.788 3.997 3.998 3.997 1.96 0 3.595-1.423 3.94-3.287 6.287-.654 10.728-2.788 13.227-6.363 2.71-3.902 2.23-8.285 1.922-9.958.942-.807 1.52-1.98 1.52-3.325zM6.536 22.01v10.112c0 1.25-1.057 2.25-2.307 2.25S1.92 33.35 1.92 32.12v-10.13c0-1.135.885-2.077 1.98-2.23.096.02.212.038.308.038s.23-.02.327-.058c1.115.154 2 1.115 2 2.27zm26.22-10.168c-2.075-4.518-6.67-7.517-11.706-7.517-5.037 0-9.63 2.98-11.727 7.517l-2.672-.98c.443-.924.962-1.827 1.578-2.654 2.922-3.92 7.574-6.266 12.456-6.266 4.922 0 9.44 2.268 12.38 6.21.692.92 1.27 1.902 1.73 2.94l-2.037.75zm6.46 20.28c0 1.25-.96 2.25-2.21 2.25s-2.212-1-2.212-2.25v-10.13c0-1.154.885-2.115 2-2.23.096.038.192.057.307.057.097 0 .136-.02.232-.04 1.096.155 1.884 1.097 1.884 2.23v10.112zm-15.32 15.956c-1.155 0-2.077-.923-2.077-2.076 0-1.154.92-2.077 2.075-2.077 1.153 0 2.076.923 2.076 2.077 0 1.153-.922 2.076-2.075 2.076zm17.242-18.82v-4.364c.96.385 1.365 1.21 1.365 2.192 0 .98-.404 1.768-1.365 2.172z" fill-rule="evenodd"/>
</symbol>

<symbol id="icon-rock" viewBox="0 0 14 25">
        <title>Group 3</title><g transform="rotate(-45 13.328 15.742)" fill="#F13C34" fill-rule="evenodd"><path d="M4.12 15.976s-.192-1.277 0-2.29c-.433.05-.843.242-1.156.58-.795.794-.434 3.324-.434 3.324s2.53.362 3.325-.433c.338-.338.506-.747.58-1.157-1.037.17-2.315-.024-2.315-.024z"/><path d="M13.398 14.843c.216-.482.168-1.012-.05-1.47C20.844 6.483 19.88.24 19.88.24S13.64-.746 6.747 6.77c-.458-.216-.988-.24-1.47-.047C4.36 7.108-.17 10.24.072 10.867c.145.338 2.097.145 3.856-.168-.265.914.65 2.216 1.952 3.54 1.3 1.302 2.602 2.218 3.542 1.953-.314 1.76-.506 3.71-.17 3.855.628.24 3.76-4.29 4.146-5.205zm-.145-7.976c-.602-.602-.602-1.542 0-2.144.602-.603 1.542-.603 2.145 0 .602.602.602 1.542 0 2.144-.603.58-1.567.603-2.145 0z"/></g>
</symbol>
</svg>