<?xml version="1.0" encoding="UTF-8" standalone="no"?>
<svg width="14px" height="19px" viewBox="0 0 14 19" version="1.1" xmlns="http://www.w3.org/2000/svg" xmlns:xlink="http://www.w3.org/1999/xlink" xmlns:sketch="http://www.bohemiancoding.com/sketch/ns">
    <!-- Generator: Sketch 3.4.4 (17249) - http://www.bohemiancoding.com/sketch -->
    <title>分享 copy</title>
    <desc>Created with Sketch.</desc>
    <defs>
        <path id="path-1" d="M0,0.000387755102 L13.7122222,0.000387755102 L13.7122222,19 L0,19"></path>
        <path id="path-3" d="M0,0.000387755102 L13.7122222,0.000387755102 L13.7122222,19 L0,19"></path>
    </defs>
    <g id="Page-1" stroke="none" stroke-width="1" fill="none" fill-rule="evenodd" sketch:type="MSPage">
        <g id="iPhone-6-Copy" sketch:type="MSArtboardGroup" transform="translate(-270.000000, -710.000000)">
            <g id="分享-copy" sketch:type="MSLayerGroup" transform="translate(270.000000, 710.000000)">
                <g id="Group-3">
                    <mask id="mask-2" sketch:name="Clip 2" fill="white">
                        <use xlink:href="#path-1"></use>
                    </mask>
                    <g id="Clip-2"></g>
                    <path d="M4.44943333,3.33570204 L6.46698889,1.32364082 L6.46698889,11.4971714 C6.46698889,11.7116 6.64121111,11.8849265 6.85587778,11.8849265 C7.07093333,11.8849265 7.24476667,11.7116 7.24476667,11.4971714 L7.24476667,1.32364082 L9.26271111,3.33570204 C9.33854444,3.41131429 9.4381,3.44931429 9.53765556,3.44931429 C9.63721111,3.44931429 9.73676667,3.41131429 9.8126,3.33570204 C9.96465556,3.1840898 9.96465556,2.93902857 9.8126,2.78741633 L7.1316,0.114232653 C7.09543333,0.0781714286 7.05226667,0.049477551 7.00443333,0.0297020408 C6.90954444,-0.00946122449 6.8026,-0.00946122449 6.70771111,0.0297020408 C6.65987778,0.049477551 6.61671111,0.0781714286 6.58054444,0.114232653 L3.89954444,2.78741633 C3.74748889,2.93902857 3.74748889,3.1840898 3.89954444,3.33570204 C4.0516,3.48731429 4.29737778,3.48731429 4.44943333,3.33570204" id="Fill-1" fill="#E73736" sketch:type="MSShapeGroup" mask="url(#mask-2)"></path>
                </g>
                <g id="Group-6">
                    <mask id="mask-4" sketch:name="Clip 5" fill="white">
                        <use xlink:href="#path-3"></use>
                    </mask>
                    <g id="Clip-5"></g>
                    <path d="M13.3232167,5.32822041 L9.14888333,5.32822041 C8.93382778,5.32822041 8.75999444,5.50154694 8.75999444,5.71597551 C8.75999444,5.93040408 8.93382778,6.10373061 9.14888333,6.10373061 L12.9343278,6.10373061 L12.9343278,18.2245673 L0.777661111,18.2245673 L0.777661111,6.10373061 L4.56349444,6.10373061 C4.77816111,6.10373061 4.95238333,5.93040408 4.95238333,5.71597551 C4.95238333,5.50154694 4.77816111,5.32822041 4.56349444,5.32822041 L0.388772222,5.32822041 C0.174105556,5.32822041 -0.000116666667,5.50154694 -0.000116666667,5.71597551 L-0.000116666667,18.6123224 C-0.000116666667,18.826751 0.174105556,19.0000776 0.388772222,19.0000776 L13.3232167,19.0000776 C13.5382722,19.0000776 13.7121056,18.826751 13.7121056,18.6123224 L13.7121056,5.71597551 C13.7121056,5.50154694 13.5382722,5.32822041 13.3232167,5.32822041" id="Fill-4" fill="#E73736" sketch:type="MSShapeGroup" mask="url(#mask-4)"></path>
                </g>
            </g>
        </g>
    </g>
</svg>