<svg xmlns="http://www.w3.org/2000/svg" xmlns:xlink="http://www.w3.org/1999/xlink" width="0" height="0" style="position:absolute">

<symbol id="icon-message" viewBox="0 0 56.693 56.693">
        <path d="M40.934 22.738c0-7.624-5.71-13.826-12.73-13.826H16.33c-7.02 0-12.73 6.203-12.73 13.826 0 6.404 4.02 11.91 9.67 13.42v8.387c0 .393.23.75.587.91.133.06.272.09.412.09.237 0 .474-.085.66-.25l9.912-8.73h3.362c7.02 0 12.73-6.203 12.73-13.827zm-16.47 11.826c-.244 0-.48.09-.662.25l-8.534 7.518v-6.97c0-.48-.34-.89-.81-.982C9.326 33.385 5.6 28.49 5.6 22.738c0-6.52 4.813-11.826 10.73-11.826h11.873c5.917 0 10.73 5.305 10.73 11.826s-4.813 11.826-10.73 11.826h-3.74z"/><path d="M43.84 23.73c-.553 0-1 .448-1 1s.447 1 1 1c4.035 0 7.317 3.63 7.317 8.094 0 4.398-3.113 7.95-7.087 8.088-.54.02-.966.46-.966 1v3.22l-3.738-3.905c-.19-.197-.45-.31-.723-.31H35.42c-2.318 0-4.448-1.178-5.845-3.233-.31-.457-.933-.576-1.39-.265-.456.31-.575.93-.265 1.388 1.748 2.574 4.552 4.11 7.5 4.11h2.795l5.165 5.394c.192.2.455.31.723.31.125 0 .252-.024.373-.073.38-.153.627-.52.627-.93v-4.795c4.587-.665 8.053-4.873 8.053-10 .002-5.567-4.178-10.095-9.316-10.095zM32.128 19.726c0-.552-.447-1-1-1h-17.83c-.553 0-1 .448-1 1s.447 1 1 1h17.83c.552 0 1-.448 1-1zM22.05 25.07h-8.752c-.553 0-1 .448-1 1s.447 1 1 1h8.752c.553 0 1-.448 1-1s-.447-1-1-1z"/>
</symbol>
</svg>