<?xml version="1.0" encoding="UTF-8" standalone="no"?>
<svg width="18px" height="20px" viewBox="0 0 18 20" version="1.1" xmlns="http://www.w3.org/2000/svg" xmlns:xlink="http://www.w3.org/1999/xlink" xmlns:sketch="http://www.bohemiancoding.com/sketch/ns">
    <!-- Generator: Sketch 3.5.2 (25235) - http://www.bohemiancoding.com/sketch -->
    <title>Shape</title>
    <desc>Created with Sketch.</desc>
    <defs></defs>
    <g id="Native" stroke="none" stroke-width="1" fill="none" fill-rule="evenodd" sketch:type="MSPage">
        <g id="模块1" sketch:type="MSArtboardGroup" transform="translate(-284.000000, -1956.000000)" fill="#FF5B54">
            <g id="btn-backtop" sketch:type="MSLayerGroup" transform="translate(274.000000, 1946.000000)">
                <path d="M18.8106284,10.0024151 C19.105135,10.0207758 19.3943266,10.1437771 19.6201913,10.3696418 L27.5341859,18.2836364 C27.8270792,18.5765297 27.8270792,19.0514034 27.5341859,19.3442966 C27.2412927,19.6371898 26.766419,19.6371898 26.4735258,19.3442966 L19.5,12.3707708 L19.5,23.1563701 C19.5,23.5705837 19.1642136,23.9063701 18.75,23.9063701 C18.3357864,23.9063701 18,23.5705837 18,23.1563701 L18,12.3398488 L11.2803301,19.0595187 C10.9874369,19.3524119 10.5125631,19.3524119 10.2196699,19.0595187 C9.9267767,18.7666255 9.9267767,18.2917518 10.2196699,17.9988585 L17.8508207,10.3677077 C18.0991442,10.1193842 18.4213603,9.99759184 18.7425677,10.0000361 C18.7450423,10.000012 18.7475197,10 18.75,10 C18.7704102,10 18.7906299,10.0008153 18.8106284,10.0024151 Z M18.75,26.5 C19.1642136,26.5 19.5,26.1642136 19.5,25.75 C19.5,25.3357864 19.1642136,25 18.75,25 C18.3357864,25 18,25.3357864 18,25.75 C18,26.1642136 18.3357864,26.5 18.75,26.5 Z M18.75,29.0936299 C19.1642136,29.0936299 19.5,28.7578434 19.5,28.3436299 C19.5,27.9294163 19.1642136,27.5936299 18.75,27.5936299 C18.3357864,27.5936299 18,27.9294163 18,28.3436299 C18,28.7578434 18.3357864,29.0936299 18.75,29.0936299 Z" id="Shape" sketch:type="MSShapeGroup"></path>
            </g>
        </g>
    </g>
</svg>